G04 #@! TF.FileFunction,Legend,Bot*
%FSLAX46Y46*%
G04 Gerber Fmt 4.6, Leading zero omitted, Abs format (unit mm)*
G04 Created by KiCad (PCBNEW 4.0.6) date Sun Aug 12 18:17:32 2018*
%MOMM*%
%LPD*%
G01*
G04 APERTURE LIST*
%ADD10C,0.100000*%
%ADD11C,0.150000*%
%ADD12C,0.152400*%
%ADD13C,0.120000*%
%ADD14C,0.010000*%
G04 APERTURE END LIST*
D10*
D11*
X8650000Y34850000D02*
X8650000Y37900000D01*
X8650000Y24850000D02*
X8650000Y32150000D01*
X21800000Y23900000D02*
X18850000Y23900000D01*
X23350000Y32150000D02*
X23350000Y24850000D01*
X23350000Y37900000D02*
X23350000Y34850000D01*
X18000000Y37400000D02*
X20250000Y37900000D01*
X8650000Y37400000D02*
X18000000Y37400000D01*
X23350000Y37900000D02*
X8650000Y37900000D01*
D12*
X48016000Y39382000D02*
X32014000Y39382000D01*
X32014000Y39382000D02*
X32014000Y31889000D01*
X48016000Y39382000D02*
X48016000Y32016000D01*
X48016000Y16141000D02*
X48016000Y15379000D01*
X48016000Y15379000D02*
X32014000Y15379000D01*
X32014000Y15379000D02*
X32014000Y16141000D01*
X32008000Y39400000D02*
X48008000Y33600000D01*
X48008000Y39400000D02*
X32008000Y33600000D01*
X48008000Y33600000D02*
X32008000Y33600000D01*
D11*
X38914000Y8608000D02*
X41664000Y8608000D01*
X41664000Y8608000D02*
X41664000Y13508000D01*
X41664000Y13508000D02*
X38064000Y13508000D01*
X38064000Y13508000D02*
X38064000Y9608000D01*
X38064000Y9608000D02*
X38914000Y8608000D01*
X12178000Y17289000D02*
X12178000Y15511000D01*
X12178000Y15511000D02*
X8622000Y15511000D01*
X8622000Y15511000D02*
X8622000Y17289000D01*
X8622000Y17289000D02*
X12178000Y17289000D01*
X55111000Y32278000D02*
X56889000Y32278000D01*
X56889000Y32278000D02*
X56889000Y28722000D01*
X56889000Y28722000D02*
X55111000Y28722000D01*
X55111000Y28722000D02*
X55111000Y32278000D01*
X50111000Y19778000D02*
X51889000Y19778000D01*
X51889000Y19778000D02*
X51889000Y16222000D01*
X51889000Y16222000D02*
X50111000Y16222000D01*
X50111000Y16222000D02*
X50111000Y19778000D01*
X52611000Y32278000D02*
X54389000Y32278000D01*
X54389000Y32278000D02*
X54389000Y28722000D01*
X54389000Y28722000D02*
X52611000Y28722000D01*
X52611000Y28722000D02*
X52611000Y32278000D01*
X54389000Y24722000D02*
X52611000Y24722000D01*
X52611000Y24722000D02*
X52611000Y28278000D01*
X52611000Y28278000D02*
X54389000Y28278000D01*
X54389000Y28278000D02*
X54389000Y24722000D01*
X41134000Y4835000D02*
X41134000Y6613000D01*
X41134000Y6613000D02*
X44690000Y6613000D01*
X44690000Y6613000D02*
X44690000Y4835000D01*
X44690000Y4835000D02*
X41134000Y4835000D01*
X41134000Y1787000D02*
X41134000Y3565000D01*
X41134000Y3565000D02*
X44690000Y3565000D01*
X44690000Y3565000D02*
X44690000Y1787000D01*
X44690000Y1787000D02*
X41134000Y1787000D01*
X16750000Y20075000D02*
X16750000Y21853000D01*
X16750000Y21853000D02*
X20306000Y21853000D01*
X20306000Y21853000D02*
X20306000Y20075000D01*
X20306000Y20075000D02*
X16750000Y20075000D01*
X17922000Y11411000D02*
X17922000Y13189000D01*
X17922000Y13189000D02*
X21478000Y13189000D01*
X21478000Y13189000D02*
X21478000Y11411000D01*
X21478000Y11411000D02*
X17922000Y11411000D01*
X53834000Y6867000D02*
X53834000Y8645000D01*
X53834000Y8645000D02*
X57390000Y8645000D01*
X57390000Y8645000D02*
X57390000Y6867000D01*
X57390000Y6867000D02*
X53834000Y6867000D01*
X53834000Y9407000D02*
X53834000Y11185000D01*
X53834000Y11185000D02*
X57390000Y11185000D01*
X57390000Y11185000D02*
X57390000Y9407000D01*
X57390000Y9407000D02*
X53834000Y9407000D01*
X17922000Y6711000D02*
X17922000Y8489000D01*
X17922000Y8489000D02*
X21478000Y8489000D01*
X21478000Y8489000D02*
X21478000Y6711000D01*
X21478000Y6711000D02*
X17922000Y6711000D01*
D13*
X53820000Y14860000D02*
X54750000Y14860000D01*
X56980000Y14860000D02*
X56050000Y14860000D01*
X56980000Y14860000D02*
X56980000Y12700000D01*
X53820000Y14860000D02*
X53820000Y13400000D01*
D11*
X50111000Y28976000D02*
X50111000Y32024000D01*
X50111000Y32024000D02*
X51889000Y32024000D01*
X51889000Y32024000D02*
X51889000Y28976000D01*
X51889000Y28976000D02*
X50111000Y28976000D01*
X52818000Y12455000D02*
X49770000Y12455000D01*
X49770000Y12455000D02*
X49770000Y14233000D01*
X49770000Y14233000D02*
X52818000Y14233000D01*
X52818000Y14233000D02*
X52818000Y12455000D01*
X26476000Y17027000D02*
X29524000Y17027000D01*
X29524000Y17027000D02*
X29524000Y15249000D01*
X29524000Y15249000D02*
X26476000Y15249000D01*
X26476000Y15249000D02*
X26476000Y17027000D01*
X50111000Y24976000D02*
X50111000Y28024000D01*
X50111000Y28024000D02*
X51889000Y28024000D01*
X51889000Y28024000D02*
X51889000Y24976000D01*
X51889000Y24976000D02*
X50111000Y24976000D01*
X52945000Y16138000D02*
X52945000Y19186000D01*
X52945000Y19186000D02*
X54723000Y19186000D01*
X54723000Y19186000D02*
X54723000Y16138000D01*
X54723000Y16138000D02*
X52945000Y16138000D01*
X55111000Y24976000D02*
X55111000Y28024000D01*
X55111000Y28024000D02*
X56889000Y28024000D01*
X56889000Y28024000D02*
X56889000Y24976000D01*
X56889000Y24976000D02*
X55111000Y24976000D01*
X26476000Y19313000D02*
X29524000Y19313000D01*
X29524000Y19313000D02*
X29524000Y17535000D01*
X29524000Y17535000D02*
X26476000Y17535000D01*
X26476000Y17535000D02*
X26476000Y19313000D01*
X26476000Y21599000D02*
X29524000Y21599000D01*
X29524000Y21599000D02*
X29524000Y19821000D01*
X29524000Y19821000D02*
X26476000Y19821000D01*
X26476000Y19821000D02*
X26476000Y21599000D01*
X57263000Y19186000D02*
X57263000Y16138000D01*
X57263000Y16138000D02*
X55485000Y16138000D01*
X55485000Y16138000D02*
X55485000Y19186000D01*
X55485000Y19186000D02*
X57263000Y19186000D01*
X55111000Y20976000D02*
X55111000Y24024000D01*
X55111000Y24024000D02*
X56889000Y24024000D01*
X56889000Y24024000D02*
X56889000Y20976000D01*
X56889000Y20976000D02*
X55111000Y20976000D01*
X44944000Y9661000D02*
X47992000Y9661000D01*
X47992000Y9661000D02*
X47992000Y7883000D01*
X47992000Y7883000D02*
X44944000Y7883000D01*
X44944000Y7883000D02*
X44944000Y9661000D01*
X18376000Y10889000D02*
X21424000Y10889000D01*
X21424000Y10889000D02*
X21424000Y9111000D01*
X21424000Y9111000D02*
X18376000Y9111000D01*
X18376000Y9111000D02*
X18376000Y10889000D01*
X30930000Y12540000D02*
X24580000Y12540000D01*
X24580000Y12540000D02*
X24580000Y940000D01*
X24580000Y940000D02*
X31780000Y940000D01*
X31780000Y940000D02*
X31780000Y11540000D01*
X31780000Y11540000D02*
X30930000Y12540000D01*
X40118000Y6867000D02*
X40118000Y6486000D01*
X39610000Y7375000D02*
X39356000Y7375000D01*
X40118000Y6867000D02*
X39610000Y7375000D01*
X35546000Y7375000D02*
X39356000Y7375000D01*
X40118000Y6486000D02*
X40118000Y5343000D01*
X40118000Y5343000D02*
X40118000Y1025000D01*
X40118000Y1025000D02*
X35546000Y1025000D01*
X35546000Y1025000D02*
X35546000Y7375000D01*
D14*
G36*
X15420980Y8009978D02*
X15191879Y8142208D01*
X15085241Y8203770D01*
X13378392Y9189219D01*
X13320302Y9088605D01*
X13238873Y8972365D01*
X13141265Y8878154D01*
X13026801Y8805470D01*
X12894803Y8753808D01*
X12853922Y8742875D01*
X12718240Y8723249D01*
X12584471Y8729036D01*
X12455653Y8758447D01*
X12334827Y8809696D01*
X12225034Y8880992D01*
X12129312Y8970551D01*
X12050703Y9076583D01*
X11992248Y9197301D01*
X11971802Y9261576D01*
X11947066Y9404503D01*
X11949340Y9544661D01*
X11978433Y9680539D01*
X12034160Y9810626D01*
X12040880Y9822710D01*
X12100184Y9927189D01*
X12054458Y9953591D01*
X12010716Y9971505D01*
X11965928Y9979504D01*
X11962680Y9979534D01*
X11951803Y9980023D01*
X11942166Y9981079D01*
X11933170Y9981730D01*
X11924219Y9981010D01*
X11914717Y9977949D01*
X11904068Y9971577D01*
X11891675Y9960925D01*
X11876940Y9945026D01*
X11859268Y9922908D01*
X11838063Y9893605D01*
X11812728Y9856146D01*
X11782666Y9809563D01*
X11747280Y9752885D01*
X11705976Y9685146D01*
X11658155Y9605375D01*
X11603221Y9512603D01*
X11540578Y9405862D01*
X11469629Y9284183D01*
X11389778Y9146596D01*
X11300430Y8992131D01*
X11200985Y8819821D01*
X11090849Y8628696D01*
X10969424Y8417788D01*
X10836115Y8186127D01*
X10690325Y7932744D01*
X10531457Y7656671D01*
X10512099Y7623037D01*
X10352175Y7345228D01*
X10205359Y7090245D01*
X10071114Y6857086D01*
X9948903Y6644748D01*
X9838188Y6452227D01*
X9738435Y6278521D01*
X9649106Y6122628D01*
X9569663Y5983545D01*
X9499570Y5860268D01*
X9438290Y5751794D01*
X9385286Y5657121D01*
X9340022Y5575247D01*
X9301960Y5505167D01*
X9270564Y5445879D01*
X9245297Y5396380D01*
X9225623Y5355668D01*
X9211003Y5322739D01*
X9200901Y5296591D01*
X9194780Y5276220D01*
X9192104Y5260624D01*
X9192337Y5248801D01*
X9194940Y5239746D01*
X9199378Y5232458D01*
X9205113Y5225934D01*
X9211607Y5219169D01*
X9218326Y5211162D01*
X9219860Y5209020D01*
X9225167Y5203131D01*
X9234974Y5194876D01*
X9250230Y5183694D01*
X9271886Y5169027D01*
X9300893Y5150318D01*
X9338200Y5127010D01*
X9384758Y5098543D01*
X9441517Y5064361D01*
X9509428Y5023904D01*
X9589441Y4976616D01*
X9682507Y4921938D01*
X9789576Y4859313D01*
X9911598Y4788181D01*
X10049524Y4707987D01*
X10204303Y4618170D01*
X10376888Y4518175D01*
X10568228Y4407442D01*
X10779272Y4285414D01*
X11010972Y4151532D01*
X11264279Y4005240D01*
X11540142Y3845978D01*
X11629506Y3794395D01*
X11911511Y3631639D01*
X12170719Y3482084D01*
X12408098Y3345181D01*
X12624620Y3220377D01*
X12821253Y3107125D01*
X12998970Y3004873D01*
X13158739Y2913072D01*
X13301531Y2831171D01*
X13428317Y2758620D01*
X13540065Y2694870D01*
X13637747Y2639371D01*
X13722332Y2591571D01*
X13794791Y2550922D01*
X13856094Y2516873D01*
X13907210Y2488873D01*
X13949111Y2466374D01*
X13982766Y2448825D01*
X14009146Y2435676D01*
X14029221Y2426376D01*
X14043961Y2420376D01*
X14054336Y2417126D01*
X14060431Y2416115D01*
X14071501Y2414729D01*
X14081273Y2412779D01*
X14090346Y2411229D01*
X14099320Y2411044D01*
X14108791Y2413190D01*
X14119359Y2418632D01*
X14131622Y2428336D01*
X14146180Y2443266D01*
X14163630Y2464389D01*
X14184571Y2492670D01*
X14209602Y2529073D01*
X14239321Y2574566D01*
X14274327Y2630111D01*
X14315219Y2696676D01*
X14362596Y2775225D01*
X14417055Y2866724D01*
X14437809Y2901931D01*
X14120470Y3085147D01*
X12998837Y3732722D01*
X13039298Y3752959D01*
X13080168Y3774165D01*
X13116823Y3795666D01*
X13150814Y3819551D01*
X13183694Y3847911D01*
X13217013Y3882835D01*
X13252324Y3926415D01*
X13291175Y3980738D01*
X13335121Y4047895D01*
X13385713Y4129977D01*
X13444500Y4229073D01*
X13513036Y4347273D01*
X13592871Y4486668D01*
X13622416Y4538474D01*
X13938997Y5093943D01*
X13312529Y4818923D01*
X13134944Y4740826D01*
X12980746Y4672568D01*
X12848100Y4613125D01*
X12735177Y4561472D01*
X12640144Y4516582D01*
X12561168Y4477427D01*
X12496418Y4442984D01*
X12444063Y4412225D01*
X12402271Y4384124D01*
X12369209Y4357656D01*
X12343046Y4331793D01*
X12321949Y4305510D01*
X12304086Y4277781D01*
X12287628Y4247581D01*
X12285654Y4243730D01*
X12246510Y4167011D01*
X11017335Y4876743D01*
X11161989Y4916145D01*
X11201357Y4927037D01*
X11239058Y4937983D01*
X11276907Y4949741D01*
X11316719Y4963069D01*
X11360308Y4978723D01*
X11409486Y4997459D01*
X11466069Y5020035D01*
X11531870Y5047207D01*
X11608704Y5079732D01*
X11698386Y5118366D01*
X11802728Y5163868D01*
X11923545Y5216991D01*
X12062653Y5278494D01*
X12221863Y5349135D01*
X12402991Y5429669D01*
X12551504Y5495767D01*
X12737976Y5578866D01*
X12900811Y5651643D01*
X13041514Y5714812D01*
X13161594Y5769086D01*
X13262554Y5815179D01*
X13345904Y5853804D01*
X13413148Y5885677D01*
X13465793Y5911509D01*
X13505348Y5932015D01*
X13533317Y5947909D01*
X13551206Y5959904D01*
X13560525Y5968714D01*
X13562801Y5974861D01*
X13559839Y5996425D01*
X13553044Y6042371D01*
X13542844Y6109957D01*
X13529664Y6196438D01*
X13513931Y6299070D01*
X13496072Y6415109D01*
X13476513Y6541812D01*
X13455679Y6676432D01*
X13433998Y6816229D01*
X13411896Y6958456D01*
X13399721Y7036652D01*
X12332283Y7652937D01*
X12241582Y7598292D01*
X12150880Y7543646D01*
X10805366Y5213148D01*
X10803392Y5107275D01*
X10801418Y5001402D01*
X10276627Y5304391D01*
X10151367Y5376758D01*
X10047981Y5436668D01*
X9964537Y5485344D01*
X9899105Y5524012D01*
X9849752Y5553899D01*
X9814545Y5576231D01*
X9791553Y5592232D01*
X9778844Y5603128D01*
X9774487Y5610146D01*
X9776548Y5614511D01*
X9783097Y5617448D01*
X9783159Y5617468D01*
X9810672Y5630499D01*
X9850883Y5654300D01*
X9888739Y5679379D01*
X9962995Y5731199D01*
X11394237Y8194518D01*
X12332283Y7652937D01*
X13399721Y7036652D01*
X13389799Y7100369D01*
X13368133Y7239225D01*
X13347326Y7372281D01*
X13327803Y7496791D01*
X13309990Y7610010D01*
X13294315Y7709198D01*
X13281203Y7791607D01*
X13271081Y7854496D01*
X13265030Y7891248D01*
X13239461Y8030382D01*
X13211651Y8158673D01*
X13182686Y8271818D01*
X13153652Y8365516D01*
X13129830Y8426438D01*
X13099244Y8494285D01*
X14302492Y7799589D01*
X14261389Y7729177D01*
X14234781Y7675325D01*
X14219639Y7619900D01*
X14212871Y7562981D01*
X14210712Y7529863D01*
X14209646Y7496428D01*
X14209945Y7460261D01*
X14211875Y7418943D01*
X14215711Y7370059D01*
X14221722Y7311190D01*
X14230179Y7239922D01*
X14241353Y7153836D01*
X14255515Y7050517D01*
X14272934Y6927548D01*
X14293883Y6782512D01*
X14318631Y6612991D01*
X14321433Y6593857D01*
X14419311Y5925872D01*
X14716066Y6431761D01*
X14804609Y6583488D01*
X14878818Y6712370D01*
X14938932Y6818833D01*
X14985187Y6903309D01*
X15017823Y6966227D01*
X15037077Y7008012D01*
X15040194Y7016246D01*
X15066699Y7106649D01*
X15082720Y7192694D01*
X15087093Y7266789D01*
X15083859Y7301153D01*
X15074488Y7353877D01*
X15641035Y7026781D01*
X15776115Y6948638D01*
X15888913Y6883013D01*
X15981049Y6828911D01*
X16054143Y6785339D01*
X16109820Y6751299D01*
X16149699Y6725799D01*
X16175401Y6707845D01*
X16188549Y6696440D01*
X16190763Y6690590D01*
X16190034Y6689998D01*
X16167558Y6678804D01*
X16130916Y6661645D01*
X16112152Y6653101D01*
X16093053Y6644790D01*
X16075925Y6637387D01*
X16059969Y6629650D01*
X16044389Y6620337D01*
X16028386Y6608208D01*
X16011163Y6592020D01*
X15991923Y6570534D01*
X15969867Y6542507D01*
X15944199Y6506698D01*
X15914121Y6461867D01*
X15878834Y6406771D01*
X15837543Y6340170D01*
X15789448Y6260823D01*
X15733753Y6167487D01*
X15669660Y6058922D01*
X15596370Y5933886D01*
X15513088Y5791139D01*
X15419015Y5629439D01*
X15313353Y5447545D01*
X15195306Y5244214D01*
X15086850Y5057424D01*
X14966020Y4849140D01*
X14850926Y4650310D01*
X14742293Y4462207D01*
X14640850Y4286106D01*
X14547326Y4123279D01*
X14462449Y3975003D01*
X14386946Y3842552D01*
X14321543Y3727199D01*
X14266970Y3630220D01*
X14223954Y3552887D01*
X14193223Y3496476D01*
X14175504Y3462262D01*
X14173759Y3458572D01*
X14137620Y3371686D01*
X14116569Y3297304D01*
X14108874Y3226225D01*
X14112800Y3149250D01*
X14113808Y3140517D01*
X14120470Y3085147D01*
X14437809Y2901931D01*
X14479196Y2972138D01*
X14549617Y3092432D01*
X14628916Y3228573D01*
X14717693Y3381525D01*
X14816546Y3552252D01*
X14926072Y3741724D01*
X15046873Y3950901D01*
X15179544Y4180751D01*
X15324687Y4432239D01*
X15482899Y4706330D01*
X15514311Y4760740D01*
X15674201Y5037711D01*
X15820887Y5291899D01*
X15954927Y5524284D01*
X16076877Y5735845D01*
X16187293Y5927563D01*
X16286731Y6100420D01*
X16375745Y6255395D01*
X16454893Y6393468D01*
X16524730Y6515620D01*
X16585812Y6622833D01*
X16638696Y6716084D01*
X16683937Y6796356D01*
X16722091Y6864629D01*
X16753715Y6921882D01*
X16779363Y6969096D01*
X16799591Y7007253D01*
X16814957Y7037331D01*
X16826016Y7060313D01*
X16833323Y7077177D01*
X16837436Y7088905D01*
X16838908Y7096476D01*
X16838919Y7096680D01*
X16840011Y7108914D01*
X16841325Y7119803D01*
X16841742Y7130053D01*
X16840142Y7140368D01*
X16835409Y7151457D01*
X16826424Y7164022D01*
X16812069Y7178774D01*
X16791225Y7196415D01*
X16762774Y7217653D01*
X16725598Y7243192D01*
X16678578Y7273740D01*
X16620597Y7310003D01*
X16550536Y7352684D01*
X16467277Y7402493D01*
X16369701Y7460133D01*
X16256691Y7526311D01*
X16127127Y7601733D01*
X15979894Y7687104D01*
X15813869Y7783132D01*
X15627938Y7890521D01*
X15420980Y8009978D01*
X15420980Y8009978D01*
G37*
X15420980Y8009978D02*
X15191879Y8142208D01*
X15085241Y8203770D01*
X13378392Y9189219D01*
X13320302Y9088605D01*
X13238873Y8972365D01*
X13141265Y8878154D01*
X13026801Y8805470D01*
X12894803Y8753808D01*
X12853922Y8742875D01*
X12718240Y8723249D01*
X12584471Y8729036D01*
X12455653Y8758447D01*
X12334827Y8809696D01*
X12225034Y8880992D01*
X12129312Y8970551D01*
X12050703Y9076583D01*
X11992248Y9197301D01*
X11971802Y9261576D01*
X11947066Y9404503D01*
X11949340Y9544661D01*
X11978433Y9680539D01*
X12034160Y9810626D01*
X12040880Y9822710D01*
X12100184Y9927189D01*
X12054458Y9953591D01*
X12010716Y9971505D01*
X11965928Y9979504D01*
X11962680Y9979534D01*
X11951803Y9980023D01*
X11942166Y9981079D01*
X11933170Y9981730D01*
X11924219Y9981010D01*
X11914717Y9977949D01*
X11904068Y9971577D01*
X11891675Y9960925D01*
X11876940Y9945026D01*
X11859268Y9922908D01*
X11838063Y9893605D01*
X11812728Y9856146D01*
X11782666Y9809563D01*
X11747280Y9752885D01*
X11705976Y9685146D01*
X11658155Y9605375D01*
X11603221Y9512603D01*
X11540578Y9405862D01*
X11469629Y9284183D01*
X11389778Y9146596D01*
X11300430Y8992131D01*
X11200985Y8819821D01*
X11090849Y8628696D01*
X10969424Y8417788D01*
X10836115Y8186127D01*
X10690325Y7932744D01*
X10531457Y7656671D01*
X10512099Y7623037D01*
X10352175Y7345228D01*
X10205359Y7090245D01*
X10071114Y6857086D01*
X9948903Y6644748D01*
X9838188Y6452227D01*
X9738435Y6278521D01*
X9649106Y6122628D01*
X9569663Y5983545D01*
X9499570Y5860268D01*
X9438290Y5751794D01*
X9385286Y5657121D01*
X9340022Y5575247D01*
X9301960Y5505167D01*
X9270564Y5445879D01*
X9245297Y5396380D01*
X9225623Y5355668D01*
X9211003Y5322739D01*
X9200901Y5296591D01*
X9194780Y5276220D01*
X9192104Y5260624D01*
X9192337Y5248801D01*
X9194940Y5239746D01*
X9199378Y5232458D01*
X9205113Y5225934D01*
X9211607Y5219169D01*
X9218326Y5211162D01*
X9219860Y5209020D01*
X9225167Y5203131D01*
X9234974Y5194876D01*
X9250230Y5183694D01*
X9271886Y5169027D01*
X9300893Y5150318D01*
X9338200Y5127010D01*
X9384758Y5098543D01*
X9441517Y5064361D01*
X9509428Y5023904D01*
X9589441Y4976616D01*
X9682507Y4921938D01*
X9789576Y4859313D01*
X9911598Y4788181D01*
X10049524Y4707987D01*
X10204303Y4618170D01*
X10376888Y4518175D01*
X10568228Y4407442D01*
X10779272Y4285414D01*
X11010972Y4151532D01*
X11264279Y4005240D01*
X11540142Y3845978D01*
X11629506Y3794395D01*
X11911511Y3631639D01*
X12170719Y3482084D01*
X12408098Y3345181D01*
X12624620Y3220377D01*
X12821253Y3107125D01*
X12998970Y3004873D01*
X13158739Y2913072D01*
X13301531Y2831171D01*
X13428317Y2758620D01*
X13540065Y2694870D01*
X13637747Y2639371D01*
X13722332Y2591571D01*
X13794791Y2550922D01*
X13856094Y2516873D01*
X13907210Y2488873D01*
X13949111Y2466374D01*
X13982766Y2448825D01*
X14009146Y2435676D01*
X14029221Y2426376D01*
X14043961Y2420376D01*
X14054336Y2417126D01*
X14060431Y2416115D01*
X14071501Y2414729D01*
X14081273Y2412779D01*
X14090346Y2411229D01*
X14099320Y2411044D01*
X14108791Y2413190D01*
X14119359Y2418632D01*
X14131622Y2428336D01*
X14146180Y2443266D01*
X14163630Y2464389D01*
X14184571Y2492670D01*
X14209602Y2529073D01*
X14239321Y2574566D01*
X14274327Y2630111D01*
X14315219Y2696676D01*
X14362596Y2775225D01*
X14417055Y2866724D01*
X14437809Y2901931D01*
X14120470Y3085147D01*
X12998837Y3732722D01*
X13039298Y3752959D01*
X13080168Y3774165D01*
X13116823Y3795666D01*
X13150814Y3819551D01*
X13183694Y3847911D01*
X13217013Y3882835D01*
X13252324Y3926415D01*
X13291175Y3980738D01*
X13335121Y4047895D01*
X13385713Y4129977D01*
X13444500Y4229073D01*
X13513036Y4347273D01*
X13592871Y4486668D01*
X13622416Y4538474D01*
X13938997Y5093943D01*
X13312529Y4818923D01*
X13134944Y4740826D01*
X12980746Y4672568D01*
X12848100Y4613125D01*
X12735177Y4561472D01*
X12640144Y4516582D01*
X12561168Y4477427D01*
X12496418Y4442984D01*
X12444063Y4412225D01*
X12402271Y4384124D01*
X12369209Y4357656D01*
X12343046Y4331793D01*
X12321949Y4305510D01*
X12304086Y4277781D01*
X12287628Y4247581D01*
X12285654Y4243730D01*
X12246510Y4167011D01*
X11017335Y4876743D01*
X11161989Y4916145D01*
X11201357Y4927037D01*
X11239058Y4937983D01*
X11276907Y4949741D01*
X11316719Y4963069D01*
X11360308Y4978723D01*
X11409486Y4997459D01*
X11466069Y5020035D01*
X11531870Y5047207D01*
X11608704Y5079732D01*
X11698386Y5118366D01*
X11802728Y5163868D01*
X11923545Y5216991D01*
X12062653Y5278494D01*
X12221863Y5349135D01*
X12402991Y5429669D01*
X12551504Y5495767D01*
X12737976Y5578866D01*
X12900811Y5651643D01*
X13041514Y5714812D01*
X13161594Y5769086D01*
X13262554Y5815179D01*
X13345904Y5853804D01*
X13413148Y5885677D01*
X13465793Y5911509D01*
X13505348Y5932015D01*
X13533317Y5947909D01*
X13551206Y5959904D01*
X13560525Y5968714D01*
X13562801Y5974861D01*
X13559839Y5996425D01*
X13553044Y6042371D01*
X13542844Y6109957D01*
X13529664Y6196438D01*
X13513931Y6299070D01*
X13496072Y6415109D01*
X13476513Y6541812D01*
X13455679Y6676432D01*
X13433998Y6816229D01*
X13411896Y6958456D01*
X13399721Y7036652D01*
X12332283Y7652937D01*
X12241582Y7598292D01*
X12150880Y7543646D01*
X10805366Y5213148D01*
X10803392Y5107275D01*
X10801418Y5001402D01*
X10276627Y5304391D01*
X10151367Y5376758D01*
X10047981Y5436668D01*
X9964537Y5485344D01*
X9899105Y5524012D01*
X9849752Y5553899D01*
X9814545Y5576231D01*
X9791553Y5592232D01*
X9778844Y5603128D01*
X9774487Y5610146D01*
X9776548Y5614511D01*
X9783097Y5617448D01*
X9783159Y5617468D01*
X9810672Y5630499D01*
X9850883Y5654300D01*
X9888739Y5679379D01*
X9962995Y5731199D01*
X11394237Y8194518D01*
X12332283Y7652937D01*
X13399721Y7036652D01*
X13389799Y7100369D01*
X13368133Y7239225D01*
X13347326Y7372281D01*
X13327803Y7496791D01*
X13309990Y7610010D01*
X13294315Y7709198D01*
X13281203Y7791607D01*
X13271081Y7854496D01*
X13265030Y7891248D01*
X13239461Y8030382D01*
X13211651Y8158673D01*
X13182686Y8271818D01*
X13153652Y8365516D01*
X13129830Y8426438D01*
X13099244Y8494285D01*
X14302492Y7799589D01*
X14261389Y7729177D01*
X14234781Y7675325D01*
X14219639Y7619900D01*
X14212871Y7562981D01*
X14210712Y7529863D01*
X14209646Y7496428D01*
X14209945Y7460261D01*
X14211875Y7418943D01*
X14215711Y7370059D01*
X14221722Y7311190D01*
X14230179Y7239922D01*
X14241353Y7153836D01*
X14255515Y7050517D01*
X14272934Y6927548D01*
X14293883Y6782512D01*
X14318631Y6612991D01*
X14321433Y6593857D01*
X14419311Y5925872D01*
X14716066Y6431761D01*
X14804609Y6583488D01*
X14878818Y6712370D01*
X14938932Y6818833D01*
X14985187Y6903309D01*
X15017823Y6966227D01*
X15037077Y7008012D01*
X15040194Y7016246D01*
X15066699Y7106649D01*
X15082720Y7192694D01*
X15087093Y7266789D01*
X15083859Y7301153D01*
X15074488Y7353877D01*
X15641035Y7026781D01*
X15776115Y6948638D01*
X15888913Y6883013D01*
X15981049Y6828911D01*
X16054143Y6785339D01*
X16109820Y6751299D01*
X16149699Y6725799D01*
X16175401Y6707845D01*
X16188549Y6696440D01*
X16190763Y6690590D01*
X16190034Y6689998D01*
X16167558Y6678804D01*
X16130916Y6661645D01*
X16112152Y6653101D01*
X16093053Y6644790D01*
X16075925Y6637387D01*
X16059969Y6629650D01*
X16044389Y6620337D01*
X16028386Y6608208D01*
X16011163Y6592020D01*
X15991923Y6570534D01*
X15969867Y6542507D01*
X15944199Y6506698D01*
X15914121Y6461867D01*
X15878834Y6406771D01*
X15837543Y6340170D01*
X15789448Y6260823D01*
X15733753Y6167487D01*
X15669660Y6058922D01*
X15596370Y5933886D01*
X15513088Y5791139D01*
X15419015Y5629439D01*
X15313353Y5447545D01*
X15195306Y5244214D01*
X15086850Y5057424D01*
X14966020Y4849140D01*
X14850926Y4650310D01*
X14742293Y4462207D01*
X14640850Y4286106D01*
X14547326Y4123279D01*
X14462449Y3975003D01*
X14386946Y3842552D01*
X14321543Y3727199D01*
X14266970Y3630220D01*
X14223954Y3552887D01*
X14193223Y3496476D01*
X14175504Y3462262D01*
X14173759Y3458572D01*
X14137620Y3371686D01*
X14116569Y3297304D01*
X14108874Y3226225D01*
X14112800Y3149250D01*
X14113808Y3140517D01*
X14120470Y3085147D01*
X14437809Y2901931D01*
X14479196Y2972138D01*
X14549617Y3092432D01*
X14628916Y3228573D01*
X14717693Y3381525D01*
X14816546Y3552252D01*
X14926072Y3741724D01*
X15046873Y3950901D01*
X15179544Y4180751D01*
X15324687Y4432239D01*
X15482899Y4706330D01*
X15514311Y4760740D01*
X15674201Y5037711D01*
X15820887Y5291899D01*
X15954927Y5524284D01*
X16076877Y5735845D01*
X16187293Y5927563D01*
X16286731Y6100420D01*
X16375745Y6255395D01*
X16454893Y6393468D01*
X16524730Y6515620D01*
X16585812Y6622833D01*
X16638696Y6716084D01*
X16683937Y6796356D01*
X16722091Y6864629D01*
X16753715Y6921882D01*
X16779363Y6969096D01*
X16799591Y7007253D01*
X16814957Y7037331D01*
X16826016Y7060313D01*
X16833323Y7077177D01*
X16837436Y7088905D01*
X16838908Y7096476D01*
X16838919Y7096680D01*
X16840011Y7108914D01*
X16841325Y7119803D01*
X16841742Y7130053D01*
X16840142Y7140368D01*
X16835409Y7151457D01*
X16826424Y7164022D01*
X16812069Y7178774D01*
X16791225Y7196415D01*
X16762774Y7217653D01*
X16725598Y7243192D01*
X16678578Y7273740D01*
X16620597Y7310003D01*
X16550536Y7352684D01*
X16467277Y7402493D01*
X16369701Y7460133D01*
X16256691Y7526311D01*
X16127127Y7601733D01*
X15979894Y7687104D01*
X15813869Y7783132D01*
X15627938Y7890521D01*
X15420980Y8009978D01*
G36*
X9538732Y10613036D02*
X9402411Y10673025D01*
X9263685Y10719620D01*
X9116744Y10754427D01*
X8955778Y10779053D01*
X8774977Y10795105D01*
X8741897Y10797094D01*
X8666227Y10802084D01*
X8595576Y10808029D01*
X8536867Y10814260D01*
X8497027Y10820105D01*
X8491113Y10821359D01*
X8435144Y10834612D01*
X8469337Y10400566D01*
X8477711Y10294473D01*
X8485395Y10197523D01*
X8492127Y10113010D01*
X8497642Y10044227D01*
X8501677Y9994467D01*
X8503968Y9967021D01*
X8504386Y9962644D01*
X8517108Y9963948D01*
X8550461Y9970695D01*
X8598450Y9981621D01*
X8625158Y9988038D01*
X8767791Y10009348D01*
X8911676Y10005047D01*
X9024956Y9982791D01*
X9087608Y9960169D01*
X9162283Y9925314D01*
X9240552Y9882936D01*
X9313986Y9837751D01*
X9374159Y9794472D01*
X9396813Y9774852D01*
X9488868Y9669009D01*
X9557540Y9548900D01*
X9602820Y9414682D01*
X9624692Y9266505D01*
X9623144Y9104527D01*
X9598164Y8928902D01*
X9549737Y8739784D01*
X9496352Y8584772D01*
X9467894Y8519165D01*
X9426817Y8436899D01*
X9376466Y8343661D01*
X9320184Y8245137D01*
X9261314Y8147010D01*
X9203204Y8054965D01*
X9149196Y7974688D01*
X9102634Y7911865D01*
X9094969Y7902449D01*
X8961608Y7756502D01*
X8825995Y7637481D01*
X8687444Y7544903D01*
X8545266Y7478279D01*
X8455237Y7449858D01*
X8308742Y7425278D01*
X8164884Y7427421D01*
X8025689Y7455557D01*
X7893183Y7508958D01*
X7769393Y7586893D01*
X7656346Y7688632D01*
X7595626Y7759376D01*
X7521160Y7873831D01*
X7456904Y8013440D01*
X7426064Y8100568D01*
X7409265Y8150389D01*
X7395164Y8187967D01*
X7386024Y8207428D01*
X7384315Y8208848D01*
X7371218Y8201916D01*
X7336960Y8183394D01*
X7284469Y8154877D01*
X7216672Y8117957D01*
X7136495Y8074229D01*
X7046868Y8025284D01*
X6996960Y7998006D01*
X6615698Y7789563D01*
X6790310Y7527758D01*
X6853609Y7433385D01*
X6905425Y7357868D01*
X6949153Y7296985D01*
X6988186Y7246511D01*
X7025920Y7202220D01*
X7065745Y7159892D01*
X7111056Y7115300D01*
X7155129Y7073669D01*
X7195107Y7038063D01*
X7238490Y7003551D01*
X7289802Y6966995D01*
X7353572Y6925256D01*
X7434322Y6875198D01*
X7489107Y6842083D01*
X7567755Y6795662D01*
X7643810Y6752263D01*
X7712190Y6714672D01*
X7767815Y6685678D01*
X7805603Y6668069D01*
X7807915Y6667153D01*
X8018000Y6599733D01*
X8228758Y6559756D01*
X8440103Y6547219D01*
X8651949Y6562117D01*
X8864214Y6604444D01*
X9076811Y6674197D01*
X9244493Y6748467D01*
X9441106Y6858885D01*
X9624057Y6989744D01*
X9794558Y7142240D01*
X9953817Y7317572D01*
X10103047Y7516935D01*
X10236653Y7729725D01*
X10351465Y7943902D01*
X10442674Y8150011D01*
X10511507Y8351710D01*
X10559192Y8552653D01*
X10586957Y8756497D01*
X10588767Y8778232D01*
X10592252Y8989157D01*
X10571027Y9204042D01*
X10526362Y9417960D01*
X10459530Y9625982D01*
X10371800Y9823179D01*
X10277473Y9985137D01*
X10171617Y10130446D01*
X10055410Y10258526D01*
X9924052Y10373809D01*
X9772738Y10480728D01*
X9678459Y10538044D01*
X9538732Y10613036D01*
X9538732Y10613036D01*
G37*
X9538732Y10613036D02*
X9402411Y10673025D01*
X9263685Y10719620D01*
X9116744Y10754427D01*
X8955778Y10779053D01*
X8774977Y10795105D01*
X8741897Y10797094D01*
X8666227Y10802084D01*
X8595576Y10808029D01*
X8536867Y10814260D01*
X8497027Y10820105D01*
X8491113Y10821359D01*
X8435144Y10834612D01*
X8469337Y10400566D01*
X8477711Y10294473D01*
X8485395Y10197523D01*
X8492127Y10113010D01*
X8497642Y10044227D01*
X8501677Y9994467D01*
X8503968Y9967021D01*
X8504386Y9962644D01*
X8517108Y9963948D01*
X8550461Y9970695D01*
X8598450Y9981621D01*
X8625158Y9988038D01*
X8767791Y10009348D01*
X8911676Y10005047D01*
X9024956Y9982791D01*
X9087608Y9960169D01*
X9162283Y9925314D01*
X9240552Y9882936D01*
X9313986Y9837751D01*
X9374159Y9794472D01*
X9396813Y9774852D01*
X9488868Y9669009D01*
X9557540Y9548900D01*
X9602820Y9414682D01*
X9624692Y9266505D01*
X9623144Y9104527D01*
X9598164Y8928902D01*
X9549737Y8739784D01*
X9496352Y8584772D01*
X9467894Y8519165D01*
X9426817Y8436899D01*
X9376466Y8343661D01*
X9320184Y8245137D01*
X9261314Y8147010D01*
X9203204Y8054965D01*
X9149196Y7974688D01*
X9102634Y7911865D01*
X9094969Y7902449D01*
X8961608Y7756502D01*
X8825995Y7637481D01*
X8687444Y7544903D01*
X8545266Y7478279D01*
X8455237Y7449858D01*
X8308742Y7425278D01*
X8164884Y7427421D01*
X8025689Y7455557D01*
X7893183Y7508958D01*
X7769393Y7586893D01*
X7656346Y7688632D01*
X7595626Y7759376D01*
X7521160Y7873831D01*
X7456904Y8013440D01*
X7426064Y8100568D01*
X7409265Y8150389D01*
X7395164Y8187967D01*
X7386024Y8207428D01*
X7384315Y8208848D01*
X7371218Y8201916D01*
X7336960Y8183394D01*
X7284469Y8154877D01*
X7216672Y8117957D01*
X7136495Y8074229D01*
X7046868Y8025284D01*
X6996960Y7998006D01*
X6615698Y7789563D01*
X6790310Y7527758D01*
X6853609Y7433385D01*
X6905425Y7357868D01*
X6949153Y7296985D01*
X6988186Y7246511D01*
X7025920Y7202220D01*
X7065745Y7159892D01*
X7111056Y7115300D01*
X7155129Y7073669D01*
X7195107Y7038063D01*
X7238490Y7003551D01*
X7289802Y6966995D01*
X7353572Y6925256D01*
X7434322Y6875198D01*
X7489107Y6842083D01*
X7567755Y6795662D01*
X7643810Y6752263D01*
X7712190Y6714672D01*
X7767815Y6685678D01*
X7805603Y6668069D01*
X7807915Y6667153D01*
X8018000Y6599733D01*
X8228758Y6559756D01*
X8440103Y6547219D01*
X8651949Y6562117D01*
X8864214Y6604444D01*
X9076811Y6674197D01*
X9244493Y6748467D01*
X9441106Y6858885D01*
X9624057Y6989744D01*
X9794558Y7142240D01*
X9953817Y7317572D01*
X10103047Y7516935D01*
X10236653Y7729725D01*
X10351465Y7943902D01*
X10442674Y8150011D01*
X10511507Y8351710D01*
X10559192Y8552653D01*
X10586957Y8756497D01*
X10588767Y8778232D01*
X10592252Y8989157D01*
X10571027Y9204042D01*
X10526362Y9417960D01*
X10459530Y9625982D01*
X10371800Y9823179D01*
X10277473Y9985137D01*
X10171617Y10130446D01*
X10055410Y10258526D01*
X9924052Y10373809D01*
X9772738Y10480728D01*
X9678459Y10538044D01*
X9538732Y10613036D01*
G36*
X6624746Y11020949D02*
X6563259Y11050503D01*
X6381755Y11125393D01*
X6211831Y11175807D01*
X6052473Y11201674D01*
X5902672Y11202920D01*
X5761415Y11179474D01*
X5627692Y11131262D01*
X5500491Y11058213D01*
X5385292Y10966220D01*
X5351580Y10935125D01*
X5320785Y10905558D01*
X5291684Y10875677D01*
X5263051Y10843640D01*
X5233662Y10807606D01*
X5202290Y10765733D01*
X5167710Y10716179D01*
X5128700Y10657103D01*
X5084031Y10586663D01*
X5032480Y10503016D01*
X4972822Y10404323D01*
X4903830Y10288739D01*
X4824281Y10154425D01*
X4732950Y9999538D01*
X4661436Y9878035D01*
X4170582Y9043742D01*
X4079420Y8988817D01*
X4035868Y8962144D01*
X4002727Y8941030D01*
X3985955Y8929290D01*
X3985060Y8928355D01*
X3995798Y8920495D01*
X4027774Y8900504D01*
X4078406Y8869915D01*
X4145113Y8830261D01*
X4225315Y8783076D01*
X4316432Y8729891D01*
X4415882Y8672242D01*
X4427750Y8665387D01*
X4873636Y8407955D01*
X4931988Y8509022D01*
X4959118Y8554258D01*
X4981314Y8588016D01*
X4995047Y8605060D01*
X4997338Y8606048D01*
X5004947Y8591973D01*
X5018232Y8558889D01*
X5034347Y8513894D01*
X5034698Y8512866D01*
X5067546Y8436713D01*
X5115438Y8351637D01*
X5172596Y8266616D01*
X5233243Y8190628D01*
X5261695Y8160200D01*
X5322681Y8107206D01*
X5402048Y8050035D01*
X5492152Y7993261D01*
X5585348Y7941463D01*
X5673990Y7899215D01*
X5738879Y7874599D01*
X5909032Y7833326D01*
X6075162Y7818594D01*
X6235980Y7830141D01*
X6390198Y7867702D01*
X6536528Y7931015D01*
X6673681Y8019817D01*
X6745607Y8080224D01*
X6805922Y8144476D01*
X6868965Y8227016D01*
X6929656Y8319804D01*
X6937536Y8333855D01*
X6133367Y8798142D01*
X6085569Y8730754D01*
X6029183Y8684371D01*
X5956431Y8653139D01*
X5931370Y8646134D01*
X5850196Y8634943D01*
X5769326Y8644440D01*
X5683937Y8675735D01*
X5601654Y8721916D01*
X5527944Y8773225D01*
X5476020Y8820324D01*
X5455818Y8844846D01*
X5424545Y8897946D01*
X5396673Y8963324D01*
X5375724Y9030734D01*
X5365220Y9089933D01*
X5364761Y9109689D01*
X5369663Y9134155D01*
X5383551Y9169569D01*
X5407995Y9219177D01*
X5444561Y9286221D01*
X5480559Y9349337D01*
X5523138Y9422569D01*
X5554672Y9475091D01*
X5577509Y9510162D01*
X5593998Y9531043D01*
X5606488Y9540995D01*
X5617328Y9543277D01*
X5620127Y9543022D01*
X5641138Y9535080D01*
X5680484Y9515790D01*
X5732919Y9487871D01*
X5793196Y9454044D01*
X5806193Y9446542D01*
X5885462Y9399072D01*
X5945081Y9359588D01*
X5990247Y9324394D01*
X6025052Y9290983D01*
X6103714Y9194824D01*
X6155618Y9102472D01*
X6181013Y9012782D01*
X6180154Y8924613D01*
X6153290Y8836821D01*
X6133367Y8798142D01*
X6937536Y8333855D01*
X6982919Y8414801D01*
X7023674Y8503966D01*
X7037115Y8541737D01*
X7070253Y8691658D01*
X7076685Y8843489D01*
X7056916Y8995447D01*
X7011448Y9145751D01*
X6940786Y9292617D01*
X6845434Y9434262D01*
X6755257Y9538909D01*
X6691733Y9603210D01*
X6628825Y9660996D01*
X6562160Y9715488D01*
X6487361Y9769912D01*
X6400056Y9827488D01*
X6295867Y9891441D01*
X6200646Y9947487D01*
X5917366Y10112075D01*
X5972041Y10194223D01*
X6040901Y10277849D01*
X6119655Y10338431D01*
X6205759Y10374793D01*
X6296668Y10385753D01*
X6365929Y10376725D01*
X6454409Y10345153D01*
X6550896Y10292249D01*
X6651369Y10221364D01*
X6751813Y10135854D01*
X6848208Y10039070D01*
X6936533Y9934367D01*
X6996351Y9850710D01*
X7024442Y9809267D01*
X7046571Y9778875D01*
X7058729Y9764982D01*
X7059645Y9764673D01*
X7071534Y9773206D01*
X7102247Y9796285D01*
X7148862Y9831688D01*
X7208459Y9877191D01*
X7278119Y9930568D01*
X7349092Y9985111D01*
X7633133Y10203689D01*
X7556911Y10266137D01*
X7524420Y10294148D01*
X7476282Y10337481D01*
X7416588Y10392363D01*
X7349425Y10455022D01*
X7278885Y10521688D01*
X7250887Y10548394D01*
X7128881Y10662400D01*
X7019690Y10758103D01*
X6919000Y10838656D01*
X6822492Y10907213D01*
X6725846Y10966926D01*
X6624746Y11020949D01*
X6624746Y11020949D01*
G37*
X6624746Y11020949D02*
X6563259Y11050503D01*
X6381755Y11125393D01*
X6211831Y11175807D01*
X6052473Y11201674D01*
X5902672Y11202920D01*
X5761415Y11179474D01*
X5627692Y11131262D01*
X5500491Y11058213D01*
X5385292Y10966220D01*
X5351580Y10935125D01*
X5320785Y10905558D01*
X5291684Y10875677D01*
X5263051Y10843640D01*
X5233662Y10807606D01*
X5202290Y10765733D01*
X5167710Y10716179D01*
X5128700Y10657103D01*
X5084031Y10586663D01*
X5032480Y10503016D01*
X4972822Y10404323D01*
X4903830Y10288739D01*
X4824281Y10154425D01*
X4732950Y9999538D01*
X4661436Y9878035D01*
X4170582Y9043742D01*
X4079420Y8988817D01*
X4035868Y8962144D01*
X4002727Y8941030D01*
X3985955Y8929290D01*
X3985060Y8928355D01*
X3995798Y8920495D01*
X4027774Y8900504D01*
X4078406Y8869915D01*
X4145113Y8830261D01*
X4225315Y8783076D01*
X4316432Y8729891D01*
X4415882Y8672242D01*
X4427750Y8665387D01*
X4873636Y8407955D01*
X4931988Y8509022D01*
X4959118Y8554258D01*
X4981314Y8588016D01*
X4995047Y8605060D01*
X4997338Y8606048D01*
X5004947Y8591973D01*
X5018232Y8558889D01*
X5034347Y8513894D01*
X5034698Y8512866D01*
X5067546Y8436713D01*
X5115438Y8351637D01*
X5172596Y8266616D01*
X5233243Y8190628D01*
X5261695Y8160200D01*
X5322681Y8107206D01*
X5402048Y8050035D01*
X5492152Y7993261D01*
X5585348Y7941463D01*
X5673990Y7899215D01*
X5738879Y7874599D01*
X5909032Y7833326D01*
X6075162Y7818594D01*
X6235980Y7830141D01*
X6390198Y7867702D01*
X6536528Y7931015D01*
X6673681Y8019817D01*
X6745607Y8080224D01*
X6805922Y8144476D01*
X6868965Y8227016D01*
X6929656Y8319804D01*
X6937536Y8333855D01*
X6133367Y8798142D01*
X6085569Y8730754D01*
X6029183Y8684371D01*
X5956431Y8653139D01*
X5931370Y8646134D01*
X5850196Y8634943D01*
X5769326Y8644440D01*
X5683937Y8675735D01*
X5601654Y8721916D01*
X5527944Y8773225D01*
X5476020Y8820324D01*
X5455818Y8844846D01*
X5424545Y8897946D01*
X5396673Y8963324D01*
X5375724Y9030734D01*
X5365220Y9089933D01*
X5364761Y9109689D01*
X5369663Y9134155D01*
X5383551Y9169569D01*
X5407995Y9219177D01*
X5444561Y9286221D01*
X5480559Y9349337D01*
X5523138Y9422569D01*
X5554672Y9475091D01*
X5577509Y9510162D01*
X5593998Y9531043D01*
X5606488Y9540995D01*
X5617328Y9543277D01*
X5620127Y9543022D01*
X5641138Y9535080D01*
X5680484Y9515790D01*
X5732919Y9487871D01*
X5793196Y9454044D01*
X5806193Y9446542D01*
X5885462Y9399072D01*
X5945081Y9359588D01*
X5990247Y9324394D01*
X6025052Y9290983D01*
X6103714Y9194824D01*
X6155618Y9102472D01*
X6181013Y9012782D01*
X6180154Y8924613D01*
X6153290Y8836821D01*
X6133367Y8798142D01*
X6937536Y8333855D01*
X6982919Y8414801D01*
X7023674Y8503966D01*
X7037115Y8541737D01*
X7070253Y8691658D01*
X7076685Y8843489D01*
X7056916Y8995447D01*
X7011448Y9145751D01*
X6940786Y9292617D01*
X6845434Y9434262D01*
X6755257Y9538909D01*
X6691733Y9603210D01*
X6628825Y9660996D01*
X6562160Y9715488D01*
X6487361Y9769912D01*
X6400056Y9827488D01*
X6295867Y9891441D01*
X6200646Y9947487D01*
X5917366Y10112075D01*
X5972041Y10194223D01*
X6040901Y10277849D01*
X6119655Y10338431D01*
X6205759Y10374793D01*
X6296668Y10385753D01*
X6365929Y10376725D01*
X6454409Y10345153D01*
X6550896Y10292249D01*
X6651369Y10221364D01*
X6751813Y10135854D01*
X6848208Y10039070D01*
X6936533Y9934367D01*
X6996351Y9850710D01*
X7024442Y9809267D01*
X7046571Y9778875D01*
X7058729Y9764982D01*
X7059645Y9764673D01*
X7071534Y9773206D01*
X7102247Y9796285D01*
X7148862Y9831688D01*
X7208459Y9877191D01*
X7278119Y9930568D01*
X7349092Y9985111D01*
X7633133Y10203689D01*
X7556911Y10266137D01*
X7524420Y10294148D01*
X7476282Y10337481D01*
X7416588Y10392363D01*
X7349425Y10455022D01*
X7278885Y10521688D01*
X7250887Y10548394D01*
X7128881Y10662400D01*
X7019690Y10758103D01*
X6919000Y10838656D01*
X6822492Y10907213D01*
X6725846Y10966926D01*
X6624746Y11020949D01*
G36*
X4096008Y13990576D02*
X3994642Y14048547D01*
X3960150Y14068182D01*
X3485716Y14337952D01*
X2432879Y12528114D01*
X2290132Y12282683D01*
X2160536Y12059826D01*
X2043381Y11858413D01*
X1937954Y11677316D01*
X1843544Y11515405D01*
X1759440Y11371553D01*
X1684930Y11244628D01*
X1619301Y11133503D01*
X1561843Y11037047D01*
X1511846Y10954132D01*
X1468595Y10883630D01*
X1431380Y10824410D01*
X1399491Y10775344D01*
X1372214Y10735303D01*
X1348838Y10703155D01*
X1328653Y10677775D01*
X1310947Y10658032D01*
X1295006Y10642796D01*
X1280122Y10630939D01*
X1265582Y10621332D01*
X1250673Y10612846D01*
X1234685Y10604350D01*
X1216907Y10594717D01*
X1213193Y10592623D01*
X1150641Y10557048D01*
X1607828Y10297245D01*
X2065014Y10037440D01*
X2128713Y10134040D01*
X2159665Y10180177D01*
X2179063Y10205984D01*
X2189998Y10214353D01*
X2195566Y10208181D01*
X2197647Y10198519D01*
X2209326Y10160956D01*
X2232958Y10107698D01*
X2264846Y10045611D01*
X2301294Y9981562D01*
X2338604Y9922421D01*
X2369041Y9880110D01*
X2447842Y9793962D01*
X2545981Y9708504D01*
X2655771Y9629275D01*
X2769520Y9561818D01*
X2879541Y9511669D01*
X2881423Y9510966D01*
X3044706Y9464411D01*
X3211134Y9444347D01*
X3378709Y9450294D01*
X3545437Y9481769D01*
X3709322Y9538290D01*
X3868369Y9619375D01*
X4020583Y9724541D01*
X4119866Y9810221D01*
X4196310Y9885723D01*
X4264747Y9962061D01*
X4328782Y10044190D01*
X4392022Y10137065D01*
X4458073Y10245642D01*
X4508830Y10336136D01*
X3631447Y10842694D01*
X3540310Y10694428D01*
X3452376Y10572369D01*
X3366580Y10475601D01*
X3281853Y10403204D01*
X3197128Y10354261D01*
X3111339Y10327855D01*
X3027022Y10322853D01*
X2986567Y10326171D01*
X2953803Y10333072D01*
X2920696Y10346690D01*
X2879207Y10370157D01*
X2835664Y10397436D01*
X2752667Y10455639D01*
X2692222Y10510678D01*
X2674853Y10530795D01*
X2638121Y10581798D01*
X2601973Y10640085D01*
X2587219Y10667332D01*
X2550282Y10740652D01*
X3263893Y11976664D01*
X3351922Y11978106D01*
X3468697Y11969745D01*
X3577002Y11942142D01*
X3673517Y11897423D01*
X3754923Y11837707D01*
X3817903Y11765118D01*
X3859136Y11681777D01*
X3868385Y11647860D01*
X3879961Y11547544D01*
X3873067Y11438182D01*
X3847215Y11318113D01*
X3801915Y11185677D01*
X3736681Y11039213D01*
X3651021Y10877063D01*
X3631447Y10842694D01*
X4508830Y10336136D01*
X4529957Y10373804D01*
X4632941Y10575325D01*
X4714716Y10763510D01*
X4776239Y10941239D01*
X4818461Y11111389D01*
X4842338Y11276838D01*
X4846172Y11327762D01*
X4843971Y11502317D01*
X4817317Y11671699D01*
X4767327Y11832774D01*
X4695120Y11982413D01*
X4601814Y12117484D01*
X4539310Y12187066D01*
X4472291Y12245643D01*
X4386413Y12307056D01*
X4289309Y12366902D01*
X4188608Y12420779D01*
X4091942Y12464291D01*
X4010247Y12492162D01*
X3906572Y12514180D01*
X3800897Y12526533D01*
X3703254Y12528359D01*
X3647825Y12523339D01*
X3608729Y12518382D01*
X3582441Y12516797D01*
X3577081Y12517511D01*
X3582381Y12529788D01*
X3600157Y12563468D01*
X3629096Y12616208D01*
X3667882Y12685667D01*
X3715201Y12769501D01*
X3769736Y12865369D01*
X3830173Y12970931D01*
X3891996Y13078300D01*
X3971411Y13215689D01*
X4038647Y13331355D01*
X4095185Y13427402D01*
X4142503Y13505928D01*
X4182082Y13569036D01*
X4215401Y13618825D01*
X4243938Y13657397D01*
X4269175Y13686853D01*
X4292589Y13709292D01*
X4315659Y13726818D01*
X4339867Y13741529D01*
X4366690Y13755527D01*
X4370079Y13757221D01*
X4404744Y13775395D01*
X4427060Y13788769D01*
X4430925Y13792077D01*
X4420213Y13800009D01*
X4388105Y13819968D01*
X4337116Y13850479D01*
X4269760Y13890068D01*
X4188553Y13937259D01*
X4096008Y13990576D01*
X4096008Y13990576D01*
G37*
X4096008Y13990576D02*
X3994642Y14048547D01*
X3960150Y14068182D01*
X3485716Y14337952D01*
X2432879Y12528114D01*
X2290132Y12282683D01*
X2160536Y12059826D01*
X2043381Y11858413D01*
X1937954Y11677316D01*
X1843544Y11515405D01*
X1759440Y11371553D01*
X1684930Y11244628D01*
X1619301Y11133503D01*
X1561843Y11037047D01*
X1511846Y10954132D01*
X1468595Y10883630D01*
X1431380Y10824410D01*
X1399491Y10775344D01*
X1372214Y10735303D01*
X1348838Y10703155D01*
X1328653Y10677775D01*
X1310947Y10658032D01*
X1295006Y10642796D01*
X1280122Y10630939D01*
X1265582Y10621332D01*
X1250673Y10612846D01*
X1234685Y10604350D01*
X1216907Y10594717D01*
X1213193Y10592623D01*
X1150641Y10557048D01*
X1607828Y10297245D01*
X2065014Y10037440D01*
X2128713Y10134040D01*
X2159665Y10180177D01*
X2179063Y10205984D01*
X2189998Y10214353D01*
X2195566Y10208181D01*
X2197647Y10198519D01*
X2209326Y10160956D01*
X2232958Y10107698D01*
X2264846Y10045611D01*
X2301294Y9981562D01*
X2338604Y9922421D01*
X2369041Y9880110D01*
X2447842Y9793962D01*
X2545981Y9708504D01*
X2655771Y9629275D01*
X2769520Y9561818D01*
X2879541Y9511669D01*
X2881423Y9510966D01*
X3044706Y9464411D01*
X3211134Y9444347D01*
X3378709Y9450294D01*
X3545437Y9481769D01*
X3709322Y9538290D01*
X3868369Y9619375D01*
X4020583Y9724541D01*
X4119866Y9810221D01*
X4196310Y9885723D01*
X4264747Y9962061D01*
X4328782Y10044190D01*
X4392022Y10137065D01*
X4458073Y10245642D01*
X4508830Y10336136D01*
X3631447Y10842694D01*
X3540310Y10694428D01*
X3452376Y10572369D01*
X3366580Y10475601D01*
X3281853Y10403204D01*
X3197128Y10354261D01*
X3111339Y10327855D01*
X3027022Y10322853D01*
X2986567Y10326171D01*
X2953803Y10333072D01*
X2920696Y10346690D01*
X2879207Y10370157D01*
X2835664Y10397436D01*
X2752667Y10455639D01*
X2692222Y10510678D01*
X2674853Y10530795D01*
X2638121Y10581798D01*
X2601973Y10640085D01*
X2587219Y10667332D01*
X2550282Y10740652D01*
X3263893Y11976664D01*
X3351922Y11978106D01*
X3468697Y11969745D01*
X3577002Y11942142D01*
X3673517Y11897423D01*
X3754923Y11837707D01*
X3817903Y11765118D01*
X3859136Y11681777D01*
X3868385Y11647860D01*
X3879961Y11547544D01*
X3873067Y11438182D01*
X3847215Y11318113D01*
X3801915Y11185677D01*
X3736681Y11039213D01*
X3651021Y10877063D01*
X3631447Y10842694D01*
X4508830Y10336136D01*
X4529957Y10373804D01*
X4632941Y10575325D01*
X4714716Y10763510D01*
X4776239Y10941239D01*
X4818461Y11111389D01*
X4842338Y11276838D01*
X4846172Y11327762D01*
X4843971Y11502317D01*
X4817317Y11671699D01*
X4767327Y11832774D01*
X4695120Y11982413D01*
X4601814Y12117484D01*
X4539310Y12187066D01*
X4472291Y12245643D01*
X4386413Y12307056D01*
X4289309Y12366902D01*
X4188608Y12420779D01*
X4091942Y12464291D01*
X4010247Y12492162D01*
X3906572Y12514180D01*
X3800897Y12526533D01*
X3703254Y12528359D01*
X3647825Y12523339D01*
X3608729Y12518382D01*
X3582441Y12516797D01*
X3577081Y12517511D01*
X3582381Y12529788D01*
X3600157Y12563468D01*
X3629096Y12616208D01*
X3667882Y12685667D01*
X3715201Y12769501D01*
X3769736Y12865369D01*
X3830173Y12970931D01*
X3891996Y13078300D01*
X3971411Y13215689D01*
X4038647Y13331355D01*
X4095185Y13427402D01*
X4142503Y13505928D01*
X4182082Y13569036D01*
X4215401Y13618825D01*
X4243938Y13657397D01*
X4269175Y13686853D01*
X4292589Y13709292D01*
X4315659Y13726818D01*
X4339867Y13741529D01*
X4366690Y13755527D01*
X4370079Y13757221D01*
X4404744Y13775395D01*
X4427060Y13788769D01*
X4430925Y13792077D01*
X4420213Y13800009D01*
X4388105Y13819968D01*
X4337116Y13850479D01*
X4269760Y13890068D01*
X4188553Y13937259D01*
X4096008Y13990576D01*
G36*
X12842609Y10003435D02*
X12735442Y10024030D01*
X12624174Y10023297D01*
X12511538Y9999668D01*
X12400267Y9951575D01*
X12341475Y9914714D01*
X12274244Y9854493D01*
X12212934Y9775555D01*
X12163344Y9686645D01*
X12131733Y9598383D01*
X12115033Y9477869D01*
X12123654Y9359991D01*
X12155635Y9248102D01*
X12209016Y9145555D01*
X12281836Y9055706D01*
X12372133Y8981908D01*
X12477947Y8927512D01*
X12534872Y8908955D01*
X12655943Y8890334D01*
X12777633Y8898323D01*
X12896784Y8932337D01*
X13010229Y8991789D01*
X13021160Y8999125D01*
X13060687Y9027509D01*
X13090259Y9053562D01*
X13115875Y9084267D01*
X13143537Y9126607D01*
X13171412Y9173962D01*
X13203759Y9231518D01*
X13224633Y9274575D01*
X13237106Y9311929D01*
X13244251Y9352372D01*
X13248289Y9394012D01*
X13246380Y9519935D01*
X13221232Y9635520D01*
X13175580Y9739197D01*
X13112160Y9829397D01*
X13033701Y9904550D01*
X12942939Y9963087D01*
X12842609Y10003435D01*
X12842609Y10003435D01*
G37*
X12842609Y10003435D02*
X12735442Y10024030D01*
X12624174Y10023297D01*
X12511538Y9999668D01*
X12400267Y9951575D01*
X12341475Y9914714D01*
X12274244Y9854493D01*
X12212934Y9775555D01*
X12163344Y9686645D01*
X12131733Y9598383D01*
X12115033Y9477869D01*
X12123654Y9359991D01*
X12155635Y9248102D01*
X12209016Y9145555D01*
X12281836Y9055706D01*
X12372133Y8981908D01*
X12477947Y8927512D01*
X12534872Y8908955D01*
X12655943Y8890334D01*
X12777633Y8898323D01*
X12896784Y8932337D01*
X13010229Y8991789D01*
X13021160Y8999125D01*
X13060687Y9027509D01*
X13090259Y9053562D01*
X13115875Y9084267D01*
X13143537Y9126607D01*
X13171412Y9173962D01*
X13203759Y9231518D01*
X13224633Y9274575D01*
X13237106Y9311929D01*
X13244251Y9352372D01*
X13248289Y9394012D01*
X13246380Y9519935D01*
X13221232Y9635520D01*
X13175580Y9739197D01*
X13112160Y9829397D01*
X13033701Y9904550D01*
X12942939Y9963087D01*
X12842609Y10003435D01*
D13*
X24636666Y26228095D02*
X24636666Y25656667D01*
X24674762Y25542381D01*
X24750952Y25466190D01*
X24865238Y25428095D01*
X24941428Y25428095D01*
X24331904Y26228095D02*
X23836666Y26228095D01*
X24103333Y25923333D01*
X23989047Y25923333D01*
X23912857Y25885238D01*
X23874761Y25847143D01*
X23836666Y25770952D01*
X23836666Y25580476D01*
X23874761Y25504286D01*
X23912857Y25466190D01*
X23989047Y25428095D01*
X24217619Y25428095D01*
X24293809Y25466190D01*
X24331904Y25504286D01*
X34893524Y15052095D02*
X34893524Y14404476D01*
X34855429Y14328286D01*
X34817333Y14290190D01*
X34741143Y14252095D01*
X34588762Y14252095D01*
X34512571Y14290190D01*
X34474476Y14328286D01*
X34436381Y14404476D01*
X34436381Y15052095D01*
X34131619Y15052095D02*
X33636381Y15052095D01*
X33903048Y14747333D01*
X33788762Y14747333D01*
X33712572Y14709238D01*
X33674476Y14671143D01*
X33636381Y14594952D01*
X33636381Y14404476D01*
X33674476Y14328286D01*
X33712572Y14290190D01*
X33788762Y14252095D01*
X34017334Y14252095D01*
X34093524Y14290190D01*
X34131619Y14328286D01*
X43079429Y36038095D02*
X43079429Y36838095D01*
X42622286Y36038095D01*
X42622286Y36838095D01*
X42127048Y36038095D02*
X42203239Y36076190D01*
X42241334Y36114286D01*
X42279429Y36190476D01*
X42279429Y36419048D01*
X42241334Y36495238D01*
X42203239Y36533333D01*
X42127048Y36571429D01*
X42012762Y36571429D01*
X41936572Y36533333D01*
X41898477Y36495238D01*
X41860381Y36419048D01*
X41860381Y36190476D01*
X41898477Y36114286D01*
X41936572Y36076190D01*
X42012762Y36038095D01*
X42127048Y36038095D01*
X40450857Y36114286D02*
X40488952Y36076190D01*
X40603238Y36038095D01*
X40679428Y36038095D01*
X40793714Y36076190D01*
X40869905Y36152381D01*
X40908000Y36228571D01*
X40946095Y36380952D01*
X40946095Y36495238D01*
X40908000Y36647619D01*
X40869905Y36723810D01*
X40793714Y36800000D01*
X40679428Y36838095D01*
X40603238Y36838095D01*
X40488952Y36800000D01*
X40450857Y36761905D01*
X39993714Y36038095D02*
X40069905Y36076190D01*
X40108000Y36114286D01*
X40146095Y36190476D01*
X40146095Y36419048D01*
X40108000Y36495238D01*
X40069905Y36533333D01*
X39993714Y36571429D01*
X39879428Y36571429D01*
X39803238Y36533333D01*
X39765143Y36495238D01*
X39727047Y36419048D01*
X39727047Y36190476D01*
X39765143Y36114286D01*
X39803238Y36076190D01*
X39879428Y36038095D01*
X39993714Y36038095D01*
X39384190Y36571429D02*
X39384190Y35771429D01*
X39384190Y36533333D02*
X39307999Y36571429D01*
X39155618Y36571429D01*
X39079428Y36533333D01*
X39041333Y36495238D01*
X39003237Y36419048D01*
X39003237Y36190476D01*
X39041333Y36114286D01*
X39079428Y36076190D01*
X39155618Y36038095D01*
X39307999Y36038095D01*
X39384190Y36076190D01*
X38660380Y36571429D02*
X38660380Y35771429D01*
X38660380Y36533333D02*
X38584189Y36571429D01*
X38431808Y36571429D01*
X38355618Y36533333D01*
X38317523Y36495238D01*
X38279427Y36419048D01*
X38279427Y36190476D01*
X38317523Y36114286D01*
X38355618Y36076190D01*
X38431808Y36038095D01*
X38584189Y36038095D01*
X38660380Y36076190D01*
X37631808Y36076190D02*
X37707998Y36038095D01*
X37860379Y36038095D01*
X37936570Y36076190D01*
X37974665Y36152381D01*
X37974665Y36457143D01*
X37936570Y36533333D01*
X37860379Y36571429D01*
X37707998Y36571429D01*
X37631808Y36533333D01*
X37593713Y36457143D01*
X37593713Y36380952D01*
X37974665Y36304762D01*
X37250856Y36038095D02*
X37250856Y36571429D01*
X37250856Y36419048D02*
X37212761Y36495238D01*
X37174665Y36533333D01*
X37098475Y36571429D01*
X37022284Y36571429D01*
X41997524Y8448095D02*
X41997524Y7800476D01*
X41959429Y7724286D01*
X41921333Y7686190D01*
X41845143Y7648095D01*
X41692762Y7648095D01*
X41616571Y7686190D01*
X41578476Y7724286D01*
X41540381Y7800476D01*
X41540381Y8448095D01*
X40816572Y8448095D02*
X40968953Y8448095D01*
X41045143Y8410000D01*
X41083238Y8371905D01*
X41159429Y8257619D01*
X41197524Y8105238D01*
X41197524Y7800476D01*
X41159429Y7724286D01*
X41121334Y7686190D01*
X41045143Y7648095D01*
X40892762Y7648095D01*
X40816572Y7686190D01*
X40778476Y7724286D01*
X40740381Y7800476D01*
X40740381Y7990952D01*
X40778476Y8067143D01*
X40816572Y8105238D01*
X40892762Y8143333D01*
X41045143Y8143333D01*
X41121334Y8105238D01*
X41159429Y8067143D01*
X41197524Y7990952D01*
X10533333Y14582286D02*
X10571428Y14544190D01*
X10685714Y14506095D01*
X10761904Y14506095D01*
X10876190Y14544190D01*
X10952381Y14620381D01*
X10990476Y14696571D01*
X11028571Y14848952D01*
X11028571Y14963238D01*
X10990476Y15115619D01*
X10952381Y15191810D01*
X10876190Y15268000D01*
X10761904Y15306095D01*
X10685714Y15306095D01*
X10571428Y15268000D01*
X10533333Y15229905D01*
X10228571Y15229905D02*
X10190476Y15268000D01*
X10114285Y15306095D01*
X9923809Y15306095D01*
X9847619Y15268000D01*
X9809523Y15229905D01*
X9771428Y15153714D01*
X9771428Y15077524D01*
X9809523Y14963238D01*
X10266666Y14506095D01*
X9771428Y14506095D01*
X56383333Y32714286D02*
X56421428Y32676190D01*
X56535714Y32638095D01*
X56611904Y32638095D01*
X56726190Y32676190D01*
X56802381Y32752381D01*
X56840476Y32828571D01*
X56878571Y32980952D01*
X56878571Y33095238D01*
X56840476Y33247619D01*
X56802381Y33323810D01*
X56726190Y33400000D01*
X56611904Y33438095D01*
X56535714Y33438095D01*
X56421428Y33400000D01*
X56383333Y33361905D01*
X56116666Y33438095D02*
X55621428Y33438095D01*
X55888095Y33133333D01*
X55773809Y33133333D01*
X55697619Y33095238D01*
X55659523Y33057143D01*
X55621428Y32980952D01*
X55621428Y32790476D01*
X55659523Y32714286D01*
X55697619Y32676190D01*
X55773809Y32638095D01*
X56002381Y32638095D01*
X56078571Y32676190D01*
X56116666Y32714286D01*
X51387333Y20000286D02*
X51425428Y19962190D01*
X51539714Y19924095D01*
X51615904Y19924095D01*
X51730190Y19962190D01*
X51806381Y20038381D01*
X51844476Y20114571D01*
X51882571Y20266952D01*
X51882571Y20381238D01*
X51844476Y20533619D01*
X51806381Y20609810D01*
X51730190Y20686000D01*
X51615904Y20724095D01*
X51539714Y20724095D01*
X51425428Y20686000D01*
X51387333Y20647905D01*
X50701619Y20457429D02*
X50701619Y19924095D01*
X50892095Y20762190D02*
X51082571Y20190762D01*
X50587333Y20190762D01*
X53633333Y32714286D02*
X53671428Y32676190D01*
X53785714Y32638095D01*
X53861904Y32638095D01*
X53976190Y32676190D01*
X54052381Y32752381D01*
X54090476Y32828571D01*
X54128571Y32980952D01*
X54128571Y33095238D01*
X54090476Y33247619D01*
X54052381Y33323810D01*
X53976190Y33400000D01*
X53861904Y33438095D01*
X53785714Y33438095D01*
X53671428Y33400000D01*
X53633333Y33361905D01*
X52909523Y33438095D02*
X53290476Y33438095D01*
X53328571Y33057143D01*
X53290476Y33095238D01*
X53214285Y33133333D01*
X53023809Y33133333D01*
X52947619Y33095238D01*
X52909523Y33057143D01*
X52871428Y32980952D01*
X52871428Y32790476D01*
X52909523Y32714286D01*
X52947619Y32676190D01*
X53023809Y32638095D01*
X53214285Y32638095D01*
X53290476Y32676190D01*
X53328571Y32714286D01*
X54014286Y23674286D02*
X54052381Y23636190D01*
X54166667Y23598095D01*
X54242857Y23598095D01*
X54357143Y23636190D01*
X54433334Y23712381D01*
X54471429Y23788571D01*
X54509524Y23940952D01*
X54509524Y24055238D01*
X54471429Y24207619D01*
X54433334Y24283810D01*
X54357143Y24360000D01*
X54242857Y24398095D01*
X54166667Y24398095D01*
X54052381Y24360000D01*
X54014286Y24321905D01*
X53252381Y23598095D02*
X53709524Y23598095D01*
X53480953Y23598095D02*
X53480953Y24398095D01*
X53557143Y24283810D01*
X53633334Y24207619D01*
X53709524Y24169524D01*
X52757143Y24398095D02*
X52680952Y24398095D01*
X52604762Y24360000D01*
X52566667Y24321905D01*
X52528571Y24245714D01*
X52490476Y24093333D01*
X52490476Y23902857D01*
X52528571Y23750476D01*
X52566667Y23674286D01*
X52604762Y23636190D01*
X52680952Y23598095D01*
X52757143Y23598095D01*
X52833333Y23636190D01*
X52871429Y23674286D01*
X52909524Y23750476D01*
X52947619Y23902857D01*
X52947619Y24093333D01*
X52909524Y24245714D01*
X52871429Y24321905D01*
X52833333Y24360000D01*
X52757143Y24398095D01*
X45737714Y6238286D02*
X45775810Y6276381D01*
X45813905Y6390667D01*
X45813905Y6466857D01*
X45775810Y6581143D01*
X45699619Y6657334D01*
X45623429Y6695429D01*
X45471048Y6733524D01*
X45356762Y6733524D01*
X45204381Y6695429D01*
X45128190Y6657334D01*
X45052000Y6581143D01*
X45013905Y6466857D01*
X45013905Y6390667D01*
X45052000Y6276381D01*
X45090095Y6238286D01*
X45813905Y5476381D02*
X45813905Y5933524D01*
X45813905Y5704953D02*
X45013905Y5704953D01*
X45128190Y5781143D01*
X45204381Y5857334D01*
X45242476Y5933524D01*
X45813905Y4714476D02*
X45813905Y5171619D01*
X45813905Y4943048D02*
X45013905Y4943048D01*
X45128190Y5019238D01*
X45204381Y5095429D01*
X45242476Y5171619D01*
X45737714Y3190286D02*
X45775810Y3228381D01*
X45813905Y3342667D01*
X45813905Y3418857D01*
X45775810Y3533143D01*
X45699619Y3609334D01*
X45623429Y3647429D01*
X45471048Y3685524D01*
X45356762Y3685524D01*
X45204381Y3647429D01*
X45128190Y3609334D01*
X45052000Y3533143D01*
X45013905Y3418857D01*
X45013905Y3342667D01*
X45052000Y3228381D01*
X45090095Y3190286D01*
X45813905Y2428381D02*
X45813905Y2885524D01*
X45813905Y2656953D02*
X45013905Y2656953D01*
X45128190Y2733143D01*
X45204381Y2809334D01*
X45242476Y2885524D01*
X45090095Y2123619D02*
X45052000Y2085524D01*
X45013905Y2009333D01*
X45013905Y1818857D01*
X45052000Y1742667D01*
X45090095Y1704571D01*
X45166286Y1666476D01*
X45242476Y1666476D01*
X45356762Y1704571D01*
X45813905Y2161714D01*
X45813905Y1666476D01*
X19042286Y19178286D02*
X19080381Y19140190D01*
X19194667Y19102095D01*
X19270857Y19102095D01*
X19385143Y19140190D01*
X19461334Y19216381D01*
X19499429Y19292571D01*
X19537524Y19444952D01*
X19537524Y19559238D01*
X19499429Y19711619D01*
X19461334Y19787810D01*
X19385143Y19864000D01*
X19270857Y19902095D01*
X19194667Y19902095D01*
X19080381Y19864000D01*
X19042286Y19825905D01*
X18280381Y19102095D02*
X18737524Y19102095D01*
X18508953Y19102095D02*
X18508953Y19902095D01*
X18585143Y19787810D01*
X18661334Y19711619D01*
X18737524Y19673524D01*
X18013714Y19902095D02*
X17518476Y19902095D01*
X17785143Y19597333D01*
X17670857Y19597333D01*
X17594667Y19559238D01*
X17556571Y19521143D01*
X17518476Y19444952D01*
X17518476Y19254476D01*
X17556571Y19178286D01*
X17594667Y19140190D01*
X17670857Y19102095D01*
X17899429Y19102095D01*
X17975619Y19140190D01*
X18013714Y19178286D01*
X17166286Y12014286D02*
X17204381Y11976190D01*
X17318667Y11938095D01*
X17394857Y11938095D01*
X17509143Y11976190D01*
X17585334Y12052381D01*
X17623429Y12128571D01*
X17661524Y12280952D01*
X17661524Y12395238D01*
X17623429Y12547619D01*
X17585334Y12623810D01*
X17509143Y12700000D01*
X17394857Y12738095D01*
X17318667Y12738095D01*
X17204381Y12700000D01*
X17166286Y12661905D01*
X16404381Y11938095D02*
X16861524Y11938095D01*
X16632953Y11938095D02*
X16632953Y12738095D01*
X16709143Y12623810D01*
X16785334Y12547619D01*
X16861524Y12509524D01*
X15718667Y12471429D02*
X15718667Y11938095D01*
X15909143Y12776190D02*
X16099619Y12204762D01*
X15604381Y12204762D01*
X53126286Y7570286D02*
X53164381Y7532190D01*
X53278667Y7494095D01*
X53354857Y7494095D01*
X53469143Y7532190D01*
X53545334Y7608381D01*
X53583429Y7684571D01*
X53621524Y7836952D01*
X53621524Y7951238D01*
X53583429Y8103619D01*
X53545334Y8179810D01*
X53469143Y8256000D01*
X53354857Y8294095D01*
X53278667Y8294095D01*
X53164381Y8256000D01*
X53126286Y8217905D01*
X52364381Y7494095D02*
X52821524Y7494095D01*
X52592953Y7494095D02*
X52592953Y8294095D01*
X52669143Y8179810D01*
X52745334Y8103619D01*
X52821524Y8065524D01*
X51678667Y8294095D02*
X51831048Y8294095D01*
X51907238Y8256000D01*
X51945333Y8217905D01*
X52021524Y8103619D01*
X52059619Y7951238D01*
X52059619Y7646476D01*
X52021524Y7570286D01*
X51983429Y7532190D01*
X51907238Y7494095D01*
X51754857Y7494095D01*
X51678667Y7532190D01*
X51640571Y7570286D01*
X51602476Y7646476D01*
X51602476Y7836952D01*
X51640571Y7913143D01*
X51678667Y7951238D01*
X51754857Y7989333D01*
X51907238Y7989333D01*
X51983429Y7951238D01*
X52021524Y7913143D01*
X52059619Y7836952D01*
X53126286Y10110286D02*
X53164381Y10072190D01*
X53278667Y10034095D01*
X53354857Y10034095D01*
X53469143Y10072190D01*
X53545334Y10148381D01*
X53583429Y10224571D01*
X53621524Y10376952D01*
X53621524Y10491238D01*
X53583429Y10643619D01*
X53545334Y10719810D01*
X53469143Y10796000D01*
X53354857Y10834095D01*
X53278667Y10834095D01*
X53164381Y10796000D01*
X53126286Y10757905D01*
X52364381Y10034095D02*
X52821524Y10034095D01*
X52592953Y10034095D02*
X52592953Y10834095D01*
X52669143Y10719810D01*
X52745334Y10643619D01*
X52821524Y10605524D01*
X52097714Y10834095D02*
X51564381Y10834095D01*
X51907238Y10034095D01*
X20114286Y5614286D02*
X20152381Y5576190D01*
X20266667Y5538095D01*
X20342857Y5538095D01*
X20457143Y5576190D01*
X20533334Y5652381D01*
X20571429Y5728571D01*
X20609524Y5880952D01*
X20609524Y5995238D01*
X20571429Y6147619D01*
X20533334Y6223810D01*
X20457143Y6300000D01*
X20342857Y6338095D01*
X20266667Y6338095D01*
X20152381Y6300000D01*
X20114286Y6261905D01*
X19809524Y6261905D02*
X19771429Y6300000D01*
X19695238Y6338095D01*
X19504762Y6338095D01*
X19428572Y6300000D01*
X19390476Y6261905D01*
X19352381Y6185714D01*
X19352381Y6109524D01*
X19390476Y5995238D01*
X19847619Y5538095D01*
X19352381Y5538095D01*
X18857143Y6338095D02*
X18780952Y6338095D01*
X18704762Y6300000D01*
X18666667Y6261905D01*
X18628571Y6185714D01*
X18590476Y6033333D01*
X18590476Y5842857D01*
X18628571Y5690476D01*
X18666667Y5614286D01*
X18704762Y5576190D01*
X18780952Y5538095D01*
X18857143Y5538095D01*
X18933333Y5576190D01*
X18971429Y5614286D01*
X19009524Y5690476D01*
X19047619Y5842857D01*
X19047619Y6033333D01*
X19009524Y6185714D01*
X18971429Y6261905D01*
X18933333Y6300000D01*
X18857143Y6338095D01*
X58138095Y13176190D02*
X58100000Y13252381D01*
X58023810Y13328571D01*
X57909524Y13442857D01*
X57871429Y13519048D01*
X57871429Y13595238D01*
X58061905Y13557143D02*
X58023810Y13633333D01*
X57947619Y13709524D01*
X57795238Y13747619D01*
X57528571Y13747619D01*
X57376190Y13709524D01*
X57300000Y13633333D01*
X57261905Y13557143D01*
X57261905Y13404762D01*
X57300000Y13328571D01*
X57376190Y13252381D01*
X57528571Y13214286D01*
X57795238Y13214286D01*
X57947619Y13252381D01*
X58023810Y13328571D01*
X58061905Y13404762D01*
X58061905Y13557143D01*
X58061905Y12452381D02*
X58061905Y12909524D01*
X58061905Y12680953D02*
X57261905Y12680953D01*
X57376190Y12757143D01*
X57452381Y12833334D01*
X57490476Y12909524D01*
X51133333Y32170095D02*
X51400000Y32551048D01*
X51590476Y32170095D02*
X51590476Y32970095D01*
X51285714Y32970095D01*
X51209523Y32932000D01*
X51171428Y32893905D01*
X51133333Y32817714D01*
X51133333Y32703429D01*
X51171428Y32627238D01*
X51209523Y32589143D01*
X51285714Y32551048D01*
X51590476Y32551048D01*
X50371428Y32170095D02*
X50828571Y32170095D01*
X50600000Y32170095D02*
X50600000Y32970095D01*
X50676190Y32855810D01*
X50752381Y32779619D01*
X50828571Y32741524D01*
X49141333Y12728095D02*
X49408000Y13109048D01*
X49598476Y12728095D02*
X49598476Y13528095D01*
X49293714Y13528095D01*
X49217523Y13490000D01*
X49179428Y13451905D01*
X49141333Y13375714D01*
X49141333Y13261429D01*
X49179428Y13185238D01*
X49217523Y13147143D01*
X49293714Y13109048D01*
X49598476Y13109048D01*
X48836571Y13451905D02*
X48798476Y13490000D01*
X48722285Y13528095D01*
X48531809Y13528095D01*
X48455619Y13490000D01*
X48417523Y13451905D01*
X48379428Y13375714D01*
X48379428Y13299524D01*
X48417523Y13185238D01*
X48874666Y12728095D01*
X48379428Y12728095D01*
X25847333Y15776095D02*
X26114000Y16157048D01*
X26304476Y15776095D02*
X26304476Y16576095D01*
X25999714Y16576095D01*
X25923523Y16538000D01*
X25885428Y16499905D01*
X25847333Y16423714D01*
X25847333Y16309429D01*
X25885428Y16233238D01*
X25923523Y16195143D01*
X25999714Y16157048D01*
X26304476Y16157048D01*
X25580666Y16576095D02*
X25085428Y16576095D01*
X25352095Y16271333D01*
X25237809Y16271333D01*
X25161619Y16233238D01*
X25123523Y16195143D01*
X25085428Y16118952D01*
X25085428Y15928476D01*
X25123523Y15852286D01*
X25161619Y15814190D01*
X25237809Y15776095D01*
X25466381Y15776095D01*
X25542571Y15814190D01*
X25580666Y15852286D01*
X51133333Y23888095D02*
X51400000Y24269048D01*
X51590476Y23888095D02*
X51590476Y24688095D01*
X51285714Y24688095D01*
X51209523Y24650000D01*
X51171428Y24611905D01*
X51133333Y24535714D01*
X51133333Y24421429D01*
X51171428Y24345238D01*
X51209523Y24307143D01*
X51285714Y24269048D01*
X51590476Y24269048D01*
X50447619Y24421429D02*
X50447619Y23888095D01*
X50638095Y24726190D02*
X50828571Y24154762D01*
X50333333Y24154762D01*
X54221333Y19332095D02*
X54488000Y19713048D01*
X54678476Y19332095D02*
X54678476Y20132095D01*
X54373714Y20132095D01*
X54297523Y20094000D01*
X54259428Y20055905D01*
X54221333Y19979714D01*
X54221333Y19865429D01*
X54259428Y19789238D01*
X54297523Y19751143D01*
X54373714Y19713048D01*
X54678476Y19713048D01*
X53497523Y20132095D02*
X53878476Y20132095D01*
X53916571Y19751143D01*
X53878476Y19789238D01*
X53802285Y19827333D01*
X53611809Y19827333D01*
X53535619Y19789238D01*
X53497523Y19751143D01*
X53459428Y19674952D01*
X53459428Y19484476D01*
X53497523Y19408286D01*
X53535619Y19370190D01*
X53611809Y19332095D01*
X53802285Y19332095D01*
X53878476Y19370190D01*
X53916571Y19408286D01*
X57861905Y27133333D02*
X57480952Y27400000D01*
X57861905Y27590476D02*
X57061905Y27590476D01*
X57061905Y27285714D01*
X57100000Y27209523D01*
X57138095Y27171428D01*
X57214286Y27133333D01*
X57328571Y27133333D01*
X57404762Y27171428D01*
X57442857Y27209523D01*
X57480952Y27285714D01*
X57480952Y27590476D01*
X57061905Y26447619D02*
X57061905Y26600000D01*
X57100000Y26676190D01*
X57138095Y26714285D01*
X57252381Y26790476D01*
X57404762Y26828571D01*
X57709524Y26828571D01*
X57785714Y26790476D01*
X57823810Y26752381D01*
X57861905Y26676190D01*
X57861905Y26523809D01*
X57823810Y26447619D01*
X57785714Y26409523D01*
X57709524Y26371428D01*
X57519048Y26371428D01*
X57442857Y26409523D01*
X57404762Y26447619D01*
X57366667Y26523809D01*
X57366667Y26676190D01*
X57404762Y26752381D01*
X57442857Y26790476D01*
X57519048Y26828571D01*
X25847333Y17808095D02*
X26114000Y18189048D01*
X26304476Y17808095D02*
X26304476Y18608095D01*
X25999714Y18608095D01*
X25923523Y18570000D01*
X25885428Y18531905D01*
X25847333Y18455714D01*
X25847333Y18341429D01*
X25885428Y18265238D01*
X25923523Y18227143D01*
X25999714Y18189048D01*
X26304476Y18189048D01*
X25580666Y18608095D02*
X25047333Y18608095D01*
X25390190Y17808095D01*
X25847333Y20348095D02*
X26114000Y20729048D01*
X26304476Y20348095D02*
X26304476Y21148095D01*
X25999714Y21148095D01*
X25923523Y21110000D01*
X25885428Y21071905D01*
X25847333Y20995714D01*
X25847333Y20881429D01*
X25885428Y20805238D01*
X25923523Y20767143D01*
X25999714Y20729048D01*
X26304476Y20729048D01*
X25390190Y20805238D02*
X25466381Y20843333D01*
X25504476Y20881429D01*
X25542571Y20957619D01*
X25542571Y20995714D01*
X25504476Y21071905D01*
X25466381Y21110000D01*
X25390190Y21148095D01*
X25237809Y21148095D01*
X25161619Y21110000D01*
X25123523Y21071905D01*
X25085428Y20995714D01*
X25085428Y20957619D01*
X25123523Y20881429D01*
X25161619Y20843333D01*
X25237809Y20805238D01*
X25390190Y20805238D01*
X25466381Y20767143D01*
X25504476Y20729048D01*
X25542571Y20652857D01*
X25542571Y20500476D01*
X25504476Y20424286D01*
X25466381Y20386190D01*
X25390190Y20348095D01*
X25237809Y20348095D01*
X25161619Y20386190D01*
X25123523Y20424286D01*
X25085428Y20500476D01*
X25085428Y20652857D01*
X25123523Y20729048D01*
X25161619Y20767143D01*
X25237809Y20805238D01*
X57142286Y19332095D02*
X57408953Y19713048D01*
X57599429Y19332095D02*
X57599429Y20132095D01*
X57294667Y20132095D01*
X57218476Y20094000D01*
X57180381Y20055905D01*
X57142286Y19979714D01*
X57142286Y19865429D01*
X57180381Y19789238D01*
X57218476Y19751143D01*
X57294667Y19713048D01*
X57599429Y19713048D01*
X56380381Y19332095D02*
X56837524Y19332095D01*
X56608953Y19332095D02*
X56608953Y20132095D01*
X56685143Y20017810D01*
X56761334Y19941619D01*
X56837524Y19903524D01*
X55885143Y20132095D02*
X55808952Y20132095D01*
X55732762Y20094000D01*
X55694667Y20055905D01*
X55656571Y19979714D01*
X55618476Y19827333D01*
X55618476Y19636857D01*
X55656571Y19484476D01*
X55694667Y19408286D01*
X55732762Y19370190D01*
X55808952Y19332095D01*
X55885143Y19332095D01*
X55961333Y19370190D01*
X55999429Y19408286D01*
X56037524Y19484476D01*
X56075619Y19636857D01*
X56075619Y19827333D01*
X56037524Y19979714D01*
X55999429Y20055905D01*
X55961333Y20094000D01*
X55885143Y20132095D01*
X54482286Y21122095D02*
X54748953Y21503048D01*
X54939429Y21122095D02*
X54939429Y21922095D01*
X54634667Y21922095D01*
X54558476Y21884000D01*
X54520381Y21845905D01*
X54482286Y21769714D01*
X54482286Y21655429D01*
X54520381Y21579238D01*
X54558476Y21541143D01*
X54634667Y21503048D01*
X54939429Y21503048D01*
X53720381Y21122095D02*
X54177524Y21122095D01*
X53948953Y21122095D02*
X53948953Y21922095D01*
X54025143Y21807810D01*
X54101334Y21731619D01*
X54177524Y21693524D01*
X52958476Y21122095D02*
X53415619Y21122095D01*
X53187048Y21122095D02*
X53187048Y21922095D01*
X53263238Y21807810D01*
X53339429Y21731619D01*
X53415619Y21693524D01*
X49115905Y9286286D02*
X48734952Y9552953D01*
X49115905Y9743429D02*
X48315905Y9743429D01*
X48315905Y9438667D01*
X48354000Y9362476D01*
X48392095Y9324381D01*
X48468286Y9286286D01*
X48582571Y9286286D01*
X48658762Y9324381D01*
X48696857Y9362476D01*
X48734952Y9438667D01*
X48734952Y9743429D01*
X49115905Y8524381D02*
X49115905Y8981524D01*
X49115905Y8752953D02*
X48315905Y8752953D01*
X48430190Y8829143D01*
X48506381Y8905334D01*
X48544476Y8981524D01*
X48392095Y8219619D02*
X48354000Y8181524D01*
X48315905Y8105333D01*
X48315905Y7914857D01*
X48354000Y7838667D01*
X48392095Y7800571D01*
X48468286Y7762476D01*
X48544476Y7762476D01*
X48658762Y7800571D01*
X49115905Y8257714D01*
X49115905Y7762476D01*
X17620286Y9638095D02*
X17886953Y10019048D01*
X18077429Y9638095D02*
X18077429Y10438095D01*
X17772667Y10438095D01*
X17696476Y10400000D01*
X17658381Y10361905D01*
X17620286Y10285714D01*
X17620286Y10171429D01*
X17658381Y10095238D01*
X17696476Y10057143D01*
X17772667Y10019048D01*
X18077429Y10019048D01*
X16858381Y9638095D02*
X17315524Y9638095D01*
X17086953Y9638095D02*
X17086953Y10438095D01*
X17163143Y10323810D01*
X17239334Y10247619D01*
X17315524Y10209524D01*
X16591714Y10438095D02*
X16096476Y10438095D01*
X16363143Y10133333D01*
X16248857Y10133333D01*
X16172667Y10095238D01*
X16134571Y10057143D01*
X16096476Y9980952D01*
X16096476Y9790476D01*
X16134571Y9714286D01*
X16172667Y9676190D01*
X16248857Y9638095D01*
X16477429Y9638095D01*
X16553619Y9676190D01*
X16591714Y9714286D01*
D11*
X30973905Y13891619D02*
X30973905Y13082095D01*
X30926286Y12986857D01*
X30878667Y12939238D01*
X30783429Y12891619D01*
X30592952Y12891619D01*
X30497714Y12939238D01*
X30450095Y12986857D01*
X30402476Y13082095D01*
X30402476Y13891619D01*
X29402476Y12891619D02*
X29973905Y12891619D01*
X29688191Y12891619D02*
X29688191Y13891619D01*
X29783429Y13748762D01*
X29878667Y13653524D01*
X29973905Y13605905D01*
X36180952Y8029048D02*
X36180952Y7648095D01*
X36447619Y8448095D02*
X36180952Y8029048D01*
X35914285Y8448095D01*
X35228571Y7648095D02*
X35685714Y7648095D01*
X35457143Y7648095D02*
X35457143Y8448095D01*
X35533333Y8333810D01*
X35609524Y8257619D01*
X35685714Y8219524D01*
M02*
