G04 #@! TF.FileFunction,Copper,L2,Bot,Signal*
%FSLAX46Y46*%
G04 Gerber Fmt 4.6, Leading zero omitted, Abs format (unit mm)*
G04 Created by KiCad (PCBNEW 4.0.6) date Sun Aug 12 18:17:32 2018*
%MOMM*%
%LPD*%
G01*
G04 APERTURE LIST*
%ADD10C,0.100000*%
%ADD11C,0.300000*%
%ADD12R,3.600000X1.800000*%
%ADD13O,3.600000X1.800000*%
%ADD14C,1.520000*%
%ADD15C,2.700000*%
%ADD16R,0.700000X1.600000*%
%ADD17R,1.200000X1.400000*%
%ADD18R,1.600000X1.400000*%
%ADD19R,1.200000X2.200000*%
%ADD20C,1.000000*%
%ADD21O,1.200000X1.000000*%
%ADD22R,2.500000X1.100000*%
%ADD23R,1.550000X0.600000*%
%ADD24R,1.000000X1.250000*%
%ADD25R,1.250000X1.000000*%
%ADD26R,0.800000X0.900000*%
%ADD27R,1.300000X0.700000*%
%ADD28R,0.700000X1.300000*%
%ADD29R,2.000000X0.600000*%
%ADD30R,1.300000X1.600000*%
%ADD31C,0.600000*%
%ADD32C,0.300000*%
%ADD33C,0.600000*%
%ADD34C,0.500000*%
%ADD35C,0.250000*%
%ADD36C,0.254000*%
G04 APERTURE END LIST*
D10*
D11*
X29000000Y30100000D03*
X29100000Y27700000D03*
X15400000Y29500000D03*
X15400000Y30500000D03*
X16500000Y35700000D03*
X15500000Y35700000D03*
X14500000Y35700000D03*
X16500000Y36700000D03*
X15500000Y36700000D03*
X25610000Y11360000D03*
D12*
X60000000Y6665000D03*
D13*
X60000000Y10475000D03*
X60000000Y14285000D03*
X60000000Y18095000D03*
X60000000Y21905000D03*
X60000000Y25715000D03*
X60000000Y29525000D03*
X60000000Y33335000D03*
D14*
X11500000Y21270000D03*
X11500000Y18730000D03*
X9500000Y18730000D03*
X9500000Y21270000D03*
D15*
X6800000Y26000000D03*
X6800000Y14000000D03*
D16*
X9450000Y23400000D03*
X10550000Y23400000D03*
X11650000Y23400000D03*
X12750000Y23400000D03*
X13850000Y23400000D03*
X14950000Y23400000D03*
X16050000Y23400000D03*
X17150000Y23400000D03*
X18250000Y23400000D03*
D17*
X8250000Y23900000D03*
D18*
X22850000Y23900000D03*
D19*
X23750000Y33500000D03*
X8250000Y33500000D03*
D20*
X11070000Y33900000D03*
X19050000Y33900000D03*
D21*
X47738000Y5470000D03*
X47738000Y4200000D03*
D22*
X47700000Y31000000D03*
X47700000Y29000000D03*
X47700000Y27000000D03*
X47700000Y25000000D03*
X47700000Y23000000D03*
X47700000Y21000000D03*
X47700000Y19000000D03*
X47700000Y17000000D03*
X32300000Y17000000D03*
X32300000Y19000000D03*
X32300000Y21000000D03*
X32300000Y23000000D03*
X32300000Y25000000D03*
X32300000Y27000000D03*
X32300000Y29000000D03*
X32300000Y31000000D03*
D23*
X37164000Y9153000D03*
X37164000Y10423000D03*
X37164000Y11693000D03*
X37164000Y12963000D03*
X42564000Y12963000D03*
X42564000Y11693000D03*
X42564000Y10423000D03*
X42564000Y9153000D03*
D24*
X11400000Y16400000D03*
X9400000Y16400000D03*
D25*
X56000000Y31500000D03*
X56000000Y29500000D03*
X51000000Y19000000D03*
X51000000Y17000000D03*
X53500000Y31500000D03*
X53500000Y29500000D03*
X53500000Y25500000D03*
X53500000Y27500000D03*
D24*
X41912000Y5724000D03*
X43912000Y5724000D03*
X41912000Y2676000D03*
X43912000Y2676000D03*
X17528000Y20964000D03*
X19528000Y20964000D03*
X18700000Y12300000D03*
X20700000Y12300000D03*
X54612000Y7756000D03*
X56612000Y7756000D03*
X54612000Y10296000D03*
X56612000Y10296000D03*
X18700000Y7600000D03*
X20700000Y7600000D03*
D26*
X56350000Y13100000D03*
X54450000Y13100000D03*
X55400000Y15100000D03*
D27*
X51000000Y29550000D03*
X51000000Y31450000D03*
D28*
X52244000Y13344000D03*
X50344000Y13344000D03*
X27050000Y16138000D03*
X28950000Y16138000D03*
D27*
X51000000Y25550000D03*
X51000000Y27450000D03*
X53834000Y16712000D03*
X53834000Y18612000D03*
X56000000Y25550000D03*
X56000000Y27450000D03*
D28*
X27050000Y18424000D03*
X28950000Y18424000D03*
X27050000Y20710000D03*
X28950000Y20710000D03*
D27*
X56374000Y18612000D03*
X56374000Y16712000D03*
X56000000Y21550000D03*
X56000000Y23450000D03*
D28*
X45518000Y8772000D03*
X47418000Y8772000D03*
X18950000Y10000000D03*
X20850000Y10000000D03*
D29*
X32880000Y11820000D03*
X32880000Y10550000D03*
X32880000Y9280000D03*
X32880000Y8010000D03*
X32880000Y6740000D03*
X32880000Y5470000D03*
X32880000Y4200000D03*
X32880000Y2930000D03*
X32880000Y1660000D03*
X23480000Y1660000D03*
X23480000Y2930000D03*
X23480000Y4200000D03*
X23480000Y5470000D03*
X23480000Y6740000D03*
X23480000Y8010000D03*
X23480000Y9280000D03*
X23480000Y10550000D03*
X23480000Y11820000D03*
D30*
X39182000Y6200000D03*
X39182000Y2200000D03*
X36482000Y2200000D03*
X36482000Y6200000D03*
D11*
X29600000Y23400000D03*
X14500000Y36700000D03*
D31*
X34100000Y17000000D03*
X17000000Y21750000D03*
X20000000Y12600000D03*
X45100000Y26600000D03*
X20000000Y9000000D03*
X28100000Y22800000D03*
X15500000Y25000000D03*
X20000000Y22000000D03*
X36500000Y28500000D03*
X37200000Y18200000D03*
X39000000Y11300000D03*
X45225000Y21750000D03*
X45225000Y17125000D03*
X29475000Y11250000D03*
X27350000Y12800000D03*
X52800000Y10900000D03*
X49400000Y12100000D03*
X40900000Y16500000D03*
X26700000Y3100000D03*
X26600000Y2100000D03*
X27700000Y14800000D03*
X24700000Y18000000D03*
X21700000Y4000000D03*
X24500000Y19000000D03*
X21950000Y10000000D03*
X23750000Y17300000D03*
X18700000Y25400000D03*
X20400000Y26100000D03*
X55900000Y31500000D03*
D32*
X9450000Y23400000D02*
X8750000Y23400000D01*
X8250000Y23900000D02*
X8250000Y24550000D01*
X8750000Y23400000D02*
X8250000Y23900000D01*
X8250000Y24550000D02*
X6800000Y26000000D01*
D33*
X34100000Y17000000D02*
X33000000Y17000000D01*
D34*
X43912000Y5724000D02*
X43912000Y6088000D01*
X43912000Y6088000D02*
X41900000Y8100000D01*
X41900000Y8100000D02*
X40800000Y8100000D01*
X40800000Y8100000D02*
X38477000Y10423000D01*
X38477000Y10423000D02*
X37164000Y10423000D01*
X9400000Y16400000D02*
X9400000Y18630000D01*
X9400000Y18630000D02*
X9500000Y18730000D01*
D33*
X51000000Y19000000D02*
X51000000Y19900000D01*
X57600000Y27000000D02*
X60000000Y29400000D01*
X57600000Y23100000D02*
X57600000Y27000000D01*
X57000000Y22500000D02*
X57600000Y23100000D01*
X53600000Y22500000D02*
X57000000Y22500000D01*
X51000000Y19900000D02*
X53600000Y22500000D01*
X60000000Y29400000D02*
X60000000Y29525000D01*
D35*
X27050000Y18424000D02*
X26754000Y18424000D01*
X26754000Y18424000D02*
X25035296Y16705296D01*
X25035296Y16705296D02*
X25035296Y15885296D01*
X25035296Y15885296D02*
X26770590Y14150002D01*
X26770590Y14150002D02*
X28643012Y14150002D01*
X28643012Y14150002D02*
X31493010Y17000000D01*
X31493010Y17000000D02*
X33000000Y17000000D01*
X25610000Y11360000D02*
X25610000Y11860000D01*
X19890000Y13490000D02*
X18700000Y12300000D01*
X23980000Y13490000D02*
X19890000Y13490000D01*
X25610000Y11860000D02*
X23980000Y13490000D01*
D32*
X12750000Y23400000D02*
X12750000Y24225000D01*
X9450000Y24150000D02*
X9450000Y23400000D01*
X10100000Y24800000D02*
X9450000Y24150000D01*
X12175000Y24800000D02*
X10100000Y24800000D01*
X12750000Y24225000D02*
X12175000Y24800000D01*
X18700000Y12300000D02*
X18500000Y12300000D01*
X17800000Y8500000D02*
X18700000Y7600000D01*
X17800000Y11600000D02*
X17800000Y8500000D01*
X18500000Y12300000D02*
X17800000Y11600000D01*
D34*
X54450000Y13100000D02*
X54450000Y13050000D01*
X54450000Y13050000D02*
X55500000Y12000000D01*
X57715000Y12000000D02*
X60000000Y14285000D01*
X55500000Y12000000D02*
X57715000Y12000000D01*
D32*
X53500000Y27500000D02*
X53000000Y27500000D01*
D34*
X56000000Y29500000D02*
X59975000Y29500000D01*
X59975000Y29500000D02*
X60000000Y29525000D01*
X56000000Y27450000D02*
X56000000Y29500000D01*
D32*
X53500000Y27500000D02*
X55950000Y27500000D01*
X55950000Y27500000D02*
X56000000Y27450000D01*
X53500000Y29500000D02*
X56000000Y29500000D01*
X56000000Y29500000D02*
X56025000Y29525000D01*
D35*
X54450000Y13100000D02*
X54450000Y10458000D01*
X54450000Y10458000D02*
X54612000Y10296000D01*
X17000000Y21750000D02*
X17528000Y21222000D01*
X17528000Y21222000D02*
X17528000Y20964000D01*
X17528000Y20972000D02*
X17528000Y20964000D01*
D33*
X15500000Y25000000D02*
X15500000Y29400000D01*
X15500000Y29400000D02*
X15400000Y29500000D01*
X15400000Y29500000D02*
X15400000Y36600000D01*
X15400000Y36600000D02*
X15500000Y36700000D01*
D34*
X20000000Y12600000D02*
X20300000Y12300000D01*
X20300000Y12300000D02*
X20700000Y12300000D01*
X45100000Y26600000D02*
X45500000Y27000000D01*
X45500000Y27000000D02*
X47000000Y27000000D01*
X47000000Y27000000D02*
X48800000Y27000000D01*
X48800000Y27000000D02*
X49700000Y26100000D01*
X49700000Y18000000D02*
X48700000Y17000000D01*
X49700000Y26100000D02*
X49700000Y18000000D01*
X48700000Y17000000D02*
X47000000Y17000000D01*
D35*
X20000000Y9000000D02*
X19000000Y10000000D01*
X19000000Y10000000D02*
X18950000Y10000000D01*
X27050000Y20710000D02*
X27050000Y21750000D01*
X27050000Y21750000D02*
X28100000Y22800000D01*
X18950000Y9450000D02*
X18950000Y10000000D01*
D32*
X14950000Y24450000D02*
X15500000Y25000000D01*
X14950000Y23400000D02*
X14950000Y24450000D01*
D34*
X23480000Y11820000D02*
X21180000Y11820000D01*
D32*
X18950000Y10550000D02*
X20700000Y12300000D01*
X21180000Y11820000D02*
X20700000Y12300000D01*
X18950000Y10000000D02*
X18950000Y10550000D01*
X47000000Y17000000D02*
X51000000Y17000000D01*
X47000000Y27000000D02*
X48500000Y27000000D01*
X48900000Y17000000D02*
X47000000Y17000000D01*
X51000000Y29550000D02*
X50150000Y29550000D01*
X45500000Y28100000D02*
X46600000Y27000000D01*
X45500000Y29400000D02*
X45500000Y28100000D01*
X46100000Y30000000D02*
X45500000Y29400000D01*
X49700000Y30000000D02*
X46100000Y30000000D01*
X50150000Y29550000D02*
X49700000Y30000000D01*
X46600000Y27000000D02*
X47000000Y27000000D01*
D35*
X51210000Y17000000D02*
X51294000Y16916000D01*
X19528000Y21528000D02*
X20000000Y22000000D01*
D33*
X36500000Y18900000D02*
X36500000Y28500000D01*
X37200000Y18200000D02*
X36500000Y18900000D01*
D34*
X37164000Y11693000D02*
X38607000Y11693000D01*
X38607000Y11693000D02*
X39000000Y11300000D01*
X53834000Y18612000D02*
X53834000Y19134000D01*
X62700000Y30900000D02*
X60265000Y33335000D01*
X62700000Y20800000D02*
X62700000Y30900000D01*
X61600000Y19700000D02*
X62700000Y20800000D01*
X54400000Y19700000D02*
X61600000Y19700000D01*
X53834000Y19134000D02*
X54400000Y19700000D01*
X60265000Y33335000D02*
X60000000Y33335000D01*
X56000000Y25550000D02*
X56000000Y23450000D01*
D32*
X53500000Y25500000D02*
X55950000Y25500000D01*
X55950000Y25500000D02*
X56000000Y25550000D01*
X51000000Y25550000D02*
X53450000Y25550000D01*
X53450000Y25550000D02*
X53500000Y25500000D01*
D35*
X39182000Y6200000D02*
X41436000Y6200000D01*
X41436000Y6200000D02*
X41912000Y5724000D01*
X32880000Y4200000D02*
X37000000Y4200000D01*
X37000000Y4200000D02*
X39000000Y6200000D01*
X39000000Y6200000D02*
X39182000Y6200000D01*
X60000000Y6665000D02*
X57703000Y6665000D01*
X57703000Y6665000D02*
X56612000Y7756000D01*
X42564000Y10423000D02*
X49377000Y10423000D01*
X55568000Y8800000D02*
X56612000Y7756000D01*
X51000000Y8800000D02*
X55568000Y8800000D01*
X49377000Y10423000D02*
X51000000Y8800000D01*
X56612000Y10296000D02*
X59821000Y10296000D01*
X59821000Y10296000D02*
X60000000Y10475000D01*
X56612000Y10296000D02*
X56612000Y10212000D01*
X56612000Y10212000D02*
X55650002Y9250002D01*
X55650002Y9250002D02*
X51249998Y9250002D01*
X51249998Y9250002D02*
X48807000Y11693000D01*
X48807000Y11693000D02*
X42564000Y11693000D01*
D34*
X11400000Y16400000D02*
X11400000Y18630000D01*
X11400000Y18630000D02*
X11500000Y18730000D01*
X56374000Y18612000D02*
X59483000Y18612000D01*
X59483000Y18612000D02*
X60000000Y18095000D01*
X56000000Y21550000D02*
X59645000Y21550000D01*
X59645000Y21550000D02*
X60000000Y21905000D01*
D35*
X23480000Y8010000D02*
X24412204Y8010000D01*
X24412204Y8010000D02*
X31252206Y14850002D01*
X44118197Y18118197D02*
X47000000Y21000000D01*
X44118197Y17304595D02*
X44118197Y18118197D01*
X41663604Y14850002D02*
X44118197Y17304595D01*
X31252206Y14850002D02*
X41663604Y14850002D01*
X11650000Y23400000D02*
X11650000Y22825000D01*
X11650000Y22825000D02*
X14375000Y20100000D01*
X26550000Y10147796D02*
X24412204Y8010000D01*
X26550000Y11825000D02*
X26550000Y10147796D01*
X23825000Y14550000D02*
X26550000Y11825000D01*
X18500000Y14550000D02*
X23825000Y14550000D01*
X14375000Y18675000D02*
X18500000Y14550000D01*
X14375000Y20100000D02*
X14375000Y18675000D01*
X24412204Y8010000D02*
X23480000Y8010000D01*
X11650000Y23400000D02*
X11650000Y22850000D01*
X45225000Y21750000D02*
X45225000Y19861398D01*
X13850000Y21900000D02*
X13850000Y23400000D01*
X14825002Y20924998D02*
X13850000Y21900000D01*
X14825002Y18861396D02*
X14825002Y20924998D01*
X18686396Y15000002D02*
X14825002Y18861396D01*
X24011396Y15000002D02*
X18686396Y15000002D01*
X27036398Y11975000D02*
X24011396Y15000002D01*
X27740806Y11975000D02*
X27036398Y11975000D01*
X31065810Y15300004D02*
X27740806Y11975000D01*
X41450004Y15300004D02*
X31065810Y15300004D01*
X43668195Y17518195D02*
X41450004Y15300004D01*
X43668195Y18304593D02*
X43668195Y17518195D01*
X45225000Y19861398D02*
X43668195Y18304593D01*
X23480000Y5470000D02*
X25020000Y5470000D01*
X45225000Y21750000D02*
X46475000Y23000000D01*
X42025000Y13925000D02*
X45225000Y17125000D01*
X31600000Y13925000D02*
X42025000Y13925000D01*
X30325000Y12650000D02*
X31600000Y13925000D01*
X30325000Y10775000D02*
X30325000Y12650000D01*
X25020000Y5470000D02*
X30325000Y10775000D01*
X46475000Y23000000D02*
X47000000Y23000000D01*
X23480000Y5470000D02*
X24295000Y5470000D01*
X16050000Y23400000D02*
X16050000Y22875000D01*
X16050000Y22875000D02*
X15275004Y22100004D01*
X29475000Y11250000D02*
X29475000Y11225000D01*
X26847796Y12800000D02*
X27350000Y12800000D01*
X24197792Y15450004D02*
X26847796Y12800000D01*
X18874996Y15450004D02*
X24197792Y15450004D01*
X15275004Y19049996D02*
X18874996Y15450004D01*
X15275004Y22100004D02*
X15275004Y19049996D01*
X15900000Y23250000D02*
X16050000Y23400000D01*
X23480000Y6740000D02*
X24990000Y6740000D01*
X29475000Y11225000D02*
X29475000Y11650000D01*
X24990000Y6740000D02*
X29475000Y11225000D01*
X45775000Y19000000D02*
X47000000Y19000000D01*
X44568199Y17793199D02*
X45775000Y19000000D01*
X44568199Y17118199D02*
X44568199Y17793199D01*
X41850000Y14400000D02*
X44568199Y17118199D01*
X31438602Y14400000D02*
X41850000Y14400000D01*
X29475000Y12436398D02*
X31438602Y14400000D01*
X29475000Y11650000D02*
X29475000Y12436398D01*
X17150000Y23400000D02*
X17150000Y22850000D01*
X17150000Y22850000D02*
X15725006Y21425006D01*
X15725006Y21425006D02*
X15725006Y19249994D01*
X15725006Y19249994D02*
X19074994Y15900006D01*
X19074994Y15900006D02*
X24384188Y15900006D01*
X24384188Y15900006D02*
X26584194Y13700000D01*
X26584194Y13700000D02*
X28829408Y13700000D01*
X28829408Y13700000D02*
X30904408Y15775000D01*
X30904408Y15775000D02*
X41288602Y15775000D01*
X41288602Y15775000D02*
X43200000Y17686398D01*
X43200000Y17686398D02*
X43200000Y18472796D01*
X43200000Y18472796D02*
X44575000Y19847796D01*
X44575000Y19847796D02*
X44575000Y22350000D01*
X44575000Y22350000D02*
X47000000Y24775000D01*
X47000000Y24775000D02*
X47000000Y25000000D01*
D32*
X52800000Y10900000D02*
X50356000Y13344000D01*
X50356000Y13344000D02*
X50344000Y13344000D01*
X33000000Y23000000D02*
X34700000Y23000000D01*
X49400000Y12100000D02*
X50344000Y13044000D01*
X37800000Y16500000D02*
X40900000Y16500000D01*
X35800000Y18500000D02*
X37800000Y16500000D01*
X35800000Y21900000D02*
X35800000Y18500000D01*
X34700000Y23000000D02*
X35800000Y21900000D01*
X50344000Y13044000D02*
X50344000Y13344000D01*
X33000000Y23000000D02*
X31240000Y23000000D01*
X31240000Y23000000D02*
X28950000Y20710000D01*
D35*
X26700000Y3100000D02*
X26530000Y2930000D01*
X26530000Y2930000D02*
X23480000Y2930000D01*
X26160000Y1660000D02*
X23480000Y1660000D01*
X26600000Y2100000D02*
X26160000Y1660000D01*
X56350000Y13100000D02*
X56300000Y13100000D01*
X56300000Y13100000D02*
X55300000Y14100000D01*
X55300000Y14100000D02*
X53000000Y14100000D01*
X53000000Y14100000D02*
X52244000Y13344000D01*
D34*
X56374000Y16712000D02*
X56374000Y16074000D01*
X56374000Y16074000D02*
X55400000Y15100000D01*
X53834000Y16712000D02*
X53834000Y16666000D01*
X53834000Y16666000D02*
X55400000Y15100000D01*
D35*
X54288000Y16712000D02*
X53834000Y16712000D01*
X27050000Y16138000D02*
X27050000Y15450000D01*
X27050000Y15450000D02*
X27700000Y14800000D01*
D32*
X28950000Y16138000D02*
X28950000Y18424000D01*
X33000000Y19000000D02*
X29526000Y19000000D01*
X29526000Y19000000D02*
X28950000Y18424000D01*
X47000000Y29000000D02*
X49450000Y29000000D01*
X49450000Y29000000D02*
X51000000Y27450000D01*
D35*
X47500000Y29000000D02*
X47100000Y29000000D01*
X33000000Y21000000D02*
X31000000Y21000000D01*
X24700000Y18100000D02*
X24700000Y18000000D01*
X26200000Y19600000D02*
X24700000Y18100000D01*
X29600000Y19600000D02*
X26200000Y19600000D01*
X31000000Y21000000D02*
X29600000Y19600000D01*
X42564000Y9153000D02*
X43847000Y9153000D01*
X44228000Y8772000D02*
X45518000Y8772000D01*
X43847000Y9153000D02*
X44228000Y8772000D01*
X33000000Y25000000D02*
X29100000Y25000000D01*
X21800000Y3900000D02*
X23180000Y3900000D01*
X21700000Y4000000D02*
X21800000Y3900000D01*
X24500000Y20400000D02*
X24500000Y19000000D01*
X29100000Y25000000D02*
X24500000Y20400000D01*
X23180000Y3900000D02*
X23480000Y4200000D01*
X23180000Y3900000D02*
X23480000Y4200000D01*
X22670000Y9280000D02*
X21950000Y10000000D01*
X23750000Y17300000D02*
X23750000Y20550000D01*
X23750000Y20550000D02*
X30200000Y27000000D01*
X30200000Y27000000D02*
X33000000Y27000000D01*
D32*
X23480000Y9280000D02*
X22670000Y9280000D01*
D35*
X24500000Y29000000D02*
X33000000Y29000000D01*
X20900000Y25400000D02*
X24500000Y29000000D01*
X19900000Y25400000D02*
X20900000Y25400000D01*
X18700000Y25400000D02*
X19900000Y25400000D01*
X25300000Y31000000D02*
X33000000Y31000000D01*
X20400000Y26100000D02*
X25300000Y31000000D01*
D34*
X55900000Y31500000D02*
X56000000Y31500000D01*
D32*
X47000000Y31000000D02*
X50550000Y31000000D01*
X50550000Y31000000D02*
X51000000Y31450000D01*
X51000000Y31450000D02*
X53450000Y31450000D01*
X53450000Y31450000D02*
X53500000Y31500000D01*
D35*
X36482000Y2200000D02*
X36482000Y2282000D01*
X36482000Y2282000D02*
X37700000Y3500000D01*
X41088000Y3500000D02*
X41912000Y2676000D01*
X37700000Y3500000D02*
X41088000Y3500000D01*
X32880000Y2930000D02*
X35752000Y2930000D01*
X35752000Y2930000D02*
X36482000Y2200000D01*
D32*
X23230000Y10800000D02*
X23480000Y10550000D01*
X21400000Y10800000D02*
X23230000Y10800000D01*
X20850000Y10250000D02*
X21400000Y10800000D01*
X20850000Y10000000D02*
X20850000Y10250000D01*
X20850000Y10000000D02*
X20850000Y10350000D01*
X20850000Y10000000D02*
X20850000Y7750000D01*
X20850000Y7750000D02*
X20700000Y7600000D01*
X35847000Y9153000D02*
X37164000Y9153000D01*
X32880000Y11820000D02*
X34180000Y11820000D01*
X34180000Y11820000D02*
X35100000Y10900000D01*
X35100000Y10900000D02*
X35100000Y9900000D01*
X35100000Y9900000D02*
X35847000Y9153000D01*
D35*
X32880000Y10550000D02*
X31650000Y10550000D01*
X31563000Y12963000D02*
X37164000Y12963000D01*
X31100000Y12500000D02*
X31563000Y12963000D01*
X31100000Y11100000D02*
X31100000Y12500000D01*
X31650000Y10550000D02*
X31100000Y11100000D01*
D36*
G36*
X29565000Y33700000D02*
X29578162Y33633830D01*
X29578162Y33566364D01*
X29616222Y33375022D01*
X29616223Y33375020D01*
X29616223Y33375018D01*
X29663729Y33260329D01*
X29718503Y33128093D01*
X29718504Y33128092D01*
X29718505Y33128090D01*
X29826892Y32965879D01*
X29877444Y32915328D01*
X30015879Y32776892D01*
X30178090Y32668505D01*
X30178092Y32668504D01*
X30178093Y32668503D01*
X30269976Y32630444D01*
X30425018Y32566223D01*
X30425020Y32566223D01*
X30425022Y32566222D01*
X30616365Y32528162D01*
X30683830Y32528162D01*
X30750000Y32515000D01*
X49250000Y32515000D01*
X49316170Y32528162D01*
X49383636Y32528162D01*
X49574978Y32566222D01*
X49574980Y32566223D01*
X49574982Y32566223D01*
X49730024Y32630444D01*
X49821907Y32668503D01*
X49821908Y32668504D01*
X49821910Y32668505D01*
X49984121Y32776892D01*
X50122556Y32915328D01*
X50173108Y32965879D01*
X50281495Y33128090D01*
X50281496Y33128092D01*
X50281497Y33128093D01*
X50336271Y33260329D01*
X50383777Y33375018D01*
X50383777Y33375020D01*
X50383778Y33375022D01*
X50421838Y33566365D01*
X50421838Y33633830D01*
X50435000Y33700000D01*
X50435000Y35326695D01*
X50614674Y35326695D01*
X50901043Y34633628D01*
X51430839Y34102907D01*
X52123405Y33815328D01*
X52873305Y33814674D01*
X53566372Y34101043D01*
X54097093Y34630839D01*
X54384672Y35323405D01*
X54385326Y36073305D01*
X54098957Y36766372D01*
X53569161Y37297093D01*
X52876595Y37584672D01*
X52126695Y37585326D01*
X51433628Y37298957D01*
X50902907Y36769161D01*
X50615328Y36076595D01*
X50614674Y35326695D01*
X50435000Y35326695D01*
X50435000Y39315000D01*
X61932533Y39315000D01*
X62880777Y39126383D01*
X63627463Y38627463D01*
X64126383Y37880775D01*
X64315000Y36932533D01*
X64315000Y3067467D01*
X64126383Y2119225D01*
X63627463Y1372537D01*
X62880777Y873617D01*
X61932533Y685000D01*
X3067467Y685000D01*
X2119225Y873617D01*
X1372537Y1372537D01*
X873617Y2119223D01*
X685000Y3067467D01*
X685000Y4326695D01*
X2614674Y4326695D01*
X2901043Y3633628D01*
X3430839Y3102907D01*
X4123405Y2815328D01*
X4873305Y2814674D01*
X5566372Y3101043D01*
X6097093Y3630839D01*
X6384672Y4323405D01*
X6385326Y5073305D01*
X6098957Y5766372D01*
X5569161Y6297093D01*
X4876595Y6584672D01*
X4126695Y6585326D01*
X3433628Y6298957D01*
X2902907Y5769161D01*
X2615328Y5076595D01*
X2614674Y4326695D01*
X685000Y4326695D01*
X685000Y7314250D01*
X17565000Y7314250D01*
X17565000Y6848690D01*
X17661673Y6615301D01*
X17840302Y6436673D01*
X18073691Y6340000D01*
X18414250Y6340000D01*
X18573000Y6498750D01*
X18573000Y7473000D01*
X17723750Y7473000D01*
X17565000Y7314250D01*
X685000Y7314250D01*
X685000Y12594407D01*
X5574012Y12594407D01*
X5715478Y12291218D01*
X6451955Y12006263D01*
X7241418Y12024836D01*
X7884522Y12291218D01*
X8025988Y12594407D01*
X6800000Y13820395D01*
X5574012Y12594407D01*
X685000Y12594407D01*
X685000Y14348045D01*
X4806263Y14348045D01*
X4824836Y13558582D01*
X5091218Y12915478D01*
X5394407Y12774012D01*
X6620395Y14000000D01*
X6979605Y14000000D01*
X8205593Y12774012D01*
X8508782Y12915478D01*
X8561337Y13051310D01*
X17565000Y13051310D01*
X17565000Y12585750D01*
X17723750Y12427000D01*
X18573000Y12427000D01*
X18573000Y13401250D01*
X18414250Y13560000D01*
X18073691Y13560000D01*
X17840302Y13463327D01*
X17661673Y13284699D01*
X17565000Y13051310D01*
X8561337Y13051310D01*
X8793737Y13651955D01*
X8775164Y14441418D01*
X8508782Y15084522D01*
X8205593Y15225988D01*
X6979605Y14000000D01*
X6620395Y14000000D01*
X5394407Y15225988D01*
X5091218Y15084522D01*
X4806263Y14348045D01*
X685000Y14348045D01*
X685000Y15405593D01*
X5574012Y15405593D01*
X6800000Y14179605D01*
X8025988Y15405593D01*
X7884522Y15708782D01*
X7148045Y15993737D01*
X6358582Y15975164D01*
X5715478Y15708782D01*
X5574012Y15405593D01*
X685000Y15405593D01*
X685000Y16114250D01*
X8265000Y16114250D01*
X8265000Y15648690D01*
X8361673Y15415301D01*
X8540302Y15236673D01*
X8773691Y15140000D01*
X9114250Y15140000D01*
X9273000Y15298750D01*
X9273000Y16273000D01*
X8423750Y16273000D01*
X8265000Y16114250D01*
X685000Y16114250D01*
X685000Y18937220D01*
X8092845Y18937220D01*
X8120659Y18382951D01*
X8279258Y18000059D01*
X8521236Y17930841D01*
X9320395Y18730000D01*
X8521236Y19529159D01*
X8279258Y19459941D01*
X8092845Y18937220D01*
X685000Y18937220D01*
X685000Y23614250D01*
X7015000Y23614250D01*
X7015000Y23073690D01*
X7111673Y22840301D01*
X7290302Y22661673D01*
X7523691Y22565000D01*
X7964250Y22565000D01*
X8123000Y22723750D01*
X8123000Y23773000D01*
X7173750Y23773000D01*
X7015000Y23614250D01*
X685000Y23614250D01*
X685000Y24594407D01*
X5574012Y24594407D01*
X5715478Y24291218D01*
X6451955Y24006263D01*
X7241418Y24024836D01*
X7246642Y24027000D01*
X8123000Y24027000D01*
X8123000Y24047000D01*
X8377000Y24047000D01*
X8377000Y24027000D01*
X8465000Y24027000D01*
X8465000Y23773000D01*
X8377000Y23773000D01*
X8377000Y22723750D01*
X8465000Y22635750D01*
X8465000Y22473690D01*
X8542884Y22285662D01*
X8318066Y22061236D01*
X8105242Y21548700D01*
X8104758Y20993735D01*
X8316687Y20480828D01*
X8708764Y20088066D01*
X8904934Y20006609D01*
X8770059Y19950742D01*
X8700841Y19708764D01*
X9500000Y18909605D01*
X10299159Y19708764D01*
X10229941Y19950742D01*
X10085138Y20002382D01*
X10289172Y20086687D01*
X10500024Y20297171D01*
X10708764Y20088066D01*
X10920738Y20000046D01*
X10710828Y19913313D01*
X10318066Y19521236D01*
X10209581Y19259976D01*
X9679605Y18730000D01*
X10209595Y18200010D01*
X10316687Y17940828D01*
X10515000Y17742169D01*
X10515000Y17531844D01*
X10448559Y17489090D01*
X10402031Y17420994D01*
X10259698Y17563327D01*
X10246921Y17568619D01*
X10299159Y17751236D01*
X9500000Y18550395D01*
X8700841Y17751236D01*
X8731892Y17642686D01*
X8540302Y17563327D01*
X8361673Y17384699D01*
X8265000Y17151310D01*
X8265000Y16685750D01*
X8423750Y16527000D01*
X9273000Y16527000D01*
X9273000Y16547000D01*
X9527000Y16547000D01*
X9527000Y16527000D01*
X9547000Y16527000D01*
X9547000Y16273000D01*
X9527000Y16273000D01*
X9527000Y15298750D01*
X9685750Y15140000D01*
X10026309Y15140000D01*
X10259698Y15236673D01*
X10400936Y15377910D01*
X10435910Y15323559D01*
X10648110Y15178569D01*
X10900000Y15127560D01*
X11900000Y15127560D01*
X12135317Y15171838D01*
X12351441Y15310910D01*
X12496431Y15523110D01*
X12547440Y15775000D01*
X12547440Y17025000D01*
X12503162Y17260317D01*
X12364090Y17476441D01*
X12285000Y17530481D01*
X12285000Y17544963D01*
X12289172Y17546687D01*
X12681934Y17938764D01*
X12894758Y18451300D01*
X12895242Y19006265D01*
X12683313Y19519172D01*
X12291236Y19911934D01*
X12079262Y19999954D01*
X12289172Y20086687D01*
X12681934Y20478764D01*
X12752204Y20647994D01*
X13615000Y19785198D01*
X13615000Y18675000D01*
X13672852Y18384161D01*
X13837599Y18137599D01*
X17962599Y14012599D01*
X18209161Y13847852D01*
X18500000Y13790000D01*
X23510198Y13790000D01*
X24546155Y12754043D01*
X24480000Y12767440D01*
X22480000Y12767440D01*
X22244683Y12723162D01*
X22216458Y12705000D01*
X21847440Y12705000D01*
X21847440Y12925000D01*
X21803162Y13160317D01*
X21664090Y13376441D01*
X21451890Y13521431D01*
X21200000Y13572440D01*
X20200000Y13572440D01*
X20001023Y13535000D01*
X19814833Y13535162D01*
X19583463Y13439562D01*
X19559698Y13463327D01*
X19326309Y13560000D01*
X18985750Y13560000D01*
X18827000Y13401250D01*
X18827000Y12427000D01*
X18847000Y12427000D01*
X18847000Y12173000D01*
X18827000Y12173000D01*
X18827000Y12153000D01*
X18573000Y12153000D01*
X18573000Y12173000D01*
X17723750Y12173000D01*
X17565000Y12014250D01*
X17565000Y11548690D01*
X17661673Y11315301D01*
X17840302Y11136673D01*
X18073691Y11040000D01*
X18097935Y11040000D01*
X18003569Y10901890D01*
X17952560Y10650000D01*
X17952560Y9350000D01*
X17996838Y9114683D01*
X18135910Y8898559D01*
X18192343Y8860000D01*
X18073691Y8860000D01*
X17840302Y8763327D01*
X17661673Y8584699D01*
X17565000Y8351310D01*
X17565000Y7885750D01*
X17723750Y7727000D01*
X18573000Y7727000D01*
X18573000Y7747000D01*
X18827000Y7747000D01*
X18827000Y7727000D01*
X18847000Y7727000D01*
X18847000Y7473000D01*
X18827000Y7473000D01*
X18827000Y6498750D01*
X18985750Y6340000D01*
X19326309Y6340000D01*
X19559698Y6436673D01*
X19700936Y6577910D01*
X19735910Y6523559D01*
X19948110Y6378569D01*
X20200000Y6327560D01*
X21200000Y6327560D01*
X21435317Y6371838D01*
X21651441Y6510910D01*
X21796431Y6723110D01*
X21832560Y6901520D01*
X21832560Y6440000D01*
X21876838Y6204683D01*
X21940678Y6105472D01*
X21883569Y6021890D01*
X21832560Y5770000D01*
X21832560Y5170000D01*
X21876807Y4934847D01*
X21514833Y4935162D01*
X21171057Y4793117D01*
X20907808Y4530327D01*
X20765162Y4186799D01*
X20764838Y3814833D01*
X20906883Y3471057D01*
X21169673Y3207808D01*
X21513201Y3065162D01*
X21832560Y3064884D01*
X21832560Y2630000D01*
X21876838Y2394683D01*
X21940678Y2295472D01*
X21883569Y2211890D01*
X21832560Y1960000D01*
X21832560Y1360000D01*
X21876838Y1124683D01*
X22015910Y908559D01*
X22228110Y763569D01*
X22480000Y712560D01*
X24480000Y712560D01*
X24715317Y756838D01*
X24931441Y895910D01*
X24934236Y900000D01*
X26160000Y900000D01*
X26450839Y957852D01*
X26697401Y1122599D01*
X26739680Y1164878D01*
X26785167Y1164838D01*
X27128943Y1306883D01*
X27196427Y1374250D01*
X31245000Y1374250D01*
X31245000Y1233690D01*
X31341673Y1000301D01*
X31520302Y821673D01*
X31753691Y725000D01*
X32594250Y725000D01*
X32753000Y883750D01*
X32753000Y1533000D01*
X33007000Y1533000D01*
X33007000Y883750D01*
X33165750Y725000D01*
X34006309Y725000D01*
X34239698Y821673D01*
X34418327Y1000301D01*
X34515000Y1233690D01*
X34515000Y1374250D01*
X34356250Y1533000D01*
X33007000Y1533000D01*
X32753000Y1533000D01*
X31403750Y1533000D01*
X31245000Y1374250D01*
X27196427Y1374250D01*
X27392192Y1569673D01*
X27534838Y1913201D01*
X27535162Y2285167D01*
X27439387Y2516960D01*
X27492192Y2569673D01*
X27634838Y2913201D01*
X27635162Y3285167D01*
X27493117Y3628943D01*
X27230327Y3892192D01*
X26886799Y4034838D01*
X26514833Y4035162D01*
X26171057Y3893117D01*
X25967585Y3690000D01*
X25084914Y3690000D01*
X25127440Y3900000D01*
X25127440Y4500000D01*
X25085475Y4723024D01*
X25310839Y4767852D01*
X25557401Y4932599D01*
X30862401Y10237599D01*
X30872494Y10252704D01*
X31112599Y10012599D01*
X31314750Y9877526D01*
X31283569Y9831890D01*
X31232560Y9580000D01*
X31232560Y8980000D01*
X31276838Y8744683D01*
X31340678Y8645472D01*
X31283569Y8561890D01*
X31232560Y8310000D01*
X31232560Y7710000D01*
X31276838Y7474683D01*
X31340678Y7375472D01*
X31283569Y7291890D01*
X31232560Y7040000D01*
X31232560Y6440000D01*
X31276838Y6204683D01*
X31340678Y6105472D01*
X31283569Y6021890D01*
X31232560Y5770000D01*
X31232560Y5170000D01*
X31276838Y4934683D01*
X31340678Y4835472D01*
X31283569Y4751890D01*
X31232560Y4500000D01*
X31232560Y3900000D01*
X31276838Y3664683D01*
X31340678Y3565472D01*
X31283569Y3481890D01*
X31232560Y3230000D01*
X31232560Y2630000D01*
X31276838Y2394683D01*
X31335178Y2304020D01*
X31245000Y2086310D01*
X31245000Y1945750D01*
X31403750Y1787000D01*
X32753000Y1787000D01*
X32753000Y1807000D01*
X33007000Y1807000D01*
X33007000Y1787000D01*
X34356250Y1787000D01*
X34515000Y1945750D01*
X34515000Y2086310D01*
X34480334Y2170000D01*
X35184560Y2170000D01*
X35184560Y1400000D01*
X35228838Y1164683D01*
X35367910Y948559D01*
X35580110Y803569D01*
X35832000Y752560D01*
X37132000Y752560D01*
X37367317Y796838D01*
X37583441Y935910D01*
X37728431Y1148110D01*
X37779440Y1400000D01*
X37779440Y2504638D01*
X37884560Y2609758D01*
X37884560Y1400000D01*
X37928838Y1164683D01*
X38067910Y948559D01*
X38280110Y803569D01*
X38532000Y752560D01*
X39832000Y752560D01*
X40067317Y796838D01*
X40283441Y935910D01*
X40428431Y1148110D01*
X40479440Y1400000D01*
X40479440Y2740000D01*
X40764560Y2740000D01*
X40764560Y2051000D01*
X40808838Y1815683D01*
X40947910Y1599559D01*
X41160110Y1454569D01*
X41412000Y1403560D01*
X42412000Y1403560D01*
X42647317Y1447838D01*
X42863441Y1586910D01*
X42909969Y1655006D01*
X43052302Y1512673D01*
X43285691Y1416000D01*
X43626250Y1416000D01*
X43785000Y1574750D01*
X43785000Y2549000D01*
X44039000Y2549000D01*
X44039000Y1574750D01*
X44197750Y1416000D01*
X44538309Y1416000D01*
X44771698Y1512673D01*
X44950327Y1691301D01*
X45047000Y1924690D01*
X45047000Y2390250D01*
X44888250Y2549000D01*
X44039000Y2549000D01*
X43785000Y2549000D01*
X43765000Y2549000D01*
X43765000Y2803000D01*
X43785000Y2803000D01*
X43785000Y3777250D01*
X44039000Y3777250D01*
X44039000Y2803000D01*
X44888250Y2803000D01*
X45047000Y2961750D01*
X45047000Y3427310D01*
X44950327Y3660699D01*
X44771698Y3839327D01*
X44629745Y3898126D01*
X46543881Y3898126D01*
X46705116Y3555595D01*
X47022731Y3247648D01*
X47434015Y3084688D01*
X47611000Y3225259D01*
X47611000Y4073000D01*
X47865000Y4073000D01*
X47865000Y3225259D01*
X48041985Y3084688D01*
X48453269Y3247648D01*
X48770884Y3555595D01*
X48932119Y3898126D01*
X48805954Y4073000D01*
X47865000Y4073000D01*
X47611000Y4073000D01*
X46670046Y4073000D01*
X46543881Y3898126D01*
X44629745Y3898126D01*
X44538309Y3936000D01*
X44197750Y3936000D01*
X44039000Y3777250D01*
X43785000Y3777250D01*
X43626250Y3936000D01*
X43285691Y3936000D01*
X43052302Y3839327D01*
X42911064Y3698090D01*
X42876090Y3752441D01*
X42663890Y3897431D01*
X42412000Y3948440D01*
X41714362Y3948440D01*
X41625401Y4037401D01*
X41378839Y4202148D01*
X41088000Y4260000D01*
X38134802Y4260000D01*
X38201497Y4326695D01*
X50614674Y4326695D01*
X50901043Y3633628D01*
X51430839Y3102907D01*
X52123405Y2815328D01*
X52873305Y2814674D01*
X53566372Y3101043D01*
X54097093Y3630839D01*
X54384672Y4323405D01*
X54385326Y5073305D01*
X54098957Y5766372D01*
X53569161Y6297093D01*
X52876595Y6584672D01*
X52126695Y6585326D01*
X51433628Y6298957D01*
X50902907Y5769161D01*
X50615328Y5076595D01*
X50614674Y4326695D01*
X38201497Y4326695D01*
X38627362Y4752560D01*
X39832000Y4752560D01*
X40067317Y4796838D01*
X40283441Y4935910D01*
X40428431Y5148110D01*
X40479440Y5400000D01*
X40479440Y5440000D01*
X40764560Y5440000D01*
X40764560Y5099000D01*
X40808838Y4863683D01*
X40947910Y4647559D01*
X41160110Y4502569D01*
X41412000Y4451560D01*
X42412000Y4451560D01*
X42647317Y4495838D01*
X42863441Y4634910D01*
X42909969Y4703006D01*
X43052302Y4560673D01*
X43285691Y4464000D01*
X43626250Y4464000D01*
X43785000Y4622750D01*
X43785000Y5597000D01*
X44039000Y5597000D01*
X44039000Y4622750D01*
X44197750Y4464000D01*
X44538309Y4464000D01*
X44771698Y4560673D01*
X44950327Y4739301D01*
X45047000Y4972690D01*
X45047000Y5438250D01*
X45015250Y5470000D01*
X46478805Y5470000D01*
X46565202Y5035654D01*
X46700104Y4833758D01*
X46543881Y4501874D01*
X46670046Y4327000D01*
X47611000Y4327000D01*
X47611000Y4335558D01*
X47613805Y4335000D01*
X47862195Y4335000D01*
X47865000Y4335558D01*
X47865000Y4327000D01*
X48805954Y4327000D01*
X48932119Y4501874D01*
X48775896Y4833758D01*
X48910798Y5035654D01*
X48997195Y5470000D01*
X48910798Y5904346D01*
X48664761Y6272566D01*
X48296541Y6518603D01*
X47862195Y6605000D01*
X47613805Y6605000D01*
X47179459Y6518603D01*
X46811239Y6272566D01*
X46565202Y5904346D01*
X46478805Y5470000D01*
X45015250Y5470000D01*
X44888250Y5597000D01*
X44039000Y5597000D01*
X43785000Y5597000D01*
X43765000Y5597000D01*
X43765000Y5851000D01*
X43785000Y5851000D01*
X43785000Y6825250D01*
X44039000Y6825250D01*
X44039000Y5851000D01*
X44888250Y5851000D01*
X45047000Y6009750D01*
X45047000Y6475310D01*
X44950327Y6708699D01*
X44771698Y6887327D01*
X44538309Y6984000D01*
X44197750Y6984000D01*
X44039000Y6825250D01*
X43785000Y6825250D01*
X43626250Y6984000D01*
X43285691Y6984000D01*
X43052302Y6887327D01*
X42911064Y6746090D01*
X42876090Y6800441D01*
X42663890Y6945431D01*
X42412000Y6996440D01*
X41412000Y6996440D01*
X41218338Y6960000D01*
X40479440Y6960000D01*
X40479440Y7000000D01*
X40435162Y7235317D01*
X40296090Y7451441D01*
X40268563Y7470250D01*
X53477000Y7470250D01*
X53477000Y7004690D01*
X53573673Y6771301D01*
X53752302Y6592673D01*
X53985691Y6496000D01*
X54326250Y6496000D01*
X54485000Y6654750D01*
X54485000Y7629000D01*
X53635750Y7629000D01*
X53477000Y7470250D01*
X40268563Y7470250D01*
X40083890Y7596431D01*
X39832000Y7647440D01*
X38532000Y7647440D01*
X38296683Y7603162D01*
X38080559Y7464090D01*
X37935569Y7251890D01*
X37884560Y7000000D01*
X37884560Y6159362D01*
X37779440Y6054242D01*
X37779440Y7000000D01*
X37735162Y7235317D01*
X37596090Y7451441D01*
X37383890Y7596431D01*
X37132000Y7647440D01*
X35832000Y7647440D01*
X35596683Y7603162D01*
X35380559Y7464090D01*
X35235569Y7251890D01*
X35184560Y7000000D01*
X35184560Y5400000D01*
X35228838Y5164683D01*
X35360548Y4960000D01*
X34484914Y4960000D01*
X34527440Y5170000D01*
X34527440Y5770000D01*
X34483162Y6005317D01*
X34419322Y6104528D01*
X34476431Y6188110D01*
X34527440Y6440000D01*
X34527440Y7040000D01*
X34483162Y7275317D01*
X34419322Y7374528D01*
X34476431Y7458110D01*
X34527440Y7710000D01*
X34527440Y8310000D01*
X34483162Y8545317D01*
X34419322Y8644528D01*
X34476431Y8728110D01*
X34527440Y8980000D01*
X34527440Y9371083D01*
X34544921Y9344921D01*
X35291919Y8597924D01*
X35291921Y8597921D01*
X35512027Y8450852D01*
X35546594Y8427755D01*
X35847000Y8367999D01*
X35847005Y8368000D01*
X35974025Y8368000D01*
X36137110Y8256569D01*
X36389000Y8205560D01*
X37939000Y8205560D01*
X38174317Y8249838D01*
X38390441Y8388910D01*
X38535431Y8601110D01*
X38586440Y8853000D01*
X38586440Y9453000D01*
X38542162Y9688317D01*
X38483822Y9778980D01*
X38574000Y9996690D01*
X38574000Y10137250D01*
X38415250Y10296000D01*
X37291000Y10296000D01*
X37291000Y10276000D01*
X37037000Y10276000D01*
X37037000Y10296000D01*
X37017000Y10296000D01*
X37017000Y10550000D01*
X37037000Y10550000D01*
X37037000Y10570000D01*
X37291000Y10570000D01*
X37291000Y10550000D01*
X38415250Y10550000D01*
X38421408Y10556158D01*
X38469673Y10507808D01*
X38813201Y10365162D01*
X39185167Y10364838D01*
X39528943Y10506883D01*
X39792192Y10769673D01*
X39934838Y11113201D01*
X39935162Y11485167D01*
X39793117Y11828943D01*
X39530327Y12092192D01*
X39409014Y12142566D01*
X39232790Y12318790D01*
X39167521Y12362401D01*
X38945675Y12510633D01*
X38889484Y12521810D01*
X38607000Y12578001D01*
X38606995Y12578000D01*
X38569227Y12578000D01*
X38586440Y12663000D01*
X38586440Y13165000D01*
X41141560Y13165000D01*
X41141560Y12663000D01*
X41185838Y12427683D01*
X41249678Y12328472D01*
X41192569Y12244890D01*
X41141560Y11993000D01*
X41141560Y11393000D01*
X41185838Y11157683D01*
X41249678Y11058472D01*
X41192569Y10974890D01*
X41141560Y10723000D01*
X41141560Y10123000D01*
X41185838Y9887683D01*
X41249678Y9788472D01*
X41192569Y9704890D01*
X41141560Y9453000D01*
X41141560Y8853000D01*
X41185838Y8617683D01*
X41324910Y8401559D01*
X41537110Y8256569D01*
X41789000Y8205560D01*
X43339000Y8205560D01*
X43574317Y8249838D01*
X43635798Y8289400D01*
X43690599Y8234599D01*
X43937160Y8069852D01*
X44228000Y8012000D01*
X44541258Y8012000D01*
X44564838Y7886683D01*
X44703910Y7670559D01*
X44916110Y7525569D01*
X45168000Y7474560D01*
X45868000Y7474560D01*
X46103317Y7518838D01*
X46319441Y7657910D01*
X46464431Y7870110D01*
X46471191Y7903490D01*
X46529673Y7762301D01*
X46708302Y7583673D01*
X46941691Y7487000D01*
X47132250Y7487000D01*
X47291000Y7645750D01*
X47291000Y8645000D01*
X47545000Y8645000D01*
X47545000Y7645750D01*
X47703750Y7487000D01*
X47894309Y7487000D01*
X48127698Y7583673D01*
X48306327Y7762301D01*
X48403000Y7995690D01*
X48403000Y8486250D01*
X48244250Y8645000D01*
X47545000Y8645000D01*
X47291000Y8645000D01*
X47271000Y8645000D01*
X47271000Y8899000D01*
X47291000Y8899000D01*
X47291000Y8919000D01*
X47545000Y8919000D01*
X47545000Y8899000D01*
X48244250Y8899000D01*
X48403000Y9057750D01*
X48403000Y9548310D01*
X48355494Y9663000D01*
X49062198Y9663000D01*
X50462599Y8262599D01*
X50709161Y8097852D01*
X51000000Y8040000D01*
X53478750Y8040000D01*
X53635750Y7883000D01*
X54485000Y7883000D01*
X54485000Y7903000D01*
X54739000Y7903000D01*
X54739000Y7883000D01*
X54759000Y7883000D01*
X54759000Y7629000D01*
X54739000Y7629000D01*
X54739000Y6654750D01*
X54897750Y6496000D01*
X55238309Y6496000D01*
X55471698Y6592673D01*
X55612936Y6733910D01*
X55647910Y6679559D01*
X55860110Y6534569D01*
X56112000Y6483560D01*
X56809638Y6483560D01*
X57165599Y6127599D01*
X57412161Y5962852D01*
X57552560Y5934925D01*
X57552560Y5765000D01*
X57596838Y5529683D01*
X57735910Y5313559D01*
X57948110Y5168569D01*
X58200000Y5117560D01*
X61800000Y5117560D01*
X62035317Y5161838D01*
X62251441Y5300910D01*
X62396431Y5513110D01*
X62447440Y5765000D01*
X62447440Y7565000D01*
X62403162Y7800317D01*
X62264090Y8016441D01*
X62051890Y8161431D01*
X61800000Y8212440D01*
X58200000Y8212440D01*
X57964683Y8168162D01*
X57759440Y8036092D01*
X57759440Y8381000D01*
X57715162Y8616317D01*
X57576090Y8832441D01*
X57363890Y8977431D01*
X57124491Y9025910D01*
X57347317Y9067838D01*
X57563441Y9206910D01*
X57708431Y9419110D01*
X57732102Y9536000D01*
X57869060Y9536000D01*
X57966887Y9389591D01*
X58464877Y9056845D01*
X59052296Y8940000D01*
X60947704Y8940000D01*
X61535123Y9056845D01*
X62033113Y9389591D01*
X62365859Y9887581D01*
X62482704Y10475000D01*
X62365859Y11062419D01*
X62033113Y11560409D01*
X61535123Y11893155D01*
X60947704Y12010000D01*
X59052296Y12010000D01*
X58464877Y11893155D01*
X57966887Y11560409D01*
X57706194Y11170254D01*
X57576090Y11372441D01*
X57363890Y11517431D01*
X57112000Y11568440D01*
X56112000Y11568440D01*
X55876683Y11524162D01*
X55660559Y11385090D01*
X55614031Y11316994D01*
X55471698Y11459327D01*
X55238309Y11556000D01*
X54897750Y11556000D01*
X54739000Y11397250D01*
X54739000Y10423000D01*
X54759000Y10423000D01*
X54759000Y10169000D01*
X54739000Y10169000D01*
X54739000Y10149000D01*
X54485000Y10149000D01*
X54485000Y10169000D01*
X54465000Y10169000D01*
X54465000Y10423000D01*
X54485000Y10423000D01*
X54485000Y11397250D01*
X54326250Y11556000D01*
X53985691Y11556000D01*
X53752302Y11459327D01*
X53630776Y11337801D01*
X53593117Y11428943D01*
X53330327Y11692192D01*
X52986799Y11834838D01*
X52975310Y11834848D01*
X52736740Y12073418D01*
X52829317Y12090838D01*
X53045441Y12229910D01*
X53190431Y12442110D01*
X53241440Y12694000D01*
X53241440Y12814250D01*
X53415000Y12814250D01*
X53415000Y12523691D01*
X53511673Y12290302D01*
X53690301Y12111673D01*
X53923690Y12015000D01*
X54164250Y12015000D01*
X54323000Y12173750D01*
X54323000Y12973000D01*
X53573750Y12973000D01*
X53415000Y12814250D01*
X53241440Y12814250D01*
X53241440Y13266638D01*
X53314802Y13340000D01*
X53460750Y13340000D01*
X53573750Y13227000D01*
X54323000Y13227000D01*
X54323000Y13247000D01*
X54577000Y13247000D01*
X54577000Y13227000D01*
X54597000Y13227000D01*
X54597000Y12973000D01*
X54577000Y12973000D01*
X54577000Y12173750D01*
X54735750Y12015000D01*
X54976310Y12015000D01*
X55209699Y12111673D01*
X55388327Y12290302D01*
X55403423Y12326747D01*
X55485910Y12198559D01*
X55698110Y12053569D01*
X55950000Y12002560D01*
X56750000Y12002560D01*
X56985317Y12046838D01*
X57201441Y12185910D01*
X57346431Y12398110D01*
X57397440Y12650000D01*
X57397440Y13550000D01*
X57353162Y13785317D01*
X57266329Y13920260D01*
X57608964Y13920260D01*
X57633244Y13814914D01*
X57924788Y13289394D01*
X58395248Y12915446D01*
X58973000Y12750000D01*
X59873000Y12750000D01*
X59873000Y14158000D01*
X60127000Y14158000D01*
X60127000Y12750000D01*
X61027000Y12750000D01*
X61604752Y12915446D01*
X62075212Y13289394D01*
X62366756Y13814914D01*
X62391036Y13920260D01*
X62270378Y14158000D01*
X60127000Y14158000D01*
X59873000Y14158000D01*
X57729622Y14158000D01*
X57608964Y13920260D01*
X57266329Y13920260D01*
X57214090Y14001441D01*
X57001890Y14146431D01*
X56750000Y14197440D01*
X56277362Y14197440D01*
X56266643Y14208159D01*
X56396431Y14398110D01*
X56447387Y14649740D01*
X57608964Y14649740D01*
X57729622Y14412000D01*
X59873000Y14412000D01*
X59873000Y15820000D01*
X60127000Y15820000D01*
X60127000Y14412000D01*
X62270378Y14412000D01*
X62391036Y14649740D01*
X62366756Y14755086D01*
X62075212Y15280606D01*
X61604752Y15654554D01*
X61027000Y15820000D01*
X60127000Y15820000D01*
X59873000Y15820000D01*
X58973000Y15820000D01*
X58395248Y15654554D01*
X57924788Y15280606D01*
X57633244Y14755086D01*
X57608964Y14649740D01*
X56447387Y14649740D01*
X56447440Y14650000D01*
X56447440Y14895860D01*
X56999787Y15448208D01*
X56999790Y15448210D01*
X57191633Y15735325D01*
X57193860Y15746521D01*
X57259317Y15758838D01*
X57475441Y15897910D01*
X57620431Y16110110D01*
X57671440Y16362000D01*
X57671440Y17062000D01*
X57627162Y17297317D01*
X57488090Y17513441D01*
X57275890Y17658431D01*
X57262803Y17661081D01*
X57365244Y17727000D01*
X57590496Y17727000D01*
X57634141Y17507581D01*
X57966887Y17009591D01*
X58464877Y16676845D01*
X59052296Y16560000D01*
X60947704Y16560000D01*
X61535123Y16676845D01*
X62033113Y17009591D01*
X62365859Y17507581D01*
X62482704Y18095000D01*
X62365859Y18682419D01*
X62141642Y19017984D01*
X62225790Y19074210D01*
X62225791Y19074211D01*
X63325787Y20174208D01*
X63325790Y20174210D01*
X63517633Y20461325D01*
X63542234Y20585001D01*
X63585001Y20800000D01*
X63585000Y20800005D01*
X63585000Y30899995D01*
X63585001Y30900000D01*
X63517633Y31238674D01*
X63517633Y31238675D01*
X63325790Y31525790D01*
X63325787Y31525792D01*
X62260972Y32590607D01*
X62365859Y32747581D01*
X62482704Y33335000D01*
X62365859Y33922419D01*
X62033113Y34420409D01*
X61535123Y34753155D01*
X60947704Y34870000D01*
X59052296Y34870000D01*
X58464877Y34753155D01*
X57966887Y34420409D01*
X57634141Y33922419D01*
X57517296Y33335000D01*
X57634141Y32747581D01*
X57966887Y32249591D01*
X58464877Y31916845D01*
X59052296Y31800000D01*
X60548420Y31800000D01*
X61393321Y30955100D01*
X61027000Y31060000D01*
X60127000Y31060000D01*
X60127000Y29652000D01*
X60147000Y29652000D01*
X60147000Y29398000D01*
X60127000Y29398000D01*
X60127000Y27990000D01*
X61027000Y27990000D01*
X61604752Y28155446D01*
X61815000Y28322563D01*
X61815000Y26946147D01*
X61535123Y27133155D01*
X60947704Y27250000D01*
X59052296Y27250000D01*
X58464877Y27133155D01*
X57966887Y26800409D01*
X57634141Y26302419D01*
X57517296Y25715000D01*
X57634141Y25127581D01*
X57966887Y24629591D01*
X58464877Y24296845D01*
X59052296Y24180000D01*
X60947704Y24180000D01*
X61535123Y24296845D01*
X61815000Y24483853D01*
X61815000Y23136147D01*
X61535123Y23323155D01*
X60947704Y23440000D01*
X59052296Y23440000D01*
X58464877Y23323155D01*
X57966887Y22990409D01*
X57634141Y22492419D01*
X57622720Y22435000D01*
X56991797Y22435000D01*
X56901890Y22496431D01*
X56888803Y22499081D01*
X57101441Y22635910D01*
X57246431Y22848110D01*
X57297440Y23100000D01*
X57297440Y23800000D01*
X57253162Y24035317D01*
X57114090Y24251441D01*
X56901890Y24396431D01*
X56885000Y24399851D01*
X56885000Y24596778D01*
X56885317Y24596838D01*
X57101441Y24735910D01*
X57246431Y24948110D01*
X57297440Y25200000D01*
X57297440Y25900000D01*
X57253162Y26135317D01*
X57114090Y26351441D01*
X56901890Y26496431D01*
X56868510Y26503191D01*
X57009699Y26561673D01*
X57188327Y26740302D01*
X57285000Y26973691D01*
X57285000Y27164250D01*
X57126250Y27323000D01*
X56127000Y27323000D01*
X56127000Y27303000D01*
X55873000Y27303000D01*
X55873000Y27323000D01*
X54873750Y27323000D01*
X54760000Y27209250D01*
X54760000Y27214250D01*
X54601250Y27373000D01*
X53627000Y27373000D01*
X53627000Y27353000D01*
X53373000Y27353000D01*
X53373000Y27373000D01*
X53353000Y27373000D01*
X53353000Y27627000D01*
X53373000Y27627000D01*
X53373000Y28476250D01*
X53349250Y28500000D01*
X53373000Y28523750D01*
X53373000Y29373000D01*
X53627000Y29373000D01*
X53627000Y28523750D01*
X53650750Y28500000D01*
X53627000Y28476250D01*
X53627000Y27627000D01*
X54601250Y27627000D01*
X54715000Y27740750D01*
X54715000Y27735750D01*
X54873750Y27577000D01*
X55873000Y27577000D01*
X55873000Y28276250D01*
X55749250Y28400000D01*
X55873000Y28523750D01*
X55873000Y29373000D01*
X56127000Y29373000D01*
X56127000Y28523750D01*
X56250750Y28400000D01*
X56127000Y28276250D01*
X56127000Y27577000D01*
X57126250Y27577000D01*
X57285000Y27735750D01*
X57285000Y27926309D01*
X57188327Y28159698D01*
X57009699Y28338327D01*
X56848307Y28405178D01*
X56984699Y28461673D01*
X57163327Y28640302D01*
X57260000Y28873691D01*
X57260000Y29160260D01*
X57608964Y29160260D01*
X57633244Y29054914D01*
X57924788Y28529394D01*
X58395248Y28155446D01*
X58973000Y27990000D01*
X59873000Y27990000D01*
X59873000Y29398000D01*
X57729622Y29398000D01*
X57608964Y29160260D01*
X57260000Y29160260D01*
X57260000Y29214250D01*
X57101250Y29373000D01*
X56127000Y29373000D01*
X55873000Y29373000D01*
X54898750Y29373000D01*
X54750000Y29224250D01*
X54601250Y29373000D01*
X53627000Y29373000D01*
X53373000Y29373000D01*
X53353000Y29373000D01*
X53353000Y29627000D01*
X53373000Y29627000D01*
X53373000Y29647000D01*
X53627000Y29647000D01*
X53627000Y29627000D01*
X54601250Y29627000D01*
X54750000Y29775750D01*
X54898750Y29627000D01*
X55873000Y29627000D01*
X55873000Y29647000D01*
X56127000Y29647000D01*
X56127000Y29627000D01*
X57101250Y29627000D01*
X57260000Y29785750D01*
X57260000Y29889740D01*
X57608964Y29889740D01*
X57729622Y29652000D01*
X59873000Y29652000D01*
X59873000Y31060000D01*
X58973000Y31060000D01*
X58395248Y30894554D01*
X57924788Y30520606D01*
X57633244Y29995086D01*
X57608964Y29889740D01*
X57260000Y29889740D01*
X57260000Y30126309D01*
X57163327Y30359698D01*
X57022090Y30500936D01*
X57076441Y30535910D01*
X57221431Y30748110D01*
X57272440Y31000000D01*
X57272440Y32000000D01*
X57228162Y32235317D01*
X57089090Y32451441D01*
X56876890Y32596431D01*
X56625000Y32647440D01*
X55375000Y32647440D01*
X55139683Y32603162D01*
X54923559Y32464090D01*
X54778569Y32251890D01*
X54750824Y32114880D01*
X54728162Y32235317D01*
X54589090Y32451441D01*
X54376890Y32596431D01*
X54125000Y32647440D01*
X52875000Y32647440D01*
X52639683Y32603162D01*
X52423559Y32464090D01*
X52278569Y32251890D01*
X52275149Y32235000D01*
X52124669Y32235000D01*
X52114090Y32251441D01*
X51901890Y32396431D01*
X51650000Y32447440D01*
X50350000Y32447440D01*
X50114683Y32403162D01*
X49898559Y32264090D01*
X49753569Y32051890D01*
X49702560Y31800000D01*
X49702560Y31785000D01*
X49553222Y31785000D01*
X49553162Y31785317D01*
X49414090Y32001441D01*
X49201890Y32146431D01*
X48950000Y32197440D01*
X46450000Y32197440D01*
X46214683Y32153162D01*
X45998559Y32014090D01*
X45853569Y31801890D01*
X45802560Y31550000D01*
X45802560Y30725835D01*
X45799593Y30725245D01*
X45544921Y30555079D01*
X44944921Y29955079D01*
X44774755Y29700407D01*
X44745847Y29555079D01*
X44715000Y29400000D01*
X44715000Y28100000D01*
X44774755Y27799593D01*
X44885739Y27633493D01*
X44874210Y27625790D01*
X44874208Y27625787D01*
X44691165Y27442745D01*
X44571057Y27393117D01*
X44307808Y27130327D01*
X44165162Y26786799D01*
X44164838Y26414833D01*
X44306883Y26071057D01*
X44569673Y25807808D01*
X44913201Y25665162D01*
X45285167Y25664838D01*
X45628943Y25806883D01*
X45892192Y26069673D01*
X45911001Y26114970D01*
X45985910Y25998559D01*
X45987299Y25997610D01*
X45853569Y25801890D01*
X45802560Y25550000D01*
X45802560Y24652362D01*
X44037599Y22887401D01*
X43872852Y22640839D01*
X43815000Y22350000D01*
X43815000Y20162598D01*
X42662599Y19010197D01*
X42497852Y18763635D01*
X42440000Y18472796D01*
X42440000Y18001200D01*
X41580528Y17141728D01*
X41430327Y17292192D01*
X41086799Y17434838D01*
X40714833Y17435162D01*
X40371057Y17293117D01*
X40362926Y17285000D01*
X38125158Y17285000D01*
X37866229Y17543929D01*
X37992192Y17669673D01*
X38134838Y18013201D01*
X38135162Y18385167D01*
X37993117Y18728943D01*
X37730327Y18992192D01*
X37729934Y18992355D01*
X37435000Y19287290D01*
X37435000Y28499184D01*
X37435162Y28685167D01*
X37293117Y29028943D01*
X37030327Y29292192D01*
X36686799Y29434838D01*
X36314833Y29435162D01*
X35971057Y29293117D01*
X35707808Y29030327D01*
X35565162Y28686799D01*
X35564838Y28314833D01*
X35565000Y28314441D01*
X35565000Y23245158D01*
X35255079Y23555079D01*
X35000407Y23725245D01*
X34700000Y23785000D01*
X34153222Y23785000D01*
X34153162Y23785317D01*
X34014090Y24001441D01*
X34012701Y24002390D01*
X34146431Y24198110D01*
X34197440Y24450000D01*
X34197440Y25550000D01*
X34153162Y25785317D01*
X34014090Y26001441D01*
X34012701Y26002390D01*
X34146431Y26198110D01*
X34197440Y26450000D01*
X34197440Y27550000D01*
X34153162Y27785317D01*
X34014090Y28001441D01*
X34012701Y28002390D01*
X34146431Y28198110D01*
X34197440Y28450000D01*
X34197440Y29550000D01*
X34153162Y29785317D01*
X34014090Y30001441D01*
X34012701Y30002390D01*
X34146431Y30198110D01*
X34197440Y30450000D01*
X34197440Y31550000D01*
X34153162Y31785317D01*
X34014090Y32001441D01*
X33801890Y32146431D01*
X33550000Y32197440D01*
X31050000Y32197440D01*
X30814683Y32153162D01*
X30598559Y32014090D01*
X30453569Y31801890D01*
X30445086Y31760000D01*
X25300000Y31760000D01*
X25087009Y31717633D01*
X25009160Y31702148D01*
X24762599Y31537401D01*
X20260320Y27035122D01*
X20214833Y27035162D01*
X19871057Y26893117D01*
X19607808Y26630327D01*
X19465162Y26286799D01*
X19465052Y26160000D01*
X19262463Y26160000D01*
X19230327Y26192192D01*
X18886799Y26334838D01*
X18514833Y26335162D01*
X18171057Y26193117D01*
X17907808Y25930327D01*
X17765162Y25586799D01*
X17764838Y25214833D01*
X17906883Y24871057D01*
X17930459Y24847440D01*
X17900000Y24847440D01*
X17692658Y24808426D01*
X17500000Y24847440D01*
X16800000Y24847440D01*
X16592658Y24808426D01*
X16434862Y24840380D01*
X16435162Y25185167D01*
X16435000Y25185559D01*
X16435000Y29400000D01*
X16363827Y29757809D01*
X16335000Y29800952D01*
X16335000Y33675225D01*
X17914803Y33675225D01*
X18087233Y33257914D01*
X18406235Y32938355D01*
X18823244Y32765197D01*
X19274775Y32764803D01*
X19692086Y32937233D01*
X19969586Y33214250D01*
X22515000Y33214250D01*
X22515000Y32273690D01*
X22611673Y32040301D01*
X22790302Y31861673D01*
X23023691Y31765000D01*
X23464250Y31765000D01*
X23623000Y31923750D01*
X23623000Y33373000D01*
X23877000Y33373000D01*
X23877000Y31923750D01*
X24035750Y31765000D01*
X24476309Y31765000D01*
X24709698Y31861673D01*
X24888327Y32040301D01*
X24985000Y32273690D01*
X24985000Y33214250D01*
X24826250Y33373000D01*
X23877000Y33373000D01*
X23623000Y33373000D01*
X22673750Y33373000D01*
X22515000Y33214250D01*
X19969586Y33214250D01*
X20011645Y33256235D01*
X20184803Y33673244D01*
X20185197Y34124775D01*
X20012767Y34542086D01*
X19828865Y34726310D01*
X22515000Y34726310D01*
X22515000Y33785750D01*
X22673750Y33627000D01*
X23623000Y33627000D01*
X23623000Y35076250D01*
X23877000Y35076250D01*
X23877000Y33627000D01*
X24826250Y33627000D01*
X24985000Y33785750D01*
X24985000Y34426695D01*
X25764674Y34426695D01*
X26051043Y33733628D01*
X26580839Y33202907D01*
X27273405Y32915328D01*
X28023305Y32914674D01*
X28716372Y33201043D01*
X29247093Y33730839D01*
X29534672Y34423405D01*
X29535326Y35173305D01*
X29248957Y35866372D01*
X28719161Y36397093D01*
X28026595Y36684672D01*
X27276695Y36685326D01*
X26583628Y36398957D01*
X26052907Y35869161D01*
X25765328Y35176595D01*
X25764674Y34426695D01*
X24985000Y34426695D01*
X24985000Y34726310D01*
X24888327Y34959699D01*
X24709698Y35138327D01*
X24476309Y35235000D01*
X24035750Y35235000D01*
X23877000Y35076250D01*
X23623000Y35076250D01*
X23464250Y35235000D01*
X23023691Y35235000D01*
X22790302Y35138327D01*
X22611673Y34959699D01*
X22515000Y34726310D01*
X19828865Y34726310D01*
X19693765Y34861645D01*
X19276756Y35034803D01*
X18825225Y35035197D01*
X18407914Y34862767D01*
X18088355Y34543765D01*
X17915197Y34126756D01*
X17914803Y33675225D01*
X16335000Y33675225D01*
X16335000Y34918529D01*
X16343169Y34915137D01*
X16655461Y34914864D01*
X16944086Y35034121D01*
X17165103Y35254753D01*
X17284863Y35543169D01*
X17285136Y35855461D01*
X17165879Y36144086D01*
X17110158Y36199904D01*
X17165103Y36254753D01*
X17284863Y36543169D01*
X17285136Y36855461D01*
X17165879Y37144086D01*
X16945247Y37365103D01*
X16656831Y37484863D01*
X16344539Y37485136D01*
X16116558Y37390937D01*
X15857809Y37563827D01*
X15500000Y37635000D01*
X15142191Y37563827D01*
X14883285Y37390832D01*
X14656831Y37484863D01*
X14344539Y37485136D01*
X14055914Y37365879D01*
X13834897Y37145247D01*
X13715137Y36856831D01*
X13714864Y36544539D01*
X13834121Y36255914D01*
X13889842Y36200096D01*
X13834897Y36145247D01*
X13715137Y35856831D01*
X13714864Y35544539D01*
X13834121Y35255914D01*
X14054753Y35034897D01*
X14343169Y34915137D01*
X14465000Y34915030D01*
X14465000Y29500000D01*
X14536173Y29142191D01*
X14565000Y29099048D01*
X14565000Y25175158D01*
X14394921Y25005079D01*
X14278913Y24831460D01*
X14200000Y24847440D01*
X13500000Y24847440D01*
X13291150Y24808142D01*
X13226309Y24835000D01*
X13035750Y24835000D01*
X12877000Y24676250D01*
X12877000Y24320688D01*
X12852560Y24200000D01*
X12852560Y23253000D01*
X12647440Y23253000D01*
X12647440Y24200000D01*
X12623000Y24329887D01*
X12623000Y24676250D01*
X12464250Y24835000D01*
X12273691Y24835000D01*
X12203993Y24806130D01*
X12000000Y24847440D01*
X11300000Y24847440D01*
X11092658Y24808426D01*
X10900000Y24847440D01*
X10200000Y24847440D01*
X9991150Y24808142D01*
X9926309Y24835000D01*
X9735750Y24835000D01*
X9577000Y24676250D01*
X9577000Y24320688D01*
X9552560Y24200000D01*
X9552560Y23253000D01*
X9485000Y23253000D01*
X9485000Y23614250D01*
X9326250Y23773000D01*
X9323000Y23773000D01*
X9323000Y24027000D01*
X9326250Y24027000D01*
X9485000Y24185750D01*
X9485000Y24726310D01*
X9388327Y24959699D01*
X9209698Y25138327D01*
X8976309Y25235000D01*
X8632410Y25235000D01*
X8793737Y25651955D01*
X8775164Y26441418D01*
X8508782Y27084522D01*
X8205593Y27225988D01*
X6979605Y26000000D01*
X7744605Y25235000D01*
X7523691Y25235000D01*
X7425901Y25194494D01*
X6800000Y25820395D01*
X5574012Y24594407D01*
X685000Y24594407D01*
X685000Y26348045D01*
X4806263Y26348045D01*
X4824836Y25558582D01*
X5091218Y24915478D01*
X5394407Y24774012D01*
X6620395Y26000000D01*
X5394407Y27225988D01*
X5091218Y27084522D01*
X4806263Y26348045D01*
X685000Y26348045D01*
X685000Y27405593D01*
X5574012Y27405593D01*
X6800000Y26179605D01*
X8025988Y27405593D01*
X7884522Y27708782D01*
X7148045Y27993737D01*
X6358582Y27975164D01*
X5715478Y27708782D01*
X5574012Y27405593D01*
X685000Y27405593D01*
X685000Y33214250D01*
X7015000Y33214250D01*
X7015000Y32273690D01*
X7111673Y32040301D01*
X7290302Y31861673D01*
X7523691Y31765000D01*
X7964250Y31765000D01*
X8123000Y31923750D01*
X8123000Y33373000D01*
X8377000Y33373000D01*
X8377000Y31923750D01*
X8535750Y31765000D01*
X8976309Y31765000D01*
X9209698Y31861673D01*
X9388327Y32040301D01*
X9485000Y32273690D01*
X9485000Y33214250D01*
X9326250Y33373000D01*
X8377000Y33373000D01*
X8123000Y33373000D01*
X7173750Y33373000D01*
X7015000Y33214250D01*
X685000Y33214250D01*
X685000Y35326695D01*
X2614674Y35326695D01*
X2901043Y34633628D01*
X3430839Y34102907D01*
X4123405Y33815328D01*
X4873305Y33814674D01*
X5566372Y34101043D01*
X6097093Y34630839D01*
X6136736Y34726310D01*
X7015000Y34726310D01*
X7015000Y33785750D01*
X7173750Y33627000D01*
X8123000Y33627000D01*
X8123000Y35076250D01*
X8377000Y35076250D01*
X8377000Y33627000D01*
X9326250Y33627000D01*
X9374475Y33675225D01*
X9934803Y33675225D01*
X10107233Y33257914D01*
X10426235Y32938355D01*
X10843244Y32765197D01*
X11294775Y32764803D01*
X11712086Y32937233D01*
X12031645Y33256235D01*
X12204803Y33673244D01*
X12205197Y34124775D01*
X12032767Y34542086D01*
X11713765Y34861645D01*
X11296756Y35034803D01*
X10845225Y35035197D01*
X10427914Y34862767D01*
X10108355Y34543765D01*
X9935197Y34126756D01*
X9934803Y33675225D01*
X9374475Y33675225D01*
X9485000Y33785750D01*
X9485000Y34726310D01*
X9388327Y34959699D01*
X9209698Y35138327D01*
X8976309Y35235000D01*
X8535750Y35235000D01*
X8377000Y35076250D01*
X8123000Y35076250D01*
X7964250Y35235000D01*
X7523691Y35235000D01*
X7290302Y35138327D01*
X7111673Y34959699D01*
X7015000Y34726310D01*
X6136736Y34726310D01*
X6384672Y35323405D01*
X6385326Y36073305D01*
X6098957Y36766372D01*
X5569161Y37297093D01*
X4876595Y37584672D01*
X4126695Y37585326D01*
X3433628Y37298957D01*
X2902907Y36769161D01*
X2615328Y36076595D01*
X2614674Y35326695D01*
X685000Y35326695D01*
X685000Y36932533D01*
X873617Y37880777D01*
X1372537Y38627463D01*
X2119225Y39126383D01*
X3067467Y39315000D01*
X29565000Y39315000D01*
X29565000Y33700000D01*
X29565000Y33700000D01*
G37*
X29565000Y33700000D02*
X29578162Y33633830D01*
X29578162Y33566364D01*
X29616222Y33375022D01*
X29616223Y33375020D01*
X29616223Y33375018D01*
X29663729Y33260329D01*
X29718503Y33128093D01*
X29718504Y33128092D01*
X29718505Y33128090D01*
X29826892Y32965879D01*
X29877444Y32915328D01*
X30015879Y32776892D01*
X30178090Y32668505D01*
X30178092Y32668504D01*
X30178093Y32668503D01*
X30269976Y32630444D01*
X30425018Y32566223D01*
X30425020Y32566223D01*
X30425022Y32566222D01*
X30616365Y32528162D01*
X30683830Y32528162D01*
X30750000Y32515000D01*
X49250000Y32515000D01*
X49316170Y32528162D01*
X49383636Y32528162D01*
X49574978Y32566222D01*
X49574980Y32566223D01*
X49574982Y32566223D01*
X49730024Y32630444D01*
X49821907Y32668503D01*
X49821908Y32668504D01*
X49821910Y32668505D01*
X49984121Y32776892D01*
X50122556Y32915328D01*
X50173108Y32965879D01*
X50281495Y33128090D01*
X50281496Y33128092D01*
X50281497Y33128093D01*
X50336271Y33260329D01*
X50383777Y33375018D01*
X50383777Y33375020D01*
X50383778Y33375022D01*
X50421838Y33566365D01*
X50421838Y33633830D01*
X50435000Y33700000D01*
X50435000Y35326695D01*
X50614674Y35326695D01*
X50901043Y34633628D01*
X51430839Y34102907D01*
X52123405Y33815328D01*
X52873305Y33814674D01*
X53566372Y34101043D01*
X54097093Y34630839D01*
X54384672Y35323405D01*
X54385326Y36073305D01*
X54098957Y36766372D01*
X53569161Y37297093D01*
X52876595Y37584672D01*
X52126695Y37585326D01*
X51433628Y37298957D01*
X50902907Y36769161D01*
X50615328Y36076595D01*
X50614674Y35326695D01*
X50435000Y35326695D01*
X50435000Y39315000D01*
X61932533Y39315000D01*
X62880777Y39126383D01*
X63627463Y38627463D01*
X64126383Y37880775D01*
X64315000Y36932533D01*
X64315000Y3067467D01*
X64126383Y2119225D01*
X63627463Y1372537D01*
X62880777Y873617D01*
X61932533Y685000D01*
X3067467Y685000D01*
X2119225Y873617D01*
X1372537Y1372537D01*
X873617Y2119223D01*
X685000Y3067467D01*
X685000Y4326695D01*
X2614674Y4326695D01*
X2901043Y3633628D01*
X3430839Y3102907D01*
X4123405Y2815328D01*
X4873305Y2814674D01*
X5566372Y3101043D01*
X6097093Y3630839D01*
X6384672Y4323405D01*
X6385326Y5073305D01*
X6098957Y5766372D01*
X5569161Y6297093D01*
X4876595Y6584672D01*
X4126695Y6585326D01*
X3433628Y6298957D01*
X2902907Y5769161D01*
X2615328Y5076595D01*
X2614674Y4326695D01*
X685000Y4326695D01*
X685000Y7314250D01*
X17565000Y7314250D01*
X17565000Y6848690D01*
X17661673Y6615301D01*
X17840302Y6436673D01*
X18073691Y6340000D01*
X18414250Y6340000D01*
X18573000Y6498750D01*
X18573000Y7473000D01*
X17723750Y7473000D01*
X17565000Y7314250D01*
X685000Y7314250D01*
X685000Y12594407D01*
X5574012Y12594407D01*
X5715478Y12291218D01*
X6451955Y12006263D01*
X7241418Y12024836D01*
X7884522Y12291218D01*
X8025988Y12594407D01*
X6800000Y13820395D01*
X5574012Y12594407D01*
X685000Y12594407D01*
X685000Y14348045D01*
X4806263Y14348045D01*
X4824836Y13558582D01*
X5091218Y12915478D01*
X5394407Y12774012D01*
X6620395Y14000000D01*
X6979605Y14000000D01*
X8205593Y12774012D01*
X8508782Y12915478D01*
X8561337Y13051310D01*
X17565000Y13051310D01*
X17565000Y12585750D01*
X17723750Y12427000D01*
X18573000Y12427000D01*
X18573000Y13401250D01*
X18414250Y13560000D01*
X18073691Y13560000D01*
X17840302Y13463327D01*
X17661673Y13284699D01*
X17565000Y13051310D01*
X8561337Y13051310D01*
X8793737Y13651955D01*
X8775164Y14441418D01*
X8508782Y15084522D01*
X8205593Y15225988D01*
X6979605Y14000000D01*
X6620395Y14000000D01*
X5394407Y15225988D01*
X5091218Y15084522D01*
X4806263Y14348045D01*
X685000Y14348045D01*
X685000Y15405593D01*
X5574012Y15405593D01*
X6800000Y14179605D01*
X8025988Y15405593D01*
X7884522Y15708782D01*
X7148045Y15993737D01*
X6358582Y15975164D01*
X5715478Y15708782D01*
X5574012Y15405593D01*
X685000Y15405593D01*
X685000Y16114250D01*
X8265000Y16114250D01*
X8265000Y15648690D01*
X8361673Y15415301D01*
X8540302Y15236673D01*
X8773691Y15140000D01*
X9114250Y15140000D01*
X9273000Y15298750D01*
X9273000Y16273000D01*
X8423750Y16273000D01*
X8265000Y16114250D01*
X685000Y16114250D01*
X685000Y18937220D01*
X8092845Y18937220D01*
X8120659Y18382951D01*
X8279258Y18000059D01*
X8521236Y17930841D01*
X9320395Y18730000D01*
X8521236Y19529159D01*
X8279258Y19459941D01*
X8092845Y18937220D01*
X685000Y18937220D01*
X685000Y23614250D01*
X7015000Y23614250D01*
X7015000Y23073690D01*
X7111673Y22840301D01*
X7290302Y22661673D01*
X7523691Y22565000D01*
X7964250Y22565000D01*
X8123000Y22723750D01*
X8123000Y23773000D01*
X7173750Y23773000D01*
X7015000Y23614250D01*
X685000Y23614250D01*
X685000Y24594407D01*
X5574012Y24594407D01*
X5715478Y24291218D01*
X6451955Y24006263D01*
X7241418Y24024836D01*
X7246642Y24027000D01*
X8123000Y24027000D01*
X8123000Y24047000D01*
X8377000Y24047000D01*
X8377000Y24027000D01*
X8465000Y24027000D01*
X8465000Y23773000D01*
X8377000Y23773000D01*
X8377000Y22723750D01*
X8465000Y22635750D01*
X8465000Y22473690D01*
X8542884Y22285662D01*
X8318066Y22061236D01*
X8105242Y21548700D01*
X8104758Y20993735D01*
X8316687Y20480828D01*
X8708764Y20088066D01*
X8904934Y20006609D01*
X8770059Y19950742D01*
X8700841Y19708764D01*
X9500000Y18909605D01*
X10299159Y19708764D01*
X10229941Y19950742D01*
X10085138Y20002382D01*
X10289172Y20086687D01*
X10500024Y20297171D01*
X10708764Y20088066D01*
X10920738Y20000046D01*
X10710828Y19913313D01*
X10318066Y19521236D01*
X10209581Y19259976D01*
X9679605Y18730000D01*
X10209595Y18200010D01*
X10316687Y17940828D01*
X10515000Y17742169D01*
X10515000Y17531844D01*
X10448559Y17489090D01*
X10402031Y17420994D01*
X10259698Y17563327D01*
X10246921Y17568619D01*
X10299159Y17751236D01*
X9500000Y18550395D01*
X8700841Y17751236D01*
X8731892Y17642686D01*
X8540302Y17563327D01*
X8361673Y17384699D01*
X8265000Y17151310D01*
X8265000Y16685750D01*
X8423750Y16527000D01*
X9273000Y16527000D01*
X9273000Y16547000D01*
X9527000Y16547000D01*
X9527000Y16527000D01*
X9547000Y16527000D01*
X9547000Y16273000D01*
X9527000Y16273000D01*
X9527000Y15298750D01*
X9685750Y15140000D01*
X10026309Y15140000D01*
X10259698Y15236673D01*
X10400936Y15377910D01*
X10435910Y15323559D01*
X10648110Y15178569D01*
X10900000Y15127560D01*
X11900000Y15127560D01*
X12135317Y15171838D01*
X12351441Y15310910D01*
X12496431Y15523110D01*
X12547440Y15775000D01*
X12547440Y17025000D01*
X12503162Y17260317D01*
X12364090Y17476441D01*
X12285000Y17530481D01*
X12285000Y17544963D01*
X12289172Y17546687D01*
X12681934Y17938764D01*
X12894758Y18451300D01*
X12895242Y19006265D01*
X12683313Y19519172D01*
X12291236Y19911934D01*
X12079262Y19999954D01*
X12289172Y20086687D01*
X12681934Y20478764D01*
X12752204Y20647994D01*
X13615000Y19785198D01*
X13615000Y18675000D01*
X13672852Y18384161D01*
X13837599Y18137599D01*
X17962599Y14012599D01*
X18209161Y13847852D01*
X18500000Y13790000D01*
X23510198Y13790000D01*
X24546155Y12754043D01*
X24480000Y12767440D01*
X22480000Y12767440D01*
X22244683Y12723162D01*
X22216458Y12705000D01*
X21847440Y12705000D01*
X21847440Y12925000D01*
X21803162Y13160317D01*
X21664090Y13376441D01*
X21451890Y13521431D01*
X21200000Y13572440D01*
X20200000Y13572440D01*
X20001023Y13535000D01*
X19814833Y13535162D01*
X19583463Y13439562D01*
X19559698Y13463327D01*
X19326309Y13560000D01*
X18985750Y13560000D01*
X18827000Y13401250D01*
X18827000Y12427000D01*
X18847000Y12427000D01*
X18847000Y12173000D01*
X18827000Y12173000D01*
X18827000Y12153000D01*
X18573000Y12153000D01*
X18573000Y12173000D01*
X17723750Y12173000D01*
X17565000Y12014250D01*
X17565000Y11548690D01*
X17661673Y11315301D01*
X17840302Y11136673D01*
X18073691Y11040000D01*
X18097935Y11040000D01*
X18003569Y10901890D01*
X17952560Y10650000D01*
X17952560Y9350000D01*
X17996838Y9114683D01*
X18135910Y8898559D01*
X18192343Y8860000D01*
X18073691Y8860000D01*
X17840302Y8763327D01*
X17661673Y8584699D01*
X17565000Y8351310D01*
X17565000Y7885750D01*
X17723750Y7727000D01*
X18573000Y7727000D01*
X18573000Y7747000D01*
X18827000Y7747000D01*
X18827000Y7727000D01*
X18847000Y7727000D01*
X18847000Y7473000D01*
X18827000Y7473000D01*
X18827000Y6498750D01*
X18985750Y6340000D01*
X19326309Y6340000D01*
X19559698Y6436673D01*
X19700936Y6577910D01*
X19735910Y6523559D01*
X19948110Y6378569D01*
X20200000Y6327560D01*
X21200000Y6327560D01*
X21435317Y6371838D01*
X21651441Y6510910D01*
X21796431Y6723110D01*
X21832560Y6901520D01*
X21832560Y6440000D01*
X21876838Y6204683D01*
X21940678Y6105472D01*
X21883569Y6021890D01*
X21832560Y5770000D01*
X21832560Y5170000D01*
X21876807Y4934847D01*
X21514833Y4935162D01*
X21171057Y4793117D01*
X20907808Y4530327D01*
X20765162Y4186799D01*
X20764838Y3814833D01*
X20906883Y3471057D01*
X21169673Y3207808D01*
X21513201Y3065162D01*
X21832560Y3064884D01*
X21832560Y2630000D01*
X21876838Y2394683D01*
X21940678Y2295472D01*
X21883569Y2211890D01*
X21832560Y1960000D01*
X21832560Y1360000D01*
X21876838Y1124683D01*
X22015910Y908559D01*
X22228110Y763569D01*
X22480000Y712560D01*
X24480000Y712560D01*
X24715317Y756838D01*
X24931441Y895910D01*
X24934236Y900000D01*
X26160000Y900000D01*
X26450839Y957852D01*
X26697401Y1122599D01*
X26739680Y1164878D01*
X26785167Y1164838D01*
X27128943Y1306883D01*
X27196427Y1374250D01*
X31245000Y1374250D01*
X31245000Y1233690D01*
X31341673Y1000301D01*
X31520302Y821673D01*
X31753691Y725000D01*
X32594250Y725000D01*
X32753000Y883750D01*
X32753000Y1533000D01*
X33007000Y1533000D01*
X33007000Y883750D01*
X33165750Y725000D01*
X34006309Y725000D01*
X34239698Y821673D01*
X34418327Y1000301D01*
X34515000Y1233690D01*
X34515000Y1374250D01*
X34356250Y1533000D01*
X33007000Y1533000D01*
X32753000Y1533000D01*
X31403750Y1533000D01*
X31245000Y1374250D01*
X27196427Y1374250D01*
X27392192Y1569673D01*
X27534838Y1913201D01*
X27535162Y2285167D01*
X27439387Y2516960D01*
X27492192Y2569673D01*
X27634838Y2913201D01*
X27635162Y3285167D01*
X27493117Y3628943D01*
X27230327Y3892192D01*
X26886799Y4034838D01*
X26514833Y4035162D01*
X26171057Y3893117D01*
X25967585Y3690000D01*
X25084914Y3690000D01*
X25127440Y3900000D01*
X25127440Y4500000D01*
X25085475Y4723024D01*
X25310839Y4767852D01*
X25557401Y4932599D01*
X30862401Y10237599D01*
X30872494Y10252704D01*
X31112599Y10012599D01*
X31314750Y9877526D01*
X31283569Y9831890D01*
X31232560Y9580000D01*
X31232560Y8980000D01*
X31276838Y8744683D01*
X31340678Y8645472D01*
X31283569Y8561890D01*
X31232560Y8310000D01*
X31232560Y7710000D01*
X31276838Y7474683D01*
X31340678Y7375472D01*
X31283569Y7291890D01*
X31232560Y7040000D01*
X31232560Y6440000D01*
X31276838Y6204683D01*
X31340678Y6105472D01*
X31283569Y6021890D01*
X31232560Y5770000D01*
X31232560Y5170000D01*
X31276838Y4934683D01*
X31340678Y4835472D01*
X31283569Y4751890D01*
X31232560Y4500000D01*
X31232560Y3900000D01*
X31276838Y3664683D01*
X31340678Y3565472D01*
X31283569Y3481890D01*
X31232560Y3230000D01*
X31232560Y2630000D01*
X31276838Y2394683D01*
X31335178Y2304020D01*
X31245000Y2086310D01*
X31245000Y1945750D01*
X31403750Y1787000D01*
X32753000Y1787000D01*
X32753000Y1807000D01*
X33007000Y1807000D01*
X33007000Y1787000D01*
X34356250Y1787000D01*
X34515000Y1945750D01*
X34515000Y2086310D01*
X34480334Y2170000D01*
X35184560Y2170000D01*
X35184560Y1400000D01*
X35228838Y1164683D01*
X35367910Y948559D01*
X35580110Y803569D01*
X35832000Y752560D01*
X37132000Y752560D01*
X37367317Y796838D01*
X37583441Y935910D01*
X37728431Y1148110D01*
X37779440Y1400000D01*
X37779440Y2504638D01*
X37884560Y2609758D01*
X37884560Y1400000D01*
X37928838Y1164683D01*
X38067910Y948559D01*
X38280110Y803569D01*
X38532000Y752560D01*
X39832000Y752560D01*
X40067317Y796838D01*
X40283441Y935910D01*
X40428431Y1148110D01*
X40479440Y1400000D01*
X40479440Y2740000D01*
X40764560Y2740000D01*
X40764560Y2051000D01*
X40808838Y1815683D01*
X40947910Y1599559D01*
X41160110Y1454569D01*
X41412000Y1403560D01*
X42412000Y1403560D01*
X42647317Y1447838D01*
X42863441Y1586910D01*
X42909969Y1655006D01*
X43052302Y1512673D01*
X43285691Y1416000D01*
X43626250Y1416000D01*
X43785000Y1574750D01*
X43785000Y2549000D01*
X44039000Y2549000D01*
X44039000Y1574750D01*
X44197750Y1416000D01*
X44538309Y1416000D01*
X44771698Y1512673D01*
X44950327Y1691301D01*
X45047000Y1924690D01*
X45047000Y2390250D01*
X44888250Y2549000D01*
X44039000Y2549000D01*
X43785000Y2549000D01*
X43765000Y2549000D01*
X43765000Y2803000D01*
X43785000Y2803000D01*
X43785000Y3777250D01*
X44039000Y3777250D01*
X44039000Y2803000D01*
X44888250Y2803000D01*
X45047000Y2961750D01*
X45047000Y3427310D01*
X44950327Y3660699D01*
X44771698Y3839327D01*
X44629745Y3898126D01*
X46543881Y3898126D01*
X46705116Y3555595D01*
X47022731Y3247648D01*
X47434015Y3084688D01*
X47611000Y3225259D01*
X47611000Y4073000D01*
X47865000Y4073000D01*
X47865000Y3225259D01*
X48041985Y3084688D01*
X48453269Y3247648D01*
X48770884Y3555595D01*
X48932119Y3898126D01*
X48805954Y4073000D01*
X47865000Y4073000D01*
X47611000Y4073000D01*
X46670046Y4073000D01*
X46543881Y3898126D01*
X44629745Y3898126D01*
X44538309Y3936000D01*
X44197750Y3936000D01*
X44039000Y3777250D01*
X43785000Y3777250D01*
X43626250Y3936000D01*
X43285691Y3936000D01*
X43052302Y3839327D01*
X42911064Y3698090D01*
X42876090Y3752441D01*
X42663890Y3897431D01*
X42412000Y3948440D01*
X41714362Y3948440D01*
X41625401Y4037401D01*
X41378839Y4202148D01*
X41088000Y4260000D01*
X38134802Y4260000D01*
X38201497Y4326695D01*
X50614674Y4326695D01*
X50901043Y3633628D01*
X51430839Y3102907D01*
X52123405Y2815328D01*
X52873305Y2814674D01*
X53566372Y3101043D01*
X54097093Y3630839D01*
X54384672Y4323405D01*
X54385326Y5073305D01*
X54098957Y5766372D01*
X53569161Y6297093D01*
X52876595Y6584672D01*
X52126695Y6585326D01*
X51433628Y6298957D01*
X50902907Y5769161D01*
X50615328Y5076595D01*
X50614674Y4326695D01*
X38201497Y4326695D01*
X38627362Y4752560D01*
X39832000Y4752560D01*
X40067317Y4796838D01*
X40283441Y4935910D01*
X40428431Y5148110D01*
X40479440Y5400000D01*
X40479440Y5440000D01*
X40764560Y5440000D01*
X40764560Y5099000D01*
X40808838Y4863683D01*
X40947910Y4647559D01*
X41160110Y4502569D01*
X41412000Y4451560D01*
X42412000Y4451560D01*
X42647317Y4495838D01*
X42863441Y4634910D01*
X42909969Y4703006D01*
X43052302Y4560673D01*
X43285691Y4464000D01*
X43626250Y4464000D01*
X43785000Y4622750D01*
X43785000Y5597000D01*
X44039000Y5597000D01*
X44039000Y4622750D01*
X44197750Y4464000D01*
X44538309Y4464000D01*
X44771698Y4560673D01*
X44950327Y4739301D01*
X45047000Y4972690D01*
X45047000Y5438250D01*
X45015250Y5470000D01*
X46478805Y5470000D01*
X46565202Y5035654D01*
X46700104Y4833758D01*
X46543881Y4501874D01*
X46670046Y4327000D01*
X47611000Y4327000D01*
X47611000Y4335558D01*
X47613805Y4335000D01*
X47862195Y4335000D01*
X47865000Y4335558D01*
X47865000Y4327000D01*
X48805954Y4327000D01*
X48932119Y4501874D01*
X48775896Y4833758D01*
X48910798Y5035654D01*
X48997195Y5470000D01*
X48910798Y5904346D01*
X48664761Y6272566D01*
X48296541Y6518603D01*
X47862195Y6605000D01*
X47613805Y6605000D01*
X47179459Y6518603D01*
X46811239Y6272566D01*
X46565202Y5904346D01*
X46478805Y5470000D01*
X45015250Y5470000D01*
X44888250Y5597000D01*
X44039000Y5597000D01*
X43785000Y5597000D01*
X43765000Y5597000D01*
X43765000Y5851000D01*
X43785000Y5851000D01*
X43785000Y6825250D01*
X44039000Y6825250D01*
X44039000Y5851000D01*
X44888250Y5851000D01*
X45047000Y6009750D01*
X45047000Y6475310D01*
X44950327Y6708699D01*
X44771698Y6887327D01*
X44538309Y6984000D01*
X44197750Y6984000D01*
X44039000Y6825250D01*
X43785000Y6825250D01*
X43626250Y6984000D01*
X43285691Y6984000D01*
X43052302Y6887327D01*
X42911064Y6746090D01*
X42876090Y6800441D01*
X42663890Y6945431D01*
X42412000Y6996440D01*
X41412000Y6996440D01*
X41218338Y6960000D01*
X40479440Y6960000D01*
X40479440Y7000000D01*
X40435162Y7235317D01*
X40296090Y7451441D01*
X40268563Y7470250D01*
X53477000Y7470250D01*
X53477000Y7004690D01*
X53573673Y6771301D01*
X53752302Y6592673D01*
X53985691Y6496000D01*
X54326250Y6496000D01*
X54485000Y6654750D01*
X54485000Y7629000D01*
X53635750Y7629000D01*
X53477000Y7470250D01*
X40268563Y7470250D01*
X40083890Y7596431D01*
X39832000Y7647440D01*
X38532000Y7647440D01*
X38296683Y7603162D01*
X38080559Y7464090D01*
X37935569Y7251890D01*
X37884560Y7000000D01*
X37884560Y6159362D01*
X37779440Y6054242D01*
X37779440Y7000000D01*
X37735162Y7235317D01*
X37596090Y7451441D01*
X37383890Y7596431D01*
X37132000Y7647440D01*
X35832000Y7647440D01*
X35596683Y7603162D01*
X35380559Y7464090D01*
X35235569Y7251890D01*
X35184560Y7000000D01*
X35184560Y5400000D01*
X35228838Y5164683D01*
X35360548Y4960000D01*
X34484914Y4960000D01*
X34527440Y5170000D01*
X34527440Y5770000D01*
X34483162Y6005317D01*
X34419322Y6104528D01*
X34476431Y6188110D01*
X34527440Y6440000D01*
X34527440Y7040000D01*
X34483162Y7275317D01*
X34419322Y7374528D01*
X34476431Y7458110D01*
X34527440Y7710000D01*
X34527440Y8310000D01*
X34483162Y8545317D01*
X34419322Y8644528D01*
X34476431Y8728110D01*
X34527440Y8980000D01*
X34527440Y9371083D01*
X34544921Y9344921D01*
X35291919Y8597924D01*
X35291921Y8597921D01*
X35512027Y8450852D01*
X35546594Y8427755D01*
X35847000Y8367999D01*
X35847005Y8368000D01*
X35974025Y8368000D01*
X36137110Y8256569D01*
X36389000Y8205560D01*
X37939000Y8205560D01*
X38174317Y8249838D01*
X38390441Y8388910D01*
X38535431Y8601110D01*
X38586440Y8853000D01*
X38586440Y9453000D01*
X38542162Y9688317D01*
X38483822Y9778980D01*
X38574000Y9996690D01*
X38574000Y10137250D01*
X38415250Y10296000D01*
X37291000Y10296000D01*
X37291000Y10276000D01*
X37037000Y10276000D01*
X37037000Y10296000D01*
X37017000Y10296000D01*
X37017000Y10550000D01*
X37037000Y10550000D01*
X37037000Y10570000D01*
X37291000Y10570000D01*
X37291000Y10550000D01*
X38415250Y10550000D01*
X38421408Y10556158D01*
X38469673Y10507808D01*
X38813201Y10365162D01*
X39185167Y10364838D01*
X39528943Y10506883D01*
X39792192Y10769673D01*
X39934838Y11113201D01*
X39935162Y11485167D01*
X39793117Y11828943D01*
X39530327Y12092192D01*
X39409014Y12142566D01*
X39232790Y12318790D01*
X39167521Y12362401D01*
X38945675Y12510633D01*
X38889484Y12521810D01*
X38607000Y12578001D01*
X38606995Y12578000D01*
X38569227Y12578000D01*
X38586440Y12663000D01*
X38586440Y13165000D01*
X41141560Y13165000D01*
X41141560Y12663000D01*
X41185838Y12427683D01*
X41249678Y12328472D01*
X41192569Y12244890D01*
X41141560Y11993000D01*
X41141560Y11393000D01*
X41185838Y11157683D01*
X41249678Y11058472D01*
X41192569Y10974890D01*
X41141560Y10723000D01*
X41141560Y10123000D01*
X41185838Y9887683D01*
X41249678Y9788472D01*
X41192569Y9704890D01*
X41141560Y9453000D01*
X41141560Y8853000D01*
X41185838Y8617683D01*
X41324910Y8401559D01*
X41537110Y8256569D01*
X41789000Y8205560D01*
X43339000Y8205560D01*
X43574317Y8249838D01*
X43635798Y8289400D01*
X43690599Y8234599D01*
X43937160Y8069852D01*
X44228000Y8012000D01*
X44541258Y8012000D01*
X44564838Y7886683D01*
X44703910Y7670559D01*
X44916110Y7525569D01*
X45168000Y7474560D01*
X45868000Y7474560D01*
X46103317Y7518838D01*
X46319441Y7657910D01*
X46464431Y7870110D01*
X46471191Y7903490D01*
X46529673Y7762301D01*
X46708302Y7583673D01*
X46941691Y7487000D01*
X47132250Y7487000D01*
X47291000Y7645750D01*
X47291000Y8645000D01*
X47545000Y8645000D01*
X47545000Y7645750D01*
X47703750Y7487000D01*
X47894309Y7487000D01*
X48127698Y7583673D01*
X48306327Y7762301D01*
X48403000Y7995690D01*
X48403000Y8486250D01*
X48244250Y8645000D01*
X47545000Y8645000D01*
X47291000Y8645000D01*
X47271000Y8645000D01*
X47271000Y8899000D01*
X47291000Y8899000D01*
X47291000Y8919000D01*
X47545000Y8919000D01*
X47545000Y8899000D01*
X48244250Y8899000D01*
X48403000Y9057750D01*
X48403000Y9548310D01*
X48355494Y9663000D01*
X49062198Y9663000D01*
X50462599Y8262599D01*
X50709161Y8097852D01*
X51000000Y8040000D01*
X53478750Y8040000D01*
X53635750Y7883000D01*
X54485000Y7883000D01*
X54485000Y7903000D01*
X54739000Y7903000D01*
X54739000Y7883000D01*
X54759000Y7883000D01*
X54759000Y7629000D01*
X54739000Y7629000D01*
X54739000Y6654750D01*
X54897750Y6496000D01*
X55238309Y6496000D01*
X55471698Y6592673D01*
X55612936Y6733910D01*
X55647910Y6679559D01*
X55860110Y6534569D01*
X56112000Y6483560D01*
X56809638Y6483560D01*
X57165599Y6127599D01*
X57412161Y5962852D01*
X57552560Y5934925D01*
X57552560Y5765000D01*
X57596838Y5529683D01*
X57735910Y5313559D01*
X57948110Y5168569D01*
X58200000Y5117560D01*
X61800000Y5117560D01*
X62035317Y5161838D01*
X62251441Y5300910D01*
X62396431Y5513110D01*
X62447440Y5765000D01*
X62447440Y7565000D01*
X62403162Y7800317D01*
X62264090Y8016441D01*
X62051890Y8161431D01*
X61800000Y8212440D01*
X58200000Y8212440D01*
X57964683Y8168162D01*
X57759440Y8036092D01*
X57759440Y8381000D01*
X57715162Y8616317D01*
X57576090Y8832441D01*
X57363890Y8977431D01*
X57124491Y9025910D01*
X57347317Y9067838D01*
X57563441Y9206910D01*
X57708431Y9419110D01*
X57732102Y9536000D01*
X57869060Y9536000D01*
X57966887Y9389591D01*
X58464877Y9056845D01*
X59052296Y8940000D01*
X60947704Y8940000D01*
X61535123Y9056845D01*
X62033113Y9389591D01*
X62365859Y9887581D01*
X62482704Y10475000D01*
X62365859Y11062419D01*
X62033113Y11560409D01*
X61535123Y11893155D01*
X60947704Y12010000D01*
X59052296Y12010000D01*
X58464877Y11893155D01*
X57966887Y11560409D01*
X57706194Y11170254D01*
X57576090Y11372441D01*
X57363890Y11517431D01*
X57112000Y11568440D01*
X56112000Y11568440D01*
X55876683Y11524162D01*
X55660559Y11385090D01*
X55614031Y11316994D01*
X55471698Y11459327D01*
X55238309Y11556000D01*
X54897750Y11556000D01*
X54739000Y11397250D01*
X54739000Y10423000D01*
X54759000Y10423000D01*
X54759000Y10169000D01*
X54739000Y10169000D01*
X54739000Y10149000D01*
X54485000Y10149000D01*
X54485000Y10169000D01*
X54465000Y10169000D01*
X54465000Y10423000D01*
X54485000Y10423000D01*
X54485000Y11397250D01*
X54326250Y11556000D01*
X53985691Y11556000D01*
X53752302Y11459327D01*
X53630776Y11337801D01*
X53593117Y11428943D01*
X53330327Y11692192D01*
X52986799Y11834838D01*
X52975310Y11834848D01*
X52736740Y12073418D01*
X52829317Y12090838D01*
X53045441Y12229910D01*
X53190431Y12442110D01*
X53241440Y12694000D01*
X53241440Y12814250D01*
X53415000Y12814250D01*
X53415000Y12523691D01*
X53511673Y12290302D01*
X53690301Y12111673D01*
X53923690Y12015000D01*
X54164250Y12015000D01*
X54323000Y12173750D01*
X54323000Y12973000D01*
X53573750Y12973000D01*
X53415000Y12814250D01*
X53241440Y12814250D01*
X53241440Y13266638D01*
X53314802Y13340000D01*
X53460750Y13340000D01*
X53573750Y13227000D01*
X54323000Y13227000D01*
X54323000Y13247000D01*
X54577000Y13247000D01*
X54577000Y13227000D01*
X54597000Y13227000D01*
X54597000Y12973000D01*
X54577000Y12973000D01*
X54577000Y12173750D01*
X54735750Y12015000D01*
X54976310Y12015000D01*
X55209699Y12111673D01*
X55388327Y12290302D01*
X55403423Y12326747D01*
X55485910Y12198559D01*
X55698110Y12053569D01*
X55950000Y12002560D01*
X56750000Y12002560D01*
X56985317Y12046838D01*
X57201441Y12185910D01*
X57346431Y12398110D01*
X57397440Y12650000D01*
X57397440Y13550000D01*
X57353162Y13785317D01*
X57266329Y13920260D01*
X57608964Y13920260D01*
X57633244Y13814914D01*
X57924788Y13289394D01*
X58395248Y12915446D01*
X58973000Y12750000D01*
X59873000Y12750000D01*
X59873000Y14158000D01*
X60127000Y14158000D01*
X60127000Y12750000D01*
X61027000Y12750000D01*
X61604752Y12915446D01*
X62075212Y13289394D01*
X62366756Y13814914D01*
X62391036Y13920260D01*
X62270378Y14158000D01*
X60127000Y14158000D01*
X59873000Y14158000D01*
X57729622Y14158000D01*
X57608964Y13920260D01*
X57266329Y13920260D01*
X57214090Y14001441D01*
X57001890Y14146431D01*
X56750000Y14197440D01*
X56277362Y14197440D01*
X56266643Y14208159D01*
X56396431Y14398110D01*
X56447387Y14649740D01*
X57608964Y14649740D01*
X57729622Y14412000D01*
X59873000Y14412000D01*
X59873000Y15820000D01*
X60127000Y15820000D01*
X60127000Y14412000D01*
X62270378Y14412000D01*
X62391036Y14649740D01*
X62366756Y14755086D01*
X62075212Y15280606D01*
X61604752Y15654554D01*
X61027000Y15820000D01*
X60127000Y15820000D01*
X59873000Y15820000D01*
X58973000Y15820000D01*
X58395248Y15654554D01*
X57924788Y15280606D01*
X57633244Y14755086D01*
X57608964Y14649740D01*
X56447387Y14649740D01*
X56447440Y14650000D01*
X56447440Y14895860D01*
X56999787Y15448208D01*
X56999790Y15448210D01*
X57191633Y15735325D01*
X57193860Y15746521D01*
X57259317Y15758838D01*
X57475441Y15897910D01*
X57620431Y16110110D01*
X57671440Y16362000D01*
X57671440Y17062000D01*
X57627162Y17297317D01*
X57488090Y17513441D01*
X57275890Y17658431D01*
X57262803Y17661081D01*
X57365244Y17727000D01*
X57590496Y17727000D01*
X57634141Y17507581D01*
X57966887Y17009591D01*
X58464877Y16676845D01*
X59052296Y16560000D01*
X60947704Y16560000D01*
X61535123Y16676845D01*
X62033113Y17009591D01*
X62365859Y17507581D01*
X62482704Y18095000D01*
X62365859Y18682419D01*
X62141642Y19017984D01*
X62225790Y19074210D01*
X62225791Y19074211D01*
X63325787Y20174208D01*
X63325790Y20174210D01*
X63517633Y20461325D01*
X63542234Y20585001D01*
X63585001Y20800000D01*
X63585000Y20800005D01*
X63585000Y30899995D01*
X63585001Y30900000D01*
X63517633Y31238674D01*
X63517633Y31238675D01*
X63325790Y31525790D01*
X63325787Y31525792D01*
X62260972Y32590607D01*
X62365859Y32747581D01*
X62482704Y33335000D01*
X62365859Y33922419D01*
X62033113Y34420409D01*
X61535123Y34753155D01*
X60947704Y34870000D01*
X59052296Y34870000D01*
X58464877Y34753155D01*
X57966887Y34420409D01*
X57634141Y33922419D01*
X57517296Y33335000D01*
X57634141Y32747581D01*
X57966887Y32249591D01*
X58464877Y31916845D01*
X59052296Y31800000D01*
X60548420Y31800000D01*
X61393321Y30955100D01*
X61027000Y31060000D01*
X60127000Y31060000D01*
X60127000Y29652000D01*
X60147000Y29652000D01*
X60147000Y29398000D01*
X60127000Y29398000D01*
X60127000Y27990000D01*
X61027000Y27990000D01*
X61604752Y28155446D01*
X61815000Y28322563D01*
X61815000Y26946147D01*
X61535123Y27133155D01*
X60947704Y27250000D01*
X59052296Y27250000D01*
X58464877Y27133155D01*
X57966887Y26800409D01*
X57634141Y26302419D01*
X57517296Y25715000D01*
X57634141Y25127581D01*
X57966887Y24629591D01*
X58464877Y24296845D01*
X59052296Y24180000D01*
X60947704Y24180000D01*
X61535123Y24296845D01*
X61815000Y24483853D01*
X61815000Y23136147D01*
X61535123Y23323155D01*
X60947704Y23440000D01*
X59052296Y23440000D01*
X58464877Y23323155D01*
X57966887Y22990409D01*
X57634141Y22492419D01*
X57622720Y22435000D01*
X56991797Y22435000D01*
X56901890Y22496431D01*
X56888803Y22499081D01*
X57101441Y22635910D01*
X57246431Y22848110D01*
X57297440Y23100000D01*
X57297440Y23800000D01*
X57253162Y24035317D01*
X57114090Y24251441D01*
X56901890Y24396431D01*
X56885000Y24399851D01*
X56885000Y24596778D01*
X56885317Y24596838D01*
X57101441Y24735910D01*
X57246431Y24948110D01*
X57297440Y25200000D01*
X57297440Y25900000D01*
X57253162Y26135317D01*
X57114090Y26351441D01*
X56901890Y26496431D01*
X56868510Y26503191D01*
X57009699Y26561673D01*
X57188327Y26740302D01*
X57285000Y26973691D01*
X57285000Y27164250D01*
X57126250Y27323000D01*
X56127000Y27323000D01*
X56127000Y27303000D01*
X55873000Y27303000D01*
X55873000Y27323000D01*
X54873750Y27323000D01*
X54760000Y27209250D01*
X54760000Y27214250D01*
X54601250Y27373000D01*
X53627000Y27373000D01*
X53627000Y27353000D01*
X53373000Y27353000D01*
X53373000Y27373000D01*
X53353000Y27373000D01*
X53353000Y27627000D01*
X53373000Y27627000D01*
X53373000Y28476250D01*
X53349250Y28500000D01*
X53373000Y28523750D01*
X53373000Y29373000D01*
X53627000Y29373000D01*
X53627000Y28523750D01*
X53650750Y28500000D01*
X53627000Y28476250D01*
X53627000Y27627000D01*
X54601250Y27627000D01*
X54715000Y27740750D01*
X54715000Y27735750D01*
X54873750Y27577000D01*
X55873000Y27577000D01*
X55873000Y28276250D01*
X55749250Y28400000D01*
X55873000Y28523750D01*
X55873000Y29373000D01*
X56127000Y29373000D01*
X56127000Y28523750D01*
X56250750Y28400000D01*
X56127000Y28276250D01*
X56127000Y27577000D01*
X57126250Y27577000D01*
X57285000Y27735750D01*
X57285000Y27926309D01*
X57188327Y28159698D01*
X57009699Y28338327D01*
X56848307Y28405178D01*
X56984699Y28461673D01*
X57163327Y28640302D01*
X57260000Y28873691D01*
X57260000Y29160260D01*
X57608964Y29160260D01*
X57633244Y29054914D01*
X57924788Y28529394D01*
X58395248Y28155446D01*
X58973000Y27990000D01*
X59873000Y27990000D01*
X59873000Y29398000D01*
X57729622Y29398000D01*
X57608964Y29160260D01*
X57260000Y29160260D01*
X57260000Y29214250D01*
X57101250Y29373000D01*
X56127000Y29373000D01*
X55873000Y29373000D01*
X54898750Y29373000D01*
X54750000Y29224250D01*
X54601250Y29373000D01*
X53627000Y29373000D01*
X53373000Y29373000D01*
X53353000Y29373000D01*
X53353000Y29627000D01*
X53373000Y29627000D01*
X53373000Y29647000D01*
X53627000Y29647000D01*
X53627000Y29627000D01*
X54601250Y29627000D01*
X54750000Y29775750D01*
X54898750Y29627000D01*
X55873000Y29627000D01*
X55873000Y29647000D01*
X56127000Y29647000D01*
X56127000Y29627000D01*
X57101250Y29627000D01*
X57260000Y29785750D01*
X57260000Y29889740D01*
X57608964Y29889740D01*
X57729622Y29652000D01*
X59873000Y29652000D01*
X59873000Y31060000D01*
X58973000Y31060000D01*
X58395248Y30894554D01*
X57924788Y30520606D01*
X57633244Y29995086D01*
X57608964Y29889740D01*
X57260000Y29889740D01*
X57260000Y30126309D01*
X57163327Y30359698D01*
X57022090Y30500936D01*
X57076441Y30535910D01*
X57221431Y30748110D01*
X57272440Y31000000D01*
X57272440Y32000000D01*
X57228162Y32235317D01*
X57089090Y32451441D01*
X56876890Y32596431D01*
X56625000Y32647440D01*
X55375000Y32647440D01*
X55139683Y32603162D01*
X54923559Y32464090D01*
X54778569Y32251890D01*
X54750824Y32114880D01*
X54728162Y32235317D01*
X54589090Y32451441D01*
X54376890Y32596431D01*
X54125000Y32647440D01*
X52875000Y32647440D01*
X52639683Y32603162D01*
X52423559Y32464090D01*
X52278569Y32251890D01*
X52275149Y32235000D01*
X52124669Y32235000D01*
X52114090Y32251441D01*
X51901890Y32396431D01*
X51650000Y32447440D01*
X50350000Y32447440D01*
X50114683Y32403162D01*
X49898559Y32264090D01*
X49753569Y32051890D01*
X49702560Y31800000D01*
X49702560Y31785000D01*
X49553222Y31785000D01*
X49553162Y31785317D01*
X49414090Y32001441D01*
X49201890Y32146431D01*
X48950000Y32197440D01*
X46450000Y32197440D01*
X46214683Y32153162D01*
X45998559Y32014090D01*
X45853569Y31801890D01*
X45802560Y31550000D01*
X45802560Y30725835D01*
X45799593Y30725245D01*
X45544921Y30555079D01*
X44944921Y29955079D01*
X44774755Y29700407D01*
X44745847Y29555079D01*
X44715000Y29400000D01*
X44715000Y28100000D01*
X44774755Y27799593D01*
X44885739Y27633493D01*
X44874210Y27625790D01*
X44874208Y27625787D01*
X44691165Y27442745D01*
X44571057Y27393117D01*
X44307808Y27130327D01*
X44165162Y26786799D01*
X44164838Y26414833D01*
X44306883Y26071057D01*
X44569673Y25807808D01*
X44913201Y25665162D01*
X45285167Y25664838D01*
X45628943Y25806883D01*
X45892192Y26069673D01*
X45911001Y26114970D01*
X45985910Y25998559D01*
X45987299Y25997610D01*
X45853569Y25801890D01*
X45802560Y25550000D01*
X45802560Y24652362D01*
X44037599Y22887401D01*
X43872852Y22640839D01*
X43815000Y22350000D01*
X43815000Y20162598D01*
X42662599Y19010197D01*
X42497852Y18763635D01*
X42440000Y18472796D01*
X42440000Y18001200D01*
X41580528Y17141728D01*
X41430327Y17292192D01*
X41086799Y17434838D01*
X40714833Y17435162D01*
X40371057Y17293117D01*
X40362926Y17285000D01*
X38125158Y17285000D01*
X37866229Y17543929D01*
X37992192Y17669673D01*
X38134838Y18013201D01*
X38135162Y18385167D01*
X37993117Y18728943D01*
X37730327Y18992192D01*
X37729934Y18992355D01*
X37435000Y19287290D01*
X37435000Y28499184D01*
X37435162Y28685167D01*
X37293117Y29028943D01*
X37030327Y29292192D01*
X36686799Y29434838D01*
X36314833Y29435162D01*
X35971057Y29293117D01*
X35707808Y29030327D01*
X35565162Y28686799D01*
X35564838Y28314833D01*
X35565000Y28314441D01*
X35565000Y23245158D01*
X35255079Y23555079D01*
X35000407Y23725245D01*
X34700000Y23785000D01*
X34153222Y23785000D01*
X34153162Y23785317D01*
X34014090Y24001441D01*
X34012701Y24002390D01*
X34146431Y24198110D01*
X34197440Y24450000D01*
X34197440Y25550000D01*
X34153162Y25785317D01*
X34014090Y26001441D01*
X34012701Y26002390D01*
X34146431Y26198110D01*
X34197440Y26450000D01*
X34197440Y27550000D01*
X34153162Y27785317D01*
X34014090Y28001441D01*
X34012701Y28002390D01*
X34146431Y28198110D01*
X34197440Y28450000D01*
X34197440Y29550000D01*
X34153162Y29785317D01*
X34014090Y30001441D01*
X34012701Y30002390D01*
X34146431Y30198110D01*
X34197440Y30450000D01*
X34197440Y31550000D01*
X34153162Y31785317D01*
X34014090Y32001441D01*
X33801890Y32146431D01*
X33550000Y32197440D01*
X31050000Y32197440D01*
X30814683Y32153162D01*
X30598559Y32014090D01*
X30453569Y31801890D01*
X30445086Y31760000D01*
X25300000Y31760000D01*
X25087009Y31717633D01*
X25009160Y31702148D01*
X24762599Y31537401D01*
X20260320Y27035122D01*
X20214833Y27035162D01*
X19871057Y26893117D01*
X19607808Y26630327D01*
X19465162Y26286799D01*
X19465052Y26160000D01*
X19262463Y26160000D01*
X19230327Y26192192D01*
X18886799Y26334838D01*
X18514833Y26335162D01*
X18171057Y26193117D01*
X17907808Y25930327D01*
X17765162Y25586799D01*
X17764838Y25214833D01*
X17906883Y24871057D01*
X17930459Y24847440D01*
X17900000Y24847440D01*
X17692658Y24808426D01*
X17500000Y24847440D01*
X16800000Y24847440D01*
X16592658Y24808426D01*
X16434862Y24840380D01*
X16435162Y25185167D01*
X16435000Y25185559D01*
X16435000Y29400000D01*
X16363827Y29757809D01*
X16335000Y29800952D01*
X16335000Y33675225D01*
X17914803Y33675225D01*
X18087233Y33257914D01*
X18406235Y32938355D01*
X18823244Y32765197D01*
X19274775Y32764803D01*
X19692086Y32937233D01*
X19969586Y33214250D01*
X22515000Y33214250D01*
X22515000Y32273690D01*
X22611673Y32040301D01*
X22790302Y31861673D01*
X23023691Y31765000D01*
X23464250Y31765000D01*
X23623000Y31923750D01*
X23623000Y33373000D01*
X23877000Y33373000D01*
X23877000Y31923750D01*
X24035750Y31765000D01*
X24476309Y31765000D01*
X24709698Y31861673D01*
X24888327Y32040301D01*
X24985000Y32273690D01*
X24985000Y33214250D01*
X24826250Y33373000D01*
X23877000Y33373000D01*
X23623000Y33373000D01*
X22673750Y33373000D01*
X22515000Y33214250D01*
X19969586Y33214250D01*
X20011645Y33256235D01*
X20184803Y33673244D01*
X20185197Y34124775D01*
X20012767Y34542086D01*
X19828865Y34726310D01*
X22515000Y34726310D01*
X22515000Y33785750D01*
X22673750Y33627000D01*
X23623000Y33627000D01*
X23623000Y35076250D01*
X23877000Y35076250D01*
X23877000Y33627000D01*
X24826250Y33627000D01*
X24985000Y33785750D01*
X24985000Y34426695D01*
X25764674Y34426695D01*
X26051043Y33733628D01*
X26580839Y33202907D01*
X27273405Y32915328D01*
X28023305Y32914674D01*
X28716372Y33201043D01*
X29247093Y33730839D01*
X29534672Y34423405D01*
X29535326Y35173305D01*
X29248957Y35866372D01*
X28719161Y36397093D01*
X28026595Y36684672D01*
X27276695Y36685326D01*
X26583628Y36398957D01*
X26052907Y35869161D01*
X25765328Y35176595D01*
X25764674Y34426695D01*
X24985000Y34426695D01*
X24985000Y34726310D01*
X24888327Y34959699D01*
X24709698Y35138327D01*
X24476309Y35235000D01*
X24035750Y35235000D01*
X23877000Y35076250D01*
X23623000Y35076250D01*
X23464250Y35235000D01*
X23023691Y35235000D01*
X22790302Y35138327D01*
X22611673Y34959699D01*
X22515000Y34726310D01*
X19828865Y34726310D01*
X19693765Y34861645D01*
X19276756Y35034803D01*
X18825225Y35035197D01*
X18407914Y34862767D01*
X18088355Y34543765D01*
X17915197Y34126756D01*
X17914803Y33675225D01*
X16335000Y33675225D01*
X16335000Y34918529D01*
X16343169Y34915137D01*
X16655461Y34914864D01*
X16944086Y35034121D01*
X17165103Y35254753D01*
X17284863Y35543169D01*
X17285136Y35855461D01*
X17165879Y36144086D01*
X17110158Y36199904D01*
X17165103Y36254753D01*
X17284863Y36543169D01*
X17285136Y36855461D01*
X17165879Y37144086D01*
X16945247Y37365103D01*
X16656831Y37484863D01*
X16344539Y37485136D01*
X16116558Y37390937D01*
X15857809Y37563827D01*
X15500000Y37635000D01*
X15142191Y37563827D01*
X14883285Y37390832D01*
X14656831Y37484863D01*
X14344539Y37485136D01*
X14055914Y37365879D01*
X13834897Y37145247D01*
X13715137Y36856831D01*
X13714864Y36544539D01*
X13834121Y36255914D01*
X13889842Y36200096D01*
X13834897Y36145247D01*
X13715137Y35856831D01*
X13714864Y35544539D01*
X13834121Y35255914D01*
X14054753Y35034897D01*
X14343169Y34915137D01*
X14465000Y34915030D01*
X14465000Y29500000D01*
X14536173Y29142191D01*
X14565000Y29099048D01*
X14565000Y25175158D01*
X14394921Y25005079D01*
X14278913Y24831460D01*
X14200000Y24847440D01*
X13500000Y24847440D01*
X13291150Y24808142D01*
X13226309Y24835000D01*
X13035750Y24835000D01*
X12877000Y24676250D01*
X12877000Y24320688D01*
X12852560Y24200000D01*
X12852560Y23253000D01*
X12647440Y23253000D01*
X12647440Y24200000D01*
X12623000Y24329887D01*
X12623000Y24676250D01*
X12464250Y24835000D01*
X12273691Y24835000D01*
X12203993Y24806130D01*
X12000000Y24847440D01*
X11300000Y24847440D01*
X11092658Y24808426D01*
X10900000Y24847440D01*
X10200000Y24847440D01*
X9991150Y24808142D01*
X9926309Y24835000D01*
X9735750Y24835000D01*
X9577000Y24676250D01*
X9577000Y24320688D01*
X9552560Y24200000D01*
X9552560Y23253000D01*
X9485000Y23253000D01*
X9485000Y23614250D01*
X9326250Y23773000D01*
X9323000Y23773000D01*
X9323000Y24027000D01*
X9326250Y24027000D01*
X9485000Y24185750D01*
X9485000Y24726310D01*
X9388327Y24959699D01*
X9209698Y25138327D01*
X8976309Y25235000D01*
X8632410Y25235000D01*
X8793737Y25651955D01*
X8775164Y26441418D01*
X8508782Y27084522D01*
X8205593Y27225988D01*
X6979605Y26000000D01*
X7744605Y25235000D01*
X7523691Y25235000D01*
X7425901Y25194494D01*
X6800000Y25820395D01*
X5574012Y24594407D01*
X685000Y24594407D01*
X685000Y26348045D01*
X4806263Y26348045D01*
X4824836Y25558582D01*
X5091218Y24915478D01*
X5394407Y24774012D01*
X6620395Y26000000D01*
X5394407Y27225988D01*
X5091218Y27084522D01*
X4806263Y26348045D01*
X685000Y26348045D01*
X685000Y27405593D01*
X5574012Y27405593D01*
X6800000Y26179605D01*
X8025988Y27405593D01*
X7884522Y27708782D01*
X7148045Y27993737D01*
X6358582Y27975164D01*
X5715478Y27708782D01*
X5574012Y27405593D01*
X685000Y27405593D01*
X685000Y33214250D01*
X7015000Y33214250D01*
X7015000Y32273690D01*
X7111673Y32040301D01*
X7290302Y31861673D01*
X7523691Y31765000D01*
X7964250Y31765000D01*
X8123000Y31923750D01*
X8123000Y33373000D01*
X8377000Y33373000D01*
X8377000Y31923750D01*
X8535750Y31765000D01*
X8976309Y31765000D01*
X9209698Y31861673D01*
X9388327Y32040301D01*
X9485000Y32273690D01*
X9485000Y33214250D01*
X9326250Y33373000D01*
X8377000Y33373000D01*
X8123000Y33373000D01*
X7173750Y33373000D01*
X7015000Y33214250D01*
X685000Y33214250D01*
X685000Y35326695D01*
X2614674Y35326695D01*
X2901043Y34633628D01*
X3430839Y34102907D01*
X4123405Y33815328D01*
X4873305Y33814674D01*
X5566372Y34101043D01*
X6097093Y34630839D01*
X6136736Y34726310D01*
X7015000Y34726310D01*
X7015000Y33785750D01*
X7173750Y33627000D01*
X8123000Y33627000D01*
X8123000Y35076250D01*
X8377000Y35076250D01*
X8377000Y33627000D01*
X9326250Y33627000D01*
X9374475Y33675225D01*
X9934803Y33675225D01*
X10107233Y33257914D01*
X10426235Y32938355D01*
X10843244Y32765197D01*
X11294775Y32764803D01*
X11712086Y32937233D01*
X12031645Y33256235D01*
X12204803Y33673244D01*
X12205197Y34124775D01*
X12032767Y34542086D01*
X11713765Y34861645D01*
X11296756Y35034803D01*
X10845225Y35035197D01*
X10427914Y34862767D01*
X10108355Y34543765D01*
X9935197Y34126756D01*
X9934803Y33675225D01*
X9374475Y33675225D01*
X9485000Y33785750D01*
X9485000Y34726310D01*
X9388327Y34959699D01*
X9209698Y35138327D01*
X8976309Y35235000D01*
X8535750Y35235000D01*
X8377000Y35076250D01*
X8123000Y35076250D01*
X7964250Y35235000D01*
X7523691Y35235000D01*
X7290302Y35138327D01*
X7111673Y34959699D01*
X7015000Y34726310D01*
X6136736Y34726310D01*
X6384672Y35323405D01*
X6385326Y36073305D01*
X6098957Y36766372D01*
X5569161Y37297093D01*
X4876595Y37584672D01*
X4126695Y37585326D01*
X3433628Y37298957D01*
X2902907Y36769161D01*
X2615328Y36076595D01*
X2614674Y35326695D01*
X685000Y35326695D01*
X685000Y36932533D01*
X873617Y37880777D01*
X1372537Y38627463D01*
X2119225Y39126383D01*
X3067467Y39315000D01*
X29565000Y39315000D01*
X29565000Y33700000D01*
G36*
X25790000Y11510198D02*
X25790000Y10462598D01*
X25092594Y9765192D01*
X25083162Y9815317D01*
X25019322Y9914528D01*
X25076431Y9998110D01*
X25127440Y10250000D01*
X25127440Y10850000D01*
X25083162Y11085317D01*
X25019322Y11184528D01*
X25076431Y11268110D01*
X25127440Y11520000D01*
X25127440Y12120000D01*
X25115212Y12184986D01*
X25790000Y11510198D01*
X25790000Y11510198D01*
G37*
X25790000Y11510198D02*
X25790000Y10462598D01*
X25092594Y9765192D01*
X25083162Y9815317D01*
X25019322Y9914528D01*
X25076431Y9998110D01*
X25127440Y10250000D01*
X25127440Y10850000D01*
X25083162Y11085317D01*
X25019322Y11184528D01*
X25076431Y11268110D01*
X25127440Y11520000D01*
X25127440Y12120000D01*
X25115212Y12184986D01*
X25790000Y11510198D01*
G36*
X52271838Y24764683D02*
X52410910Y24548559D01*
X52623110Y24403569D01*
X52875000Y24352560D01*
X54125000Y24352560D01*
X54360317Y24396838D01*
X54576441Y24535910D01*
X54698808Y24715000D01*
X54935025Y24715000D01*
X55098110Y24603569D01*
X55115000Y24600149D01*
X55115000Y24403222D01*
X55114683Y24403162D01*
X54898559Y24264090D01*
X54753569Y24051890D01*
X54702560Y23800000D01*
X54702560Y23100000D01*
X54746838Y22864683D01*
X54885910Y22648559D01*
X55098110Y22503569D01*
X55111197Y22500919D01*
X54898559Y22364090D01*
X54753569Y22151890D01*
X54702560Y21900000D01*
X54702560Y21200000D01*
X54746838Y20964683D01*
X54885910Y20748559D01*
X55098110Y20603569D01*
X55189806Y20585000D01*
X54400005Y20585000D01*
X54400000Y20585001D01*
X54117516Y20528810D01*
X54061325Y20517633D01*
X53774210Y20325790D01*
X53774208Y20325787D01*
X53208210Y19759790D01*
X53096785Y19593029D01*
X52948683Y19565162D01*
X52732559Y19426090D01*
X52587569Y19213890D01*
X52536560Y18962000D01*
X52536560Y18262000D01*
X52580838Y18026683D01*
X52719910Y17810559D01*
X52932110Y17665569D01*
X52945197Y17662919D01*
X52732559Y17526090D01*
X52587569Y17313890D01*
X52536560Y17062000D01*
X52536560Y16362000D01*
X52580838Y16126683D01*
X52719910Y15910559D01*
X52932110Y15765569D01*
X53184000Y15714560D01*
X53533860Y15714560D01*
X54352560Y14895861D01*
X54352560Y14860000D01*
X53000000Y14860000D01*
X52757414Y14811746D01*
X52709160Y14802148D01*
X52468644Y14641440D01*
X51894000Y14641440D01*
X51658683Y14597162D01*
X51442559Y14458090D01*
X51297569Y14245890D01*
X51294919Y14232803D01*
X51158090Y14445441D01*
X50945890Y14590431D01*
X50694000Y14641440D01*
X49994000Y14641440D01*
X49758683Y14597162D01*
X49542559Y14458090D01*
X49397569Y14245890D01*
X49346560Y13994000D01*
X49346560Y13156718D01*
X49224995Y13035153D01*
X49214833Y13035162D01*
X48871057Y12893117D01*
X48607808Y12630327D01*
X48534175Y12453000D01*
X43943914Y12453000D01*
X43986440Y12663000D01*
X43986440Y13263000D01*
X43942162Y13498317D01*
X43803090Y13714441D01*
X43590890Y13859431D01*
X43339000Y13910440D01*
X43085242Y13910440D01*
X45364680Y16189878D01*
X45410167Y16189838D01*
X45753943Y16331883D01*
X45813583Y16391419D01*
X45846838Y16214683D01*
X45985910Y15998559D01*
X46198110Y15853569D01*
X46450000Y15802560D01*
X48950000Y15802560D01*
X49185317Y15846838D01*
X49401441Y15985910D01*
X49546431Y16198110D01*
X49549851Y16215000D01*
X49803808Y16215000D01*
X49910910Y16048559D01*
X50123110Y15903569D01*
X50375000Y15852560D01*
X51625000Y15852560D01*
X51860317Y15896838D01*
X52076441Y16035910D01*
X52221431Y16248110D01*
X52272440Y16500000D01*
X52272440Y17500000D01*
X52228162Y17735317D01*
X52089090Y17951441D01*
X52020994Y17997969D01*
X52163327Y18140302D01*
X52260000Y18373691D01*
X52260000Y18714250D01*
X52101250Y18873000D01*
X51127000Y18873000D01*
X51127000Y18853000D01*
X50873000Y18853000D01*
X50873000Y18873000D01*
X50853000Y18873000D01*
X50853000Y19127000D01*
X50873000Y19127000D01*
X50873000Y19976250D01*
X51127000Y19976250D01*
X51127000Y19127000D01*
X52101250Y19127000D01*
X52260000Y19285750D01*
X52260000Y19626309D01*
X52163327Y19859698D01*
X51984699Y20038327D01*
X51751310Y20135000D01*
X51285750Y20135000D01*
X51127000Y19976250D01*
X50873000Y19976250D01*
X50714250Y20135000D01*
X50585000Y20135000D01*
X50585000Y24552560D01*
X51650000Y24552560D01*
X51885317Y24596838D01*
X52101441Y24735910D01*
X52121317Y24765000D01*
X52271778Y24765000D01*
X52271838Y24764683D01*
X52271838Y24764683D01*
G37*
X52271838Y24764683D02*
X52410910Y24548559D01*
X52623110Y24403569D01*
X52875000Y24352560D01*
X54125000Y24352560D01*
X54360317Y24396838D01*
X54576441Y24535910D01*
X54698808Y24715000D01*
X54935025Y24715000D01*
X55098110Y24603569D01*
X55115000Y24600149D01*
X55115000Y24403222D01*
X55114683Y24403162D01*
X54898559Y24264090D01*
X54753569Y24051890D01*
X54702560Y23800000D01*
X54702560Y23100000D01*
X54746838Y22864683D01*
X54885910Y22648559D01*
X55098110Y22503569D01*
X55111197Y22500919D01*
X54898559Y22364090D01*
X54753569Y22151890D01*
X54702560Y21900000D01*
X54702560Y21200000D01*
X54746838Y20964683D01*
X54885910Y20748559D01*
X55098110Y20603569D01*
X55189806Y20585000D01*
X54400005Y20585000D01*
X54400000Y20585001D01*
X54117516Y20528810D01*
X54061325Y20517633D01*
X53774210Y20325790D01*
X53774208Y20325787D01*
X53208210Y19759790D01*
X53096785Y19593029D01*
X52948683Y19565162D01*
X52732559Y19426090D01*
X52587569Y19213890D01*
X52536560Y18962000D01*
X52536560Y18262000D01*
X52580838Y18026683D01*
X52719910Y17810559D01*
X52932110Y17665569D01*
X52945197Y17662919D01*
X52732559Y17526090D01*
X52587569Y17313890D01*
X52536560Y17062000D01*
X52536560Y16362000D01*
X52580838Y16126683D01*
X52719910Y15910559D01*
X52932110Y15765569D01*
X53184000Y15714560D01*
X53533860Y15714560D01*
X54352560Y14895861D01*
X54352560Y14860000D01*
X53000000Y14860000D01*
X52757414Y14811746D01*
X52709160Y14802148D01*
X52468644Y14641440D01*
X51894000Y14641440D01*
X51658683Y14597162D01*
X51442559Y14458090D01*
X51297569Y14245890D01*
X51294919Y14232803D01*
X51158090Y14445441D01*
X50945890Y14590431D01*
X50694000Y14641440D01*
X49994000Y14641440D01*
X49758683Y14597162D01*
X49542559Y14458090D01*
X49397569Y14245890D01*
X49346560Y13994000D01*
X49346560Y13156718D01*
X49224995Y13035153D01*
X49214833Y13035162D01*
X48871057Y12893117D01*
X48607808Y12630327D01*
X48534175Y12453000D01*
X43943914Y12453000D01*
X43986440Y12663000D01*
X43986440Y13263000D01*
X43942162Y13498317D01*
X43803090Y13714441D01*
X43590890Y13859431D01*
X43339000Y13910440D01*
X43085242Y13910440D01*
X45364680Y16189878D01*
X45410167Y16189838D01*
X45753943Y16331883D01*
X45813583Y16391419D01*
X45846838Y16214683D01*
X45985910Y15998559D01*
X46198110Y15853569D01*
X46450000Y15802560D01*
X48950000Y15802560D01*
X49185317Y15846838D01*
X49401441Y15985910D01*
X49546431Y16198110D01*
X49549851Y16215000D01*
X49803808Y16215000D01*
X49910910Y16048559D01*
X50123110Y15903569D01*
X50375000Y15852560D01*
X51625000Y15852560D01*
X51860317Y15896838D01*
X52076441Y16035910D01*
X52221431Y16248110D01*
X52272440Y16500000D01*
X52272440Y17500000D01*
X52228162Y17735317D01*
X52089090Y17951441D01*
X52020994Y17997969D01*
X52163327Y18140302D01*
X52260000Y18373691D01*
X52260000Y18714250D01*
X52101250Y18873000D01*
X51127000Y18873000D01*
X51127000Y18853000D01*
X50873000Y18853000D01*
X50873000Y18873000D01*
X50853000Y18873000D01*
X50853000Y19127000D01*
X50873000Y19127000D01*
X50873000Y19976250D01*
X51127000Y19976250D01*
X51127000Y19127000D01*
X52101250Y19127000D01*
X52260000Y19285750D01*
X52260000Y19626309D01*
X52163327Y19859698D01*
X51984699Y20038327D01*
X51751310Y20135000D01*
X51285750Y20135000D01*
X51127000Y19976250D01*
X50873000Y19976250D01*
X50714250Y20135000D01*
X50585000Y20135000D01*
X50585000Y24552560D01*
X51650000Y24552560D01*
X51885317Y24596838D01*
X52101441Y24735910D01*
X52121317Y24765000D01*
X52271778Y24765000D01*
X52271838Y24764683D01*
G36*
X26065000Y18296998D02*
X26223748Y18296998D01*
X26065000Y18138250D01*
X26065000Y17647690D01*
X26161673Y17414301D01*
X26294392Y17281583D01*
X26248559Y17252090D01*
X26103569Y17039890D01*
X26052560Y16788000D01*
X26052560Y15488000D01*
X26094642Y15264354D01*
X24921589Y16437407D01*
X24675027Y16602154D01*
X24424334Y16652020D01*
X24542192Y16769673D01*
X24664836Y17065030D01*
X24885167Y17064838D01*
X25228943Y17206883D01*
X25492192Y17469673D01*
X25634838Y17813201D01*
X25634966Y17960164D01*
X26065000Y18390198D01*
X26065000Y18296998D01*
X26065000Y18296998D01*
G37*
X26065000Y18296998D02*
X26223748Y18296998D01*
X26065000Y18138250D01*
X26065000Y17647690D01*
X26161673Y17414301D01*
X26294392Y17281583D01*
X26248559Y17252090D01*
X26103569Y17039890D01*
X26052560Y16788000D01*
X26052560Y15488000D01*
X26094642Y15264354D01*
X24921589Y16437407D01*
X24675027Y16602154D01*
X24424334Y16652020D01*
X24542192Y16769673D01*
X24664836Y17065030D01*
X24885167Y17064838D01*
X25228943Y17206883D01*
X25492192Y17469673D01*
X25634838Y17813201D01*
X25634966Y17960164D01*
X26065000Y18390198D01*
X26065000Y18296998D01*
G36*
X35015000Y21574842D02*
X35015000Y18500000D01*
X35074755Y18199593D01*
X35244921Y17944921D01*
X36654842Y16535000D01*
X34185000Y16535000D01*
X34185000Y16714250D01*
X34026250Y16873000D01*
X32427000Y16873000D01*
X32427000Y16853000D01*
X32173000Y16853000D01*
X32173000Y16873000D01*
X30573750Y16873000D01*
X30415000Y16714250D01*
X30415000Y16344469D01*
X30367007Y16312401D01*
X29947440Y15892834D01*
X29947440Y16788000D01*
X29903162Y17023317D01*
X29764090Y17239441D01*
X29735000Y17259317D01*
X29735000Y17299331D01*
X29751441Y17309910D01*
X29896431Y17522110D01*
X29947440Y17774000D01*
X29947440Y18215000D01*
X30446778Y18215000D01*
X30446838Y18214683D01*
X30585910Y17998559D01*
X30594598Y17992623D01*
X30511673Y17909699D01*
X30415000Y17676310D01*
X30415000Y17285750D01*
X30573750Y17127000D01*
X32173000Y17127000D01*
X32173000Y17147000D01*
X32427000Y17147000D01*
X32427000Y17127000D01*
X34026250Y17127000D01*
X34185000Y17285750D01*
X34185000Y17676310D01*
X34088327Y17909699D01*
X34005774Y17992252D01*
X34146431Y18198110D01*
X34197440Y18450000D01*
X34197440Y19550000D01*
X34153162Y19785317D01*
X34014090Y20001441D01*
X34012701Y20002390D01*
X34146431Y20198110D01*
X34197440Y20450000D01*
X34197440Y21550000D01*
X34153162Y21785317D01*
X34014090Y22001441D01*
X34012701Y22002390D01*
X34146431Y22198110D01*
X34149851Y22215000D01*
X34374842Y22215000D01*
X35015000Y21574842D01*
X35015000Y21574842D01*
G37*
X35015000Y21574842D02*
X35015000Y18500000D01*
X35074755Y18199593D01*
X35244921Y17944921D01*
X36654842Y16535000D01*
X34185000Y16535000D01*
X34185000Y16714250D01*
X34026250Y16873000D01*
X32427000Y16873000D01*
X32427000Y16853000D01*
X32173000Y16853000D01*
X32173000Y16873000D01*
X30573750Y16873000D01*
X30415000Y16714250D01*
X30415000Y16344469D01*
X30367007Y16312401D01*
X29947440Y15892834D01*
X29947440Y16788000D01*
X29903162Y17023317D01*
X29764090Y17239441D01*
X29735000Y17259317D01*
X29735000Y17299331D01*
X29751441Y17309910D01*
X29896431Y17522110D01*
X29947440Y17774000D01*
X29947440Y18215000D01*
X30446778Y18215000D01*
X30446838Y18214683D01*
X30585910Y17998559D01*
X30594598Y17992623D01*
X30511673Y17909699D01*
X30415000Y17676310D01*
X30415000Y17285750D01*
X30573750Y17127000D01*
X32173000Y17127000D01*
X32173000Y17147000D01*
X32427000Y17147000D01*
X32427000Y17127000D01*
X34026250Y17127000D01*
X34185000Y17285750D01*
X34185000Y17676310D01*
X34088327Y17909699D01*
X34005774Y17992252D01*
X34146431Y18198110D01*
X34197440Y18450000D01*
X34197440Y19550000D01*
X34153162Y19785317D01*
X34014090Y20001441D01*
X34012701Y20002390D01*
X34146431Y20198110D01*
X34197440Y20450000D01*
X34197440Y21550000D01*
X34153162Y21785317D01*
X34014090Y22001441D01*
X34012701Y22002390D01*
X34146431Y22198110D01*
X34149851Y22215000D01*
X34374842Y22215000D01*
X35015000Y21574842D01*
G36*
X30446838Y28214683D02*
X30585910Y27998559D01*
X30587299Y27997610D01*
X30453569Y27801890D01*
X30445086Y27760000D01*
X30200000Y27760000D01*
X29957414Y27711746D01*
X29909160Y27702148D01*
X29662599Y27537401D01*
X23212599Y21087401D01*
X23047852Y20840839D01*
X22990000Y20550000D01*
X22990000Y17862463D01*
X22957808Y17830327D01*
X22815162Y17486799D01*
X22814838Y17114833D01*
X22956883Y16771057D01*
X23067740Y16660006D01*
X19389796Y16660006D01*
X16485006Y19564796D01*
X16485006Y19990568D01*
X16489673Y19979301D01*
X16668302Y19800673D01*
X16901691Y19704000D01*
X17242250Y19704000D01*
X17401000Y19862750D01*
X17401000Y20837000D01*
X17381000Y20837000D01*
X17381000Y21091000D01*
X17401000Y21091000D01*
X17401000Y21111000D01*
X17655000Y21111000D01*
X17655000Y21091000D01*
X17675000Y21091000D01*
X17675000Y20837000D01*
X17655000Y20837000D01*
X17655000Y19862750D01*
X17813750Y19704000D01*
X18154309Y19704000D01*
X18387698Y19800673D01*
X18528936Y19941910D01*
X18563910Y19887559D01*
X18776110Y19742569D01*
X19028000Y19691560D01*
X20028000Y19691560D01*
X20263317Y19735838D01*
X20479441Y19874910D01*
X20624431Y20087110D01*
X20675440Y20339000D01*
X20675440Y21353125D01*
X20792192Y21469673D01*
X20934838Y21813201D01*
X20935162Y22185167D01*
X20793117Y22528943D01*
X20530327Y22792192D01*
X20186799Y22934838D01*
X19814833Y22935162D01*
X19471057Y22793117D01*
X19239798Y22562261D01*
X19247440Y22600000D01*
X19247440Y23614250D01*
X21415000Y23614250D01*
X21415000Y23073690D01*
X21511673Y22840301D01*
X21690302Y22661673D01*
X21923691Y22565000D01*
X22564250Y22565000D01*
X22723000Y22723750D01*
X22723000Y23773000D01*
X22977000Y23773000D01*
X22977000Y22723750D01*
X23135750Y22565000D01*
X23776309Y22565000D01*
X24009698Y22661673D01*
X24188327Y22840301D01*
X24285000Y23073690D01*
X24285000Y23614250D01*
X24126250Y23773000D01*
X22977000Y23773000D01*
X22723000Y23773000D01*
X21573750Y23773000D01*
X21415000Y23614250D01*
X19247440Y23614250D01*
X19247440Y24200000D01*
X19203162Y24435317D01*
X19121365Y24562433D01*
X19228943Y24606883D01*
X19262118Y24640000D01*
X20900000Y24640000D01*
X21190839Y24697852D01*
X21437401Y24862599D01*
X21495531Y24920729D01*
X21415000Y24726310D01*
X21415000Y24185750D01*
X21573750Y24027000D01*
X22723000Y24027000D01*
X22723000Y25076250D01*
X22977000Y25076250D01*
X22977000Y24027000D01*
X24126250Y24027000D01*
X24285000Y24185750D01*
X24285000Y24726310D01*
X24188327Y24959699D01*
X24009698Y25138327D01*
X23776309Y25235000D01*
X23135750Y25235000D01*
X22977000Y25076250D01*
X22723000Y25076250D01*
X22564250Y25235000D01*
X21923691Y25235000D01*
X21729270Y25154468D01*
X24814802Y28240000D01*
X30442074Y28240000D01*
X30446838Y28214683D01*
X30446838Y28214683D01*
G37*
X30446838Y28214683D02*
X30585910Y27998559D01*
X30587299Y27997610D01*
X30453569Y27801890D01*
X30445086Y27760000D01*
X30200000Y27760000D01*
X29957414Y27711746D01*
X29909160Y27702148D01*
X29662599Y27537401D01*
X23212599Y21087401D01*
X23047852Y20840839D01*
X22990000Y20550000D01*
X22990000Y17862463D01*
X22957808Y17830327D01*
X22815162Y17486799D01*
X22814838Y17114833D01*
X22956883Y16771057D01*
X23067740Y16660006D01*
X19389796Y16660006D01*
X16485006Y19564796D01*
X16485006Y19990568D01*
X16489673Y19979301D01*
X16668302Y19800673D01*
X16901691Y19704000D01*
X17242250Y19704000D01*
X17401000Y19862750D01*
X17401000Y20837000D01*
X17381000Y20837000D01*
X17381000Y21091000D01*
X17401000Y21091000D01*
X17401000Y21111000D01*
X17655000Y21111000D01*
X17655000Y21091000D01*
X17675000Y21091000D01*
X17675000Y20837000D01*
X17655000Y20837000D01*
X17655000Y19862750D01*
X17813750Y19704000D01*
X18154309Y19704000D01*
X18387698Y19800673D01*
X18528936Y19941910D01*
X18563910Y19887559D01*
X18776110Y19742569D01*
X19028000Y19691560D01*
X20028000Y19691560D01*
X20263317Y19735838D01*
X20479441Y19874910D01*
X20624431Y20087110D01*
X20675440Y20339000D01*
X20675440Y21353125D01*
X20792192Y21469673D01*
X20934838Y21813201D01*
X20935162Y22185167D01*
X20793117Y22528943D01*
X20530327Y22792192D01*
X20186799Y22934838D01*
X19814833Y22935162D01*
X19471057Y22793117D01*
X19239798Y22562261D01*
X19247440Y22600000D01*
X19247440Y23614250D01*
X21415000Y23614250D01*
X21415000Y23073690D01*
X21511673Y22840301D01*
X21690302Y22661673D01*
X21923691Y22565000D01*
X22564250Y22565000D01*
X22723000Y22723750D01*
X22723000Y23773000D01*
X22977000Y23773000D01*
X22977000Y22723750D01*
X23135750Y22565000D01*
X23776309Y22565000D01*
X24009698Y22661673D01*
X24188327Y22840301D01*
X24285000Y23073690D01*
X24285000Y23614250D01*
X24126250Y23773000D01*
X22977000Y23773000D01*
X22723000Y23773000D01*
X21573750Y23773000D01*
X21415000Y23614250D01*
X19247440Y23614250D01*
X19247440Y24200000D01*
X19203162Y24435317D01*
X19121365Y24562433D01*
X19228943Y24606883D01*
X19262118Y24640000D01*
X20900000Y24640000D01*
X21190839Y24697852D01*
X21437401Y24862599D01*
X21495531Y24920729D01*
X21415000Y24726310D01*
X21415000Y24185750D01*
X21573750Y24027000D01*
X22723000Y24027000D01*
X22723000Y25076250D01*
X22977000Y25076250D01*
X22977000Y24027000D01*
X24126250Y24027000D01*
X24285000Y24185750D01*
X24285000Y24726310D01*
X24188327Y24959699D01*
X24009698Y25138327D01*
X23776309Y25235000D01*
X23135750Y25235000D01*
X22977000Y25076250D01*
X22723000Y25076250D01*
X22564250Y25235000D01*
X21923691Y25235000D01*
X21729270Y25154468D01*
X24814802Y28240000D01*
X30442074Y28240000D01*
X30446838Y28214683D01*
G36*
X27177000Y18551000D02*
X27197000Y18551000D01*
X27197000Y18297000D01*
X27177000Y18297000D01*
X27177000Y18277000D01*
X26923000Y18277000D01*
X26923000Y18297000D01*
X26903000Y18297000D01*
X26903000Y18551000D01*
X26923000Y18551000D01*
X26923000Y18571000D01*
X27177000Y18571000D01*
X27177000Y18551000D01*
X27177000Y18551000D01*
G37*
X27177000Y18551000D02*
X27197000Y18551000D01*
X27197000Y18297000D01*
X27177000Y18297000D01*
X27177000Y18277000D01*
X26923000Y18277000D01*
X26923000Y18297000D01*
X26903000Y18297000D01*
X26903000Y18551000D01*
X26923000Y18551000D01*
X26923000Y18571000D01*
X27177000Y18571000D01*
X27177000Y18551000D01*
G36*
X30446838Y24214683D02*
X30585910Y23998559D01*
X30587299Y23997610D01*
X30453569Y23801890D01*
X30402560Y23550000D01*
X30402560Y23272718D01*
X29137282Y22007440D01*
X28629501Y22007440D01*
X28892192Y22269673D01*
X29034838Y22613201D01*
X29035162Y22985167D01*
X28893117Y23328943D01*
X28698601Y23523799D01*
X29414802Y24240000D01*
X30442074Y24240000D01*
X30446838Y24214683D01*
X30446838Y24214683D01*
G37*
X30446838Y24214683D02*
X30585910Y23998559D01*
X30587299Y23997610D01*
X30453569Y23801890D01*
X30402560Y23550000D01*
X30402560Y23272718D01*
X29137282Y22007440D01*
X28629501Y22007440D01*
X28892192Y22269673D01*
X29034838Y22613201D01*
X29035162Y22985167D01*
X28893117Y23328943D01*
X28698601Y23523799D01*
X29414802Y24240000D01*
X30442074Y24240000D01*
X30446838Y24214683D01*
G36*
X30446838Y30214683D02*
X30585910Y29998559D01*
X30587299Y29997610D01*
X30453569Y29801890D01*
X30445086Y29760000D01*
X25134802Y29760000D01*
X25614802Y30240000D01*
X30442074Y30240000D01*
X30446838Y30214683D01*
X30446838Y30214683D01*
G37*
X30446838Y30214683D02*
X30585910Y29998559D01*
X30587299Y29997610D01*
X30453569Y29801890D01*
X30445086Y29760000D01*
X25134802Y29760000D01*
X25614802Y30240000D01*
X30442074Y30240000D01*
X30446838Y30214683D01*
M02*
