M48
;DRILL file {KiCad 4.0.6} date Sun Aug 12 18:14:52 2018
;FORMAT={-:-/ absolute / inch / decimal}
FMAT,2
INCH,TZ
T1C0.004
T2C0.016
T3C0.026
T4C0.032
T5C0.039
T6C0.047
T7C0.091
T8C0.098
%
G90
G05
M72
T1
X0.5709Y1.4449
X0.5709Y1.4055
X0.6063Y1.2008
X0.6063Y1.1614
X0.6102Y1.4449
X0.6102Y1.4055
X0.6496Y1.4449
X0.6496Y1.4055
X1.0083Y0.4472
X1.1417Y1.185
X1.1457Y1.0906
X1.1654Y0.9213
T2
X0.6102Y0.9843
X0.6693Y0.8563
X0.7362Y1.
X0.7874Y0.8661
X0.7874Y0.4961
X0.7874Y0.3543
X0.8031Y1.0276
X0.8543Y0.1575
X0.8642Y0.3937
X0.935Y0.6811
X0.9646Y0.748
X0.9724Y0.7087
X1.0472Y0.0827
X1.0512Y0.122
X1.0768Y0.5039
X1.0906Y0.5827
X1.1063Y0.8976
X1.1604Y0.4429
X1.3425Y0.6693
X1.437Y1.122
X1.4646Y0.7165
X1.5354Y0.4449
X1.6102Y0.6496
X1.7756Y1.0472
X1.7805Y0.8563
X1.7805Y0.6742
X1.9449Y0.4764
X2.0787Y0.4291
X2.2008Y1.2402
T3
X1.8794Y0.2154
X1.8794Y0.1654
T4
X0.374Y0.8374
X0.374Y0.7374
X0.4528Y0.8374
X0.4528Y0.7374
T5
X0.4358Y1.3346
X0.75Y1.3346
T6
X2.3622Y1.3124
X2.3622Y1.1624
X2.3622Y1.0124
X2.3622Y0.8624
X2.3622Y0.7124
X2.3622Y0.5624
X2.3622Y0.4124
X2.3622Y0.2624
T7
X0.2677Y1.0236
X0.2677Y0.5512
T8
X0.1772Y1.4055
X0.1772Y0.185
X1.0886Y1.3701
X2.0669Y1.4055
X2.0669Y0.185
T0
M30
