G04 #@! TF.FileFunction,Copper,L1,Top,Signal*
%FSLAX46Y46*%
G04 Gerber Fmt 4.6, Leading zero omitted, Abs format (unit mm)*
G04 Created by KiCad (PCBNEW 4.0.6) date Sun Aug 12 18:17:32 2018*
%MOMM*%
%LPD*%
G01*
G04 APERTURE LIST*
%ADD10C,0.100000*%
%ADD11C,0.300000*%
%ADD12R,3.800000X2.000000*%
%ADD13R,1.500000X2.000000*%
%ADD14R,2.500000X4.000000*%
%ADD15R,2.000000X3.500000*%
%ADD16R,7.000000X7.000000*%
%ADD17R,1.250000X1.000000*%
%ADD18R,3.600000X1.800000*%
%ADD19O,3.600000X1.800000*%
%ADD20C,1.520000*%
%ADD21C,2.700000*%
%ADD22C,1.000000*%
%ADD23O,1.200000X1.000000*%
%ADD24R,1.500000X1.500000*%
%ADD25R,1.500000X0.600000*%
%ADD26R,1.300000X0.700000*%
%ADD27R,2.000000X3.000000*%
%ADD28R,1.600000X1.300000*%
%ADD29R,3.000000X2.000000*%
%ADD30C,0.600000*%
%ADD31C,0.500000*%
%ADD32C,0.600000*%
%ADD33C,0.300000*%
%ADD34C,0.250000*%
%ADD35C,1.000000*%
%ADD36C,0.254000*%
G04 APERTURE END LIST*
D10*
D11*
X29000000Y30100000D03*
X29100000Y27700000D03*
X15400000Y29500000D03*
X15400000Y30500000D03*
X16500000Y35700000D03*
X15500000Y35700000D03*
X14500000Y35700000D03*
X16500000Y36700000D03*
X15500000Y36700000D03*
X25610000Y11360000D03*
D12*
X15500000Y36150000D03*
D13*
X15500000Y29850000D03*
X17800000Y29850000D03*
X13200000Y29850000D03*
D14*
X26148000Y27570000D03*
X26148000Y21470000D03*
X32752000Y27570000D03*
X32752000Y21470000D03*
D15*
X51010000Y11100000D03*
X55590000Y11100000D03*
D16*
X53310000Y18500000D03*
D17*
X15480000Y27044000D03*
X15480000Y25044000D03*
D18*
X60000000Y6665000D03*
D19*
X60000000Y10475000D03*
X60000000Y14285000D03*
X60000000Y18095000D03*
X60000000Y21905000D03*
X60000000Y25715000D03*
X60000000Y29525000D03*
X60000000Y33335000D03*
D20*
X11500000Y21270000D03*
X11500000Y18730000D03*
X9500000Y18730000D03*
X9500000Y21270000D03*
D21*
X6800000Y26000000D03*
X6800000Y14000000D03*
D22*
X11070000Y33900000D03*
X19050000Y33900000D03*
D23*
X47738000Y5470000D03*
X47738000Y4200000D03*
D24*
X22500000Y5350000D03*
X22500000Y8650000D03*
X32500000Y5350000D03*
X32500000Y8650000D03*
X42500000Y5350000D03*
X42500000Y8650000D03*
D25*
X15828000Y22361000D03*
X15828000Y21091000D03*
X15828000Y19821000D03*
X15828000Y18551000D03*
X15828000Y17281000D03*
X15828000Y16011000D03*
X15828000Y14741000D03*
X15828000Y13471000D03*
X21228000Y13471000D03*
X21228000Y14741000D03*
X21228000Y16011000D03*
X21228000Y17281000D03*
X21228000Y18551000D03*
X21228000Y19821000D03*
X21228000Y21091000D03*
X21228000Y22361000D03*
D17*
X55104000Y26060000D03*
X55104000Y28060000D03*
X37324000Y9000000D03*
X37324000Y11000000D03*
X13000000Y3500000D03*
X13000000Y5500000D03*
X16000000Y3500000D03*
X16000000Y5500000D03*
D26*
X27418000Y9092000D03*
X27418000Y10992000D03*
X27418000Y4774000D03*
X27418000Y6674000D03*
X37324000Y4774000D03*
X37324000Y6674000D03*
D15*
X42408000Y29744000D03*
X37828000Y29744000D03*
D16*
X40108000Y22344000D03*
D27*
X47100000Y15100000D03*
X47100000Y20100000D03*
D28*
X12500000Y8150000D03*
X16500000Y8150000D03*
X16500000Y10850000D03*
X12500000Y10850000D03*
D29*
X9090000Y30616000D03*
X4090000Y30616000D03*
X47016000Y29600000D03*
X52016000Y29600000D03*
X47000000Y24800000D03*
X52000000Y24800000D03*
D11*
X29600000Y23400000D03*
X14500000Y36700000D03*
D30*
X34100000Y17000000D03*
X17000000Y21750000D03*
X20000000Y12600000D03*
X45100000Y26600000D03*
X20000000Y9000000D03*
X28100000Y22800000D03*
X15500000Y25000000D03*
X20000000Y22000000D03*
X36500000Y28500000D03*
X37200000Y18200000D03*
X39000000Y11300000D03*
X45225000Y21750000D03*
X45225000Y17125000D03*
X29475000Y11250000D03*
X27350000Y12800000D03*
X52800000Y10900000D03*
X49400000Y12100000D03*
X40900000Y16500000D03*
X26700000Y3100000D03*
X26600000Y2100000D03*
X27700000Y14800000D03*
X24700000Y18000000D03*
X21700000Y4000000D03*
X24500000Y19000000D03*
X21950000Y10000000D03*
X23750000Y17300000D03*
X18700000Y25400000D03*
X20400000Y26100000D03*
X55900000Y31500000D03*
D31*
X47738000Y4200000D02*
X48500000Y4200000D01*
X55590000Y8690000D02*
X55590000Y11100000D01*
X54500000Y7600000D02*
X55590000Y8690000D01*
X51900000Y7600000D02*
X54500000Y7600000D01*
X48500000Y4200000D02*
X51900000Y7600000D01*
X37324000Y9000000D02*
X40613176Y9000000D01*
X46600000Y4200000D02*
X47738000Y4200000D01*
X45900000Y4900000D02*
X46600000Y4200000D01*
X45900000Y8600000D02*
X45900000Y4900000D01*
X44200000Y10300000D02*
X45900000Y8600000D01*
X41913176Y10300000D02*
X44200000Y10300000D01*
X40613176Y9000000D02*
X41913176Y10300000D01*
D32*
X40108000Y22344000D02*
X39444000Y22344000D01*
X39444000Y22344000D02*
X34100000Y17000000D01*
D33*
X55590000Y10790000D02*
X55590000Y11100000D01*
D34*
X28980000Y22950000D02*
X31272000Y22950000D01*
X31272000Y22950000D02*
X32752000Y21470000D01*
D35*
X55590000Y11100000D02*
X55590000Y12010000D01*
X55590000Y12010000D02*
X53700000Y13900000D01*
X44700000Y15800000D02*
X40108000Y20392000D01*
X44700000Y14000000D02*
X44700000Y15800000D01*
X46100000Y12600000D02*
X44700000Y14000000D01*
X48400000Y12600000D02*
X46100000Y12600000D01*
X49700000Y13900000D02*
X48400000Y12600000D01*
X53700000Y13900000D02*
X49700000Y13900000D01*
X40108000Y20392000D02*
X40108000Y22344000D01*
D32*
X39569000Y22344000D02*
X40108000Y22344000D01*
D33*
X13200000Y29850000D02*
X13200000Y29324000D01*
X13200000Y29324000D02*
X15480000Y27044000D01*
D35*
X60000000Y29525000D02*
X61975000Y29525000D01*
X63000000Y15700000D02*
X61585000Y14285000D01*
X63000000Y28500000D02*
X63000000Y15700000D01*
X61975000Y29525000D02*
X63000000Y28500000D01*
X61585000Y14285000D02*
X60000000Y14285000D01*
X60000000Y14285000D02*
X58775000Y14285000D01*
X58775000Y14285000D02*
X55590000Y11100000D01*
D34*
X15828000Y22361000D02*
X16389000Y22361000D01*
X16389000Y22361000D02*
X17000000Y21750000D01*
X15828000Y22361000D02*
X16139000Y22361000D01*
D35*
X6800000Y26000000D02*
X6800000Y21262000D01*
X6800000Y21262000D02*
X9332000Y18730000D01*
X9332000Y18730000D02*
X9500000Y18730000D01*
X13200000Y29850000D02*
X13190000Y29850000D01*
X13190000Y29850000D02*
X9340000Y26000000D01*
X9340000Y26000000D02*
X6800000Y26000000D01*
X32752000Y21470000D02*
X39234000Y21470000D01*
X39234000Y21470000D02*
X40108000Y22344000D01*
X26148000Y21470000D02*
X32752000Y21470000D01*
D31*
X21228000Y22361000D02*
X20461000Y22361000D01*
X19700000Y19950000D02*
X19000000Y19250000D01*
X19700000Y21600000D02*
X19700000Y19950000D01*
X20461000Y22361000D02*
X19700000Y21600000D01*
X19000000Y19250000D02*
X19000000Y13600000D01*
X19000000Y13600000D02*
X20000000Y12600000D01*
X26148000Y27570000D02*
X26148000Y27281000D01*
X26148000Y27281000D02*
X21228000Y22361000D01*
X26148000Y27570000D02*
X26148000Y26352000D01*
X26148000Y26352000D02*
X28100000Y24400000D01*
X28100000Y24400000D02*
X34100000Y24400000D01*
X34100000Y24400000D02*
X35100000Y25400000D01*
X35100000Y25400000D02*
X35100000Y26000000D01*
X35100000Y26000000D02*
X35800000Y26700000D01*
X35800000Y26700000D02*
X45000000Y26700000D01*
X45000000Y26700000D02*
X45100000Y26600000D01*
D34*
X22500000Y5350000D02*
X22500000Y3700000D01*
X20700000Y8300000D02*
X20000000Y9000000D01*
X20700000Y3900000D02*
X20700000Y8300000D01*
X21300000Y3300000D02*
X20700000Y3900000D01*
X22100000Y3300000D02*
X21300000Y3300000D01*
X22500000Y3700000D02*
X22100000Y3300000D01*
X28100000Y24400000D02*
X26148000Y26352000D01*
X28100000Y22800000D02*
X28100000Y24400000D01*
D35*
X26148000Y27570000D02*
X25855000Y27570000D01*
X25855000Y27570000D02*
X24950000Y28475000D01*
X24950000Y28475000D02*
X19525000Y28475000D01*
X19525000Y28475000D02*
X18620000Y27570000D01*
X18620000Y27570000D02*
X17256000Y27570000D01*
D33*
X26148000Y27570000D02*
X26148000Y26773000D01*
X21736000Y22361000D02*
X21228000Y22361000D01*
X15480000Y25020000D02*
X15480000Y25044000D01*
X15500000Y25000000D02*
X15480000Y25020000D01*
D34*
X15828000Y18551000D02*
X18301000Y18551000D01*
X18301000Y18551000D02*
X19000000Y19250000D01*
X20361000Y22361000D02*
X21228000Y22361000D01*
X20000000Y22000000D02*
X20361000Y22361000D01*
D35*
X15500000Y29850000D02*
X15500000Y29326000D01*
X15500000Y29326000D02*
X17256000Y27570000D01*
D32*
X39000000Y11300000D02*
X39000000Y16400000D01*
X36500000Y28500000D02*
X37744000Y29744000D01*
X39000000Y16400000D02*
X37200000Y18200000D01*
X37744000Y29744000D02*
X37828000Y29744000D01*
D31*
X39000000Y11300000D02*
X38700000Y11000000D01*
X38700000Y11000000D02*
X37324000Y11000000D01*
D35*
X17800000Y29850000D02*
X22080000Y29850000D01*
X29704000Y30870000D02*
X32752000Y27822000D01*
X23100000Y30870000D02*
X29704000Y30870000D01*
X22080000Y29850000D02*
X23100000Y30870000D01*
X32752000Y27822000D02*
X35906000Y27822000D01*
X35906000Y27822000D02*
X37828000Y29744000D01*
X9090000Y30616000D02*
X10654000Y30616000D01*
X17800000Y31598000D02*
X17800000Y29850000D01*
X17004000Y32394000D02*
X17800000Y31598000D01*
X12432000Y32394000D02*
X17004000Y32394000D01*
X10654000Y30616000D02*
X12432000Y32394000D01*
X37686000Y29602000D02*
X37828000Y29744000D01*
X55104000Y26060000D02*
X53260000Y26060000D01*
X53260000Y26060000D02*
X52000000Y24800000D01*
X55104000Y26060000D02*
X59655000Y26060000D01*
X59655000Y26060000D02*
X60000000Y25715000D01*
X47100000Y20100000D02*
X47100000Y20900000D01*
X47100000Y20900000D02*
X51000000Y24800000D01*
X51000000Y24800000D02*
X52000000Y24800000D01*
X59655000Y26060000D02*
X60000000Y25715000D01*
X52016000Y29600000D02*
X52016000Y28291000D01*
X49225000Y27025000D02*
X47000000Y24800000D01*
X50750000Y27025000D02*
X49225000Y27025000D01*
X52016000Y28291000D02*
X50750000Y27025000D01*
X47000000Y24800000D02*
X47216000Y24800000D01*
X52016000Y29600000D02*
X52016000Y29306000D01*
X47230000Y24520000D02*
X47016000Y24520000D01*
X55104000Y28060000D02*
X55104000Y28439000D01*
X55104000Y28439000D02*
X56265000Y29600000D01*
X52016000Y29600000D02*
X56265000Y29600000D01*
X56265000Y29600000D02*
X60000000Y33335000D01*
D34*
X12500000Y8150000D02*
X12500000Y6000000D01*
X12500000Y6000000D02*
X13000000Y5500000D01*
X15828000Y14741000D02*
X15241000Y14741000D01*
X15241000Y14741000D02*
X14300000Y13800000D01*
X14300000Y13800000D02*
X14300000Y8900000D01*
X14300000Y8900000D02*
X13550000Y8150000D01*
X13550000Y8150000D02*
X12500000Y8150000D01*
X16500000Y10850000D02*
X16250000Y10850000D01*
X16250000Y10850000D02*
X15100000Y9700000D01*
X15100000Y6400000D02*
X16000000Y5500000D01*
X15100000Y9700000D02*
X15100000Y6400000D01*
X15828000Y13471000D02*
X15828000Y11522000D01*
X15828000Y11522000D02*
X16500000Y10850000D01*
D35*
X11500000Y18730000D02*
X11500000Y17746000D01*
X4090000Y19908000D02*
X4090000Y30616000D01*
X7352000Y16646000D02*
X4090000Y19908000D01*
X10400000Y16646000D02*
X7352000Y16646000D01*
X11500000Y17746000D02*
X10400000Y16646000D01*
D34*
X11500000Y21270000D02*
X11500000Y20880000D01*
X11500000Y20880000D02*
X13448000Y18932000D01*
X13448000Y18932000D02*
X13448000Y16646000D01*
X13448000Y16646000D02*
X14083000Y16011000D01*
X14083000Y16011000D02*
X15828000Y16011000D01*
X9500000Y21270000D02*
X9500000Y21842000D01*
X9500000Y21842000D02*
X10146000Y22488000D01*
X10146000Y22488000D02*
X12178000Y22488000D01*
X12178000Y22488000D02*
X13956000Y20710000D01*
X13956000Y20710000D02*
X13956000Y17916000D01*
X13956000Y17916000D02*
X14591000Y17281000D01*
X14591000Y17281000D02*
X15828000Y17281000D01*
X45225000Y21825000D02*
X45225000Y21750000D01*
X45225000Y21075000D02*
X45225000Y21825000D01*
X45225000Y18200000D02*
X45225000Y21075000D01*
X45225000Y17125000D02*
X45225000Y18200000D01*
X29200000Y11250000D02*
X29475000Y11250000D01*
X27700000Y12750000D02*
X29200000Y11250000D01*
X27400000Y12750000D02*
X27700000Y12750000D01*
X27350000Y12800000D02*
X27400000Y12750000D01*
D33*
X47738000Y5470000D02*
X48470000Y5470000D01*
X52800000Y8900000D02*
X52800000Y10900000D01*
X52300000Y8400000D02*
X52800000Y8900000D01*
X51400000Y8400000D02*
X52300000Y8400000D01*
X48470000Y5470000D02*
X51400000Y8400000D01*
X49000000Y11700000D02*
X49400000Y12100000D01*
X45700000Y11700000D02*
X49000000Y11700000D01*
X40900000Y16500000D02*
X45700000Y11700000D01*
D34*
X22500000Y8650000D02*
X26976000Y8650000D01*
X26976000Y8650000D02*
X27418000Y9092000D01*
X32500000Y5350000D02*
X32500000Y4800000D01*
X32500000Y4800000D02*
X31150002Y3450002D01*
X31150002Y3450002D02*
X27050002Y3450002D01*
X27050002Y3450002D02*
X26700000Y3100000D01*
X27418000Y6674000D02*
X30524000Y6674000D01*
X30524000Y6674000D02*
X32500000Y8650000D01*
X42500000Y5350000D02*
X41250000Y5350000D01*
X27500000Y3000000D02*
X26600000Y2100000D01*
X38900000Y3000000D02*
X27500000Y3000000D01*
X41250000Y5350000D02*
X38900000Y3000000D01*
X37324000Y6674000D02*
X40524000Y6674000D01*
X40524000Y6674000D02*
X42500000Y8650000D01*
X41900000Y11100000D02*
X51010000Y11100000D01*
X40700000Y9900000D02*
X41900000Y11100000D01*
X33900000Y9900000D02*
X40700000Y9900000D01*
X33200000Y10600000D02*
X33900000Y9900000D01*
X31900000Y10600000D02*
X33200000Y10600000D01*
X27700000Y14800000D02*
X31900000Y10600000D01*
X50410000Y11700000D02*
X51010000Y11100000D01*
X24400000Y14010000D02*
X27418000Y10992000D01*
X24400000Y17700000D02*
X24400000Y14010000D01*
X24700000Y18000000D02*
X24400000Y17700000D01*
X21300000Y4400000D02*
X21700000Y4000000D01*
X21300000Y11100000D02*
X21300000Y4400000D01*
X23000000Y12800000D02*
X21300000Y11100000D01*
X23000000Y17500000D02*
X23000000Y12800000D01*
X24500000Y19000000D02*
X23000000Y17500000D01*
X21950000Y10000000D02*
X21950000Y10800000D01*
X21950000Y10800000D02*
X23750000Y12600000D01*
X23750000Y12600000D02*
X23750000Y17300000D01*
X15828000Y21091000D02*
X17391000Y21091000D01*
X17700000Y24400000D02*
X18700000Y25400000D01*
X17700000Y21400000D02*
X17700000Y24400000D01*
X17391000Y21091000D02*
X17700000Y21400000D01*
X15828000Y19821000D02*
X17021000Y19821000D01*
X18200000Y23900000D02*
X20400000Y26100000D01*
X18200000Y21000000D02*
X18200000Y23900000D01*
X17021000Y19821000D02*
X18200000Y21000000D01*
D31*
X47016000Y29600000D02*
X47100000Y29600000D01*
X47100000Y29600000D02*
X48800000Y31300000D01*
X55700000Y31300000D02*
X55900000Y31500000D01*
X48800000Y31300000D02*
X55700000Y31300000D01*
D35*
X42408000Y29744000D02*
X46872000Y29744000D01*
X46872000Y29744000D02*
X47016000Y29600000D01*
X46872000Y29744000D02*
X47016000Y29600000D01*
X53310000Y18500000D02*
X50500000Y18500000D01*
X50500000Y18500000D02*
X47100000Y15100000D01*
D36*
G36*
X29565000Y33700000D02*
X29578162Y33633830D01*
X29578162Y33566364D01*
X29616222Y33375022D01*
X29616223Y33375020D01*
X29616223Y33375018D01*
X29663729Y33260329D01*
X29718503Y33128093D01*
X29718504Y33128092D01*
X29718505Y33128090D01*
X29826892Y32965879D01*
X29877444Y32915328D01*
X30015879Y32776892D01*
X30178090Y32668505D01*
X30178092Y32668504D01*
X30178093Y32668503D01*
X30269976Y32630444D01*
X30425018Y32566223D01*
X30425020Y32566223D01*
X30425022Y32566222D01*
X30616365Y32528162D01*
X30683830Y32528162D01*
X30750000Y32515000D01*
X49250000Y32515000D01*
X49316170Y32528162D01*
X49383636Y32528162D01*
X49574978Y32566222D01*
X49574980Y32566223D01*
X49574982Y32566223D01*
X49730024Y32630444D01*
X49821907Y32668503D01*
X49821908Y32668504D01*
X49821910Y32668505D01*
X49984121Y32776892D01*
X50122556Y32915328D01*
X50173108Y32965879D01*
X50281495Y33128090D01*
X50281496Y33128092D01*
X50281497Y33128093D01*
X50336271Y33260329D01*
X50383777Y33375018D01*
X50383777Y33375020D01*
X50383778Y33375022D01*
X50421838Y33566365D01*
X50421838Y33633830D01*
X50435000Y33700000D01*
X50435000Y35326695D01*
X50614674Y35326695D01*
X50901043Y34633628D01*
X51430839Y34102907D01*
X52123405Y33815328D01*
X52873305Y33814674D01*
X53566372Y34101043D01*
X54097093Y34630839D01*
X54384672Y35323405D01*
X54385326Y36073305D01*
X54098957Y36766372D01*
X53569161Y37297093D01*
X52876595Y37584672D01*
X52126695Y37585326D01*
X51433628Y37298957D01*
X50902907Y36769161D01*
X50615328Y36076595D01*
X50614674Y35326695D01*
X50435000Y35326695D01*
X50435000Y39315000D01*
X61932533Y39315000D01*
X62880777Y39126383D01*
X63627463Y38627463D01*
X64126383Y37880775D01*
X64315000Y36932533D01*
X64315000Y3067467D01*
X64126383Y2119225D01*
X63627463Y1372537D01*
X62880777Y873617D01*
X61932533Y685000D01*
X3067467Y685000D01*
X2119225Y873617D01*
X1372537Y1372537D01*
X873617Y2119223D01*
X685000Y3067467D01*
X685000Y4326695D01*
X2614674Y4326695D01*
X2901043Y3633628D01*
X3430839Y3102907D01*
X4123405Y2815328D01*
X4873305Y2814674D01*
X5566372Y3101043D01*
X5679776Y3214250D01*
X11740000Y3214250D01*
X11740000Y2873691D01*
X11836673Y2640302D01*
X12015301Y2461673D01*
X12248690Y2365000D01*
X12714250Y2365000D01*
X12873000Y2523750D01*
X12873000Y3373000D01*
X13127000Y3373000D01*
X13127000Y2523750D01*
X13285750Y2365000D01*
X13751310Y2365000D01*
X13984699Y2461673D01*
X14163327Y2640302D01*
X14260000Y2873691D01*
X14260000Y3214250D01*
X14740000Y3214250D01*
X14740000Y2873691D01*
X14836673Y2640302D01*
X15015301Y2461673D01*
X15248690Y2365000D01*
X15714250Y2365000D01*
X15873000Y2523750D01*
X15873000Y3373000D01*
X16127000Y3373000D01*
X16127000Y2523750D01*
X16285750Y2365000D01*
X16751310Y2365000D01*
X16984699Y2461673D01*
X17163327Y2640302D01*
X17260000Y2873691D01*
X17260000Y3214250D01*
X17101250Y3373000D01*
X16127000Y3373000D01*
X15873000Y3373000D01*
X14898750Y3373000D01*
X14740000Y3214250D01*
X14260000Y3214250D01*
X14101250Y3373000D01*
X13127000Y3373000D01*
X12873000Y3373000D01*
X11898750Y3373000D01*
X11740000Y3214250D01*
X5679776Y3214250D01*
X6097093Y3630839D01*
X6384672Y4323405D01*
X6385326Y5073305D01*
X6098957Y5766372D01*
X5569161Y6297093D01*
X4876595Y6584672D01*
X4126695Y6585326D01*
X3433628Y6298957D01*
X2902907Y5769161D01*
X2615328Y5076595D01*
X2614674Y4326695D01*
X685000Y4326695D01*
X685000Y12594407D01*
X5574012Y12594407D01*
X5715478Y12291218D01*
X6451955Y12006263D01*
X7241418Y12024836D01*
X7884522Y12291218D01*
X8025988Y12594407D01*
X6800000Y13820395D01*
X5574012Y12594407D01*
X685000Y12594407D01*
X685000Y14348045D01*
X4806263Y14348045D01*
X4824836Y13558582D01*
X5091218Y12915478D01*
X5394407Y12774012D01*
X6620395Y14000000D01*
X6979605Y14000000D01*
X8205593Y12774012D01*
X8508782Y12915478D01*
X8793737Y13651955D01*
X8775164Y14441418D01*
X8508782Y15084522D01*
X8205593Y15225988D01*
X6979605Y14000000D01*
X6620395Y14000000D01*
X5394407Y15225988D01*
X5091218Y15084522D01*
X4806263Y14348045D01*
X685000Y14348045D01*
X685000Y31616000D01*
X1942560Y31616000D01*
X1942560Y29616000D01*
X1986838Y29380683D01*
X2125910Y29164559D01*
X2338110Y29019569D01*
X2590000Y28968560D01*
X2955000Y28968560D01*
X2955000Y19908000D01*
X3041397Y19473654D01*
X3233068Y19186799D01*
X3287434Y19105434D01*
X6416345Y15976523D01*
X6358582Y15975164D01*
X5715478Y15708782D01*
X5574012Y15405593D01*
X6800000Y14179605D01*
X8025988Y15405593D01*
X7976806Y15511000D01*
X10400000Y15511000D01*
X10834346Y15597397D01*
X11202566Y15843434D01*
X12302566Y16943434D01*
X12383186Y17064090D01*
X12548603Y17311654D01*
X12635000Y17746000D01*
X12635000Y17891912D01*
X12681934Y17938764D01*
X12688000Y17953373D01*
X12688000Y16646000D01*
X12745852Y16355161D01*
X12910599Y16108599D01*
X13545599Y15473599D01*
X13792161Y15308852D01*
X14083000Y15251000D01*
X14473086Y15251000D01*
X14430560Y15041000D01*
X14430560Y15005362D01*
X13762599Y14337401D01*
X13597852Y14090839D01*
X13540000Y13800000D01*
X13540000Y12098839D01*
X13300000Y12147440D01*
X11700000Y12147440D01*
X11464683Y12103162D01*
X11248559Y11964090D01*
X11103569Y11751890D01*
X11052560Y11500000D01*
X11052560Y10200000D01*
X11096838Y9964683D01*
X11235910Y9748559D01*
X11448110Y9603569D01*
X11700000Y9552560D01*
X13300000Y9552560D01*
X13535317Y9596838D01*
X13540000Y9599851D01*
X13540000Y9398839D01*
X13300000Y9447440D01*
X11700000Y9447440D01*
X11464683Y9403162D01*
X11248559Y9264090D01*
X11103569Y9051890D01*
X11052560Y8800000D01*
X11052560Y7500000D01*
X11096838Y7264683D01*
X11235910Y7048559D01*
X11448110Y6903569D01*
X11700000Y6852560D01*
X11740000Y6852560D01*
X11740000Y6061431D01*
X11727560Y6000000D01*
X11727560Y5000000D01*
X11771838Y4764683D01*
X11910910Y4548559D01*
X11979006Y4502031D01*
X11836673Y4359698D01*
X11740000Y4126309D01*
X11740000Y3785750D01*
X11898750Y3627000D01*
X12873000Y3627000D01*
X12873000Y3647000D01*
X13127000Y3647000D01*
X13127000Y3627000D01*
X14101250Y3627000D01*
X14260000Y3785750D01*
X14260000Y4126309D01*
X14163327Y4359698D01*
X14022090Y4500936D01*
X14076441Y4535910D01*
X14221431Y4748110D01*
X14272440Y5000000D01*
X14272440Y6000000D01*
X14228162Y6235317D01*
X14089090Y6451441D01*
X13876890Y6596431D01*
X13625000Y6647440D01*
X13260000Y6647440D01*
X13260000Y6852560D01*
X13300000Y6852560D01*
X13535317Y6896838D01*
X13751441Y7035910D01*
X13896431Y7248110D01*
X13947440Y7500000D01*
X13947440Y7519080D01*
X14087401Y7612599D01*
X14340000Y7865198D01*
X14340000Y6400000D01*
X14397852Y6109161D01*
X14562599Y5862599D01*
X14727560Y5697638D01*
X14727560Y5000000D01*
X14771838Y4764683D01*
X14910910Y4548559D01*
X14979006Y4502031D01*
X14836673Y4359698D01*
X14740000Y4126309D01*
X14740000Y3785750D01*
X14898750Y3627000D01*
X15873000Y3627000D01*
X15873000Y3647000D01*
X16127000Y3647000D01*
X16127000Y3627000D01*
X17101250Y3627000D01*
X17260000Y3785750D01*
X17260000Y4126309D01*
X17163327Y4359698D01*
X17022090Y4500936D01*
X17076441Y4535910D01*
X17221431Y4748110D01*
X17272440Y5000000D01*
X17272440Y6000000D01*
X17228162Y6235317D01*
X17089090Y6451441D01*
X16876890Y6596431D01*
X16625000Y6647440D01*
X15927362Y6647440D01*
X15860000Y6714802D01*
X15860000Y6852560D01*
X17300000Y6852560D01*
X17535317Y6896838D01*
X17751441Y7035910D01*
X17896431Y7248110D01*
X17947440Y7500000D01*
X17947440Y8800000D01*
X17903162Y9035317D01*
X17764090Y9251441D01*
X17551890Y9396431D01*
X17300000Y9447440D01*
X15922242Y9447440D01*
X16027362Y9552560D01*
X17300000Y9552560D01*
X17535317Y9596838D01*
X17751441Y9735910D01*
X17896431Y9948110D01*
X17947440Y10200000D01*
X17947440Y11500000D01*
X17903162Y11735317D01*
X17764090Y11951441D01*
X17551890Y12096431D01*
X17300000Y12147440D01*
X16588000Y12147440D01*
X16588000Y12525442D01*
X16813317Y12567838D01*
X17029441Y12706910D01*
X17174431Y12919110D01*
X17225440Y13171000D01*
X17225440Y13771000D01*
X17181162Y14006317D01*
X17117322Y14105528D01*
X17174431Y14189110D01*
X17225440Y14441000D01*
X17225440Y15041000D01*
X17181162Y15276317D01*
X17117322Y15375528D01*
X17174431Y15459110D01*
X17225440Y15711000D01*
X17225440Y16311000D01*
X17181162Y16546317D01*
X17117322Y16645528D01*
X17174431Y16729110D01*
X17225440Y16981000D01*
X17225440Y17581000D01*
X17185926Y17791000D01*
X18115000Y17791000D01*
X18115000Y13600005D01*
X18114999Y13600000D01*
X18161808Y13364683D01*
X18182367Y13261325D01*
X18333700Y13034838D01*
X18374210Y12974210D01*
X19157255Y12191165D01*
X19206883Y12071057D01*
X19469673Y11807808D01*
X19813201Y11665162D01*
X20185167Y11664838D01*
X20528943Y11806883D01*
X20792192Y12069673D01*
X20934838Y12413201D01*
X20934934Y12523560D01*
X21648758Y12523560D01*
X20762599Y11637401D01*
X20597852Y11390839D01*
X20540000Y11100000D01*
X20540000Y9782502D01*
X20530327Y9792192D01*
X20186799Y9934838D01*
X19814833Y9935162D01*
X19471057Y9793117D01*
X19207808Y9530327D01*
X19065162Y9186799D01*
X19064838Y8814833D01*
X19206883Y8471057D01*
X19469673Y8207808D01*
X19813201Y8065162D01*
X19860076Y8065121D01*
X19940000Y7985197D01*
X19940000Y3900000D01*
X19997852Y3609161D01*
X20162599Y3362599D01*
X20762599Y2762599D01*
X21009161Y2597852D01*
X21300000Y2540000D01*
X22100000Y2540000D01*
X22390839Y2597852D01*
X22637401Y2762599D01*
X23037401Y3162599D01*
X23202148Y3409160D01*
X23214460Y3471057D01*
X23260000Y3700000D01*
X23260000Y3954442D01*
X23485317Y3996838D01*
X23701441Y4135910D01*
X23846431Y4348110D01*
X23897440Y4600000D01*
X23897440Y6100000D01*
X23853162Y6335317D01*
X23714090Y6551441D01*
X23501890Y6696431D01*
X23250000Y6747440D01*
X22060000Y6747440D01*
X22060000Y7252560D01*
X23250000Y7252560D01*
X23485317Y7296838D01*
X23701441Y7435910D01*
X23846431Y7648110D01*
X23895415Y7890000D01*
X26976000Y7890000D01*
X27266839Y7947852D01*
X27486404Y8094560D01*
X28068000Y8094560D01*
X28303317Y8138838D01*
X28519441Y8277910D01*
X28664431Y8490110D01*
X28715440Y8742000D01*
X28715440Y9442000D01*
X28671162Y9677317D01*
X28532090Y9893441D01*
X28319890Y10038431D01*
X28306803Y10041081D01*
X28519441Y10177910D01*
X28664431Y10390110D01*
X28715440Y10642000D01*
X28715440Y10677292D01*
X28745868Y10656961D01*
X28944673Y10457808D01*
X29288201Y10315162D01*
X29660167Y10314838D01*
X30003943Y10456883D01*
X30267192Y10719673D01*
X30395801Y11029397D01*
X31362599Y10062599D01*
X31482524Y9982468D01*
X31298559Y9864090D01*
X31153569Y9651890D01*
X31102560Y9400000D01*
X31102560Y8327362D01*
X30209198Y7434000D01*
X28558757Y7434000D01*
X28532090Y7475441D01*
X28319890Y7620431D01*
X28068000Y7671440D01*
X26768000Y7671440D01*
X26532683Y7627162D01*
X26316559Y7488090D01*
X26171569Y7275890D01*
X26120560Y7024000D01*
X26120560Y6324000D01*
X26164838Y6088683D01*
X26303910Y5872559D01*
X26516110Y5727569D01*
X26549490Y5720809D01*
X26408301Y5662327D01*
X26229673Y5483698D01*
X26133000Y5250309D01*
X26133000Y5059750D01*
X26291750Y4901000D01*
X27291000Y4901000D01*
X27291000Y4921000D01*
X27545000Y4921000D01*
X27545000Y4901000D01*
X28544250Y4901000D01*
X28703000Y5059750D01*
X28703000Y5250309D01*
X28606327Y5483698D01*
X28427699Y5662327D01*
X28291713Y5718654D01*
X28303317Y5720838D01*
X28519441Y5859910D01*
X28556399Y5914000D01*
X30524000Y5914000D01*
X30814839Y5971852D01*
X31061401Y6136599D01*
X31122305Y6197503D01*
X31102560Y6100000D01*
X31102560Y4600000D01*
X31121982Y4496784D01*
X30835200Y4210002D01*
X28666678Y4210002D01*
X28703000Y4297691D01*
X28703000Y4488250D01*
X28544250Y4647000D01*
X27545000Y4647000D01*
X27545000Y4627000D01*
X27291000Y4627000D01*
X27291000Y4647000D01*
X26291750Y4647000D01*
X26133000Y4488250D01*
X26133000Y4297691D01*
X26229673Y4064302D01*
X26333668Y3960306D01*
X26171057Y3893117D01*
X25907808Y3630327D01*
X25765162Y3286799D01*
X25764838Y2914833D01*
X25860613Y2683040D01*
X25807808Y2630327D01*
X25665162Y2286799D01*
X25664838Y1914833D01*
X25806883Y1571057D01*
X26069673Y1307808D01*
X26413201Y1165162D01*
X26785167Y1164838D01*
X27128943Y1306883D01*
X27392192Y1569673D01*
X27534838Y1913201D01*
X27534879Y1960077D01*
X27814802Y2240000D01*
X38900000Y2240000D01*
X39190839Y2297852D01*
X39437401Y2462599D01*
X40872928Y3898126D01*
X46543881Y3898126D01*
X46705116Y3555595D01*
X47022731Y3247648D01*
X47434015Y3084688D01*
X47611000Y3225259D01*
X47611000Y4073000D01*
X47865000Y4073000D01*
X47865000Y3225259D01*
X48041985Y3084688D01*
X48453269Y3247648D01*
X48770884Y3555595D01*
X48932119Y3898126D01*
X48805954Y4073000D01*
X47865000Y4073000D01*
X47611000Y4073000D01*
X46670046Y4073000D01*
X46543881Y3898126D01*
X40872928Y3898126D01*
X41222266Y4247464D01*
X41285910Y4148559D01*
X41498110Y4003569D01*
X41750000Y3952560D01*
X43250000Y3952560D01*
X43485317Y3996838D01*
X43701441Y4135910D01*
X43831798Y4326695D01*
X50614674Y4326695D01*
X50901043Y3633628D01*
X51430839Y3102907D01*
X52123405Y2815328D01*
X52873305Y2814674D01*
X53566372Y3101043D01*
X54097093Y3630839D01*
X54384672Y4323405D01*
X54385326Y5073305D01*
X54098957Y5766372D01*
X53569161Y6297093D01*
X52876595Y6584672D01*
X52126695Y6585326D01*
X51433628Y6298957D01*
X50902907Y5769161D01*
X50615328Y5076595D01*
X50614674Y4326695D01*
X43831798Y4326695D01*
X43846431Y4348110D01*
X43897440Y4600000D01*
X43897440Y6100000D01*
X43853162Y6335317D01*
X43714090Y6551441D01*
X43501890Y6696431D01*
X43250000Y6747440D01*
X41750000Y6747440D01*
X41654220Y6729418D01*
X42177362Y7252560D01*
X43250000Y7252560D01*
X43485317Y7296838D01*
X43701441Y7435910D01*
X43846431Y7648110D01*
X43897440Y7900000D01*
X43897440Y9400000D01*
X43853162Y9635317D01*
X43714090Y9851441D01*
X43501890Y9996431D01*
X43250000Y10047440D01*
X41922242Y10047440D01*
X42214802Y10340000D01*
X49362560Y10340000D01*
X49362560Y9350000D01*
X49406838Y9114683D01*
X49545910Y8898559D01*
X49758110Y8753569D01*
X50010000Y8702560D01*
X50592402Y8702560D01*
X48363623Y6473781D01*
X48296541Y6518603D01*
X47862195Y6605000D01*
X47613805Y6605000D01*
X47179459Y6518603D01*
X46811239Y6272566D01*
X46565202Y5904346D01*
X46478805Y5470000D01*
X46565202Y5035654D01*
X46700104Y4833758D01*
X46543881Y4501874D01*
X46670046Y4327000D01*
X47611000Y4327000D01*
X47611000Y4335558D01*
X47613805Y4335000D01*
X47862195Y4335000D01*
X47865000Y4335558D01*
X47865000Y4327000D01*
X48805954Y4327000D01*
X48932119Y4501874D01*
X48806453Y4768840D01*
X49025079Y4914921D01*
X51675158Y7565000D01*
X57552560Y7565000D01*
X57552560Y5765000D01*
X57596838Y5529683D01*
X57735910Y5313559D01*
X57948110Y5168569D01*
X58200000Y5117560D01*
X61800000Y5117560D01*
X62035317Y5161838D01*
X62251441Y5300910D01*
X62396431Y5513110D01*
X62447440Y5765000D01*
X62447440Y7565000D01*
X62403162Y7800317D01*
X62264090Y8016441D01*
X62051890Y8161431D01*
X61800000Y8212440D01*
X58200000Y8212440D01*
X57964683Y8168162D01*
X57748559Y8029090D01*
X57603569Y7816890D01*
X57552560Y7565000D01*
X51675158Y7565000D01*
X51725158Y7615000D01*
X52300000Y7615000D01*
X52600407Y7674755D01*
X52855079Y7844921D01*
X53355079Y8344921D01*
X53525245Y8599594D01*
X53585000Y8900000D01*
X53585000Y10362494D01*
X53592192Y10369673D01*
X53734838Y10713201D01*
X53734926Y10814250D01*
X53955000Y10814250D01*
X53955000Y9223690D01*
X54051673Y8990301D01*
X54230302Y8811673D01*
X54463691Y8715000D01*
X55304250Y8715000D01*
X55463000Y8873750D01*
X55463000Y10973000D01*
X55717000Y10973000D01*
X55717000Y8873750D01*
X55875750Y8715000D01*
X56716309Y8715000D01*
X56949698Y8811673D01*
X57128327Y8990301D01*
X57225000Y9223690D01*
X57225000Y10475000D01*
X57517296Y10475000D01*
X57634141Y9887581D01*
X57966887Y9389591D01*
X58464877Y9056845D01*
X59052296Y8940000D01*
X60947704Y8940000D01*
X61535123Y9056845D01*
X62033113Y9389591D01*
X62365859Y9887581D01*
X62482704Y10475000D01*
X62365859Y11062419D01*
X62033113Y11560409D01*
X61535123Y11893155D01*
X60947704Y12010000D01*
X59052296Y12010000D01*
X58464877Y11893155D01*
X57966887Y11560409D01*
X57634141Y11062419D01*
X57517296Y10475000D01*
X57225000Y10475000D01*
X57225000Y10814250D01*
X57066250Y10973000D01*
X55717000Y10973000D01*
X55463000Y10973000D01*
X54113750Y10973000D01*
X53955000Y10814250D01*
X53734926Y10814250D01*
X53735162Y11085167D01*
X53593117Y11428943D01*
X53330327Y11692192D01*
X52986799Y11834838D01*
X52657440Y11835125D01*
X52657440Y12850000D01*
X52633674Y12976310D01*
X53955000Y12976310D01*
X53955000Y11385750D01*
X54113750Y11227000D01*
X55463000Y11227000D01*
X55463000Y13326250D01*
X55717000Y13326250D01*
X55717000Y11227000D01*
X57066250Y11227000D01*
X57225000Y11385750D01*
X57225000Y12976310D01*
X57128327Y13209699D01*
X56949698Y13388327D01*
X56716309Y13485000D01*
X55875750Y13485000D01*
X55717000Y13326250D01*
X55463000Y13326250D01*
X55304250Y13485000D01*
X54463691Y13485000D01*
X54230302Y13388327D01*
X54051673Y13209699D01*
X53955000Y12976310D01*
X52633674Y12976310D01*
X52613162Y13085317D01*
X52474090Y13301441D01*
X52261890Y13446431D01*
X52010000Y13497440D01*
X50010000Y13497440D01*
X49774683Y13453162D01*
X49558559Y13314090D01*
X49413569Y13101890D01*
X49400024Y13035001D01*
X49214833Y13035162D01*
X48871057Y12893117D01*
X48607808Y12630327D01*
X48547463Y12485000D01*
X46025158Y12485000D01*
X41835153Y16675005D01*
X41835162Y16685167D01*
X41693117Y17028943D01*
X41430327Y17292192D01*
X41086799Y17434838D01*
X40714833Y17435162D01*
X40371057Y17293117D01*
X40107808Y17030327D01*
X39965162Y16686799D01*
X39964838Y16314833D01*
X40106883Y15971057D01*
X40369673Y15707808D01*
X40713201Y15565162D01*
X40724690Y15565152D01*
X44429842Y11860000D01*
X41900000Y11860000D01*
X41609160Y11802148D01*
X41362599Y11637401D01*
X40385198Y10660000D01*
X39682327Y10660000D01*
X39792192Y10769673D01*
X39934838Y11113201D01*
X39935162Y11485167D01*
X39935000Y11485559D01*
X39935000Y16400000D01*
X39863827Y16757809D01*
X39661145Y17061145D01*
X38513290Y18209000D01*
X39822250Y18209000D01*
X39981000Y18367750D01*
X39981000Y22217000D01*
X40235000Y22217000D01*
X40235000Y18367750D01*
X40393750Y18209000D01*
X43734309Y18209000D01*
X43967698Y18305673D01*
X44146327Y18484301D01*
X44243000Y18717690D01*
X44243000Y22058250D01*
X44084250Y22217000D01*
X40235000Y22217000D01*
X39981000Y22217000D01*
X36131750Y22217000D01*
X35973000Y22058250D01*
X35973000Y18717690D01*
X36069673Y18484301D01*
X36248302Y18305673D01*
X36265085Y18298721D01*
X36264838Y18014833D01*
X36406883Y17671057D01*
X36669673Y17407808D01*
X36670065Y17407645D01*
X38065000Y16012710D01*
X38065000Y12123949D01*
X37949000Y12147440D01*
X36699000Y12147440D01*
X36463683Y12103162D01*
X36247559Y11964090D01*
X36102569Y11751890D01*
X36051560Y11500000D01*
X36051560Y10660000D01*
X34214803Y10660000D01*
X33737401Y11137401D01*
X33490839Y11302148D01*
X33200000Y11360000D01*
X32214802Y11360000D01*
X28635122Y14939680D01*
X28635162Y14985167D01*
X28493117Y15328943D01*
X28230327Y15592192D01*
X27886799Y15734838D01*
X27514833Y15735162D01*
X27171057Y15593117D01*
X26907808Y15330327D01*
X26765162Y14986799D01*
X26764838Y14614833D01*
X26906883Y14271057D01*
X27169673Y14007808D01*
X27513201Y13865162D01*
X27560077Y13865121D01*
X27799403Y13625795D01*
X27536799Y13734838D01*
X27164833Y13735162D01*
X26821057Y13593117D01*
X26557808Y13330327D01*
X26439468Y13045334D01*
X25160000Y14324802D01*
X25160000Y17178396D01*
X25228943Y17206883D01*
X25492192Y17469673D01*
X25634838Y17813201D01*
X25635162Y18185167D01*
X25493117Y18528943D01*
X25368598Y18653679D01*
X25434838Y18813201D01*
X25434857Y18835000D01*
X25862250Y18835000D01*
X26021000Y18993750D01*
X26021000Y21343000D01*
X26275000Y21343000D01*
X26275000Y18993750D01*
X26433750Y18835000D01*
X27524310Y18835000D01*
X27757699Y18931673D01*
X27936327Y19110302D01*
X28033000Y19343691D01*
X28033000Y21184250D01*
X30867000Y21184250D01*
X30867000Y19343691D01*
X30963673Y19110302D01*
X31142301Y18931673D01*
X31375690Y18835000D01*
X32466250Y18835000D01*
X32625000Y18993750D01*
X32625000Y21343000D01*
X32879000Y21343000D01*
X32879000Y18993750D01*
X33037750Y18835000D01*
X34128310Y18835000D01*
X34361699Y18931673D01*
X34540327Y19110302D01*
X34637000Y19343691D01*
X34637000Y21184250D01*
X34478250Y21343000D01*
X32879000Y21343000D01*
X32625000Y21343000D01*
X31025750Y21343000D01*
X30867000Y21184250D01*
X28033000Y21184250D01*
X27874250Y21343000D01*
X26275000Y21343000D01*
X26021000Y21343000D01*
X24421750Y21343000D01*
X24263000Y21184250D01*
X24263000Y19913745D01*
X23971057Y19793117D01*
X23707808Y19530327D01*
X23565162Y19186799D01*
X23565121Y19139923D01*
X22612551Y18187353D01*
X22625440Y18251000D01*
X22625440Y18851000D01*
X22581162Y19086317D01*
X22517322Y19185528D01*
X22574431Y19269110D01*
X22625440Y19521000D01*
X22625440Y20121000D01*
X22581162Y20356317D01*
X22517322Y20455528D01*
X22574431Y20539110D01*
X22625440Y20791000D01*
X22625440Y21391000D01*
X22581162Y21626317D01*
X22517322Y21725528D01*
X22574431Y21809110D01*
X22625440Y22061000D01*
X22625440Y22506860D01*
X23714888Y23596309D01*
X24263000Y23596309D01*
X24263000Y21755750D01*
X24421750Y21597000D01*
X26021000Y21597000D01*
X26021000Y23946250D01*
X25862250Y24105000D01*
X24771690Y24105000D01*
X24538301Y24008327D01*
X24359673Y23829698D01*
X24263000Y23596309D01*
X23714888Y23596309D01*
X25041139Y24922560D01*
X26325860Y24922560D01*
X27143421Y24105000D01*
X26433750Y24105000D01*
X26275000Y23946250D01*
X26275000Y21597000D01*
X27874250Y21597000D01*
X28033000Y21755750D01*
X28033000Y21865058D01*
X28285167Y21864838D01*
X28628943Y22006883D01*
X28892192Y22269673D01*
X29034838Y22613201D01*
X29035162Y22985167D01*
X28893117Y23328943D01*
X28860000Y23362118D01*
X28860000Y23515000D01*
X30867000Y23515000D01*
X30867000Y21755750D01*
X31025750Y21597000D01*
X32625000Y21597000D01*
X32625000Y21617000D01*
X32879000Y21617000D01*
X32879000Y21597000D01*
X34478250Y21597000D01*
X34637000Y21755750D01*
X34637000Y23596309D01*
X34598532Y23689179D01*
X34725790Y23774210D01*
X35725787Y24774208D01*
X35725790Y24774210D01*
X35876657Y25000000D01*
X35917634Y25061326D01*
X35973000Y25339667D01*
X35973000Y22629750D01*
X36131750Y22471000D01*
X39981000Y22471000D01*
X39981000Y22491000D01*
X40235000Y22491000D01*
X40235000Y22471000D01*
X44084250Y22471000D01*
X44243000Y22629750D01*
X44243000Y25815000D01*
X44562494Y25815000D01*
X44569673Y25807808D01*
X44852560Y25690342D01*
X44852560Y23800000D01*
X44896838Y23564683D01*
X45035910Y23348559D01*
X45248110Y23203569D01*
X45500000Y23152560D01*
X47747428Y23152560D01*
X46842308Y22247440D01*
X46100000Y22247440D01*
X46036102Y22235417D01*
X46018117Y22278943D01*
X45755327Y22542192D01*
X45411799Y22684838D01*
X45039833Y22685162D01*
X44696057Y22543117D01*
X44432808Y22280327D01*
X44290162Y21936799D01*
X44289838Y21564833D01*
X44431883Y21221057D01*
X44465000Y21187882D01*
X44465000Y17687463D01*
X44432808Y17655327D01*
X44290162Y17311799D01*
X44289838Y16939833D01*
X44431883Y16596057D01*
X44694673Y16332808D01*
X45038201Y16190162D01*
X45410167Y16189838D01*
X45452560Y16207354D01*
X45452560Y13600000D01*
X45496838Y13364683D01*
X45635910Y13148559D01*
X45848110Y13003569D01*
X46100000Y12952560D01*
X48100000Y12952560D01*
X48335317Y12996838D01*
X48551441Y13135910D01*
X48696431Y13348110D01*
X48747440Y13600000D01*
X48747440Y13920260D01*
X57608964Y13920260D01*
X57633244Y13814914D01*
X57924788Y13289394D01*
X58395248Y12915446D01*
X58973000Y12750000D01*
X59873000Y12750000D01*
X59873000Y14158000D01*
X60127000Y14158000D01*
X60127000Y12750000D01*
X61027000Y12750000D01*
X61604752Y12915446D01*
X62075212Y13289394D01*
X62366756Y13814914D01*
X62391036Y13920260D01*
X62270378Y14158000D01*
X60127000Y14158000D01*
X59873000Y14158000D01*
X57729622Y14158000D01*
X57608964Y13920260D01*
X48747440Y13920260D01*
X48747440Y15142308D01*
X49162560Y15557428D01*
X49162560Y15000000D01*
X49206838Y14764683D01*
X49345910Y14548559D01*
X49558110Y14403569D01*
X49810000Y14352560D01*
X56810000Y14352560D01*
X57045317Y14396838D01*
X57261441Y14535910D01*
X57339217Y14649740D01*
X57608964Y14649740D01*
X57729622Y14412000D01*
X59873000Y14412000D01*
X59873000Y15820000D01*
X60127000Y15820000D01*
X60127000Y14412000D01*
X62270378Y14412000D01*
X62391036Y14649740D01*
X62366756Y14755086D01*
X62075212Y15280606D01*
X61604752Y15654554D01*
X61027000Y15820000D01*
X60127000Y15820000D01*
X59873000Y15820000D01*
X58973000Y15820000D01*
X58395248Y15654554D01*
X57924788Y15280606D01*
X57633244Y14755086D01*
X57608964Y14649740D01*
X57339217Y14649740D01*
X57406431Y14748110D01*
X57457440Y15000000D01*
X57457440Y18095000D01*
X57517296Y18095000D01*
X57634141Y17507581D01*
X57966887Y17009591D01*
X58464877Y16676845D01*
X59052296Y16560000D01*
X60947704Y16560000D01*
X61535123Y16676845D01*
X62033113Y17009591D01*
X62365859Y17507581D01*
X62482704Y18095000D01*
X62365859Y18682419D01*
X62033113Y19180409D01*
X61535123Y19513155D01*
X60947704Y19630000D01*
X59052296Y19630000D01*
X58464877Y19513155D01*
X57966887Y19180409D01*
X57634141Y18682419D01*
X57517296Y18095000D01*
X57457440Y18095000D01*
X57457440Y21905000D01*
X57517296Y21905000D01*
X57634141Y21317581D01*
X57966887Y20819591D01*
X58464877Y20486845D01*
X59052296Y20370000D01*
X60947704Y20370000D01*
X61535123Y20486845D01*
X62033113Y20819591D01*
X62365859Y21317581D01*
X62482704Y21905000D01*
X62365859Y22492419D01*
X62033113Y22990409D01*
X61535123Y23323155D01*
X60947704Y23440000D01*
X59052296Y23440000D01*
X58464877Y23323155D01*
X57966887Y22990409D01*
X57634141Y22492419D01*
X57517296Y21905000D01*
X57457440Y21905000D01*
X57457440Y22000000D01*
X57413162Y22235317D01*
X57274090Y22451441D01*
X57061890Y22596431D01*
X56810000Y22647440D01*
X50452572Y22647440D01*
X50957692Y23152560D01*
X53500000Y23152560D01*
X53735317Y23196838D01*
X53951441Y23335910D01*
X54096431Y23548110D01*
X54147440Y23800000D01*
X54147440Y24925000D01*
X54417569Y24925000D01*
X54479000Y24912560D01*
X55729000Y24912560D01*
X55795113Y24925000D01*
X57769501Y24925000D01*
X57966887Y24629591D01*
X58464877Y24296845D01*
X59052296Y24180000D01*
X60947704Y24180000D01*
X61535123Y24296845D01*
X62033113Y24629591D01*
X62365859Y25127581D01*
X62482704Y25715000D01*
X62365859Y26302419D01*
X62033113Y26800409D01*
X61535123Y27133155D01*
X60947704Y27250000D01*
X59052296Y27250000D01*
X58775793Y27195000D01*
X56248146Y27195000D01*
X56325431Y27308110D01*
X56376440Y27560000D01*
X56376440Y28106308D01*
X57668130Y29397998D01*
X57729621Y29397998D01*
X57608964Y29160260D01*
X57633244Y29054914D01*
X57924788Y28529394D01*
X58395248Y28155446D01*
X58973000Y27990000D01*
X59873000Y27990000D01*
X59873000Y29398000D01*
X60127000Y29398000D01*
X60127000Y27990000D01*
X61027000Y27990000D01*
X61604752Y28155446D01*
X62075212Y28529394D01*
X62366756Y29054914D01*
X62391036Y29160260D01*
X62270378Y29398000D01*
X60127000Y29398000D01*
X59873000Y29398000D01*
X59853000Y29398000D01*
X59853000Y29652000D01*
X59873000Y29652000D01*
X59873000Y31060000D01*
X60127000Y31060000D01*
X60127000Y29652000D01*
X62270378Y29652000D01*
X62391036Y29889740D01*
X62366756Y29995086D01*
X62075212Y30520606D01*
X61604752Y30894554D01*
X61027000Y31060000D01*
X60127000Y31060000D01*
X59873000Y31060000D01*
X59330132Y31060000D01*
X60070132Y31800000D01*
X60947704Y31800000D01*
X61535123Y31916845D01*
X62033113Y32249591D01*
X62365859Y32747581D01*
X62482704Y33335000D01*
X62365859Y33922419D01*
X62033113Y34420409D01*
X61535123Y34753155D01*
X60947704Y34870000D01*
X59052296Y34870000D01*
X58464877Y34753155D01*
X57966887Y34420409D01*
X57634141Y33922419D01*
X57517296Y33335000D01*
X57634141Y32747581D01*
X57703558Y32643690D01*
X56808811Y31748943D01*
X56693117Y32028943D01*
X56430327Y32292192D01*
X56086799Y32434838D01*
X55714833Y32435162D01*
X55371057Y32293117D01*
X55262751Y32185000D01*
X48800005Y32185000D01*
X48800000Y32185001D01*
X48517516Y32128810D01*
X48461325Y32117633D01*
X48174210Y31925790D01*
X48174208Y31925787D01*
X47495861Y31247440D01*
X45516000Y31247440D01*
X45280683Y31203162D01*
X45064559Y31064090D01*
X44938092Y30879000D01*
X44055440Y30879000D01*
X44055440Y31494000D01*
X44011162Y31729317D01*
X43872090Y31945441D01*
X43659890Y32090431D01*
X43408000Y32141440D01*
X41408000Y32141440D01*
X41172683Y32097162D01*
X40956559Y31958090D01*
X40811569Y31745890D01*
X40760560Y31494000D01*
X40760560Y27994000D01*
X40804838Y27758683D01*
X40916600Y27585000D01*
X39317082Y27585000D01*
X39424431Y27742110D01*
X39475440Y27994000D01*
X39475440Y31494000D01*
X39431162Y31729317D01*
X39292090Y31945441D01*
X39079890Y32090431D01*
X38828000Y32141440D01*
X36828000Y32141440D01*
X36592683Y32097162D01*
X36376559Y31958090D01*
X36231569Y31745890D01*
X36180560Y31494000D01*
X36180560Y29701693D01*
X35435868Y28957000D01*
X34649440Y28957000D01*
X34649440Y29570000D01*
X34605162Y29805317D01*
X34466090Y30021441D01*
X34253890Y30166431D01*
X34002000Y30217440D01*
X31961692Y30217440D01*
X30506566Y31672566D01*
X30389181Y31751000D01*
X30138346Y31918603D01*
X29704000Y32005000D01*
X23100000Y32005000D01*
X22665654Y31918603D01*
X22414819Y31751000D01*
X22297434Y31672566D01*
X21609868Y30985000D01*
X19172038Y30985000D01*
X19153162Y31085317D01*
X19014090Y31301441D01*
X18935000Y31355481D01*
X18935000Y31598000D01*
X18848603Y32032346D01*
X18602566Y32400566D01*
X17806566Y33196566D01*
X17599385Y33335000D01*
X17438346Y33442603D01*
X17004000Y33529000D01*
X12432000Y33529000D01*
X12119060Y33466752D01*
X12204803Y33673244D01*
X12204804Y33675225D01*
X17914803Y33675225D01*
X18087233Y33257914D01*
X18406235Y32938355D01*
X18823244Y32765197D01*
X19274775Y32764803D01*
X19692086Y32937233D01*
X20011645Y33256235D01*
X20184803Y33673244D01*
X20185197Y34124775D01*
X20060446Y34426695D01*
X25764674Y34426695D01*
X26051043Y33733628D01*
X26580839Y33202907D01*
X27273405Y32915328D01*
X28023305Y32914674D01*
X28716372Y33201043D01*
X29247093Y33730839D01*
X29534672Y34423405D01*
X29535326Y35173305D01*
X29248957Y35866372D01*
X28719161Y36397093D01*
X28026595Y36684672D01*
X27276695Y36685326D01*
X26583628Y36398957D01*
X26052907Y35869161D01*
X25765328Y35176595D01*
X25764674Y34426695D01*
X20060446Y34426695D01*
X20012767Y34542086D01*
X19693765Y34861645D01*
X19276756Y35034803D01*
X18825225Y35035197D01*
X18407914Y34862767D01*
X18088355Y34543765D01*
X17915197Y34126756D01*
X17914803Y33675225D01*
X12204804Y33675225D01*
X12205197Y34124775D01*
X12032767Y34542086D01*
X11713765Y34861645D01*
X11296756Y35034803D01*
X10845225Y35035197D01*
X10427914Y34862767D01*
X10108355Y34543765D01*
X9935197Y34126756D01*
X9934803Y33675225D01*
X10107233Y33257914D01*
X10426235Y32938355D01*
X10843244Y32765197D01*
X11197756Y32764888D01*
X10678405Y32245537D01*
X10590000Y32263440D01*
X7590000Y32263440D01*
X7354683Y32219162D01*
X7138559Y32080090D01*
X6993569Y31867890D01*
X6942560Y31616000D01*
X6942560Y29616000D01*
X6986838Y29380683D01*
X7125910Y29164559D01*
X7338110Y29019569D01*
X7590000Y28968560D01*
X10590000Y28968560D01*
X10825317Y29012838D01*
X11041441Y29151910D01*
X11186431Y29364110D01*
X11226960Y29564250D01*
X11815000Y29564250D01*
X11815000Y28723691D01*
X11911673Y28490302D01*
X12090301Y28311673D01*
X12323690Y28215000D01*
X12914250Y28215000D01*
X13073000Y28373750D01*
X13073000Y29723000D01*
X11973750Y29723000D01*
X11815000Y29564250D01*
X11226960Y29564250D01*
X11237440Y29616000D01*
X11237440Y29667019D01*
X11456566Y29813434D01*
X11815000Y30171868D01*
X11815000Y30135750D01*
X11973750Y29977000D01*
X13073000Y29977000D01*
X13073000Y29997000D01*
X13327000Y29997000D01*
X13327000Y29977000D01*
X13347000Y29977000D01*
X13347000Y29723000D01*
X13327000Y29723000D01*
X13327000Y28373750D01*
X13485750Y28215000D01*
X14076310Y28215000D01*
X14309699Y28311673D01*
X14351660Y28353634D01*
X14498110Y28253569D01*
X14750000Y28202560D01*
X15018308Y28202560D01*
X15041868Y28179000D01*
X14728690Y28179000D01*
X14495301Y28082327D01*
X14316673Y27903698D01*
X14220000Y27670309D01*
X14220000Y27329750D01*
X14378750Y27171000D01*
X15353000Y27171000D01*
X15353000Y27191000D01*
X15607000Y27191000D01*
X15607000Y27171000D01*
X15627000Y27171000D01*
X15627000Y26917000D01*
X15607000Y26917000D01*
X15607000Y26897000D01*
X15353000Y26897000D01*
X15353000Y26917000D01*
X14378750Y26917000D01*
X14220000Y26758250D01*
X14220000Y26417691D01*
X14316673Y26184302D01*
X14457910Y26043064D01*
X14403559Y26008090D01*
X14258569Y25795890D01*
X14207560Y25544000D01*
X14207560Y24544000D01*
X14251838Y24308683D01*
X14390910Y24092559D01*
X14603110Y23947569D01*
X14855000Y23896560D01*
X16105000Y23896560D01*
X16340317Y23940838D01*
X16556441Y24079910D01*
X16701431Y24292110D01*
X16752440Y24544000D01*
X16752440Y25544000D01*
X16708162Y25779317D01*
X16569090Y25995441D01*
X16500994Y26041969D01*
X16643327Y26184302D01*
X16740000Y26417691D01*
X16740000Y26575957D01*
X16821654Y26521397D01*
X17256000Y26435000D01*
X18620000Y26435000D01*
X19054346Y26521397D01*
X19422566Y26767434D01*
X19995132Y27340000D01*
X24250560Y27340000D01*
X24250560Y26635139D01*
X20923860Y23308440D01*
X20478000Y23308440D01*
X20242683Y23264162D01*
X20026559Y23125090D01*
X20013426Y23105870D01*
X19835210Y22986790D01*
X19835208Y22986787D01*
X19761579Y22913158D01*
X19471057Y22793117D01*
X19207808Y22530327D01*
X19086424Y22238004D01*
X19074210Y22225790D01*
X18960000Y22054862D01*
X18960000Y23585198D01*
X20539680Y25164878D01*
X20585167Y25164838D01*
X20928943Y25306883D01*
X21192192Y25569673D01*
X21334838Y25913201D01*
X21335162Y26285167D01*
X21193117Y26628943D01*
X20930327Y26892192D01*
X20586799Y27034838D01*
X20214833Y27035162D01*
X19871057Y26893117D01*
X19607808Y26630327D01*
X19465162Y26286799D01*
X19465121Y26239923D01*
X19323777Y26098579D01*
X19230327Y26192192D01*
X18886799Y26334838D01*
X18514833Y26335162D01*
X18171057Y26193117D01*
X17907808Y25930327D01*
X17765162Y25586799D01*
X17765121Y25539923D01*
X17162599Y24937401D01*
X16997852Y24690839D01*
X16940000Y24400000D01*
X16940000Y23197025D01*
X16937698Y23199327D01*
X16704309Y23296000D01*
X16113750Y23296000D01*
X15955000Y23137250D01*
X15955000Y22488000D01*
X15975000Y22488000D01*
X15975000Y22234000D01*
X15955000Y22234000D01*
X15955000Y22214000D01*
X15701000Y22214000D01*
X15701000Y22234000D01*
X14601750Y22234000D01*
X14443000Y22075250D01*
X14443000Y21934690D01*
X14532806Y21717878D01*
X14481569Y21642890D01*
X14430560Y21391000D01*
X14430560Y21310242D01*
X12953492Y22787310D01*
X14443000Y22787310D01*
X14443000Y22646750D01*
X14601750Y22488000D01*
X15701000Y22488000D01*
X15701000Y23137250D01*
X15542250Y23296000D01*
X14951691Y23296000D01*
X14718302Y23199327D01*
X14539673Y23020699D01*
X14443000Y22787310D01*
X12953492Y22787310D01*
X12715401Y23025401D01*
X12468839Y23190148D01*
X12178000Y23248000D01*
X10146000Y23248000D01*
X9855161Y23190148D01*
X9608599Y23025401D01*
X9248418Y22665220D01*
X9223735Y22665242D01*
X8710828Y22453313D01*
X8318066Y22061236D01*
X8105242Y21548700D01*
X8104758Y20993735D01*
X8316687Y20480828D01*
X8708764Y20088066D01*
X8904934Y20006609D01*
X8770059Y19950742D01*
X8700841Y19708764D01*
X9500000Y18909605D01*
X10299159Y19708764D01*
X10229941Y19950742D01*
X10085138Y20002382D01*
X10289172Y20086687D01*
X10500024Y20297171D01*
X10708764Y20088066D01*
X10920738Y20000046D01*
X10710828Y19913313D01*
X10318066Y19521236D01*
X10209581Y19259976D01*
X9679605Y18730000D01*
X9693748Y18715857D01*
X9514143Y18536252D01*
X9500000Y18550395D01*
X9485858Y18536252D01*
X9306253Y18715857D01*
X9320395Y18730000D01*
X8521236Y19529159D01*
X8279258Y19459941D01*
X8092845Y18937220D01*
X8120659Y18382951D01*
X8279258Y18000059D01*
X8521234Y17930842D01*
X8406216Y17815824D01*
X8441040Y17781000D01*
X7822132Y17781000D01*
X5225000Y20378132D01*
X5225000Y24594407D01*
X5574012Y24594407D01*
X5715478Y24291218D01*
X6451955Y24006263D01*
X7241418Y24024836D01*
X7884522Y24291218D01*
X8025988Y24594407D01*
X6800000Y25820395D01*
X5574012Y24594407D01*
X5225000Y24594407D01*
X5225000Y24853056D01*
X5394407Y24774012D01*
X6620395Y26000000D01*
X6979605Y26000000D01*
X8205593Y24774012D01*
X8508782Y24915478D01*
X8793737Y25651955D01*
X8775164Y26441418D01*
X8508782Y27084522D01*
X8205593Y27225988D01*
X6979605Y26000000D01*
X6620395Y26000000D01*
X5394407Y27225988D01*
X5225000Y27146944D01*
X5225000Y27405593D01*
X5574012Y27405593D01*
X6800000Y26179605D01*
X8025988Y27405593D01*
X7884522Y27708782D01*
X7148045Y27993737D01*
X6358582Y27975164D01*
X5715478Y27708782D01*
X5574012Y27405593D01*
X5225000Y27405593D01*
X5225000Y28968560D01*
X5590000Y28968560D01*
X5825317Y29012838D01*
X6041441Y29151910D01*
X6186431Y29364110D01*
X6237440Y29616000D01*
X6237440Y31616000D01*
X6193162Y31851317D01*
X6054090Y32067441D01*
X5841890Y32212431D01*
X5590000Y32263440D01*
X2590000Y32263440D01*
X2354683Y32219162D01*
X2138559Y32080090D01*
X1993569Y31867890D01*
X1942560Y31616000D01*
X685000Y31616000D01*
X685000Y35326695D01*
X2614674Y35326695D01*
X2901043Y34633628D01*
X3430839Y34102907D01*
X4123405Y33815328D01*
X4873305Y33814674D01*
X5566372Y34101043D01*
X6097093Y34630839D01*
X6384672Y35323405D01*
X6385326Y36073305D01*
X6098957Y36766372D01*
X5715998Y37150000D01*
X12952560Y37150000D01*
X12952560Y35150000D01*
X12996838Y34914683D01*
X13135910Y34698559D01*
X13348110Y34553569D01*
X13600000Y34502560D01*
X17400000Y34502560D01*
X17635317Y34546838D01*
X17851441Y34685910D01*
X17996431Y34898110D01*
X18047440Y35150000D01*
X18047440Y37150000D01*
X18003162Y37385317D01*
X17864090Y37601441D01*
X17651890Y37746431D01*
X17400000Y37797440D01*
X13600000Y37797440D01*
X13364683Y37753162D01*
X13148559Y37614090D01*
X13003569Y37401890D01*
X12952560Y37150000D01*
X5715998Y37150000D01*
X5569161Y37297093D01*
X4876595Y37584672D01*
X4126695Y37585326D01*
X3433628Y37298957D01*
X2902907Y36769161D01*
X2615328Y36076595D01*
X2614674Y35326695D01*
X685000Y35326695D01*
X685000Y36932533D01*
X873617Y37880777D01*
X1372537Y38627463D01*
X2119225Y39126383D01*
X3067467Y39315000D01*
X29565000Y39315000D01*
X29565000Y33700000D01*
X29565000Y33700000D01*
G37*
X29565000Y33700000D02*
X29578162Y33633830D01*
X29578162Y33566364D01*
X29616222Y33375022D01*
X29616223Y33375020D01*
X29616223Y33375018D01*
X29663729Y33260329D01*
X29718503Y33128093D01*
X29718504Y33128092D01*
X29718505Y33128090D01*
X29826892Y32965879D01*
X29877444Y32915328D01*
X30015879Y32776892D01*
X30178090Y32668505D01*
X30178092Y32668504D01*
X30178093Y32668503D01*
X30269976Y32630444D01*
X30425018Y32566223D01*
X30425020Y32566223D01*
X30425022Y32566222D01*
X30616365Y32528162D01*
X30683830Y32528162D01*
X30750000Y32515000D01*
X49250000Y32515000D01*
X49316170Y32528162D01*
X49383636Y32528162D01*
X49574978Y32566222D01*
X49574980Y32566223D01*
X49574982Y32566223D01*
X49730024Y32630444D01*
X49821907Y32668503D01*
X49821908Y32668504D01*
X49821910Y32668505D01*
X49984121Y32776892D01*
X50122556Y32915328D01*
X50173108Y32965879D01*
X50281495Y33128090D01*
X50281496Y33128092D01*
X50281497Y33128093D01*
X50336271Y33260329D01*
X50383777Y33375018D01*
X50383777Y33375020D01*
X50383778Y33375022D01*
X50421838Y33566365D01*
X50421838Y33633830D01*
X50435000Y33700000D01*
X50435000Y35326695D01*
X50614674Y35326695D01*
X50901043Y34633628D01*
X51430839Y34102907D01*
X52123405Y33815328D01*
X52873305Y33814674D01*
X53566372Y34101043D01*
X54097093Y34630839D01*
X54384672Y35323405D01*
X54385326Y36073305D01*
X54098957Y36766372D01*
X53569161Y37297093D01*
X52876595Y37584672D01*
X52126695Y37585326D01*
X51433628Y37298957D01*
X50902907Y36769161D01*
X50615328Y36076595D01*
X50614674Y35326695D01*
X50435000Y35326695D01*
X50435000Y39315000D01*
X61932533Y39315000D01*
X62880777Y39126383D01*
X63627463Y38627463D01*
X64126383Y37880775D01*
X64315000Y36932533D01*
X64315000Y3067467D01*
X64126383Y2119225D01*
X63627463Y1372537D01*
X62880777Y873617D01*
X61932533Y685000D01*
X3067467Y685000D01*
X2119225Y873617D01*
X1372537Y1372537D01*
X873617Y2119223D01*
X685000Y3067467D01*
X685000Y4326695D01*
X2614674Y4326695D01*
X2901043Y3633628D01*
X3430839Y3102907D01*
X4123405Y2815328D01*
X4873305Y2814674D01*
X5566372Y3101043D01*
X5679776Y3214250D01*
X11740000Y3214250D01*
X11740000Y2873691D01*
X11836673Y2640302D01*
X12015301Y2461673D01*
X12248690Y2365000D01*
X12714250Y2365000D01*
X12873000Y2523750D01*
X12873000Y3373000D01*
X13127000Y3373000D01*
X13127000Y2523750D01*
X13285750Y2365000D01*
X13751310Y2365000D01*
X13984699Y2461673D01*
X14163327Y2640302D01*
X14260000Y2873691D01*
X14260000Y3214250D01*
X14740000Y3214250D01*
X14740000Y2873691D01*
X14836673Y2640302D01*
X15015301Y2461673D01*
X15248690Y2365000D01*
X15714250Y2365000D01*
X15873000Y2523750D01*
X15873000Y3373000D01*
X16127000Y3373000D01*
X16127000Y2523750D01*
X16285750Y2365000D01*
X16751310Y2365000D01*
X16984699Y2461673D01*
X17163327Y2640302D01*
X17260000Y2873691D01*
X17260000Y3214250D01*
X17101250Y3373000D01*
X16127000Y3373000D01*
X15873000Y3373000D01*
X14898750Y3373000D01*
X14740000Y3214250D01*
X14260000Y3214250D01*
X14101250Y3373000D01*
X13127000Y3373000D01*
X12873000Y3373000D01*
X11898750Y3373000D01*
X11740000Y3214250D01*
X5679776Y3214250D01*
X6097093Y3630839D01*
X6384672Y4323405D01*
X6385326Y5073305D01*
X6098957Y5766372D01*
X5569161Y6297093D01*
X4876595Y6584672D01*
X4126695Y6585326D01*
X3433628Y6298957D01*
X2902907Y5769161D01*
X2615328Y5076595D01*
X2614674Y4326695D01*
X685000Y4326695D01*
X685000Y12594407D01*
X5574012Y12594407D01*
X5715478Y12291218D01*
X6451955Y12006263D01*
X7241418Y12024836D01*
X7884522Y12291218D01*
X8025988Y12594407D01*
X6800000Y13820395D01*
X5574012Y12594407D01*
X685000Y12594407D01*
X685000Y14348045D01*
X4806263Y14348045D01*
X4824836Y13558582D01*
X5091218Y12915478D01*
X5394407Y12774012D01*
X6620395Y14000000D01*
X6979605Y14000000D01*
X8205593Y12774012D01*
X8508782Y12915478D01*
X8793737Y13651955D01*
X8775164Y14441418D01*
X8508782Y15084522D01*
X8205593Y15225988D01*
X6979605Y14000000D01*
X6620395Y14000000D01*
X5394407Y15225988D01*
X5091218Y15084522D01*
X4806263Y14348045D01*
X685000Y14348045D01*
X685000Y31616000D01*
X1942560Y31616000D01*
X1942560Y29616000D01*
X1986838Y29380683D01*
X2125910Y29164559D01*
X2338110Y29019569D01*
X2590000Y28968560D01*
X2955000Y28968560D01*
X2955000Y19908000D01*
X3041397Y19473654D01*
X3233068Y19186799D01*
X3287434Y19105434D01*
X6416345Y15976523D01*
X6358582Y15975164D01*
X5715478Y15708782D01*
X5574012Y15405593D01*
X6800000Y14179605D01*
X8025988Y15405593D01*
X7976806Y15511000D01*
X10400000Y15511000D01*
X10834346Y15597397D01*
X11202566Y15843434D01*
X12302566Y16943434D01*
X12383186Y17064090D01*
X12548603Y17311654D01*
X12635000Y17746000D01*
X12635000Y17891912D01*
X12681934Y17938764D01*
X12688000Y17953373D01*
X12688000Y16646000D01*
X12745852Y16355161D01*
X12910599Y16108599D01*
X13545599Y15473599D01*
X13792161Y15308852D01*
X14083000Y15251000D01*
X14473086Y15251000D01*
X14430560Y15041000D01*
X14430560Y15005362D01*
X13762599Y14337401D01*
X13597852Y14090839D01*
X13540000Y13800000D01*
X13540000Y12098839D01*
X13300000Y12147440D01*
X11700000Y12147440D01*
X11464683Y12103162D01*
X11248559Y11964090D01*
X11103569Y11751890D01*
X11052560Y11500000D01*
X11052560Y10200000D01*
X11096838Y9964683D01*
X11235910Y9748559D01*
X11448110Y9603569D01*
X11700000Y9552560D01*
X13300000Y9552560D01*
X13535317Y9596838D01*
X13540000Y9599851D01*
X13540000Y9398839D01*
X13300000Y9447440D01*
X11700000Y9447440D01*
X11464683Y9403162D01*
X11248559Y9264090D01*
X11103569Y9051890D01*
X11052560Y8800000D01*
X11052560Y7500000D01*
X11096838Y7264683D01*
X11235910Y7048559D01*
X11448110Y6903569D01*
X11700000Y6852560D01*
X11740000Y6852560D01*
X11740000Y6061431D01*
X11727560Y6000000D01*
X11727560Y5000000D01*
X11771838Y4764683D01*
X11910910Y4548559D01*
X11979006Y4502031D01*
X11836673Y4359698D01*
X11740000Y4126309D01*
X11740000Y3785750D01*
X11898750Y3627000D01*
X12873000Y3627000D01*
X12873000Y3647000D01*
X13127000Y3647000D01*
X13127000Y3627000D01*
X14101250Y3627000D01*
X14260000Y3785750D01*
X14260000Y4126309D01*
X14163327Y4359698D01*
X14022090Y4500936D01*
X14076441Y4535910D01*
X14221431Y4748110D01*
X14272440Y5000000D01*
X14272440Y6000000D01*
X14228162Y6235317D01*
X14089090Y6451441D01*
X13876890Y6596431D01*
X13625000Y6647440D01*
X13260000Y6647440D01*
X13260000Y6852560D01*
X13300000Y6852560D01*
X13535317Y6896838D01*
X13751441Y7035910D01*
X13896431Y7248110D01*
X13947440Y7500000D01*
X13947440Y7519080D01*
X14087401Y7612599D01*
X14340000Y7865198D01*
X14340000Y6400000D01*
X14397852Y6109161D01*
X14562599Y5862599D01*
X14727560Y5697638D01*
X14727560Y5000000D01*
X14771838Y4764683D01*
X14910910Y4548559D01*
X14979006Y4502031D01*
X14836673Y4359698D01*
X14740000Y4126309D01*
X14740000Y3785750D01*
X14898750Y3627000D01*
X15873000Y3627000D01*
X15873000Y3647000D01*
X16127000Y3647000D01*
X16127000Y3627000D01*
X17101250Y3627000D01*
X17260000Y3785750D01*
X17260000Y4126309D01*
X17163327Y4359698D01*
X17022090Y4500936D01*
X17076441Y4535910D01*
X17221431Y4748110D01*
X17272440Y5000000D01*
X17272440Y6000000D01*
X17228162Y6235317D01*
X17089090Y6451441D01*
X16876890Y6596431D01*
X16625000Y6647440D01*
X15927362Y6647440D01*
X15860000Y6714802D01*
X15860000Y6852560D01*
X17300000Y6852560D01*
X17535317Y6896838D01*
X17751441Y7035910D01*
X17896431Y7248110D01*
X17947440Y7500000D01*
X17947440Y8800000D01*
X17903162Y9035317D01*
X17764090Y9251441D01*
X17551890Y9396431D01*
X17300000Y9447440D01*
X15922242Y9447440D01*
X16027362Y9552560D01*
X17300000Y9552560D01*
X17535317Y9596838D01*
X17751441Y9735910D01*
X17896431Y9948110D01*
X17947440Y10200000D01*
X17947440Y11500000D01*
X17903162Y11735317D01*
X17764090Y11951441D01*
X17551890Y12096431D01*
X17300000Y12147440D01*
X16588000Y12147440D01*
X16588000Y12525442D01*
X16813317Y12567838D01*
X17029441Y12706910D01*
X17174431Y12919110D01*
X17225440Y13171000D01*
X17225440Y13771000D01*
X17181162Y14006317D01*
X17117322Y14105528D01*
X17174431Y14189110D01*
X17225440Y14441000D01*
X17225440Y15041000D01*
X17181162Y15276317D01*
X17117322Y15375528D01*
X17174431Y15459110D01*
X17225440Y15711000D01*
X17225440Y16311000D01*
X17181162Y16546317D01*
X17117322Y16645528D01*
X17174431Y16729110D01*
X17225440Y16981000D01*
X17225440Y17581000D01*
X17185926Y17791000D01*
X18115000Y17791000D01*
X18115000Y13600005D01*
X18114999Y13600000D01*
X18161808Y13364683D01*
X18182367Y13261325D01*
X18333700Y13034838D01*
X18374210Y12974210D01*
X19157255Y12191165D01*
X19206883Y12071057D01*
X19469673Y11807808D01*
X19813201Y11665162D01*
X20185167Y11664838D01*
X20528943Y11806883D01*
X20792192Y12069673D01*
X20934838Y12413201D01*
X20934934Y12523560D01*
X21648758Y12523560D01*
X20762599Y11637401D01*
X20597852Y11390839D01*
X20540000Y11100000D01*
X20540000Y9782502D01*
X20530327Y9792192D01*
X20186799Y9934838D01*
X19814833Y9935162D01*
X19471057Y9793117D01*
X19207808Y9530327D01*
X19065162Y9186799D01*
X19064838Y8814833D01*
X19206883Y8471057D01*
X19469673Y8207808D01*
X19813201Y8065162D01*
X19860076Y8065121D01*
X19940000Y7985197D01*
X19940000Y3900000D01*
X19997852Y3609161D01*
X20162599Y3362599D01*
X20762599Y2762599D01*
X21009161Y2597852D01*
X21300000Y2540000D01*
X22100000Y2540000D01*
X22390839Y2597852D01*
X22637401Y2762599D01*
X23037401Y3162599D01*
X23202148Y3409160D01*
X23214460Y3471057D01*
X23260000Y3700000D01*
X23260000Y3954442D01*
X23485317Y3996838D01*
X23701441Y4135910D01*
X23846431Y4348110D01*
X23897440Y4600000D01*
X23897440Y6100000D01*
X23853162Y6335317D01*
X23714090Y6551441D01*
X23501890Y6696431D01*
X23250000Y6747440D01*
X22060000Y6747440D01*
X22060000Y7252560D01*
X23250000Y7252560D01*
X23485317Y7296838D01*
X23701441Y7435910D01*
X23846431Y7648110D01*
X23895415Y7890000D01*
X26976000Y7890000D01*
X27266839Y7947852D01*
X27486404Y8094560D01*
X28068000Y8094560D01*
X28303317Y8138838D01*
X28519441Y8277910D01*
X28664431Y8490110D01*
X28715440Y8742000D01*
X28715440Y9442000D01*
X28671162Y9677317D01*
X28532090Y9893441D01*
X28319890Y10038431D01*
X28306803Y10041081D01*
X28519441Y10177910D01*
X28664431Y10390110D01*
X28715440Y10642000D01*
X28715440Y10677292D01*
X28745868Y10656961D01*
X28944673Y10457808D01*
X29288201Y10315162D01*
X29660167Y10314838D01*
X30003943Y10456883D01*
X30267192Y10719673D01*
X30395801Y11029397D01*
X31362599Y10062599D01*
X31482524Y9982468D01*
X31298559Y9864090D01*
X31153569Y9651890D01*
X31102560Y9400000D01*
X31102560Y8327362D01*
X30209198Y7434000D01*
X28558757Y7434000D01*
X28532090Y7475441D01*
X28319890Y7620431D01*
X28068000Y7671440D01*
X26768000Y7671440D01*
X26532683Y7627162D01*
X26316559Y7488090D01*
X26171569Y7275890D01*
X26120560Y7024000D01*
X26120560Y6324000D01*
X26164838Y6088683D01*
X26303910Y5872559D01*
X26516110Y5727569D01*
X26549490Y5720809D01*
X26408301Y5662327D01*
X26229673Y5483698D01*
X26133000Y5250309D01*
X26133000Y5059750D01*
X26291750Y4901000D01*
X27291000Y4901000D01*
X27291000Y4921000D01*
X27545000Y4921000D01*
X27545000Y4901000D01*
X28544250Y4901000D01*
X28703000Y5059750D01*
X28703000Y5250309D01*
X28606327Y5483698D01*
X28427699Y5662327D01*
X28291713Y5718654D01*
X28303317Y5720838D01*
X28519441Y5859910D01*
X28556399Y5914000D01*
X30524000Y5914000D01*
X30814839Y5971852D01*
X31061401Y6136599D01*
X31122305Y6197503D01*
X31102560Y6100000D01*
X31102560Y4600000D01*
X31121982Y4496784D01*
X30835200Y4210002D01*
X28666678Y4210002D01*
X28703000Y4297691D01*
X28703000Y4488250D01*
X28544250Y4647000D01*
X27545000Y4647000D01*
X27545000Y4627000D01*
X27291000Y4627000D01*
X27291000Y4647000D01*
X26291750Y4647000D01*
X26133000Y4488250D01*
X26133000Y4297691D01*
X26229673Y4064302D01*
X26333668Y3960306D01*
X26171057Y3893117D01*
X25907808Y3630327D01*
X25765162Y3286799D01*
X25764838Y2914833D01*
X25860613Y2683040D01*
X25807808Y2630327D01*
X25665162Y2286799D01*
X25664838Y1914833D01*
X25806883Y1571057D01*
X26069673Y1307808D01*
X26413201Y1165162D01*
X26785167Y1164838D01*
X27128943Y1306883D01*
X27392192Y1569673D01*
X27534838Y1913201D01*
X27534879Y1960077D01*
X27814802Y2240000D01*
X38900000Y2240000D01*
X39190839Y2297852D01*
X39437401Y2462599D01*
X40872928Y3898126D01*
X46543881Y3898126D01*
X46705116Y3555595D01*
X47022731Y3247648D01*
X47434015Y3084688D01*
X47611000Y3225259D01*
X47611000Y4073000D01*
X47865000Y4073000D01*
X47865000Y3225259D01*
X48041985Y3084688D01*
X48453269Y3247648D01*
X48770884Y3555595D01*
X48932119Y3898126D01*
X48805954Y4073000D01*
X47865000Y4073000D01*
X47611000Y4073000D01*
X46670046Y4073000D01*
X46543881Y3898126D01*
X40872928Y3898126D01*
X41222266Y4247464D01*
X41285910Y4148559D01*
X41498110Y4003569D01*
X41750000Y3952560D01*
X43250000Y3952560D01*
X43485317Y3996838D01*
X43701441Y4135910D01*
X43831798Y4326695D01*
X50614674Y4326695D01*
X50901043Y3633628D01*
X51430839Y3102907D01*
X52123405Y2815328D01*
X52873305Y2814674D01*
X53566372Y3101043D01*
X54097093Y3630839D01*
X54384672Y4323405D01*
X54385326Y5073305D01*
X54098957Y5766372D01*
X53569161Y6297093D01*
X52876595Y6584672D01*
X52126695Y6585326D01*
X51433628Y6298957D01*
X50902907Y5769161D01*
X50615328Y5076595D01*
X50614674Y4326695D01*
X43831798Y4326695D01*
X43846431Y4348110D01*
X43897440Y4600000D01*
X43897440Y6100000D01*
X43853162Y6335317D01*
X43714090Y6551441D01*
X43501890Y6696431D01*
X43250000Y6747440D01*
X41750000Y6747440D01*
X41654220Y6729418D01*
X42177362Y7252560D01*
X43250000Y7252560D01*
X43485317Y7296838D01*
X43701441Y7435910D01*
X43846431Y7648110D01*
X43897440Y7900000D01*
X43897440Y9400000D01*
X43853162Y9635317D01*
X43714090Y9851441D01*
X43501890Y9996431D01*
X43250000Y10047440D01*
X41922242Y10047440D01*
X42214802Y10340000D01*
X49362560Y10340000D01*
X49362560Y9350000D01*
X49406838Y9114683D01*
X49545910Y8898559D01*
X49758110Y8753569D01*
X50010000Y8702560D01*
X50592402Y8702560D01*
X48363623Y6473781D01*
X48296541Y6518603D01*
X47862195Y6605000D01*
X47613805Y6605000D01*
X47179459Y6518603D01*
X46811239Y6272566D01*
X46565202Y5904346D01*
X46478805Y5470000D01*
X46565202Y5035654D01*
X46700104Y4833758D01*
X46543881Y4501874D01*
X46670046Y4327000D01*
X47611000Y4327000D01*
X47611000Y4335558D01*
X47613805Y4335000D01*
X47862195Y4335000D01*
X47865000Y4335558D01*
X47865000Y4327000D01*
X48805954Y4327000D01*
X48932119Y4501874D01*
X48806453Y4768840D01*
X49025079Y4914921D01*
X51675158Y7565000D01*
X57552560Y7565000D01*
X57552560Y5765000D01*
X57596838Y5529683D01*
X57735910Y5313559D01*
X57948110Y5168569D01*
X58200000Y5117560D01*
X61800000Y5117560D01*
X62035317Y5161838D01*
X62251441Y5300910D01*
X62396431Y5513110D01*
X62447440Y5765000D01*
X62447440Y7565000D01*
X62403162Y7800317D01*
X62264090Y8016441D01*
X62051890Y8161431D01*
X61800000Y8212440D01*
X58200000Y8212440D01*
X57964683Y8168162D01*
X57748559Y8029090D01*
X57603569Y7816890D01*
X57552560Y7565000D01*
X51675158Y7565000D01*
X51725158Y7615000D01*
X52300000Y7615000D01*
X52600407Y7674755D01*
X52855079Y7844921D01*
X53355079Y8344921D01*
X53525245Y8599594D01*
X53585000Y8900000D01*
X53585000Y10362494D01*
X53592192Y10369673D01*
X53734838Y10713201D01*
X53734926Y10814250D01*
X53955000Y10814250D01*
X53955000Y9223690D01*
X54051673Y8990301D01*
X54230302Y8811673D01*
X54463691Y8715000D01*
X55304250Y8715000D01*
X55463000Y8873750D01*
X55463000Y10973000D01*
X55717000Y10973000D01*
X55717000Y8873750D01*
X55875750Y8715000D01*
X56716309Y8715000D01*
X56949698Y8811673D01*
X57128327Y8990301D01*
X57225000Y9223690D01*
X57225000Y10475000D01*
X57517296Y10475000D01*
X57634141Y9887581D01*
X57966887Y9389591D01*
X58464877Y9056845D01*
X59052296Y8940000D01*
X60947704Y8940000D01*
X61535123Y9056845D01*
X62033113Y9389591D01*
X62365859Y9887581D01*
X62482704Y10475000D01*
X62365859Y11062419D01*
X62033113Y11560409D01*
X61535123Y11893155D01*
X60947704Y12010000D01*
X59052296Y12010000D01*
X58464877Y11893155D01*
X57966887Y11560409D01*
X57634141Y11062419D01*
X57517296Y10475000D01*
X57225000Y10475000D01*
X57225000Y10814250D01*
X57066250Y10973000D01*
X55717000Y10973000D01*
X55463000Y10973000D01*
X54113750Y10973000D01*
X53955000Y10814250D01*
X53734926Y10814250D01*
X53735162Y11085167D01*
X53593117Y11428943D01*
X53330327Y11692192D01*
X52986799Y11834838D01*
X52657440Y11835125D01*
X52657440Y12850000D01*
X52633674Y12976310D01*
X53955000Y12976310D01*
X53955000Y11385750D01*
X54113750Y11227000D01*
X55463000Y11227000D01*
X55463000Y13326250D01*
X55717000Y13326250D01*
X55717000Y11227000D01*
X57066250Y11227000D01*
X57225000Y11385750D01*
X57225000Y12976310D01*
X57128327Y13209699D01*
X56949698Y13388327D01*
X56716309Y13485000D01*
X55875750Y13485000D01*
X55717000Y13326250D01*
X55463000Y13326250D01*
X55304250Y13485000D01*
X54463691Y13485000D01*
X54230302Y13388327D01*
X54051673Y13209699D01*
X53955000Y12976310D01*
X52633674Y12976310D01*
X52613162Y13085317D01*
X52474090Y13301441D01*
X52261890Y13446431D01*
X52010000Y13497440D01*
X50010000Y13497440D01*
X49774683Y13453162D01*
X49558559Y13314090D01*
X49413569Y13101890D01*
X49400024Y13035001D01*
X49214833Y13035162D01*
X48871057Y12893117D01*
X48607808Y12630327D01*
X48547463Y12485000D01*
X46025158Y12485000D01*
X41835153Y16675005D01*
X41835162Y16685167D01*
X41693117Y17028943D01*
X41430327Y17292192D01*
X41086799Y17434838D01*
X40714833Y17435162D01*
X40371057Y17293117D01*
X40107808Y17030327D01*
X39965162Y16686799D01*
X39964838Y16314833D01*
X40106883Y15971057D01*
X40369673Y15707808D01*
X40713201Y15565162D01*
X40724690Y15565152D01*
X44429842Y11860000D01*
X41900000Y11860000D01*
X41609160Y11802148D01*
X41362599Y11637401D01*
X40385198Y10660000D01*
X39682327Y10660000D01*
X39792192Y10769673D01*
X39934838Y11113201D01*
X39935162Y11485167D01*
X39935000Y11485559D01*
X39935000Y16400000D01*
X39863827Y16757809D01*
X39661145Y17061145D01*
X38513290Y18209000D01*
X39822250Y18209000D01*
X39981000Y18367750D01*
X39981000Y22217000D01*
X40235000Y22217000D01*
X40235000Y18367750D01*
X40393750Y18209000D01*
X43734309Y18209000D01*
X43967698Y18305673D01*
X44146327Y18484301D01*
X44243000Y18717690D01*
X44243000Y22058250D01*
X44084250Y22217000D01*
X40235000Y22217000D01*
X39981000Y22217000D01*
X36131750Y22217000D01*
X35973000Y22058250D01*
X35973000Y18717690D01*
X36069673Y18484301D01*
X36248302Y18305673D01*
X36265085Y18298721D01*
X36264838Y18014833D01*
X36406883Y17671057D01*
X36669673Y17407808D01*
X36670065Y17407645D01*
X38065000Y16012710D01*
X38065000Y12123949D01*
X37949000Y12147440D01*
X36699000Y12147440D01*
X36463683Y12103162D01*
X36247559Y11964090D01*
X36102569Y11751890D01*
X36051560Y11500000D01*
X36051560Y10660000D01*
X34214803Y10660000D01*
X33737401Y11137401D01*
X33490839Y11302148D01*
X33200000Y11360000D01*
X32214802Y11360000D01*
X28635122Y14939680D01*
X28635162Y14985167D01*
X28493117Y15328943D01*
X28230327Y15592192D01*
X27886799Y15734838D01*
X27514833Y15735162D01*
X27171057Y15593117D01*
X26907808Y15330327D01*
X26765162Y14986799D01*
X26764838Y14614833D01*
X26906883Y14271057D01*
X27169673Y14007808D01*
X27513201Y13865162D01*
X27560077Y13865121D01*
X27799403Y13625795D01*
X27536799Y13734838D01*
X27164833Y13735162D01*
X26821057Y13593117D01*
X26557808Y13330327D01*
X26439468Y13045334D01*
X25160000Y14324802D01*
X25160000Y17178396D01*
X25228943Y17206883D01*
X25492192Y17469673D01*
X25634838Y17813201D01*
X25635162Y18185167D01*
X25493117Y18528943D01*
X25368598Y18653679D01*
X25434838Y18813201D01*
X25434857Y18835000D01*
X25862250Y18835000D01*
X26021000Y18993750D01*
X26021000Y21343000D01*
X26275000Y21343000D01*
X26275000Y18993750D01*
X26433750Y18835000D01*
X27524310Y18835000D01*
X27757699Y18931673D01*
X27936327Y19110302D01*
X28033000Y19343691D01*
X28033000Y21184250D01*
X30867000Y21184250D01*
X30867000Y19343691D01*
X30963673Y19110302D01*
X31142301Y18931673D01*
X31375690Y18835000D01*
X32466250Y18835000D01*
X32625000Y18993750D01*
X32625000Y21343000D01*
X32879000Y21343000D01*
X32879000Y18993750D01*
X33037750Y18835000D01*
X34128310Y18835000D01*
X34361699Y18931673D01*
X34540327Y19110302D01*
X34637000Y19343691D01*
X34637000Y21184250D01*
X34478250Y21343000D01*
X32879000Y21343000D01*
X32625000Y21343000D01*
X31025750Y21343000D01*
X30867000Y21184250D01*
X28033000Y21184250D01*
X27874250Y21343000D01*
X26275000Y21343000D01*
X26021000Y21343000D01*
X24421750Y21343000D01*
X24263000Y21184250D01*
X24263000Y19913745D01*
X23971057Y19793117D01*
X23707808Y19530327D01*
X23565162Y19186799D01*
X23565121Y19139923D01*
X22612551Y18187353D01*
X22625440Y18251000D01*
X22625440Y18851000D01*
X22581162Y19086317D01*
X22517322Y19185528D01*
X22574431Y19269110D01*
X22625440Y19521000D01*
X22625440Y20121000D01*
X22581162Y20356317D01*
X22517322Y20455528D01*
X22574431Y20539110D01*
X22625440Y20791000D01*
X22625440Y21391000D01*
X22581162Y21626317D01*
X22517322Y21725528D01*
X22574431Y21809110D01*
X22625440Y22061000D01*
X22625440Y22506860D01*
X23714888Y23596309D01*
X24263000Y23596309D01*
X24263000Y21755750D01*
X24421750Y21597000D01*
X26021000Y21597000D01*
X26021000Y23946250D01*
X25862250Y24105000D01*
X24771690Y24105000D01*
X24538301Y24008327D01*
X24359673Y23829698D01*
X24263000Y23596309D01*
X23714888Y23596309D01*
X25041139Y24922560D01*
X26325860Y24922560D01*
X27143421Y24105000D01*
X26433750Y24105000D01*
X26275000Y23946250D01*
X26275000Y21597000D01*
X27874250Y21597000D01*
X28033000Y21755750D01*
X28033000Y21865058D01*
X28285167Y21864838D01*
X28628943Y22006883D01*
X28892192Y22269673D01*
X29034838Y22613201D01*
X29035162Y22985167D01*
X28893117Y23328943D01*
X28860000Y23362118D01*
X28860000Y23515000D01*
X30867000Y23515000D01*
X30867000Y21755750D01*
X31025750Y21597000D01*
X32625000Y21597000D01*
X32625000Y21617000D01*
X32879000Y21617000D01*
X32879000Y21597000D01*
X34478250Y21597000D01*
X34637000Y21755750D01*
X34637000Y23596309D01*
X34598532Y23689179D01*
X34725790Y23774210D01*
X35725787Y24774208D01*
X35725790Y24774210D01*
X35876657Y25000000D01*
X35917634Y25061326D01*
X35973000Y25339667D01*
X35973000Y22629750D01*
X36131750Y22471000D01*
X39981000Y22471000D01*
X39981000Y22491000D01*
X40235000Y22491000D01*
X40235000Y22471000D01*
X44084250Y22471000D01*
X44243000Y22629750D01*
X44243000Y25815000D01*
X44562494Y25815000D01*
X44569673Y25807808D01*
X44852560Y25690342D01*
X44852560Y23800000D01*
X44896838Y23564683D01*
X45035910Y23348559D01*
X45248110Y23203569D01*
X45500000Y23152560D01*
X47747428Y23152560D01*
X46842308Y22247440D01*
X46100000Y22247440D01*
X46036102Y22235417D01*
X46018117Y22278943D01*
X45755327Y22542192D01*
X45411799Y22684838D01*
X45039833Y22685162D01*
X44696057Y22543117D01*
X44432808Y22280327D01*
X44290162Y21936799D01*
X44289838Y21564833D01*
X44431883Y21221057D01*
X44465000Y21187882D01*
X44465000Y17687463D01*
X44432808Y17655327D01*
X44290162Y17311799D01*
X44289838Y16939833D01*
X44431883Y16596057D01*
X44694673Y16332808D01*
X45038201Y16190162D01*
X45410167Y16189838D01*
X45452560Y16207354D01*
X45452560Y13600000D01*
X45496838Y13364683D01*
X45635910Y13148559D01*
X45848110Y13003569D01*
X46100000Y12952560D01*
X48100000Y12952560D01*
X48335317Y12996838D01*
X48551441Y13135910D01*
X48696431Y13348110D01*
X48747440Y13600000D01*
X48747440Y13920260D01*
X57608964Y13920260D01*
X57633244Y13814914D01*
X57924788Y13289394D01*
X58395248Y12915446D01*
X58973000Y12750000D01*
X59873000Y12750000D01*
X59873000Y14158000D01*
X60127000Y14158000D01*
X60127000Y12750000D01*
X61027000Y12750000D01*
X61604752Y12915446D01*
X62075212Y13289394D01*
X62366756Y13814914D01*
X62391036Y13920260D01*
X62270378Y14158000D01*
X60127000Y14158000D01*
X59873000Y14158000D01*
X57729622Y14158000D01*
X57608964Y13920260D01*
X48747440Y13920260D01*
X48747440Y15142308D01*
X49162560Y15557428D01*
X49162560Y15000000D01*
X49206838Y14764683D01*
X49345910Y14548559D01*
X49558110Y14403569D01*
X49810000Y14352560D01*
X56810000Y14352560D01*
X57045317Y14396838D01*
X57261441Y14535910D01*
X57339217Y14649740D01*
X57608964Y14649740D01*
X57729622Y14412000D01*
X59873000Y14412000D01*
X59873000Y15820000D01*
X60127000Y15820000D01*
X60127000Y14412000D01*
X62270378Y14412000D01*
X62391036Y14649740D01*
X62366756Y14755086D01*
X62075212Y15280606D01*
X61604752Y15654554D01*
X61027000Y15820000D01*
X60127000Y15820000D01*
X59873000Y15820000D01*
X58973000Y15820000D01*
X58395248Y15654554D01*
X57924788Y15280606D01*
X57633244Y14755086D01*
X57608964Y14649740D01*
X57339217Y14649740D01*
X57406431Y14748110D01*
X57457440Y15000000D01*
X57457440Y18095000D01*
X57517296Y18095000D01*
X57634141Y17507581D01*
X57966887Y17009591D01*
X58464877Y16676845D01*
X59052296Y16560000D01*
X60947704Y16560000D01*
X61535123Y16676845D01*
X62033113Y17009591D01*
X62365859Y17507581D01*
X62482704Y18095000D01*
X62365859Y18682419D01*
X62033113Y19180409D01*
X61535123Y19513155D01*
X60947704Y19630000D01*
X59052296Y19630000D01*
X58464877Y19513155D01*
X57966887Y19180409D01*
X57634141Y18682419D01*
X57517296Y18095000D01*
X57457440Y18095000D01*
X57457440Y21905000D01*
X57517296Y21905000D01*
X57634141Y21317581D01*
X57966887Y20819591D01*
X58464877Y20486845D01*
X59052296Y20370000D01*
X60947704Y20370000D01*
X61535123Y20486845D01*
X62033113Y20819591D01*
X62365859Y21317581D01*
X62482704Y21905000D01*
X62365859Y22492419D01*
X62033113Y22990409D01*
X61535123Y23323155D01*
X60947704Y23440000D01*
X59052296Y23440000D01*
X58464877Y23323155D01*
X57966887Y22990409D01*
X57634141Y22492419D01*
X57517296Y21905000D01*
X57457440Y21905000D01*
X57457440Y22000000D01*
X57413162Y22235317D01*
X57274090Y22451441D01*
X57061890Y22596431D01*
X56810000Y22647440D01*
X50452572Y22647440D01*
X50957692Y23152560D01*
X53500000Y23152560D01*
X53735317Y23196838D01*
X53951441Y23335910D01*
X54096431Y23548110D01*
X54147440Y23800000D01*
X54147440Y24925000D01*
X54417569Y24925000D01*
X54479000Y24912560D01*
X55729000Y24912560D01*
X55795113Y24925000D01*
X57769501Y24925000D01*
X57966887Y24629591D01*
X58464877Y24296845D01*
X59052296Y24180000D01*
X60947704Y24180000D01*
X61535123Y24296845D01*
X62033113Y24629591D01*
X62365859Y25127581D01*
X62482704Y25715000D01*
X62365859Y26302419D01*
X62033113Y26800409D01*
X61535123Y27133155D01*
X60947704Y27250000D01*
X59052296Y27250000D01*
X58775793Y27195000D01*
X56248146Y27195000D01*
X56325431Y27308110D01*
X56376440Y27560000D01*
X56376440Y28106308D01*
X57668130Y29397998D01*
X57729621Y29397998D01*
X57608964Y29160260D01*
X57633244Y29054914D01*
X57924788Y28529394D01*
X58395248Y28155446D01*
X58973000Y27990000D01*
X59873000Y27990000D01*
X59873000Y29398000D01*
X60127000Y29398000D01*
X60127000Y27990000D01*
X61027000Y27990000D01*
X61604752Y28155446D01*
X62075212Y28529394D01*
X62366756Y29054914D01*
X62391036Y29160260D01*
X62270378Y29398000D01*
X60127000Y29398000D01*
X59873000Y29398000D01*
X59853000Y29398000D01*
X59853000Y29652000D01*
X59873000Y29652000D01*
X59873000Y31060000D01*
X60127000Y31060000D01*
X60127000Y29652000D01*
X62270378Y29652000D01*
X62391036Y29889740D01*
X62366756Y29995086D01*
X62075212Y30520606D01*
X61604752Y30894554D01*
X61027000Y31060000D01*
X60127000Y31060000D01*
X59873000Y31060000D01*
X59330132Y31060000D01*
X60070132Y31800000D01*
X60947704Y31800000D01*
X61535123Y31916845D01*
X62033113Y32249591D01*
X62365859Y32747581D01*
X62482704Y33335000D01*
X62365859Y33922419D01*
X62033113Y34420409D01*
X61535123Y34753155D01*
X60947704Y34870000D01*
X59052296Y34870000D01*
X58464877Y34753155D01*
X57966887Y34420409D01*
X57634141Y33922419D01*
X57517296Y33335000D01*
X57634141Y32747581D01*
X57703558Y32643690D01*
X56808811Y31748943D01*
X56693117Y32028943D01*
X56430327Y32292192D01*
X56086799Y32434838D01*
X55714833Y32435162D01*
X55371057Y32293117D01*
X55262751Y32185000D01*
X48800005Y32185000D01*
X48800000Y32185001D01*
X48517516Y32128810D01*
X48461325Y32117633D01*
X48174210Y31925790D01*
X48174208Y31925787D01*
X47495861Y31247440D01*
X45516000Y31247440D01*
X45280683Y31203162D01*
X45064559Y31064090D01*
X44938092Y30879000D01*
X44055440Y30879000D01*
X44055440Y31494000D01*
X44011162Y31729317D01*
X43872090Y31945441D01*
X43659890Y32090431D01*
X43408000Y32141440D01*
X41408000Y32141440D01*
X41172683Y32097162D01*
X40956559Y31958090D01*
X40811569Y31745890D01*
X40760560Y31494000D01*
X40760560Y27994000D01*
X40804838Y27758683D01*
X40916600Y27585000D01*
X39317082Y27585000D01*
X39424431Y27742110D01*
X39475440Y27994000D01*
X39475440Y31494000D01*
X39431162Y31729317D01*
X39292090Y31945441D01*
X39079890Y32090431D01*
X38828000Y32141440D01*
X36828000Y32141440D01*
X36592683Y32097162D01*
X36376559Y31958090D01*
X36231569Y31745890D01*
X36180560Y31494000D01*
X36180560Y29701693D01*
X35435868Y28957000D01*
X34649440Y28957000D01*
X34649440Y29570000D01*
X34605162Y29805317D01*
X34466090Y30021441D01*
X34253890Y30166431D01*
X34002000Y30217440D01*
X31961692Y30217440D01*
X30506566Y31672566D01*
X30389181Y31751000D01*
X30138346Y31918603D01*
X29704000Y32005000D01*
X23100000Y32005000D01*
X22665654Y31918603D01*
X22414819Y31751000D01*
X22297434Y31672566D01*
X21609868Y30985000D01*
X19172038Y30985000D01*
X19153162Y31085317D01*
X19014090Y31301441D01*
X18935000Y31355481D01*
X18935000Y31598000D01*
X18848603Y32032346D01*
X18602566Y32400566D01*
X17806566Y33196566D01*
X17599385Y33335000D01*
X17438346Y33442603D01*
X17004000Y33529000D01*
X12432000Y33529000D01*
X12119060Y33466752D01*
X12204803Y33673244D01*
X12204804Y33675225D01*
X17914803Y33675225D01*
X18087233Y33257914D01*
X18406235Y32938355D01*
X18823244Y32765197D01*
X19274775Y32764803D01*
X19692086Y32937233D01*
X20011645Y33256235D01*
X20184803Y33673244D01*
X20185197Y34124775D01*
X20060446Y34426695D01*
X25764674Y34426695D01*
X26051043Y33733628D01*
X26580839Y33202907D01*
X27273405Y32915328D01*
X28023305Y32914674D01*
X28716372Y33201043D01*
X29247093Y33730839D01*
X29534672Y34423405D01*
X29535326Y35173305D01*
X29248957Y35866372D01*
X28719161Y36397093D01*
X28026595Y36684672D01*
X27276695Y36685326D01*
X26583628Y36398957D01*
X26052907Y35869161D01*
X25765328Y35176595D01*
X25764674Y34426695D01*
X20060446Y34426695D01*
X20012767Y34542086D01*
X19693765Y34861645D01*
X19276756Y35034803D01*
X18825225Y35035197D01*
X18407914Y34862767D01*
X18088355Y34543765D01*
X17915197Y34126756D01*
X17914803Y33675225D01*
X12204804Y33675225D01*
X12205197Y34124775D01*
X12032767Y34542086D01*
X11713765Y34861645D01*
X11296756Y35034803D01*
X10845225Y35035197D01*
X10427914Y34862767D01*
X10108355Y34543765D01*
X9935197Y34126756D01*
X9934803Y33675225D01*
X10107233Y33257914D01*
X10426235Y32938355D01*
X10843244Y32765197D01*
X11197756Y32764888D01*
X10678405Y32245537D01*
X10590000Y32263440D01*
X7590000Y32263440D01*
X7354683Y32219162D01*
X7138559Y32080090D01*
X6993569Y31867890D01*
X6942560Y31616000D01*
X6942560Y29616000D01*
X6986838Y29380683D01*
X7125910Y29164559D01*
X7338110Y29019569D01*
X7590000Y28968560D01*
X10590000Y28968560D01*
X10825317Y29012838D01*
X11041441Y29151910D01*
X11186431Y29364110D01*
X11226960Y29564250D01*
X11815000Y29564250D01*
X11815000Y28723691D01*
X11911673Y28490302D01*
X12090301Y28311673D01*
X12323690Y28215000D01*
X12914250Y28215000D01*
X13073000Y28373750D01*
X13073000Y29723000D01*
X11973750Y29723000D01*
X11815000Y29564250D01*
X11226960Y29564250D01*
X11237440Y29616000D01*
X11237440Y29667019D01*
X11456566Y29813434D01*
X11815000Y30171868D01*
X11815000Y30135750D01*
X11973750Y29977000D01*
X13073000Y29977000D01*
X13073000Y29997000D01*
X13327000Y29997000D01*
X13327000Y29977000D01*
X13347000Y29977000D01*
X13347000Y29723000D01*
X13327000Y29723000D01*
X13327000Y28373750D01*
X13485750Y28215000D01*
X14076310Y28215000D01*
X14309699Y28311673D01*
X14351660Y28353634D01*
X14498110Y28253569D01*
X14750000Y28202560D01*
X15018308Y28202560D01*
X15041868Y28179000D01*
X14728690Y28179000D01*
X14495301Y28082327D01*
X14316673Y27903698D01*
X14220000Y27670309D01*
X14220000Y27329750D01*
X14378750Y27171000D01*
X15353000Y27171000D01*
X15353000Y27191000D01*
X15607000Y27191000D01*
X15607000Y27171000D01*
X15627000Y27171000D01*
X15627000Y26917000D01*
X15607000Y26917000D01*
X15607000Y26897000D01*
X15353000Y26897000D01*
X15353000Y26917000D01*
X14378750Y26917000D01*
X14220000Y26758250D01*
X14220000Y26417691D01*
X14316673Y26184302D01*
X14457910Y26043064D01*
X14403559Y26008090D01*
X14258569Y25795890D01*
X14207560Y25544000D01*
X14207560Y24544000D01*
X14251838Y24308683D01*
X14390910Y24092559D01*
X14603110Y23947569D01*
X14855000Y23896560D01*
X16105000Y23896560D01*
X16340317Y23940838D01*
X16556441Y24079910D01*
X16701431Y24292110D01*
X16752440Y24544000D01*
X16752440Y25544000D01*
X16708162Y25779317D01*
X16569090Y25995441D01*
X16500994Y26041969D01*
X16643327Y26184302D01*
X16740000Y26417691D01*
X16740000Y26575957D01*
X16821654Y26521397D01*
X17256000Y26435000D01*
X18620000Y26435000D01*
X19054346Y26521397D01*
X19422566Y26767434D01*
X19995132Y27340000D01*
X24250560Y27340000D01*
X24250560Y26635139D01*
X20923860Y23308440D01*
X20478000Y23308440D01*
X20242683Y23264162D01*
X20026559Y23125090D01*
X20013426Y23105870D01*
X19835210Y22986790D01*
X19835208Y22986787D01*
X19761579Y22913158D01*
X19471057Y22793117D01*
X19207808Y22530327D01*
X19086424Y22238004D01*
X19074210Y22225790D01*
X18960000Y22054862D01*
X18960000Y23585198D01*
X20539680Y25164878D01*
X20585167Y25164838D01*
X20928943Y25306883D01*
X21192192Y25569673D01*
X21334838Y25913201D01*
X21335162Y26285167D01*
X21193117Y26628943D01*
X20930327Y26892192D01*
X20586799Y27034838D01*
X20214833Y27035162D01*
X19871057Y26893117D01*
X19607808Y26630327D01*
X19465162Y26286799D01*
X19465121Y26239923D01*
X19323777Y26098579D01*
X19230327Y26192192D01*
X18886799Y26334838D01*
X18514833Y26335162D01*
X18171057Y26193117D01*
X17907808Y25930327D01*
X17765162Y25586799D01*
X17765121Y25539923D01*
X17162599Y24937401D01*
X16997852Y24690839D01*
X16940000Y24400000D01*
X16940000Y23197025D01*
X16937698Y23199327D01*
X16704309Y23296000D01*
X16113750Y23296000D01*
X15955000Y23137250D01*
X15955000Y22488000D01*
X15975000Y22488000D01*
X15975000Y22234000D01*
X15955000Y22234000D01*
X15955000Y22214000D01*
X15701000Y22214000D01*
X15701000Y22234000D01*
X14601750Y22234000D01*
X14443000Y22075250D01*
X14443000Y21934690D01*
X14532806Y21717878D01*
X14481569Y21642890D01*
X14430560Y21391000D01*
X14430560Y21310242D01*
X12953492Y22787310D01*
X14443000Y22787310D01*
X14443000Y22646750D01*
X14601750Y22488000D01*
X15701000Y22488000D01*
X15701000Y23137250D01*
X15542250Y23296000D01*
X14951691Y23296000D01*
X14718302Y23199327D01*
X14539673Y23020699D01*
X14443000Y22787310D01*
X12953492Y22787310D01*
X12715401Y23025401D01*
X12468839Y23190148D01*
X12178000Y23248000D01*
X10146000Y23248000D01*
X9855161Y23190148D01*
X9608599Y23025401D01*
X9248418Y22665220D01*
X9223735Y22665242D01*
X8710828Y22453313D01*
X8318066Y22061236D01*
X8105242Y21548700D01*
X8104758Y20993735D01*
X8316687Y20480828D01*
X8708764Y20088066D01*
X8904934Y20006609D01*
X8770059Y19950742D01*
X8700841Y19708764D01*
X9500000Y18909605D01*
X10299159Y19708764D01*
X10229941Y19950742D01*
X10085138Y20002382D01*
X10289172Y20086687D01*
X10500024Y20297171D01*
X10708764Y20088066D01*
X10920738Y20000046D01*
X10710828Y19913313D01*
X10318066Y19521236D01*
X10209581Y19259976D01*
X9679605Y18730000D01*
X9693748Y18715857D01*
X9514143Y18536252D01*
X9500000Y18550395D01*
X9485858Y18536252D01*
X9306253Y18715857D01*
X9320395Y18730000D01*
X8521236Y19529159D01*
X8279258Y19459941D01*
X8092845Y18937220D01*
X8120659Y18382951D01*
X8279258Y18000059D01*
X8521234Y17930842D01*
X8406216Y17815824D01*
X8441040Y17781000D01*
X7822132Y17781000D01*
X5225000Y20378132D01*
X5225000Y24594407D01*
X5574012Y24594407D01*
X5715478Y24291218D01*
X6451955Y24006263D01*
X7241418Y24024836D01*
X7884522Y24291218D01*
X8025988Y24594407D01*
X6800000Y25820395D01*
X5574012Y24594407D01*
X5225000Y24594407D01*
X5225000Y24853056D01*
X5394407Y24774012D01*
X6620395Y26000000D01*
X6979605Y26000000D01*
X8205593Y24774012D01*
X8508782Y24915478D01*
X8793737Y25651955D01*
X8775164Y26441418D01*
X8508782Y27084522D01*
X8205593Y27225988D01*
X6979605Y26000000D01*
X6620395Y26000000D01*
X5394407Y27225988D01*
X5225000Y27146944D01*
X5225000Y27405593D01*
X5574012Y27405593D01*
X6800000Y26179605D01*
X8025988Y27405593D01*
X7884522Y27708782D01*
X7148045Y27993737D01*
X6358582Y27975164D01*
X5715478Y27708782D01*
X5574012Y27405593D01*
X5225000Y27405593D01*
X5225000Y28968560D01*
X5590000Y28968560D01*
X5825317Y29012838D01*
X6041441Y29151910D01*
X6186431Y29364110D01*
X6237440Y29616000D01*
X6237440Y31616000D01*
X6193162Y31851317D01*
X6054090Y32067441D01*
X5841890Y32212431D01*
X5590000Y32263440D01*
X2590000Y32263440D01*
X2354683Y32219162D01*
X2138559Y32080090D01*
X1993569Y31867890D01*
X1942560Y31616000D01*
X685000Y31616000D01*
X685000Y35326695D01*
X2614674Y35326695D01*
X2901043Y34633628D01*
X3430839Y34102907D01*
X4123405Y33815328D01*
X4873305Y33814674D01*
X5566372Y34101043D01*
X6097093Y34630839D01*
X6384672Y35323405D01*
X6385326Y36073305D01*
X6098957Y36766372D01*
X5715998Y37150000D01*
X12952560Y37150000D01*
X12952560Y35150000D01*
X12996838Y34914683D01*
X13135910Y34698559D01*
X13348110Y34553569D01*
X13600000Y34502560D01*
X17400000Y34502560D01*
X17635317Y34546838D01*
X17851441Y34685910D01*
X17996431Y34898110D01*
X18047440Y35150000D01*
X18047440Y37150000D01*
X18003162Y37385317D01*
X17864090Y37601441D01*
X17651890Y37746431D01*
X17400000Y37797440D01*
X13600000Y37797440D01*
X13364683Y37753162D01*
X13148559Y37614090D01*
X13003569Y37401890D01*
X12952560Y37150000D01*
X5715998Y37150000D01*
X5569161Y37297093D01*
X4876595Y37584672D01*
X4126695Y37585326D01*
X3433628Y37298957D01*
X2902907Y36769161D01*
X2615328Y36076595D01*
X2614674Y35326695D01*
X685000Y35326695D01*
X685000Y36932533D01*
X873617Y37880777D01*
X1372537Y38627463D01*
X2119225Y39126383D01*
X3067467Y39315000D01*
X29565000Y39315000D01*
X29565000Y33700000D01*
G36*
X41102560Y8327362D02*
X40209198Y7434000D01*
X38464757Y7434000D01*
X38438090Y7475441D01*
X38225890Y7620431D01*
X37974000Y7671440D01*
X36674000Y7671440D01*
X36438683Y7627162D01*
X36222559Y7488090D01*
X36077569Y7275890D01*
X36026560Y7024000D01*
X36026560Y6324000D01*
X36070838Y6088683D01*
X36209910Y5872559D01*
X36422110Y5727569D01*
X36455490Y5720809D01*
X36314301Y5662327D01*
X36135673Y5483698D01*
X36039000Y5250309D01*
X36039000Y5059750D01*
X36197750Y4901000D01*
X37197000Y4901000D01*
X37197000Y4921000D01*
X37451000Y4921000D01*
X37451000Y4901000D01*
X38450250Y4901000D01*
X38609000Y5059750D01*
X38609000Y5250309D01*
X38512327Y5483698D01*
X38333699Y5662327D01*
X38197713Y5718654D01*
X38209317Y5720838D01*
X38425441Y5859910D01*
X38462399Y5914000D01*
X40524000Y5914000D01*
X40814839Y5971852D01*
X41061401Y6136599D01*
X41122305Y6197503D01*
X41102560Y6100000D01*
X41102560Y6080672D01*
X40959161Y6052148D01*
X40712599Y5887401D01*
X38585198Y3760000D01*
X32534802Y3760000D01*
X32727362Y3952560D01*
X33250000Y3952560D01*
X33485317Y3996838D01*
X33701441Y4135910D01*
X33846431Y4348110D01*
X33874810Y4488250D01*
X36039000Y4488250D01*
X36039000Y4297691D01*
X36135673Y4064302D01*
X36314301Y3885673D01*
X36547690Y3789000D01*
X37038250Y3789000D01*
X37197000Y3947750D01*
X37197000Y4647000D01*
X37451000Y4647000D01*
X37451000Y3947750D01*
X37609750Y3789000D01*
X38100310Y3789000D01*
X38333699Y3885673D01*
X38512327Y4064302D01*
X38609000Y4297691D01*
X38609000Y4488250D01*
X38450250Y4647000D01*
X37451000Y4647000D01*
X37197000Y4647000D01*
X36197750Y4647000D01*
X36039000Y4488250D01*
X33874810Y4488250D01*
X33897440Y4600000D01*
X33897440Y6100000D01*
X33853162Y6335317D01*
X33714090Y6551441D01*
X33501890Y6696431D01*
X33250000Y6747440D01*
X31750000Y6747440D01*
X31654220Y6729418D01*
X32177362Y7252560D01*
X33250000Y7252560D01*
X33485317Y7296838D01*
X33701441Y7435910D01*
X33846431Y7648110D01*
X33897440Y7900000D01*
X33897440Y8714250D01*
X36064000Y8714250D01*
X36064000Y8373691D01*
X36160673Y8140302D01*
X36339301Y7961673D01*
X36572690Y7865000D01*
X37038250Y7865000D01*
X37197000Y8023750D01*
X37197000Y8873000D01*
X37451000Y8873000D01*
X37451000Y8023750D01*
X37609750Y7865000D01*
X38075310Y7865000D01*
X38308699Y7961673D01*
X38487327Y8140302D01*
X38584000Y8373691D01*
X38584000Y8714250D01*
X38425250Y8873000D01*
X37451000Y8873000D01*
X37197000Y8873000D01*
X36222750Y8873000D01*
X36064000Y8714250D01*
X33897440Y8714250D01*
X33897440Y9140509D01*
X33900000Y9140000D01*
X36209750Y9140000D01*
X36222750Y9127000D01*
X37197000Y9127000D01*
X37197000Y9140000D01*
X37451000Y9140000D01*
X37451000Y9127000D01*
X38425250Y9127000D01*
X38438250Y9140000D01*
X40700000Y9140000D01*
X40990839Y9197852D01*
X41102560Y9272501D01*
X41102560Y8327362D01*
X41102560Y8327362D01*
G37*
X41102560Y8327362D02*
X40209198Y7434000D01*
X38464757Y7434000D01*
X38438090Y7475441D01*
X38225890Y7620431D01*
X37974000Y7671440D01*
X36674000Y7671440D01*
X36438683Y7627162D01*
X36222559Y7488090D01*
X36077569Y7275890D01*
X36026560Y7024000D01*
X36026560Y6324000D01*
X36070838Y6088683D01*
X36209910Y5872559D01*
X36422110Y5727569D01*
X36455490Y5720809D01*
X36314301Y5662327D01*
X36135673Y5483698D01*
X36039000Y5250309D01*
X36039000Y5059750D01*
X36197750Y4901000D01*
X37197000Y4901000D01*
X37197000Y4921000D01*
X37451000Y4921000D01*
X37451000Y4901000D01*
X38450250Y4901000D01*
X38609000Y5059750D01*
X38609000Y5250309D01*
X38512327Y5483698D01*
X38333699Y5662327D01*
X38197713Y5718654D01*
X38209317Y5720838D01*
X38425441Y5859910D01*
X38462399Y5914000D01*
X40524000Y5914000D01*
X40814839Y5971852D01*
X41061401Y6136599D01*
X41122305Y6197503D01*
X41102560Y6100000D01*
X41102560Y6080672D01*
X40959161Y6052148D01*
X40712599Y5887401D01*
X38585198Y3760000D01*
X32534802Y3760000D01*
X32727362Y3952560D01*
X33250000Y3952560D01*
X33485317Y3996838D01*
X33701441Y4135910D01*
X33846431Y4348110D01*
X33874810Y4488250D01*
X36039000Y4488250D01*
X36039000Y4297691D01*
X36135673Y4064302D01*
X36314301Y3885673D01*
X36547690Y3789000D01*
X37038250Y3789000D01*
X37197000Y3947750D01*
X37197000Y4647000D01*
X37451000Y4647000D01*
X37451000Y3947750D01*
X37609750Y3789000D01*
X38100310Y3789000D01*
X38333699Y3885673D01*
X38512327Y4064302D01*
X38609000Y4297691D01*
X38609000Y4488250D01*
X38450250Y4647000D01*
X37451000Y4647000D01*
X37197000Y4647000D01*
X36197750Y4647000D01*
X36039000Y4488250D01*
X33874810Y4488250D01*
X33897440Y4600000D01*
X33897440Y6100000D01*
X33853162Y6335317D01*
X33714090Y6551441D01*
X33501890Y6696431D01*
X33250000Y6747440D01*
X31750000Y6747440D01*
X31654220Y6729418D01*
X32177362Y7252560D01*
X33250000Y7252560D01*
X33485317Y7296838D01*
X33701441Y7435910D01*
X33846431Y7648110D01*
X33897440Y7900000D01*
X33897440Y8714250D01*
X36064000Y8714250D01*
X36064000Y8373691D01*
X36160673Y8140302D01*
X36339301Y7961673D01*
X36572690Y7865000D01*
X37038250Y7865000D01*
X37197000Y8023750D01*
X37197000Y8873000D01*
X37451000Y8873000D01*
X37451000Y8023750D01*
X37609750Y7865000D01*
X38075310Y7865000D01*
X38308699Y7961673D01*
X38487327Y8140302D01*
X38584000Y8373691D01*
X38584000Y8714250D01*
X38425250Y8873000D01*
X37451000Y8873000D01*
X37197000Y8873000D01*
X36222750Y8873000D01*
X36064000Y8714250D01*
X33897440Y8714250D01*
X33897440Y9140509D01*
X33900000Y9140000D01*
X36209750Y9140000D01*
X36222750Y9127000D01*
X37197000Y9127000D01*
X37197000Y9140000D01*
X37451000Y9140000D01*
X37451000Y9127000D01*
X38425250Y9127000D01*
X38438250Y9140000D01*
X40700000Y9140000D01*
X40990839Y9197852D01*
X41102560Y9272501D01*
X41102560Y8327362D01*
G36*
X26120560Y11214638D02*
X26120560Y10642000D01*
X26164838Y10406683D01*
X26303910Y10190559D01*
X26516110Y10045569D01*
X26529197Y10042919D01*
X26316559Y9906090D01*
X26171569Y9693890D01*
X26120560Y9442000D01*
X26120560Y9410000D01*
X23895558Y9410000D01*
X23853162Y9635317D01*
X23714090Y9851441D01*
X23501890Y9996431D01*
X23250000Y10047440D01*
X22885042Y10047440D01*
X22885162Y10185167D01*
X22746224Y10521422D01*
X24287401Y12062599D01*
X24452148Y12309160D01*
X24472843Y12413201D01*
X24510000Y12600000D01*
X24510000Y12825198D01*
X26120560Y11214638D01*
X26120560Y11214638D01*
G37*
X26120560Y11214638D02*
X26120560Y10642000D01*
X26164838Y10406683D01*
X26303910Y10190559D01*
X26516110Y10045569D01*
X26529197Y10042919D01*
X26316559Y9906090D01*
X26171569Y9693890D01*
X26120560Y9442000D01*
X26120560Y9410000D01*
X23895558Y9410000D01*
X23853162Y9635317D01*
X23714090Y9851441D01*
X23501890Y9996431D01*
X23250000Y10047440D01*
X22885042Y10047440D01*
X22885162Y10185167D01*
X22746224Y10521422D01*
X24287401Y12062599D01*
X24452148Y12309160D01*
X24472843Y12413201D01*
X24510000Y12600000D01*
X24510000Y12825198D01*
X26120560Y11214638D01*
G36*
X30854560Y28114308D02*
X30854560Y25570000D01*
X30898838Y25334683D01*
X30930808Y25285000D01*
X28466579Y25285000D01*
X28045440Y25706139D01*
X28045440Y29570000D01*
X28014393Y29735000D01*
X29233868Y29735000D01*
X30854560Y28114308D01*
X30854560Y28114308D01*
G37*
X30854560Y28114308D02*
X30854560Y25570000D01*
X30898838Y25334683D01*
X30930808Y25285000D01*
X28466579Y25285000D01*
X28045440Y25706139D01*
X28045440Y29570000D01*
X28014393Y29735000D01*
X29233868Y29735000D01*
X30854560Y28114308D01*
M02*
