%FSLAX45Y45*%
G04 Gerber Fmt 4.5, Leading zero omitted, Abs format (unit mm)*
G04 Created by KiCad (PCBNEW 4.0.6) date Sun Aug 12 18:14:53 2018*
%MOMM*%
%LPD*%
G01*
G04 APERTURE LIST*
%ADD10C,0.127000*%
%ADD11C,0.100000*%
%ADD12C,0.200000*%
%ADD13C,0.300000*%
G04 APERTURE END LIST*
D10*
D11*
X4925000Y3320000D02*
G75*
G03X4975000Y3370000I0J50000D01*
G01*
X3025000Y3370000D02*
G75*
G03X3075000Y3320000I50000J0D01*
G01*
X6200000Y4000000D02*
X5025000Y4000000D01*
X5025000Y4000000D02*
G75*
G03X4975000Y3950000I0J-50000D01*
G01*
X3025000Y3950000D02*
G75*
G03X2975000Y4000000I-50000J0D01*
G01*
X4975000Y3370000D02*
X4975000Y3950000D01*
X3075000Y3320000D02*
X4925000Y3320000D01*
X3025000Y3950000D02*
X3025000Y3370000D01*
X300000Y4000000D02*
X2975000Y4000000D01*
X0Y300000D02*
G75*
G03X300000Y0I300000J0D01*
G01*
X6200000Y0D02*
G75*
G03X6500000Y300000I0J300000D01*
G01*
X6500000Y3700000D02*
G75*
G03X6200000Y4000000I-300000J0D01*
G01*
X300000Y4000000D02*
G75*
G03X0Y3700000I0J-300000D01*
G01*
X0Y300000D02*
X0Y3700000D01*
X6200000Y0D02*
X300000Y0D01*
X6500000Y3700000D02*
X6500000Y300000D01*
D12*
X1445000Y3675000D02*
X1455000Y3665000D01*
X1455000Y3675000D02*
X1445000Y3665000D01*
X1445000Y3575000D02*
X1455000Y3565000D01*
X1455000Y3575000D02*
X1445000Y3565000D01*
X1535000Y3055000D02*
X1545000Y3045000D01*
X1545000Y3055000D02*
X1535000Y3045000D01*
X1535000Y2955000D02*
X1545000Y2945000D01*
X1545000Y2955000D02*
X1535000Y2945000D01*
X1545000Y3675000D02*
X1555000Y3665000D01*
X1555000Y3675000D02*
X1545000Y3665000D01*
X1545000Y3575000D02*
X1555000Y3565000D01*
X1555000Y3575000D02*
X1545000Y3565000D01*
X1645000Y3675000D02*
X1655000Y3665000D01*
X1655000Y3675000D02*
X1645000Y3665000D01*
X1645000Y3575000D02*
X1655000Y3565000D01*
X1655000Y3575000D02*
X1645000Y3565000D01*
X2556000Y1141000D02*
X2566000Y1131000D01*
X2566000Y1141000D02*
X2556000Y1131000D01*
X2895000Y3015000D02*
X2905000Y3005000D01*
X2905000Y3015000D02*
X2895000Y3005000D01*
X2905000Y2775000D02*
X2915000Y2765000D01*
X2915000Y2775000D02*
X2905000Y2765000D01*
X2955000Y2345000D02*
X2965000Y2335000D01*
X2965000Y2345000D02*
X2955000Y2335000D01*
X1570000Y2500000D02*
G75*
G03X1570000Y2500000I-20000J0D01*
G01*
X1720000Y2175000D02*
G75*
G03X1720000Y2175000I-20000J0D01*
G01*
X1890000Y2540000D02*
G75*
G03X1890000Y2540000I-20000J0D01*
G01*
X2020000Y2200000D02*
G75*
G03X2020000Y2200000I-20000J0D01*
G01*
X2020000Y1260000D02*
G75*
G03X2020000Y1260000I-20000J0D01*
G01*
X2020000Y900000D02*
G75*
G03X2020000Y900000I-20000J0D01*
G01*
X2060000Y2610000D02*
G75*
G03X2060000Y2610000I-20000J0D01*
G01*
X2190000Y400000D02*
G75*
G03X2190000Y400000I-20000J0D01*
G01*
X2215000Y1000000D02*
G75*
G03X2215000Y1000000I-20000J0D01*
G01*
X2395000Y1730000D02*
G75*
G03X2395000Y1730000I-20000J0D01*
G01*
X2470000Y1900000D02*
G75*
G03X2470000Y1900000I-20000J0D01*
G01*
X2490000Y1800000D02*
G75*
G03X2490000Y1800000I-20000J0D01*
G01*
X2680000Y210000D02*
G75*
G03X2680000Y210000I-20000J0D01*
G01*
X2690000Y310000D02*
G75*
G03X2690000Y310000I-20000J0D01*
G01*
X2755000Y1280000D02*
G75*
G03X2755000Y1280000I-20000J0D01*
G01*
X2790000Y1480000D02*
G75*
G03X2790000Y1480000I-20000J0D01*
G01*
X2830000Y2280000D02*
G75*
G03X2830000Y2280000I-20000J0D01*
G01*
X2967500Y1125000D02*
G75*
G03X2967500Y1125000I-20000J0D01*
G01*
X3430000Y1700000D02*
G75*
G03X3430000Y1700000I-20000J0D01*
G01*
X3670000Y2850000D02*
G75*
G03X3670000Y2850000I-20000J0D01*
G01*
X3740000Y1820000D02*
G75*
G03X3740000Y1820000I-20000J0D01*
G01*
X3920000Y1130000D02*
G75*
G03X3920000Y1130000I-20000J0D01*
G01*
X4110000Y1650000D02*
G75*
G03X4110000Y1650000I-20000J0D01*
G01*
X4530000Y2660000D02*
G75*
G03X4530000Y2660000I-20000J0D01*
G01*
X4542500Y2175000D02*
G75*
G03X4542500Y2175000I-20000J0D01*
G01*
X4542500Y1712500D02*
G75*
G03X4542500Y1712500I-20000J0D01*
G01*
X4960000Y1210000D02*
G75*
G03X4960000Y1210000I-20000J0D01*
G01*
X5300000Y1090000D02*
G75*
G03X5300000Y1090000I-20000J0D01*
G01*
X5610000Y3150000D02*
G75*
G03X5610000Y3150000I-20000J0D01*
G01*
X4773800Y579500D02*
X4773800Y514500D01*
X4741300Y547000D02*
X4806300Y547000D01*
X4773800Y452500D02*
X4773800Y387500D01*
X4741300Y420000D02*
X4806300Y420000D01*
X978638Y2098362D02*
X978638Y2155638D01*
X921362Y2155638D01*
X921362Y2098362D01*
X978638Y2098362D01*
X978638Y1844362D02*
X978638Y1901638D01*
X921362Y1901638D01*
X921362Y1844362D01*
X978638Y1844362D01*
X1178638Y2098362D02*
X1178638Y2155638D01*
X1121362Y2155638D01*
X1121362Y2098362D01*
X1178638Y2098362D01*
X1178638Y1844362D02*
X1178638Y1901638D01*
X1121362Y1901638D01*
X1121362Y1844362D01*
X1178638Y1844362D01*
X1107000Y3340000D02*
X1157000Y3390000D01*
X1107000Y3440000D01*
X1057000Y3390000D01*
X1107000Y3340000D01*
X1905000Y3340000D02*
X1955000Y3390000D01*
X1905000Y3440000D01*
X1855000Y3390000D01*
X1905000Y3340000D01*
X5940000Y3393500D02*
X6060000Y3273500D01*
X6060000Y3393500D02*
X5940000Y3273500D01*
X6060000Y3333500D02*
G75*
G03X6060000Y3333500I-60000J0D01*
G01*
X5940000Y3012500D02*
X6060000Y2892500D01*
X6060000Y3012500D02*
X5940000Y2892500D01*
X6060000Y2952500D02*
G75*
G03X6060000Y2952500I-60000J0D01*
G01*
X5940000Y2631500D02*
X6060000Y2511500D01*
X6060000Y2631500D02*
X5940000Y2511500D01*
X6060000Y2571500D02*
G75*
G03X6060000Y2571500I-60000J0D01*
G01*
X5940000Y2250500D02*
X6060000Y2130500D01*
X6060000Y2250500D02*
X5940000Y2130500D01*
X6060000Y2190500D02*
G75*
G03X6060000Y2190500I-60000J0D01*
G01*
X5940000Y1869500D02*
X6060000Y1749500D01*
X6060000Y1869500D02*
X5940000Y1749500D01*
X6060000Y1809500D02*
G75*
G03X6060000Y1809500I-60000J0D01*
G01*
X5940000Y1488500D02*
X6060000Y1368500D01*
X6060000Y1488500D02*
X5940000Y1368500D01*
X6060000Y1428500D02*
G75*
G03X6060000Y1428500I-60000J0D01*
G01*
X5940000Y1107500D02*
X6060000Y987500D01*
X6060000Y1107500D02*
X5940000Y987500D01*
X6060000Y1047500D02*
G75*
G03X6060000Y1047500I-60000J0D01*
G01*
X5940000Y726500D02*
X6060000Y606500D01*
X6060000Y726500D02*
X5940000Y606500D01*
X6060000Y666500D02*
G75*
G03X6060000Y666500I-60000J0D01*
G01*
X565000Y2715000D02*
X795000Y2485000D01*
X795000Y2715000D02*
X565000Y2485000D01*
X680000Y2715000D02*
X680000Y2485000D01*
X565000Y2600000D02*
X795000Y2600000D01*
X565000Y1515000D02*
X795000Y1285000D01*
X795000Y1515000D02*
X565000Y1285000D01*
X680000Y1515000D02*
X680000Y1285000D01*
X565000Y1400000D02*
X795000Y1400000D01*
X325000Y3695000D02*
X575000Y3445000D01*
X575000Y3695000D02*
X325000Y3445000D01*
X538389Y3481611D02*
X538389Y3658389D01*
X361611Y3658389D01*
X361611Y3481611D01*
X538389Y3481611D01*
X325000Y595000D02*
X575000Y345000D01*
X575000Y595000D02*
X325000Y345000D01*
X538389Y381611D02*
X538389Y558389D01*
X361611Y558389D01*
X361611Y381611D01*
X538389Y381611D01*
X2640000Y3605000D02*
X2890000Y3355000D01*
X2890000Y3605000D02*
X2640000Y3355000D01*
X2853389Y3391611D02*
X2853389Y3568389D01*
X2676611Y3568389D01*
X2676611Y3391611D01*
X2853389Y3391611D01*
X5125000Y3695000D02*
X5375000Y3445000D01*
X5375000Y3695000D02*
X5125000Y3445000D01*
X5338389Y3481611D02*
X5338389Y3658389D01*
X5161611Y3658389D01*
X5161611Y3481611D01*
X5338389Y3481611D01*
X5125000Y595000D02*
X5375000Y345000D01*
X5375000Y595000D02*
X5125000Y345000D01*
X5338389Y381611D02*
X5338389Y558389D01*
X5161611Y558389D01*
X5161611Y381611D01*
X5338389Y381611D01*
D13*
X266429Y-470714D02*
X266429Y-170714D01*
X337857Y-170714D01*
X380714Y-185000D01*
X409286Y-213571D01*
X423571Y-242143D01*
X437857Y-299286D01*
X437857Y-342143D01*
X423571Y-399286D01*
X409286Y-427857D01*
X380714Y-456429D01*
X337857Y-470714D01*
X266429Y-470714D01*
X566429Y-470714D02*
X566429Y-270714D01*
X566429Y-327857D02*
X580714Y-299286D01*
X595000Y-285000D01*
X623571Y-270714D01*
X652143Y-270714D01*
X752143Y-470714D02*
X752143Y-270714D01*
X752143Y-170714D02*
X737857Y-185000D01*
X752143Y-199286D01*
X766428Y-185000D01*
X752143Y-170714D01*
X752143Y-199286D01*
X937857Y-470714D02*
X909286Y-456429D01*
X895000Y-427857D01*
X895000Y-170714D01*
X1095000Y-470714D02*
X1066429Y-456429D01*
X1052143Y-427857D01*
X1052143Y-170714D01*
X1437857Y-470714D02*
X1437857Y-170714D01*
X1537857Y-385000D01*
X1637857Y-170714D01*
X1637857Y-470714D01*
X1909286Y-470714D02*
X1909286Y-313572D01*
X1895000Y-285000D01*
X1866428Y-270714D01*
X1809286Y-270714D01*
X1780714Y-285000D01*
X1909286Y-456429D02*
X1880714Y-470714D01*
X1809286Y-470714D01*
X1780714Y-456429D01*
X1766428Y-427857D01*
X1766428Y-399286D01*
X1780714Y-370714D01*
X1809286Y-356429D01*
X1880714Y-356429D01*
X1909286Y-342143D01*
X2052143Y-270714D02*
X2052143Y-570714D01*
X2052143Y-285000D02*
X2080714Y-270714D01*
X2137857Y-270714D01*
X2166429Y-285000D01*
X2180714Y-299286D01*
X2195000Y-327857D01*
X2195000Y-413571D01*
X2180714Y-442143D01*
X2166429Y-456429D01*
X2137857Y-470714D01*
X2080714Y-470714D01*
X2052143Y-456429D01*
X2323571Y-442143D02*
X2337857Y-456429D01*
X2323571Y-470714D01*
X2309286Y-456429D01*
X2323571Y-442143D01*
X2323571Y-470714D01*
X2323571Y-285000D02*
X2337857Y-299286D01*
X2323571Y-313572D01*
X2309286Y-299286D01*
X2323571Y-285000D01*
X2323571Y-313572D01*
X-15000Y-960000D02*
X-5000Y-970000D01*
X-5000Y-960000D02*
X-15000Y-970000D01*
X323571Y-800714D02*
X352143Y-800714D01*
X380714Y-815000D01*
X395000Y-829286D01*
X409286Y-857857D01*
X423571Y-915000D01*
X423571Y-986429D01*
X409286Y-1043571D01*
X395000Y-1072143D01*
X380714Y-1086429D01*
X352143Y-1100714D01*
X323571Y-1100714D01*
X295000Y-1086429D01*
X280714Y-1072143D01*
X266429Y-1043571D01*
X252143Y-986429D01*
X252143Y-915000D01*
X266429Y-857857D01*
X280714Y-829286D01*
X295000Y-815000D01*
X323571Y-800714D01*
X552143Y-1072143D02*
X566429Y-1086429D01*
X552143Y-1100714D01*
X537857Y-1086429D01*
X552143Y-1072143D01*
X552143Y-1100714D01*
X852143Y-1100714D02*
X680714Y-1100714D01*
X766428Y-1100714D02*
X766428Y-800714D01*
X737857Y-843571D01*
X709286Y-872143D01*
X680714Y-886429D01*
X1037857Y-800714D02*
X1066429Y-800714D01*
X1095000Y-815000D01*
X1109286Y-829286D01*
X1123571Y-857857D01*
X1137857Y-915000D01*
X1137857Y-986429D01*
X1123571Y-1043571D01*
X1109286Y-1072143D01*
X1095000Y-1086429D01*
X1066429Y-1100714D01*
X1037857Y-1100714D01*
X1009286Y-1086429D01*
X995000Y-1072143D01*
X980714Y-1043571D01*
X966428Y-986429D01*
X966428Y-915000D01*
X980714Y-857857D01*
X995000Y-829286D01*
X1009286Y-815000D01*
X1037857Y-800714D01*
X1266429Y-1100714D02*
X1266429Y-900714D01*
X1266429Y-929286D02*
X1280714Y-915000D01*
X1309286Y-900714D01*
X1352143Y-900714D01*
X1380714Y-915000D01*
X1395000Y-943571D01*
X1395000Y-1100714D01*
X1395000Y-943571D02*
X1409286Y-915000D01*
X1437857Y-900714D01*
X1480714Y-900714D01*
X1509286Y-915000D01*
X1523571Y-943571D01*
X1523571Y-1100714D01*
X1666428Y-1100714D02*
X1666428Y-900714D01*
X1666428Y-929286D02*
X1680714Y-915000D01*
X1709286Y-900714D01*
X1752143Y-900714D01*
X1780714Y-915000D01*
X1795000Y-943571D01*
X1795000Y-1100714D01*
X1795000Y-943571D02*
X1809286Y-915000D01*
X1837857Y-900714D01*
X1880714Y-900714D01*
X1909286Y-915000D01*
X1923571Y-943571D01*
X1923571Y-1100714D01*
X2509286Y-786429D02*
X2252143Y-1172143D01*
X2895000Y-800714D02*
X2923571Y-800714D01*
X2952143Y-815000D01*
X2966428Y-829286D01*
X2980714Y-857857D01*
X2995000Y-915000D01*
X2995000Y-986429D01*
X2980714Y-1043571D01*
X2966428Y-1072143D01*
X2952143Y-1086429D01*
X2923571Y-1100714D01*
X2895000Y-1100714D01*
X2866428Y-1086429D01*
X2852143Y-1072143D01*
X2837857Y-1043571D01*
X2823571Y-986429D01*
X2823571Y-915000D01*
X2837857Y-857857D01*
X2852143Y-829286D01*
X2866428Y-815000D01*
X2895000Y-800714D01*
X3123571Y-1072143D02*
X3137857Y-1086429D01*
X3123571Y-1100714D01*
X3109286Y-1086429D01*
X3123571Y-1072143D01*
X3123571Y-1100714D01*
X3323571Y-800714D02*
X3352143Y-800714D01*
X3380714Y-815000D01*
X3395000Y-829286D01*
X3409285Y-857857D01*
X3423571Y-915000D01*
X3423571Y-986429D01*
X3409285Y-1043571D01*
X3395000Y-1072143D01*
X3380714Y-1086429D01*
X3352143Y-1100714D01*
X3323571Y-1100714D01*
X3295000Y-1086429D01*
X3280714Y-1072143D01*
X3266428Y-1043571D01*
X3252143Y-986429D01*
X3252143Y-915000D01*
X3266428Y-857857D01*
X3280714Y-829286D01*
X3295000Y-815000D01*
X3323571Y-800714D01*
X3609285Y-800714D02*
X3637857Y-800714D01*
X3666428Y-815000D01*
X3680714Y-829286D01*
X3695000Y-857857D01*
X3709285Y-915000D01*
X3709285Y-986429D01*
X3695000Y-1043571D01*
X3680714Y-1072143D01*
X3666428Y-1086429D01*
X3637857Y-1100714D01*
X3609285Y-1100714D01*
X3580714Y-1086429D01*
X3566428Y-1072143D01*
X3552143Y-1043571D01*
X3537857Y-986429D01*
X3537857Y-915000D01*
X3552143Y-857857D01*
X3566428Y-829286D01*
X3580714Y-815000D01*
X3609285Y-800714D01*
X3966428Y-900714D02*
X3966428Y-1100714D01*
X3895000Y-786429D02*
X3823571Y-1000714D01*
X4009285Y-1000714D01*
X4109286Y-800714D02*
X4109286Y-857857D01*
X4223571Y-800714D02*
X4223571Y-857857D01*
X4666428Y-1215000D02*
X4652143Y-1200714D01*
X4623571Y-1157857D01*
X4609286Y-1129286D01*
X4595000Y-1086429D01*
X4580714Y-1015000D01*
X4580714Y-957857D01*
X4595000Y-886429D01*
X4609286Y-843571D01*
X4623571Y-815000D01*
X4652143Y-772143D01*
X4666428Y-757857D01*
X4937857Y-1100714D02*
X4766428Y-1100714D01*
X4852143Y-1100714D02*
X4852143Y-800714D01*
X4823571Y-843571D01*
X4795000Y-872143D01*
X4766428Y-886429D01*
X5052143Y-829286D02*
X5066428Y-815000D01*
X5095000Y-800714D01*
X5166428Y-800714D01*
X5195000Y-815000D01*
X5209286Y-829286D01*
X5223571Y-857857D01*
X5223571Y-886429D01*
X5209286Y-929286D01*
X5037857Y-1100714D01*
X5223571Y-1100714D01*
X5580714Y-1100714D02*
X5580714Y-800714D01*
X5709285Y-1100714D02*
X5709285Y-943571D01*
X5695000Y-915000D01*
X5666428Y-900714D01*
X5623571Y-900714D01*
X5595000Y-915000D01*
X5580714Y-929286D01*
X5895000Y-1100714D02*
X5866428Y-1086429D01*
X5852143Y-1072143D01*
X5837857Y-1043571D01*
X5837857Y-957857D01*
X5852143Y-929286D01*
X5866428Y-915000D01*
X5895000Y-900714D01*
X5937857Y-900714D01*
X5966428Y-915000D01*
X5980714Y-929286D01*
X5995000Y-957857D01*
X5995000Y-1043571D01*
X5980714Y-1072143D01*
X5966428Y-1086429D01*
X5937857Y-1100714D01*
X5895000Y-1100714D01*
X6166428Y-1100714D02*
X6137857Y-1086429D01*
X6123571Y-1057857D01*
X6123571Y-800714D01*
X6395000Y-1086429D02*
X6366428Y-1100714D01*
X6309286Y-1100714D01*
X6280714Y-1086429D01*
X6266428Y-1057857D01*
X6266428Y-943571D01*
X6280714Y-915000D01*
X6309286Y-900714D01*
X6366428Y-900714D01*
X6395000Y-915000D01*
X6409286Y-943571D01*
X6409286Y-972143D01*
X6266428Y-1000714D01*
X6523571Y-1086429D02*
X6552143Y-1100714D01*
X6609286Y-1100714D01*
X6637857Y-1086429D01*
X6652143Y-1057857D01*
X6652143Y-1043571D01*
X6637857Y-1015000D01*
X6609286Y-1000714D01*
X6566428Y-1000714D01*
X6537857Y-986429D01*
X6523571Y-957857D01*
X6523571Y-943571D01*
X6537857Y-915000D01*
X6566428Y-900714D01*
X6609286Y-900714D01*
X6637857Y-915000D01*
X6752143Y-1215000D02*
X6766428Y-1200714D01*
X6795000Y-1157857D01*
X6809286Y-1129286D01*
X6823571Y-1086429D01*
X6837857Y-1015000D01*
X6837857Y-957857D01*
X6823571Y-886429D01*
X6809286Y-843571D01*
X6795000Y-815000D01*
X6766428Y-772143D01*
X6752143Y-757857D01*
X-5000Y-1361000D02*
G75*
G03X-5000Y-1361000I-20000J0D01*
G01*
X323571Y-1196714D02*
X352143Y-1196714D01*
X380714Y-1211000D01*
X395000Y-1225286D01*
X409286Y-1253857D01*
X423571Y-1311000D01*
X423571Y-1382429D01*
X409286Y-1439571D01*
X395000Y-1468143D01*
X380714Y-1482429D01*
X352143Y-1496714D01*
X323571Y-1496714D01*
X295000Y-1482429D01*
X280714Y-1468143D01*
X266429Y-1439571D01*
X252143Y-1382429D01*
X252143Y-1311000D01*
X266429Y-1253857D01*
X280714Y-1225286D01*
X295000Y-1211000D01*
X323571Y-1196714D01*
X552143Y-1468143D02*
X566429Y-1482429D01*
X552143Y-1496714D01*
X537857Y-1482429D01*
X552143Y-1468143D01*
X552143Y-1496714D01*
X823571Y-1296714D02*
X823571Y-1496714D01*
X752143Y-1182429D02*
X680714Y-1396714D01*
X866428Y-1396714D01*
X1037857Y-1196714D02*
X1066429Y-1196714D01*
X1095000Y-1211000D01*
X1109286Y-1225286D01*
X1123571Y-1253857D01*
X1137857Y-1311000D01*
X1137857Y-1382429D01*
X1123571Y-1439571D01*
X1109286Y-1468143D01*
X1095000Y-1482429D01*
X1066429Y-1496714D01*
X1037857Y-1496714D01*
X1009286Y-1482429D01*
X995000Y-1468143D01*
X980714Y-1439571D01*
X966428Y-1382429D01*
X966428Y-1311000D01*
X980714Y-1253857D01*
X995000Y-1225286D01*
X1009286Y-1211000D01*
X1037857Y-1196714D01*
X1266429Y-1496714D02*
X1266429Y-1296714D01*
X1266429Y-1325286D02*
X1280714Y-1311000D01*
X1309286Y-1296714D01*
X1352143Y-1296714D01*
X1380714Y-1311000D01*
X1395000Y-1339572D01*
X1395000Y-1496714D01*
X1395000Y-1339572D02*
X1409286Y-1311000D01*
X1437857Y-1296714D01*
X1480714Y-1296714D01*
X1509286Y-1311000D01*
X1523571Y-1339572D01*
X1523571Y-1496714D01*
X1666428Y-1496714D02*
X1666428Y-1296714D01*
X1666428Y-1325286D02*
X1680714Y-1311000D01*
X1709286Y-1296714D01*
X1752143Y-1296714D01*
X1780714Y-1311000D01*
X1795000Y-1339572D01*
X1795000Y-1496714D01*
X1795000Y-1339572D02*
X1809286Y-1311000D01*
X1837857Y-1296714D01*
X1880714Y-1296714D01*
X1909286Y-1311000D01*
X1923571Y-1339572D01*
X1923571Y-1496714D01*
X2509286Y-1182429D02*
X2252143Y-1568143D01*
X2895000Y-1196714D02*
X2923571Y-1196714D01*
X2952143Y-1211000D01*
X2966428Y-1225286D01*
X2980714Y-1253857D01*
X2995000Y-1311000D01*
X2995000Y-1382429D01*
X2980714Y-1439571D01*
X2966428Y-1468143D01*
X2952143Y-1482429D01*
X2923571Y-1496714D01*
X2895000Y-1496714D01*
X2866428Y-1482429D01*
X2852143Y-1468143D01*
X2837857Y-1439571D01*
X2823571Y-1382429D01*
X2823571Y-1311000D01*
X2837857Y-1253857D01*
X2852143Y-1225286D01*
X2866428Y-1211000D01*
X2895000Y-1196714D01*
X3123571Y-1468143D02*
X3137857Y-1482429D01*
X3123571Y-1496714D01*
X3109286Y-1482429D01*
X3123571Y-1468143D01*
X3123571Y-1496714D01*
X3323571Y-1196714D02*
X3352143Y-1196714D01*
X3380714Y-1211000D01*
X3395000Y-1225286D01*
X3409285Y-1253857D01*
X3423571Y-1311000D01*
X3423571Y-1382429D01*
X3409285Y-1439571D01*
X3395000Y-1468143D01*
X3380714Y-1482429D01*
X3352143Y-1496714D01*
X3323571Y-1496714D01*
X3295000Y-1482429D01*
X3280714Y-1468143D01*
X3266428Y-1439571D01*
X3252143Y-1382429D01*
X3252143Y-1311000D01*
X3266428Y-1253857D01*
X3280714Y-1225286D01*
X3295000Y-1211000D01*
X3323571Y-1196714D01*
X3709285Y-1496714D02*
X3537857Y-1496714D01*
X3623571Y-1496714D02*
X3623571Y-1196714D01*
X3595000Y-1239572D01*
X3566428Y-1268143D01*
X3537857Y-1282429D01*
X3966428Y-1196714D02*
X3909285Y-1196714D01*
X3880714Y-1211000D01*
X3866428Y-1225286D01*
X3837857Y-1268143D01*
X3823571Y-1325286D01*
X3823571Y-1439571D01*
X3837857Y-1468143D01*
X3852143Y-1482429D01*
X3880714Y-1496714D01*
X3937857Y-1496714D01*
X3966428Y-1482429D01*
X3980714Y-1468143D01*
X3995000Y-1439571D01*
X3995000Y-1368143D01*
X3980714Y-1339572D01*
X3966428Y-1325286D01*
X3937857Y-1311000D01*
X3880714Y-1311000D01*
X3852143Y-1325286D01*
X3837857Y-1339572D01*
X3823571Y-1368143D01*
X4109286Y-1196714D02*
X4109286Y-1253857D01*
X4223571Y-1196714D02*
X4223571Y-1253857D01*
X4666428Y-1611000D02*
X4652143Y-1596714D01*
X4623571Y-1553857D01*
X4609286Y-1525286D01*
X4595000Y-1482429D01*
X4580714Y-1411000D01*
X4580714Y-1353857D01*
X4595000Y-1282429D01*
X4609286Y-1239572D01*
X4623571Y-1211000D01*
X4652143Y-1168143D01*
X4666428Y-1153857D01*
X4766428Y-1225286D02*
X4780714Y-1211000D01*
X4809286Y-1196714D01*
X4880714Y-1196714D01*
X4909286Y-1211000D01*
X4923571Y-1225286D01*
X4937857Y-1253857D01*
X4937857Y-1282429D01*
X4923571Y-1325286D01*
X4752143Y-1496714D01*
X4937857Y-1496714D01*
X5080714Y-1496714D02*
X5137857Y-1496714D01*
X5166428Y-1482429D01*
X5180714Y-1468143D01*
X5209286Y-1425286D01*
X5223571Y-1368143D01*
X5223571Y-1253857D01*
X5209286Y-1225286D01*
X5195000Y-1211000D01*
X5166428Y-1196714D01*
X5109286Y-1196714D01*
X5080714Y-1211000D01*
X5066428Y-1225286D01*
X5052143Y-1253857D01*
X5052143Y-1325286D01*
X5066428Y-1353857D01*
X5080714Y-1368143D01*
X5109286Y-1382429D01*
X5166428Y-1382429D01*
X5195000Y-1368143D01*
X5209286Y-1353857D01*
X5223571Y-1325286D01*
X5580714Y-1496714D02*
X5580714Y-1196714D01*
X5709285Y-1496714D02*
X5709285Y-1339572D01*
X5695000Y-1311000D01*
X5666428Y-1296714D01*
X5623571Y-1296714D01*
X5595000Y-1311000D01*
X5580714Y-1325286D01*
X5895000Y-1496714D02*
X5866428Y-1482429D01*
X5852143Y-1468143D01*
X5837857Y-1439571D01*
X5837857Y-1353857D01*
X5852143Y-1325286D01*
X5866428Y-1311000D01*
X5895000Y-1296714D01*
X5937857Y-1296714D01*
X5966428Y-1311000D01*
X5980714Y-1325286D01*
X5995000Y-1353857D01*
X5995000Y-1439571D01*
X5980714Y-1468143D01*
X5966428Y-1482429D01*
X5937857Y-1496714D01*
X5895000Y-1496714D01*
X6166428Y-1496714D02*
X6137857Y-1482429D01*
X6123571Y-1453857D01*
X6123571Y-1196714D01*
X6395000Y-1482429D02*
X6366428Y-1496714D01*
X6309286Y-1496714D01*
X6280714Y-1482429D01*
X6266428Y-1453857D01*
X6266428Y-1339572D01*
X6280714Y-1311000D01*
X6309286Y-1296714D01*
X6366428Y-1296714D01*
X6395000Y-1311000D01*
X6409286Y-1339572D01*
X6409286Y-1368143D01*
X6266428Y-1396714D01*
X6523571Y-1482429D02*
X6552143Y-1496714D01*
X6609286Y-1496714D01*
X6637857Y-1482429D01*
X6652143Y-1453857D01*
X6652143Y-1439571D01*
X6637857Y-1411000D01*
X6609286Y-1396714D01*
X6566428Y-1396714D01*
X6537857Y-1382429D01*
X6523571Y-1353857D01*
X6523571Y-1339572D01*
X6537857Y-1311000D01*
X6566428Y-1296714D01*
X6609286Y-1296714D01*
X6637857Y-1311000D01*
X6752143Y-1611000D02*
X6766428Y-1596714D01*
X6795000Y-1553857D01*
X6809286Y-1525286D01*
X6823571Y-1482429D01*
X6837857Y-1411000D01*
X6837857Y-1353857D01*
X6823571Y-1282429D01*
X6809286Y-1239572D01*
X6795000Y-1211000D01*
X6766428Y-1168143D01*
X6752143Y-1153857D01*
X-37500Y-1724500D02*
X-37500Y-1789500D01*
X-70000Y-1757000D02*
X-5000Y-1757000D01*
X323571Y-1592714D02*
X352143Y-1592714D01*
X380714Y-1607000D01*
X395000Y-1621286D01*
X409286Y-1649857D01*
X423571Y-1707000D01*
X423571Y-1778429D01*
X409286Y-1835571D01*
X395000Y-1864143D01*
X380714Y-1878429D01*
X352143Y-1892714D01*
X323571Y-1892714D01*
X295000Y-1878429D01*
X280714Y-1864143D01*
X266429Y-1835571D01*
X252143Y-1778429D01*
X252143Y-1707000D01*
X266429Y-1649857D01*
X280714Y-1621286D01*
X295000Y-1607000D01*
X323571Y-1592714D01*
X552143Y-1864143D02*
X566429Y-1878429D01*
X552143Y-1892714D01*
X537857Y-1878429D01*
X552143Y-1864143D01*
X552143Y-1892714D01*
X823571Y-1592714D02*
X766428Y-1592714D01*
X737857Y-1607000D01*
X723571Y-1621286D01*
X695000Y-1664143D01*
X680714Y-1721286D01*
X680714Y-1835571D01*
X695000Y-1864143D01*
X709286Y-1878429D01*
X737857Y-1892714D01*
X795000Y-1892714D01*
X823571Y-1878429D01*
X837857Y-1864143D01*
X852143Y-1835571D01*
X852143Y-1764143D01*
X837857Y-1735571D01*
X823571Y-1721286D01*
X795000Y-1707000D01*
X737857Y-1707000D01*
X709286Y-1721286D01*
X695000Y-1735571D01*
X680714Y-1764143D01*
X1123571Y-1592714D02*
X980714Y-1592714D01*
X966428Y-1735571D01*
X980714Y-1721286D01*
X1009286Y-1707000D01*
X1080714Y-1707000D01*
X1109286Y-1721286D01*
X1123571Y-1735571D01*
X1137857Y-1764143D01*
X1137857Y-1835571D01*
X1123571Y-1864143D01*
X1109286Y-1878429D01*
X1080714Y-1892714D01*
X1009286Y-1892714D01*
X980714Y-1878429D01*
X966428Y-1864143D01*
X1266429Y-1892714D02*
X1266429Y-1692714D01*
X1266429Y-1721286D02*
X1280714Y-1707000D01*
X1309286Y-1692714D01*
X1352143Y-1692714D01*
X1380714Y-1707000D01*
X1395000Y-1735571D01*
X1395000Y-1892714D01*
X1395000Y-1735571D02*
X1409286Y-1707000D01*
X1437857Y-1692714D01*
X1480714Y-1692714D01*
X1509286Y-1707000D01*
X1523571Y-1735571D01*
X1523571Y-1892714D01*
X1666428Y-1892714D02*
X1666428Y-1692714D01*
X1666428Y-1721286D02*
X1680714Y-1707000D01*
X1709286Y-1692714D01*
X1752143Y-1692714D01*
X1780714Y-1707000D01*
X1795000Y-1735571D01*
X1795000Y-1892714D01*
X1795000Y-1735571D02*
X1809286Y-1707000D01*
X1837857Y-1692714D01*
X1880714Y-1692714D01*
X1909286Y-1707000D01*
X1923571Y-1735571D01*
X1923571Y-1892714D01*
X2509286Y-1578429D02*
X2252143Y-1964143D01*
X2895000Y-1592714D02*
X2923571Y-1592714D01*
X2952143Y-1607000D01*
X2966428Y-1621286D01*
X2980714Y-1649857D01*
X2995000Y-1707000D01*
X2995000Y-1778429D01*
X2980714Y-1835571D01*
X2966428Y-1864143D01*
X2952143Y-1878429D01*
X2923571Y-1892714D01*
X2895000Y-1892714D01*
X2866428Y-1878429D01*
X2852143Y-1864143D01*
X2837857Y-1835571D01*
X2823571Y-1778429D01*
X2823571Y-1707000D01*
X2837857Y-1649857D01*
X2852143Y-1621286D01*
X2866428Y-1607000D01*
X2895000Y-1592714D01*
X3123571Y-1864143D02*
X3137857Y-1878429D01*
X3123571Y-1892714D01*
X3109286Y-1878429D01*
X3123571Y-1864143D01*
X3123571Y-1892714D01*
X3323571Y-1592714D02*
X3352143Y-1592714D01*
X3380714Y-1607000D01*
X3395000Y-1621286D01*
X3409285Y-1649857D01*
X3423571Y-1707000D01*
X3423571Y-1778429D01*
X3409285Y-1835571D01*
X3395000Y-1864143D01*
X3380714Y-1878429D01*
X3352143Y-1892714D01*
X3323571Y-1892714D01*
X3295000Y-1878429D01*
X3280714Y-1864143D01*
X3266428Y-1835571D01*
X3252143Y-1778429D01*
X3252143Y-1707000D01*
X3266428Y-1649857D01*
X3280714Y-1621286D01*
X3295000Y-1607000D01*
X3323571Y-1592714D01*
X3537857Y-1621286D02*
X3552143Y-1607000D01*
X3580714Y-1592714D01*
X3652143Y-1592714D01*
X3680714Y-1607000D01*
X3695000Y-1621286D01*
X3709285Y-1649857D01*
X3709285Y-1678429D01*
X3695000Y-1721286D01*
X3523571Y-1892714D01*
X3709285Y-1892714D01*
X3966428Y-1592714D02*
X3909285Y-1592714D01*
X3880714Y-1607000D01*
X3866428Y-1621286D01*
X3837857Y-1664143D01*
X3823571Y-1721286D01*
X3823571Y-1835571D01*
X3837857Y-1864143D01*
X3852143Y-1878429D01*
X3880714Y-1892714D01*
X3937857Y-1892714D01*
X3966428Y-1878429D01*
X3980714Y-1864143D01*
X3995000Y-1835571D01*
X3995000Y-1764143D01*
X3980714Y-1735571D01*
X3966428Y-1721286D01*
X3937857Y-1707000D01*
X3880714Y-1707000D01*
X3852143Y-1721286D01*
X3837857Y-1735571D01*
X3823571Y-1764143D01*
X4109286Y-1592714D02*
X4109286Y-1649857D01*
X4223571Y-1592714D02*
X4223571Y-1649857D01*
X4666428Y-2007000D02*
X4652143Y-1992714D01*
X4623571Y-1949857D01*
X4609286Y-1921286D01*
X4595000Y-1878429D01*
X4580714Y-1807000D01*
X4580714Y-1749857D01*
X4595000Y-1678429D01*
X4609286Y-1635571D01*
X4623571Y-1607000D01*
X4652143Y-1564143D01*
X4666428Y-1549857D01*
X4766428Y-1621286D02*
X4780714Y-1607000D01*
X4809286Y-1592714D01*
X4880714Y-1592714D01*
X4909286Y-1607000D01*
X4923571Y-1621286D01*
X4937857Y-1649857D01*
X4937857Y-1678429D01*
X4923571Y-1721286D01*
X4752143Y-1892714D01*
X4937857Y-1892714D01*
X5295000Y-1892714D02*
X5295000Y-1592714D01*
X5423571Y-1892714D02*
X5423571Y-1735571D01*
X5409286Y-1707000D01*
X5380714Y-1692714D01*
X5337857Y-1692714D01*
X5309286Y-1707000D01*
X5295000Y-1721286D01*
X5609285Y-1892714D02*
X5580714Y-1878429D01*
X5566428Y-1864143D01*
X5552143Y-1835571D01*
X5552143Y-1749857D01*
X5566428Y-1721286D01*
X5580714Y-1707000D01*
X5609285Y-1692714D01*
X5652143Y-1692714D01*
X5680714Y-1707000D01*
X5695000Y-1721286D01*
X5709285Y-1749857D01*
X5709285Y-1835571D01*
X5695000Y-1864143D01*
X5680714Y-1878429D01*
X5652143Y-1892714D01*
X5609285Y-1892714D01*
X5880714Y-1892714D02*
X5852143Y-1878429D01*
X5837857Y-1849857D01*
X5837857Y-1592714D01*
X6109286Y-1878429D02*
X6080714Y-1892714D01*
X6023571Y-1892714D01*
X5995000Y-1878429D01*
X5980714Y-1849857D01*
X5980714Y-1735571D01*
X5995000Y-1707000D01*
X6023571Y-1692714D01*
X6080714Y-1692714D01*
X6109286Y-1707000D01*
X6123571Y-1735571D01*
X6123571Y-1764143D01*
X5980714Y-1792714D01*
X6237857Y-1878429D02*
X6266428Y-1892714D01*
X6323571Y-1892714D01*
X6352143Y-1878429D01*
X6366428Y-1849857D01*
X6366428Y-1835571D01*
X6352143Y-1807000D01*
X6323571Y-1792714D01*
X6280714Y-1792714D01*
X6252143Y-1778429D01*
X6237857Y-1749857D01*
X6237857Y-1735571D01*
X6252143Y-1707000D01*
X6280714Y-1692714D01*
X6323571Y-1692714D01*
X6352143Y-1707000D01*
X6466428Y-2007000D02*
X6480714Y-1992714D01*
X6509286Y-1949857D01*
X6523571Y-1921286D01*
X6537857Y-1878429D01*
X6552143Y-1807000D01*
X6552143Y-1749857D01*
X6537857Y-1678429D01*
X6523571Y-1635571D01*
X6509286Y-1607000D01*
X6480714Y-1564143D01*
X6466428Y-1549857D01*
X-16862Y-2181638D02*
X-16862Y-2124362D01*
X-74138Y-2124362D01*
X-74138Y-2181638D01*
X-16862Y-2181638D01*
X323571Y-1988714D02*
X352143Y-1988714D01*
X380714Y-2003000D01*
X395000Y-2017286D01*
X409286Y-2045857D01*
X423571Y-2103000D01*
X423571Y-2174429D01*
X409286Y-2231572D01*
X395000Y-2260143D01*
X380714Y-2274429D01*
X352143Y-2288714D01*
X323571Y-2288714D01*
X295000Y-2274429D01*
X280714Y-2260143D01*
X266429Y-2231572D01*
X252143Y-2174429D01*
X252143Y-2103000D01*
X266429Y-2045857D01*
X280714Y-2017286D01*
X295000Y-2003000D01*
X323571Y-1988714D01*
X552143Y-2260143D02*
X566429Y-2274429D01*
X552143Y-2288714D01*
X537857Y-2274429D01*
X552143Y-2260143D01*
X552143Y-2288714D01*
X737857Y-2117286D02*
X709286Y-2103000D01*
X695000Y-2088714D01*
X680714Y-2060143D01*
X680714Y-2045857D01*
X695000Y-2017286D01*
X709286Y-2003000D01*
X737857Y-1988714D01*
X795000Y-1988714D01*
X823571Y-2003000D01*
X837857Y-2017286D01*
X852143Y-2045857D01*
X852143Y-2060143D01*
X837857Y-2088714D01*
X823571Y-2103000D01*
X795000Y-2117286D01*
X737857Y-2117286D01*
X709286Y-2131572D01*
X695000Y-2145857D01*
X680714Y-2174429D01*
X680714Y-2231572D01*
X695000Y-2260143D01*
X709286Y-2274429D01*
X737857Y-2288714D01*
X795000Y-2288714D01*
X823571Y-2274429D01*
X837857Y-2260143D01*
X852143Y-2231572D01*
X852143Y-2174429D01*
X837857Y-2145857D01*
X823571Y-2131572D01*
X795000Y-2117286D01*
X1137857Y-2288714D02*
X966428Y-2288714D01*
X1052143Y-2288714D02*
X1052143Y-1988714D01*
X1023571Y-2031571D01*
X995000Y-2060143D01*
X966428Y-2074429D01*
X1266429Y-2288714D02*
X1266429Y-2088714D01*
X1266429Y-2117286D02*
X1280714Y-2103000D01*
X1309286Y-2088714D01*
X1352143Y-2088714D01*
X1380714Y-2103000D01*
X1395000Y-2131572D01*
X1395000Y-2288714D01*
X1395000Y-2131572D02*
X1409286Y-2103000D01*
X1437857Y-2088714D01*
X1480714Y-2088714D01*
X1509286Y-2103000D01*
X1523571Y-2131572D01*
X1523571Y-2288714D01*
X1666428Y-2288714D02*
X1666428Y-2088714D01*
X1666428Y-2117286D02*
X1680714Y-2103000D01*
X1709286Y-2088714D01*
X1752143Y-2088714D01*
X1780714Y-2103000D01*
X1795000Y-2131572D01*
X1795000Y-2288714D01*
X1795000Y-2131572D02*
X1809286Y-2103000D01*
X1837857Y-2088714D01*
X1880714Y-2088714D01*
X1909286Y-2103000D01*
X1923571Y-2131572D01*
X1923571Y-2288714D01*
X2509286Y-1974429D02*
X2252143Y-2360143D01*
X2895000Y-1988714D02*
X2923571Y-1988714D01*
X2952143Y-2003000D01*
X2966428Y-2017286D01*
X2980714Y-2045857D01*
X2995000Y-2103000D01*
X2995000Y-2174429D01*
X2980714Y-2231572D01*
X2966428Y-2260143D01*
X2952143Y-2274429D01*
X2923571Y-2288714D01*
X2895000Y-2288714D01*
X2866428Y-2274429D01*
X2852143Y-2260143D01*
X2837857Y-2231572D01*
X2823571Y-2174429D01*
X2823571Y-2103000D01*
X2837857Y-2045857D01*
X2852143Y-2017286D01*
X2866428Y-2003000D01*
X2895000Y-1988714D01*
X3123571Y-2260143D02*
X3137857Y-2274429D01*
X3123571Y-2288714D01*
X3109286Y-2274429D01*
X3123571Y-2260143D01*
X3123571Y-2288714D01*
X3323571Y-1988714D02*
X3352143Y-1988714D01*
X3380714Y-2003000D01*
X3395000Y-2017286D01*
X3409285Y-2045857D01*
X3423571Y-2103000D01*
X3423571Y-2174429D01*
X3409285Y-2231572D01*
X3395000Y-2260143D01*
X3380714Y-2274429D01*
X3352143Y-2288714D01*
X3323571Y-2288714D01*
X3295000Y-2274429D01*
X3280714Y-2260143D01*
X3266428Y-2231572D01*
X3252143Y-2174429D01*
X3252143Y-2103000D01*
X3266428Y-2045857D01*
X3280714Y-2017286D01*
X3295000Y-2003000D01*
X3323571Y-1988714D01*
X3523571Y-1988714D02*
X3709285Y-1988714D01*
X3609285Y-2103000D01*
X3652143Y-2103000D01*
X3680714Y-2117286D01*
X3695000Y-2131572D01*
X3709285Y-2160143D01*
X3709285Y-2231572D01*
X3695000Y-2260143D01*
X3680714Y-2274429D01*
X3652143Y-2288714D01*
X3566428Y-2288714D01*
X3537857Y-2274429D01*
X3523571Y-2260143D01*
X3823571Y-2017286D02*
X3837857Y-2003000D01*
X3866428Y-1988714D01*
X3937857Y-1988714D01*
X3966428Y-2003000D01*
X3980714Y-2017286D01*
X3995000Y-2045857D01*
X3995000Y-2074429D01*
X3980714Y-2117286D01*
X3809285Y-2288714D01*
X3995000Y-2288714D01*
X4109286Y-1988714D02*
X4109286Y-2045857D01*
X4223571Y-1988714D02*
X4223571Y-2045857D01*
X4666428Y-2403000D02*
X4652143Y-2388714D01*
X4623571Y-2345857D01*
X4609286Y-2317286D01*
X4595000Y-2274429D01*
X4580714Y-2203000D01*
X4580714Y-2145857D01*
X4595000Y-2074429D01*
X4609286Y-2031571D01*
X4623571Y-2003000D01*
X4652143Y-1960143D01*
X4666428Y-1945857D01*
X4909286Y-2088714D02*
X4909286Y-2288714D01*
X4837857Y-1974429D02*
X4766428Y-2188714D01*
X4952143Y-2188714D01*
X5295000Y-2288714D02*
X5295000Y-1988714D01*
X5423571Y-2288714D02*
X5423571Y-2131572D01*
X5409286Y-2103000D01*
X5380714Y-2088714D01*
X5337857Y-2088714D01*
X5309286Y-2103000D01*
X5295000Y-2117286D01*
X5609285Y-2288714D02*
X5580714Y-2274429D01*
X5566428Y-2260143D01*
X5552143Y-2231572D01*
X5552143Y-2145857D01*
X5566428Y-2117286D01*
X5580714Y-2103000D01*
X5609285Y-2088714D01*
X5652143Y-2088714D01*
X5680714Y-2103000D01*
X5695000Y-2117286D01*
X5709285Y-2145857D01*
X5709285Y-2231572D01*
X5695000Y-2260143D01*
X5680714Y-2274429D01*
X5652143Y-2288714D01*
X5609285Y-2288714D01*
X5880714Y-2288714D02*
X5852143Y-2274429D01*
X5837857Y-2245857D01*
X5837857Y-1988714D01*
X6109286Y-2274429D02*
X6080714Y-2288714D01*
X6023571Y-2288714D01*
X5995000Y-2274429D01*
X5980714Y-2245857D01*
X5980714Y-2131572D01*
X5995000Y-2103000D01*
X6023571Y-2088714D01*
X6080714Y-2088714D01*
X6109286Y-2103000D01*
X6123571Y-2131572D01*
X6123571Y-2160143D01*
X5980714Y-2188714D01*
X6237857Y-2274429D02*
X6266428Y-2288714D01*
X6323571Y-2288714D01*
X6352143Y-2274429D01*
X6366428Y-2245857D01*
X6366428Y-2231572D01*
X6352143Y-2203000D01*
X6323571Y-2188714D01*
X6280714Y-2188714D01*
X6252143Y-2174429D01*
X6237857Y-2145857D01*
X6237857Y-2131572D01*
X6252143Y-2103000D01*
X6280714Y-2088714D01*
X6323571Y-2088714D01*
X6352143Y-2103000D01*
X6466428Y-2403000D02*
X6480714Y-2388714D01*
X6509286Y-2345857D01*
X6523571Y-2317286D01*
X6537857Y-2274429D01*
X6552143Y-2203000D01*
X6552143Y-2145857D01*
X6537857Y-2074429D01*
X6523571Y-2031571D01*
X6509286Y-2003000D01*
X6480714Y-1960143D01*
X6466428Y-1945857D01*
X-55000Y-2599000D02*
X-5000Y-2549000D01*
X-55000Y-2499000D01*
X-105000Y-2549000D01*
X-55000Y-2599000D01*
X423571Y-2684714D02*
X252143Y-2684714D01*
X337857Y-2684714D02*
X337857Y-2384714D01*
X309286Y-2427572D01*
X280714Y-2456143D01*
X252143Y-2470429D01*
X552143Y-2656143D02*
X566429Y-2670429D01*
X552143Y-2684714D01*
X537857Y-2670429D01*
X552143Y-2656143D01*
X552143Y-2684714D01*
X752143Y-2384714D02*
X780714Y-2384714D01*
X809286Y-2399000D01*
X823571Y-2413286D01*
X837857Y-2441857D01*
X852143Y-2499000D01*
X852143Y-2570429D01*
X837857Y-2627572D01*
X823571Y-2656143D01*
X809286Y-2670429D01*
X780714Y-2684714D01*
X752143Y-2684714D01*
X723571Y-2670429D01*
X709286Y-2656143D01*
X695000Y-2627572D01*
X680714Y-2570429D01*
X680714Y-2499000D01*
X695000Y-2441857D01*
X709286Y-2413286D01*
X723571Y-2399000D01*
X752143Y-2384714D01*
X1037857Y-2384714D02*
X1066429Y-2384714D01*
X1095000Y-2399000D01*
X1109286Y-2413286D01*
X1123571Y-2441857D01*
X1137857Y-2499000D01*
X1137857Y-2570429D01*
X1123571Y-2627572D01*
X1109286Y-2656143D01*
X1095000Y-2670429D01*
X1066429Y-2684714D01*
X1037857Y-2684714D01*
X1009286Y-2670429D01*
X995000Y-2656143D01*
X980714Y-2627572D01*
X966428Y-2570429D01*
X966428Y-2499000D01*
X980714Y-2441857D01*
X995000Y-2413286D01*
X1009286Y-2399000D01*
X1037857Y-2384714D01*
X1266429Y-2684714D02*
X1266429Y-2484714D01*
X1266429Y-2513286D02*
X1280714Y-2499000D01*
X1309286Y-2484714D01*
X1352143Y-2484714D01*
X1380714Y-2499000D01*
X1395000Y-2527572D01*
X1395000Y-2684714D01*
X1395000Y-2527572D02*
X1409286Y-2499000D01*
X1437857Y-2484714D01*
X1480714Y-2484714D01*
X1509286Y-2499000D01*
X1523571Y-2527572D01*
X1523571Y-2684714D01*
X1666428Y-2684714D02*
X1666428Y-2484714D01*
X1666428Y-2513286D02*
X1680714Y-2499000D01*
X1709286Y-2484714D01*
X1752143Y-2484714D01*
X1780714Y-2499000D01*
X1795000Y-2527572D01*
X1795000Y-2684714D01*
X1795000Y-2527572D02*
X1809286Y-2499000D01*
X1837857Y-2484714D01*
X1880714Y-2484714D01*
X1909286Y-2499000D01*
X1923571Y-2527572D01*
X1923571Y-2684714D01*
X2509286Y-2370429D02*
X2252143Y-2756143D01*
X2895000Y-2384714D02*
X2923571Y-2384714D01*
X2952143Y-2399000D01*
X2966428Y-2413286D01*
X2980714Y-2441857D01*
X2995000Y-2499000D01*
X2995000Y-2570429D01*
X2980714Y-2627572D01*
X2966428Y-2656143D01*
X2952143Y-2670429D01*
X2923571Y-2684714D01*
X2895000Y-2684714D01*
X2866428Y-2670429D01*
X2852143Y-2656143D01*
X2837857Y-2627572D01*
X2823571Y-2570429D01*
X2823571Y-2499000D01*
X2837857Y-2441857D01*
X2852143Y-2413286D01*
X2866428Y-2399000D01*
X2895000Y-2384714D01*
X3123571Y-2656143D02*
X3137857Y-2670429D01*
X3123571Y-2684714D01*
X3109286Y-2670429D01*
X3123571Y-2656143D01*
X3123571Y-2684714D01*
X3323571Y-2384714D02*
X3352143Y-2384714D01*
X3380714Y-2399000D01*
X3395000Y-2413286D01*
X3409285Y-2441857D01*
X3423571Y-2499000D01*
X3423571Y-2570429D01*
X3409285Y-2627572D01*
X3395000Y-2656143D01*
X3380714Y-2670429D01*
X3352143Y-2684714D01*
X3323571Y-2684714D01*
X3295000Y-2670429D01*
X3280714Y-2656143D01*
X3266428Y-2627572D01*
X3252143Y-2570429D01*
X3252143Y-2499000D01*
X3266428Y-2441857D01*
X3280714Y-2413286D01*
X3295000Y-2399000D01*
X3323571Y-2384714D01*
X3523571Y-2384714D02*
X3709285Y-2384714D01*
X3609285Y-2499000D01*
X3652143Y-2499000D01*
X3680714Y-2513286D01*
X3695000Y-2527572D01*
X3709285Y-2556143D01*
X3709285Y-2627572D01*
X3695000Y-2656143D01*
X3680714Y-2670429D01*
X3652143Y-2684714D01*
X3566428Y-2684714D01*
X3537857Y-2670429D01*
X3523571Y-2656143D01*
X3852143Y-2684714D02*
X3909285Y-2684714D01*
X3937857Y-2670429D01*
X3952143Y-2656143D01*
X3980714Y-2613286D01*
X3995000Y-2556143D01*
X3995000Y-2441857D01*
X3980714Y-2413286D01*
X3966428Y-2399000D01*
X3937857Y-2384714D01*
X3880714Y-2384714D01*
X3852143Y-2399000D01*
X3837857Y-2413286D01*
X3823571Y-2441857D01*
X3823571Y-2513286D01*
X3837857Y-2541857D01*
X3852143Y-2556143D01*
X3880714Y-2570429D01*
X3937857Y-2570429D01*
X3966428Y-2556143D01*
X3980714Y-2541857D01*
X3995000Y-2513286D01*
X4109286Y-2384714D02*
X4109286Y-2441857D01*
X4223571Y-2384714D02*
X4223571Y-2441857D01*
X4666428Y-2799000D02*
X4652143Y-2784714D01*
X4623571Y-2741857D01*
X4609286Y-2713286D01*
X4595000Y-2670429D01*
X4580714Y-2599000D01*
X4580714Y-2541857D01*
X4595000Y-2470429D01*
X4609286Y-2427572D01*
X4623571Y-2399000D01*
X4652143Y-2356143D01*
X4666428Y-2341857D01*
X4766428Y-2413286D02*
X4780714Y-2399000D01*
X4809286Y-2384714D01*
X4880714Y-2384714D01*
X4909286Y-2399000D01*
X4923571Y-2413286D01*
X4937857Y-2441857D01*
X4937857Y-2470429D01*
X4923571Y-2513286D01*
X4752143Y-2684714D01*
X4937857Y-2684714D01*
X5295000Y-2684714D02*
X5295000Y-2384714D01*
X5423571Y-2684714D02*
X5423571Y-2527572D01*
X5409286Y-2499000D01*
X5380714Y-2484714D01*
X5337857Y-2484714D01*
X5309286Y-2499000D01*
X5295000Y-2513286D01*
X5609285Y-2684714D02*
X5580714Y-2670429D01*
X5566428Y-2656143D01*
X5552143Y-2627572D01*
X5552143Y-2541857D01*
X5566428Y-2513286D01*
X5580714Y-2499000D01*
X5609285Y-2484714D01*
X5652143Y-2484714D01*
X5680714Y-2499000D01*
X5695000Y-2513286D01*
X5709285Y-2541857D01*
X5709285Y-2627572D01*
X5695000Y-2656143D01*
X5680714Y-2670429D01*
X5652143Y-2684714D01*
X5609285Y-2684714D01*
X5880714Y-2684714D02*
X5852143Y-2670429D01*
X5837857Y-2641857D01*
X5837857Y-2384714D01*
X6109286Y-2670429D02*
X6080714Y-2684714D01*
X6023571Y-2684714D01*
X5995000Y-2670429D01*
X5980714Y-2641857D01*
X5980714Y-2527572D01*
X5995000Y-2499000D01*
X6023571Y-2484714D01*
X6080714Y-2484714D01*
X6109286Y-2499000D01*
X6123571Y-2527572D01*
X6123571Y-2556143D01*
X5980714Y-2584714D01*
X6237857Y-2670429D02*
X6266428Y-2684714D01*
X6323571Y-2684714D01*
X6352143Y-2670429D01*
X6366428Y-2641857D01*
X6366428Y-2627572D01*
X6352143Y-2599000D01*
X6323571Y-2584714D01*
X6280714Y-2584714D01*
X6252143Y-2570429D01*
X6237857Y-2541857D01*
X6237857Y-2527572D01*
X6252143Y-2499000D01*
X6280714Y-2484714D01*
X6323571Y-2484714D01*
X6352143Y-2499000D01*
X6466428Y-2799000D02*
X6480714Y-2784714D01*
X6509286Y-2741857D01*
X6523571Y-2713286D01*
X6537857Y-2670429D01*
X6552143Y-2599000D01*
X6552143Y-2541857D01*
X6537857Y-2470429D01*
X6523571Y-2427572D01*
X6509286Y-2399000D01*
X6480714Y-2356143D01*
X6466428Y-2341857D01*
X-125000Y-2885000D02*
X-5000Y-3005000D01*
X-5000Y-2885000D02*
X-125000Y-3005000D01*
X-5000Y-2945000D02*
G75*
G03X-5000Y-2945000I-60000J0D01*
G01*
X423571Y-3080714D02*
X252143Y-3080714D01*
X337857Y-3080714D02*
X337857Y-2780714D01*
X309286Y-2823571D01*
X280714Y-2852143D01*
X252143Y-2866429D01*
X552143Y-3052143D02*
X566429Y-3066429D01*
X552143Y-3080714D01*
X537857Y-3066429D01*
X552143Y-3052143D01*
X552143Y-3080714D01*
X680714Y-2809286D02*
X695000Y-2795000D01*
X723571Y-2780714D01*
X795000Y-2780714D01*
X823571Y-2795000D01*
X837857Y-2809286D01*
X852143Y-2837857D01*
X852143Y-2866429D01*
X837857Y-2909286D01*
X666428Y-3080714D01*
X852143Y-3080714D01*
X1037857Y-2780714D02*
X1066429Y-2780714D01*
X1095000Y-2795000D01*
X1109286Y-2809286D01*
X1123571Y-2837857D01*
X1137857Y-2895000D01*
X1137857Y-2966429D01*
X1123571Y-3023571D01*
X1109286Y-3052143D01*
X1095000Y-3066429D01*
X1066429Y-3080714D01*
X1037857Y-3080714D01*
X1009286Y-3066429D01*
X995000Y-3052143D01*
X980714Y-3023571D01*
X966428Y-2966429D01*
X966428Y-2895000D01*
X980714Y-2837857D01*
X995000Y-2809286D01*
X1009286Y-2795000D01*
X1037857Y-2780714D01*
X1266429Y-3080714D02*
X1266429Y-2880714D01*
X1266429Y-2909286D02*
X1280714Y-2895000D01*
X1309286Y-2880714D01*
X1352143Y-2880714D01*
X1380714Y-2895000D01*
X1395000Y-2923571D01*
X1395000Y-3080714D01*
X1395000Y-2923571D02*
X1409286Y-2895000D01*
X1437857Y-2880714D01*
X1480714Y-2880714D01*
X1509286Y-2895000D01*
X1523571Y-2923571D01*
X1523571Y-3080714D01*
X1666428Y-3080714D02*
X1666428Y-2880714D01*
X1666428Y-2909286D02*
X1680714Y-2895000D01*
X1709286Y-2880714D01*
X1752143Y-2880714D01*
X1780714Y-2895000D01*
X1795000Y-2923571D01*
X1795000Y-3080714D01*
X1795000Y-2923571D02*
X1809286Y-2895000D01*
X1837857Y-2880714D01*
X1880714Y-2880714D01*
X1909286Y-2895000D01*
X1923571Y-2923571D01*
X1923571Y-3080714D01*
X2509286Y-2766429D02*
X2252143Y-3152143D01*
X2895000Y-2780714D02*
X2923571Y-2780714D01*
X2952143Y-2795000D01*
X2966428Y-2809286D01*
X2980714Y-2837857D01*
X2995000Y-2895000D01*
X2995000Y-2966429D01*
X2980714Y-3023571D01*
X2966428Y-3052143D01*
X2952143Y-3066429D01*
X2923571Y-3080714D01*
X2895000Y-3080714D01*
X2866428Y-3066429D01*
X2852143Y-3052143D01*
X2837857Y-3023571D01*
X2823571Y-2966429D01*
X2823571Y-2895000D01*
X2837857Y-2837857D01*
X2852143Y-2809286D01*
X2866428Y-2795000D01*
X2895000Y-2780714D01*
X3123571Y-3052143D02*
X3137857Y-3066429D01*
X3123571Y-3080714D01*
X3109286Y-3066429D01*
X3123571Y-3052143D01*
X3123571Y-3080714D01*
X3323571Y-2780714D02*
X3352143Y-2780714D01*
X3380714Y-2795000D01*
X3395000Y-2809286D01*
X3409285Y-2837857D01*
X3423571Y-2895000D01*
X3423571Y-2966429D01*
X3409285Y-3023571D01*
X3395000Y-3052143D01*
X3380714Y-3066429D01*
X3352143Y-3080714D01*
X3323571Y-3080714D01*
X3295000Y-3066429D01*
X3280714Y-3052143D01*
X3266428Y-3023571D01*
X3252143Y-2966429D01*
X3252143Y-2895000D01*
X3266428Y-2837857D01*
X3280714Y-2809286D01*
X3295000Y-2795000D01*
X3323571Y-2780714D01*
X3680714Y-2880714D02*
X3680714Y-3080714D01*
X3609285Y-2766429D02*
X3537857Y-2980714D01*
X3723571Y-2980714D01*
X3809285Y-2780714D02*
X4009285Y-2780714D01*
X3880714Y-3080714D01*
X4109286Y-2780714D02*
X4109286Y-2837857D01*
X4223571Y-2780714D02*
X4223571Y-2837857D01*
X4666428Y-3195000D02*
X4652143Y-3180714D01*
X4623571Y-3137857D01*
X4609286Y-3109286D01*
X4595000Y-3066429D01*
X4580714Y-2995000D01*
X4580714Y-2937857D01*
X4595000Y-2866429D01*
X4609286Y-2823571D01*
X4623571Y-2795000D01*
X4652143Y-2752143D01*
X4666428Y-2737857D01*
X4823571Y-2909286D02*
X4795000Y-2895000D01*
X4780714Y-2880714D01*
X4766428Y-2852143D01*
X4766428Y-2837857D01*
X4780714Y-2809286D01*
X4795000Y-2795000D01*
X4823571Y-2780714D01*
X4880714Y-2780714D01*
X4909286Y-2795000D01*
X4923571Y-2809286D01*
X4937857Y-2837857D01*
X4937857Y-2852143D01*
X4923571Y-2880714D01*
X4909286Y-2895000D01*
X4880714Y-2909286D01*
X4823571Y-2909286D01*
X4795000Y-2923571D01*
X4780714Y-2937857D01*
X4766428Y-2966429D01*
X4766428Y-3023571D01*
X4780714Y-3052143D01*
X4795000Y-3066429D01*
X4823571Y-3080714D01*
X4880714Y-3080714D01*
X4909286Y-3066429D01*
X4923571Y-3052143D01*
X4937857Y-3023571D01*
X4937857Y-2966429D01*
X4923571Y-2937857D01*
X4909286Y-2923571D01*
X4880714Y-2909286D01*
X5295000Y-3080714D02*
X5295000Y-2780714D01*
X5423571Y-3080714D02*
X5423571Y-2923571D01*
X5409286Y-2895000D01*
X5380714Y-2880714D01*
X5337857Y-2880714D01*
X5309286Y-2895000D01*
X5295000Y-2909286D01*
X5609285Y-3080714D02*
X5580714Y-3066429D01*
X5566428Y-3052143D01*
X5552143Y-3023571D01*
X5552143Y-2937857D01*
X5566428Y-2909286D01*
X5580714Y-2895000D01*
X5609285Y-2880714D01*
X5652143Y-2880714D01*
X5680714Y-2895000D01*
X5695000Y-2909286D01*
X5709285Y-2937857D01*
X5709285Y-3023571D01*
X5695000Y-3052143D01*
X5680714Y-3066429D01*
X5652143Y-3080714D01*
X5609285Y-3080714D01*
X5880714Y-3080714D02*
X5852143Y-3066429D01*
X5837857Y-3037857D01*
X5837857Y-2780714D01*
X6109286Y-3066429D02*
X6080714Y-3080714D01*
X6023571Y-3080714D01*
X5995000Y-3066429D01*
X5980714Y-3037857D01*
X5980714Y-2923571D01*
X5995000Y-2895000D01*
X6023571Y-2880714D01*
X6080714Y-2880714D01*
X6109286Y-2895000D01*
X6123571Y-2923571D01*
X6123571Y-2952143D01*
X5980714Y-2980714D01*
X6237857Y-3066429D02*
X6266428Y-3080714D01*
X6323571Y-3080714D01*
X6352143Y-3066429D01*
X6366428Y-3037857D01*
X6366428Y-3023571D01*
X6352143Y-2995000D01*
X6323571Y-2980714D01*
X6280714Y-2980714D01*
X6252143Y-2966429D01*
X6237857Y-2937857D01*
X6237857Y-2923571D01*
X6252143Y-2895000D01*
X6280714Y-2880714D01*
X6323571Y-2880714D01*
X6352143Y-2895000D01*
X6466428Y-3195000D02*
X6480714Y-3180714D01*
X6509286Y-3137857D01*
X6523571Y-3109286D01*
X6537857Y-3066429D01*
X6552143Y-2995000D01*
X6552143Y-2937857D01*
X6537857Y-2866429D01*
X6523571Y-2823571D01*
X6509286Y-2795000D01*
X6480714Y-2752143D01*
X6466428Y-2737857D01*
X-235000Y-3226000D02*
X-5000Y-3456000D01*
X-5000Y-3226000D02*
X-235000Y-3456000D01*
X-120000Y-3226000D02*
X-120000Y-3456000D01*
X-235000Y-3341000D02*
X-5000Y-3341000D01*
X252143Y-3205286D02*
X266429Y-3191000D01*
X295000Y-3176714D01*
X366428Y-3176714D01*
X395000Y-3191000D01*
X409286Y-3205286D01*
X423571Y-3233857D01*
X423571Y-3262429D01*
X409286Y-3305286D01*
X237857Y-3476714D01*
X423571Y-3476714D01*
X552143Y-3448143D02*
X566429Y-3462429D01*
X552143Y-3476714D01*
X537857Y-3462429D01*
X552143Y-3448143D01*
X552143Y-3476714D01*
X666428Y-3176714D02*
X852143Y-3176714D01*
X752143Y-3291000D01*
X795000Y-3291000D01*
X823571Y-3305286D01*
X837857Y-3319571D01*
X852143Y-3348143D01*
X852143Y-3419571D01*
X837857Y-3448143D01*
X823571Y-3462429D01*
X795000Y-3476714D01*
X709286Y-3476714D01*
X680714Y-3462429D01*
X666428Y-3448143D01*
X1037857Y-3176714D02*
X1066429Y-3176714D01*
X1095000Y-3191000D01*
X1109286Y-3205286D01*
X1123571Y-3233857D01*
X1137857Y-3291000D01*
X1137857Y-3362429D01*
X1123571Y-3419571D01*
X1109286Y-3448143D01*
X1095000Y-3462429D01*
X1066429Y-3476714D01*
X1037857Y-3476714D01*
X1009286Y-3462429D01*
X995000Y-3448143D01*
X980714Y-3419571D01*
X966428Y-3362429D01*
X966428Y-3291000D01*
X980714Y-3233857D01*
X995000Y-3205286D01*
X1009286Y-3191000D01*
X1037857Y-3176714D01*
X1266429Y-3476714D02*
X1266429Y-3276714D01*
X1266429Y-3305286D02*
X1280714Y-3291000D01*
X1309286Y-3276714D01*
X1352143Y-3276714D01*
X1380714Y-3291000D01*
X1395000Y-3319571D01*
X1395000Y-3476714D01*
X1395000Y-3319571D02*
X1409286Y-3291000D01*
X1437857Y-3276714D01*
X1480714Y-3276714D01*
X1509286Y-3291000D01*
X1523571Y-3319571D01*
X1523571Y-3476714D01*
X1666428Y-3476714D02*
X1666428Y-3276714D01*
X1666428Y-3305286D02*
X1680714Y-3291000D01*
X1709286Y-3276714D01*
X1752143Y-3276714D01*
X1780714Y-3291000D01*
X1795000Y-3319571D01*
X1795000Y-3476714D01*
X1795000Y-3319571D02*
X1809286Y-3291000D01*
X1837857Y-3276714D01*
X1880714Y-3276714D01*
X1909286Y-3291000D01*
X1923571Y-3319571D01*
X1923571Y-3476714D01*
X2509286Y-3162429D02*
X2252143Y-3548143D01*
X2895000Y-3176714D02*
X2923571Y-3176714D01*
X2952143Y-3191000D01*
X2966428Y-3205286D01*
X2980714Y-3233857D01*
X2995000Y-3291000D01*
X2995000Y-3362429D01*
X2980714Y-3419571D01*
X2966428Y-3448143D01*
X2952143Y-3462429D01*
X2923571Y-3476714D01*
X2895000Y-3476714D01*
X2866428Y-3462429D01*
X2852143Y-3448143D01*
X2837857Y-3419571D01*
X2823571Y-3362429D01*
X2823571Y-3291000D01*
X2837857Y-3233857D01*
X2852143Y-3205286D01*
X2866428Y-3191000D01*
X2895000Y-3176714D01*
X3123571Y-3448143D02*
X3137857Y-3462429D01*
X3123571Y-3476714D01*
X3109286Y-3462429D01*
X3123571Y-3448143D01*
X3123571Y-3476714D01*
X3323571Y-3176714D02*
X3352143Y-3176714D01*
X3380714Y-3191000D01*
X3395000Y-3205286D01*
X3409285Y-3233857D01*
X3423571Y-3291000D01*
X3423571Y-3362429D01*
X3409285Y-3419571D01*
X3395000Y-3448143D01*
X3380714Y-3462429D01*
X3352143Y-3476714D01*
X3323571Y-3476714D01*
X3295000Y-3462429D01*
X3280714Y-3448143D01*
X3266428Y-3419571D01*
X3252143Y-3362429D01*
X3252143Y-3291000D01*
X3266428Y-3233857D01*
X3280714Y-3205286D01*
X3295000Y-3191000D01*
X3323571Y-3176714D01*
X3566428Y-3476714D02*
X3623571Y-3476714D01*
X3652143Y-3462429D01*
X3666428Y-3448143D01*
X3695000Y-3405286D01*
X3709285Y-3348143D01*
X3709285Y-3233857D01*
X3695000Y-3205286D01*
X3680714Y-3191000D01*
X3652143Y-3176714D01*
X3595000Y-3176714D01*
X3566428Y-3191000D01*
X3552143Y-3205286D01*
X3537857Y-3233857D01*
X3537857Y-3305286D01*
X3552143Y-3333857D01*
X3566428Y-3348143D01*
X3595000Y-3362429D01*
X3652143Y-3362429D01*
X3680714Y-3348143D01*
X3695000Y-3333857D01*
X3709285Y-3305286D01*
X3995000Y-3476714D02*
X3823571Y-3476714D01*
X3909285Y-3476714D02*
X3909285Y-3176714D01*
X3880714Y-3219571D01*
X3852143Y-3248143D01*
X3823571Y-3262429D01*
X4109286Y-3176714D02*
X4109286Y-3233857D01*
X4223571Y-3176714D02*
X4223571Y-3233857D01*
X4666428Y-3591000D02*
X4652143Y-3576714D01*
X4623571Y-3533857D01*
X4609286Y-3505286D01*
X4595000Y-3462429D01*
X4580714Y-3391000D01*
X4580714Y-3333857D01*
X4595000Y-3262429D01*
X4609286Y-3219571D01*
X4623571Y-3191000D01*
X4652143Y-3148143D01*
X4666428Y-3133857D01*
X4766428Y-3205286D02*
X4780714Y-3191000D01*
X4809286Y-3176714D01*
X4880714Y-3176714D01*
X4909286Y-3191000D01*
X4923571Y-3205286D01*
X4937857Y-3233857D01*
X4937857Y-3262429D01*
X4923571Y-3305286D01*
X4752143Y-3476714D01*
X4937857Y-3476714D01*
X5295000Y-3476714D02*
X5295000Y-3176714D01*
X5423571Y-3476714D02*
X5423571Y-3319571D01*
X5409286Y-3291000D01*
X5380714Y-3276714D01*
X5337857Y-3276714D01*
X5309286Y-3291000D01*
X5295000Y-3305286D01*
X5609285Y-3476714D02*
X5580714Y-3462429D01*
X5566428Y-3448143D01*
X5552143Y-3419571D01*
X5552143Y-3333857D01*
X5566428Y-3305286D01*
X5580714Y-3291000D01*
X5609285Y-3276714D01*
X5652143Y-3276714D01*
X5680714Y-3291000D01*
X5695000Y-3305286D01*
X5709285Y-3333857D01*
X5709285Y-3419571D01*
X5695000Y-3448143D01*
X5680714Y-3462429D01*
X5652143Y-3476714D01*
X5609285Y-3476714D01*
X5880714Y-3476714D02*
X5852143Y-3462429D01*
X5837857Y-3433857D01*
X5837857Y-3176714D01*
X6109286Y-3462429D02*
X6080714Y-3476714D01*
X6023571Y-3476714D01*
X5995000Y-3462429D01*
X5980714Y-3433857D01*
X5980714Y-3319571D01*
X5995000Y-3291000D01*
X6023571Y-3276714D01*
X6080714Y-3276714D01*
X6109286Y-3291000D01*
X6123571Y-3319571D01*
X6123571Y-3348143D01*
X5980714Y-3376714D01*
X6237857Y-3462429D02*
X6266428Y-3476714D01*
X6323571Y-3476714D01*
X6352143Y-3462429D01*
X6366428Y-3433857D01*
X6366428Y-3419571D01*
X6352143Y-3391000D01*
X6323571Y-3376714D01*
X6280714Y-3376714D01*
X6252143Y-3362429D01*
X6237857Y-3333857D01*
X6237857Y-3319571D01*
X6252143Y-3291000D01*
X6280714Y-3276714D01*
X6323571Y-3276714D01*
X6352143Y-3291000D01*
X6466428Y-3591000D02*
X6480714Y-3576714D01*
X6509286Y-3533857D01*
X6523571Y-3505286D01*
X6537857Y-3462429D01*
X6552143Y-3391000D01*
X6552143Y-3333857D01*
X6537857Y-3262429D01*
X6523571Y-3219571D01*
X6509286Y-3191000D01*
X6480714Y-3148143D01*
X6466428Y-3133857D01*
X-255000Y-3612000D02*
X-5000Y-3862000D01*
X-5000Y-3612000D02*
X-255000Y-3862000D01*
X-41611Y-3825389D02*
X-41611Y-3648611D01*
X-218389Y-3648611D01*
X-218389Y-3825389D01*
X-41611Y-3825389D01*
X252143Y-3601286D02*
X266429Y-3587000D01*
X295000Y-3572714D01*
X366428Y-3572714D01*
X395000Y-3587000D01*
X409286Y-3601286D01*
X423571Y-3629857D01*
X423571Y-3658429D01*
X409286Y-3701286D01*
X237857Y-3872714D01*
X423571Y-3872714D01*
X552143Y-3844143D02*
X566429Y-3858429D01*
X552143Y-3872714D01*
X537857Y-3858429D01*
X552143Y-3844143D01*
X552143Y-3872714D01*
X837857Y-3572714D02*
X695000Y-3572714D01*
X680714Y-3715571D01*
X695000Y-3701286D01*
X723571Y-3687000D01*
X795000Y-3687000D01*
X823571Y-3701286D01*
X837857Y-3715571D01*
X852143Y-3744143D01*
X852143Y-3815571D01*
X837857Y-3844143D01*
X823571Y-3858429D01*
X795000Y-3872714D01*
X723571Y-3872714D01*
X695000Y-3858429D01*
X680714Y-3844143D01*
X1037857Y-3572714D02*
X1066429Y-3572714D01*
X1095000Y-3587000D01*
X1109286Y-3601286D01*
X1123571Y-3629857D01*
X1137857Y-3687000D01*
X1137857Y-3758429D01*
X1123571Y-3815571D01*
X1109286Y-3844143D01*
X1095000Y-3858429D01*
X1066429Y-3872714D01*
X1037857Y-3872714D01*
X1009286Y-3858429D01*
X995000Y-3844143D01*
X980714Y-3815571D01*
X966428Y-3758429D01*
X966428Y-3687000D01*
X980714Y-3629857D01*
X995000Y-3601286D01*
X1009286Y-3587000D01*
X1037857Y-3572714D01*
X1266429Y-3872714D02*
X1266429Y-3672714D01*
X1266429Y-3701286D02*
X1280714Y-3687000D01*
X1309286Y-3672714D01*
X1352143Y-3672714D01*
X1380714Y-3687000D01*
X1395000Y-3715571D01*
X1395000Y-3872714D01*
X1395000Y-3715571D02*
X1409286Y-3687000D01*
X1437857Y-3672714D01*
X1480714Y-3672714D01*
X1509286Y-3687000D01*
X1523571Y-3715571D01*
X1523571Y-3872714D01*
X1666428Y-3872714D02*
X1666428Y-3672714D01*
X1666428Y-3701286D02*
X1680714Y-3687000D01*
X1709286Y-3672714D01*
X1752143Y-3672714D01*
X1780714Y-3687000D01*
X1795000Y-3715571D01*
X1795000Y-3872714D01*
X1795000Y-3715571D02*
X1809286Y-3687000D01*
X1837857Y-3672714D01*
X1880714Y-3672714D01*
X1909286Y-3687000D01*
X1923571Y-3715571D01*
X1923571Y-3872714D01*
X2509286Y-3558429D02*
X2252143Y-3944143D01*
X2895000Y-3572714D02*
X2923571Y-3572714D01*
X2952143Y-3587000D01*
X2966428Y-3601286D01*
X2980714Y-3629857D01*
X2995000Y-3687000D01*
X2995000Y-3758429D01*
X2980714Y-3815571D01*
X2966428Y-3844143D01*
X2952143Y-3858429D01*
X2923571Y-3872714D01*
X2895000Y-3872714D01*
X2866428Y-3858429D01*
X2852143Y-3844143D01*
X2837857Y-3815571D01*
X2823571Y-3758429D01*
X2823571Y-3687000D01*
X2837857Y-3629857D01*
X2852143Y-3601286D01*
X2866428Y-3587000D01*
X2895000Y-3572714D01*
X3123571Y-3844143D02*
X3137857Y-3858429D01*
X3123571Y-3872714D01*
X3109286Y-3858429D01*
X3123571Y-3844143D01*
X3123571Y-3872714D01*
X3323571Y-3572714D02*
X3352143Y-3572714D01*
X3380714Y-3587000D01*
X3395000Y-3601286D01*
X3409285Y-3629857D01*
X3423571Y-3687000D01*
X3423571Y-3758429D01*
X3409285Y-3815571D01*
X3395000Y-3844143D01*
X3380714Y-3858429D01*
X3352143Y-3872714D01*
X3323571Y-3872714D01*
X3295000Y-3858429D01*
X3280714Y-3844143D01*
X3266428Y-3815571D01*
X3252143Y-3758429D01*
X3252143Y-3687000D01*
X3266428Y-3629857D01*
X3280714Y-3601286D01*
X3295000Y-3587000D01*
X3323571Y-3572714D01*
X3566428Y-3872714D02*
X3623571Y-3872714D01*
X3652143Y-3858429D01*
X3666428Y-3844143D01*
X3695000Y-3801286D01*
X3709285Y-3744143D01*
X3709285Y-3629857D01*
X3695000Y-3601286D01*
X3680714Y-3587000D01*
X3652143Y-3572714D01*
X3595000Y-3572714D01*
X3566428Y-3587000D01*
X3552143Y-3601286D01*
X3537857Y-3629857D01*
X3537857Y-3701286D01*
X3552143Y-3729857D01*
X3566428Y-3744143D01*
X3595000Y-3758429D01*
X3652143Y-3758429D01*
X3680714Y-3744143D01*
X3695000Y-3729857D01*
X3709285Y-3701286D01*
X3880714Y-3701286D02*
X3852143Y-3687000D01*
X3837857Y-3672714D01*
X3823571Y-3644143D01*
X3823571Y-3629857D01*
X3837857Y-3601286D01*
X3852143Y-3587000D01*
X3880714Y-3572714D01*
X3937857Y-3572714D01*
X3966428Y-3587000D01*
X3980714Y-3601286D01*
X3995000Y-3629857D01*
X3995000Y-3644143D01*
X3980714Y-3672714D01*
X3966428Y-3687000D01*
X3937857Y-3701286D01*
X3880714Y-3701286D01*
X3852143Y-3715571D01*
X3837857Y-3729857D01*
X3823571Y-3758429D01*
X3823571Y-3815571D01*
X3837857Y-3844143D01*
X3852143Y-3858429D01*
X3880714Y-3872714D01*
X3937857Y-3872714D01*
X3966428Y-3858429D01*
X3980714Y-3844143D01*
X3995000Y-3815571D01*
X3995000Y-3758429D01*
X3980714Y-3729857D01*
X3966428Y-3715571D01*
X3937857Y-3701286D01*
X4109286Y-3572714D02*
X4109286Y-3629857D01*
X4223571Y-3572714D02*
X4223571Y-3629857D01*
X4666428Y-3987000D02*
X4652143Y-3972714D01*
X4623571Y-3929857D01*
X4609286Y-3901286D01*
X4595000Y-3858429D01*
X4580714Y-3787000D01*
X4580714Y-3729857D01*
X4595000Y-3658429D01*
X4609286Y-3615571D01*
X4623571Y-3587000D01*
X4652143Y-3544143D01*
X4666428Y-3529857D01*
X4923571Y-3572714D02*
X4780714Y-3572714D01*
X4766428Y-3715571D01*
X4780714Y-3701286D01*
X4809286Y-3687000D01*
X4880714Y-3687000D01*
X4909286Y-3701286D01*
X4923571Y-3715571D01*
X4937857Y-3744143D01*
X4937857Y-3815571D01*
X4923571Y-3844143D01*
X4909286Y-3858429D01*
X4880714Y-3872714D01*
X4809286Y-3872714D01*
X4780714Y-3858429D01*
X4766428Y-3844143D01*
X5295000Y-3872714D02*
X5295000Y-3572714D01*
X5423571Y-3872714D02*
X5423571Y-3715571D01*
X5409286Y-3687000D01*
X5380714Y-3672714D01*
X5337857Y-3672714D01*
X5309286Y-3687000D01*
X5295000Y-3701286D01*
X5609285Y-3872714D02*
X5580714Y-3858429D01*
X5566428Y-3844143D01*
X5552143Y-3815571D01*
X5552143Y-3729857D01*
X5566428Y-3701286D01*
X5580714Y-3687000D01*
X5609285Y-3672714D01*
X5652143Y-3672714D01*
X5680714Y-3687000D01*
X5695000Y-3701286D01*
X5709285Y-3729857D01*
X5709285Y-3815571D01*
X5695000Y-3844143D01*
X5680714Y-3858429D01*
X5652143Y-3872714D01*
X5609285Y-3872714D01*
X5880714Y-3872714D02*
X5852143Y-3858429D01*
X5837857Y-3829857D01*
X5837857Y-3572714D01*
X6109286Y-3858429D02*
X6080714Y-3872714D01*
X6023571Y-3872714D01*
X5995000Y-3858429D01*
X5980714Y-3829857D01*
X5980714Y-3715571D01*
X5995000Y-3687000D01*
X6023571Y-3672714D01*
X6080714Y-3672714D01*
X6109286Y-3687000D01*
X6123571Y-3715571D01*
X6123571Y-3744143D01*
X5980714Y-3772714D01*
X6237857Y-3858429D02*
X6266428Y-3872714D01*
X6323571Y-3872714D01*
X6352143Y-3858429D01*
X6366428Y-3829857D01*
X6366428Y-3815571D01*
X6352143Y-3787000D01*
X6323571Y-3772714D01*
X6280714Y-3772714D01*
X6252143Y-3758429D01*
X6237857Y-3729857D01*
X6237857Y-3715571D01*
X6252143Y-3687000D01*
X6280714Y-3672714D01*
X6323571Y-3672714D01*
X6352143Y-3687000D01*
X6466428Y-3987000D02*
X6480714Y-3972714D01*
X6509286Y-3929857D01*
X6523571Y-3901286D01*
X6537857Y-3858429D01*
X6552143Y-3787000D01*
X6552143Y-3729857D01*
X6537857Y-3658429D01*
X6523571Y-3615571D01*
X6509286Y-3587000D01*
X6480714Y-3544143D01*
X6466428Y-3529857D01*
X7009286Y-3987000D02*
X6995000Y-3972714D01*
X6966428Y-3929857D01*
X6952143Y-3901286D01*
X6937857Y-3858429D01*
X6923571Y-3787000D01*
X6923571Y-3729857D01*
X6937857Y-3658429D01*
X6952143Y-3615571D01*
X6966428Y-3587000D01*
X6995000Y-3544143D01*
X7009286Y-3529857D01*
X7123571Y-3672714D02*
X7123571Y-3872714D01*
X7123571Y-3701286D02*
X7137857Y-3687000D01*
X7166428Y-3672714D01*
X7209286Y-3672714D01*
X7237857Y-3687000D01*
X7252143Y-3715571D01*
X7252143Y-3872714D01*
X7437857Y-3872714D02*
X7409286Y-3858429D01*
X7395000Y-3844143D01*
X7380714Y-3815571D01*
X7380714Y-3729857D01*
X7395000Y-3701286D01*
X7409286Y-3687000D01*
X7437857Y-3672714D01*
X7480714Y-3672714D01*
X7509286Y-3687000D01*
X7523571Y-3701286D01*
X7537857Y-3729857D01*
X7537857Y-3815571D01*
X7523571Y-3844143D01*
X7509286Y-3858429D01*
X7480714Y-3872714D01*
X7437857Y-3872714D01*
X7623571Y-3672714D02*
X7737857Y-3672714D01*
X7666428Y-3572714D02*
X7666428Y-3829857D01*
X7680714Y-3858429D01*
X7709286Y-3872714D01*
X7737857Y-3872714D01*
X8066428Y-3672714D02*
X8066428Y-3972714D01*
X8066428Y-3687000D02*
X8095000Y-3672714D01*
X8152143Y-3672714D01*
X8180714Y-3687000D01*
X8195000Y-3701286D01*
X8209286Y-3729857D01*
X8209286Y-3815571D01*
X8195000Y-3844143D01*
X8180714Y-3858429D01*
X8152143Y-3872714D01*
X8095000Y-3872714D01*
X8066428Y-3858429D01*
X8380714Y-3872714D02*
X8352143Y-3858429D01*
X8337857Y-3829857D01*
X8337857Y-3572714D01*
X8623571Y-3872714D02*
X8623571Y-3715571D01*
X8609286Y-3687000D01*
X8580714Y-3672714D01*
X8523571Y-3672714D01*
X8495000Y-3687000D01*
X8623571Y-3858429D02*
X8595000Y-3872714D01*
X8523571Y-3872714D01*
X8495000Y-3858429D01*
X8480714Y-3829857D01*
X8480714Y-3801286D01*
X8495000Y-3772714D01*
X8523571Y-3758429D01*
X8595000Y-3758429D01*
X8623571Y-3744143D01*
X8723571Y-3672714D02*
X8837857Y-3672714D01*
X8766429Y-3572714D02*
X8766429Y-3829857D01*
X8780714Y-3858429D01*
X8809286Y-3872714D01*
X8837857Y-3872714D01*
X9052143Y-3858429D02*
X9023572Y-3872714D01*
X8966429Y-3872714D01*
X8937857Y-3858429D01*
X8923572Y-3829857D01*
X8923572Y-3715571D01*
X8937857Y-3687000D01*
X8966429Y-3672714D01*
X9023572Y-3672714D01*
X9052143Y-3687000D01*
X9066429Y-3715571D01*
X9066429Y-3744143D01*
X8923572Y-3772714D01*
X9323572Y-3872714D02*
X9323572Y-3572714D01*
X9323572Y-3858429D02*
X9295000Y-3872714D01*
X9237857Y-3872714D01*
X9209286Y-3858429D01*
X9195000Y-3844143D01*
X9180714Y-3815571D01*
X9180714Y-3729857D01*
X9195000Y-3701286D01*
X9209286Y-3687000D01*
X9237857Y-3672714D01*
X9295000Y-3672714D01*
X9323572Y-3687000D01*
X9437857Y-3987000D02*
X9452143Y-3972714D01*
X9480714Y-3929857D01*
X9495000Y-3901286D01*
X9509286Y-3858429D01*
X9523572Y-3787000D01*
X9523572Y-3729857D01*
X9509286Y-3658429D01*
X9495000Y-3615571D01*
X9480714Y-3587000D01*
X9452143Y-3544143D01*
X9437857Y-3529857D01*
M02*
